  0
SECTION
  2
HEADER
  9
$ACADVER
  1
AC1015
  9
$ACADMAINTVER
 70
     6
  9
$DWGCODEPAGE
  3
ANSI_1252
  9
$INSBASE
 10
0.0
 20
0.0
 30
0.0
  9
$EXTMIN
 10
0.0
 20
0.0
 30
0.0
  9
$EXTMAX
 10
1134.574585
 20
769.989746
 30
2.0
  9
$LIMMIN
 10
0.0
 20
0.0
  9
$LIMMAX
 10
420.0
 20
297.0
  9
$ORTHOMODE
 70
     0
  9
$REGENMODE
 70
     1
  9
$FILLMODE
 70
     1
  9
$QTEXTMODE
 70
     0
  9
$MIRRTEXT
 70
     1
  9
$LTSCALE
 40
1.0
  9
$ATTMODE
 70
     1
  9
$TEXTSIZE
 40
2.5
  9
$TRACEWID
 40
1.0
  9
$TEXTSTYLE
  7
Standard
  9
$CLAYER
  8
0
  9
$CELTYPE
  6
ByLayer
  9
$CECOLOR
 62
   256
  9
$CELTSCALE
 40
1.0
  9
$DISPSILH
 70
     0
  9
$DIMSCALE
 40
1.0
  9
$DIMASZ
 40
2.5
  9
$DIMEXO
 40
0.625
  9
$DIMDLI
 40
3.75
  9
$DIMRND
 40
0.0
  9
$DIMDLE
 40
0.0
  9
$DIMEXE
 40
1.25
  9
$DIMTP
 40
0.0
  9
$DIMTM
 40
0.0
  9
$DIMTXT
 40
2.5
  9
$DIMCEN
 40
2.5
  9
$DIMTSZ
 40
0.0
  9
$DIMTOL
 70
     0
  9
$DIMLIM
 70
     0
  9
$DIMTIH
 70
     0
  9
$DIMTOH
 70
     0
  9
$DIMSE1
 70
     0
  9
$DIMSE2
 70
     0
  9
$DIMTAD
 70
     1
  9
$DIMZIN
 70
     8
  9
$DIMBLK
  1

  9
$DIMASO
 70
     1
  9
$DIMSHO
 70
     1
  9
$DIMPOST
  1

  9
$DIMAPOST
  1

  9
$DIMALT
 70
     0
  9
$DIMALTD
 70
     3
  9
$DIMALTF
 40
0.03937
  9
$DIMLFAC
 40
1.0
  9
$DIMTOFL
 70
     1
  9
$DIMTVP
 40
0.0
  9
$DIMTIX
 70
     0
  9
$DIMSOXD
 70
     0
  9
$DIMSAH
 70
     0
  9
$DIMBLK1
  1

  9
$DIMBLK2
  1

  9
$DIMSTYLE
  2

  9
$DIMCLRD
 70
     0
  9
$DIMCLRE
 70
     0
  9
$DIMCLRT
 70
     0
  9
$DIMTFAC
 40
1.0
  9
$DIMGAP
 40
0.625
  9
$DIMJUST
 70
     0
  9
$DIMSD1
 70
     0
  9
$DIMSD2
 70
     0
  9
$DIMTOLJ
 70
     0
  9
$DIMTZIN
 70
     8
  9
$DIMALTZ
 70
     0
  9
$DIMALTTZ
 70
     0
  9
$DIMUPT
 70
     0
  9
$DIMDEC
 70
     2
  9
$DIMTDEC
 70
     2
  9
$DIMALTU
 70
     2
  9
$DIMALTTD
 70
     3
  9
$DIMTXSTY
  7
Standard
  9
$DIMAUNIT
 70
     0
  9
$DIMADEC
 70
     0
  9
$DIMALTRND
 40
0.0
  9
$DIMAZIN
 70
     0
  9
$DIMDSEP
 70
    44
  9
$DIMATFIT
 70
     0
  9
$DIMFRAC
 70
     0
  9
$DIMLDRBLK
  1

  9
$DIMLUNIT
 70
     2
  9
$DIMLWD
 70
    -2
  9
$DIMLWE
 70
    -2
  9
$DIMTMOVE
 70
     0
  9
$LUNITS
 70
     2
  9
$LUPREC
 70
     4
  9
$SKETCHINC
 40
1.0
  9
$FILLETRAD
 40
2.5
  9
$AUNITS
 70
     0
  9
$AUPREC
 70
     0
  9
$MENU
  1
.
  9
$ELEVATION
 40
0.0
  9
$PELEVATION
 40
0.0
  9
$THICKNESS
 40
0.0
  9
$LIMCHECK
 70
     0
  9
$CHAMFERA
 40
2.5
  9
$CHAMFERB
 40
2.5
  9
$CHAMFERC
 40
0.0
  9
$CHAMFERD
 40
0.0
  9
$SKPOLY
 70
     0
  9
$TDCREATE
 40
0.000000000
  9
$TDUCREATE
 40
0.000000000
  9
$TDUPDATE
 40
0.000000000
  9
$TDUUPDATE
 40
0.000000000
  9
$TDINDWG
 40
0.0000000000
  9
$TDUSRTIMER
 40
0.0000000000
  9
$USRTIMER
 70
     1
  9
$ANGBASE
 50
0.0
  9
$ANGDIR
 70
     0
  9
$PDMODE
 70
     0
  9
$PDSIZE
 40
0.0
  9
$PLINEWID
 40
0.0
  9
$SPLFRAME
 70
     0
  9
$SPLINETYPE
 70
     6
  9
$SPLINESEGS
 70
     8
  9
$HANDSEED
  5
2EC
  9
$SURFTAB1
 70
     6
  9
$SURFTAB2
 70
     6
  9
$SURFTYPE
 70
     6
  9
$SURFU
 70
     6
  9
$SURFV
 70
     6
  9
$UCSBASE
  2

  9
$UCSNAME
  2

  9
$UCSORG
 10
0.0
 20
0.0
 30
0.0
  9
$UCSXDIR
 10
1.0
 20
0.0
 30
0.0
  9
$UCSYDIR
 10
0.0
 20
1.0
 30
0.0
  9
$UCSORTHOREF
  2

  9
$UCSORTHOVIEW
 70
     1
  9
$UCSORGTOP
 10
0.0
 20
0.0
 30
0.0
  9
$UCSORGBOTTOM
 10
0.0
 20
0.0
 30
0.0
  9
$UCSORGLEFT
 10
0.0
 20
0.0
 30
0.0
  9
$UCSORGRIGHT
 10
0.0
 20
0.0
 30
0.0
  9
$UCSORGFRONT
 10
0.0
 20
0.0
 30
0.0
  9
$UCSORGBACK
 10
0.0
 20
0.0
 30
0.0
  9
$PUCSBASE
  2

  9
$PUCSNAME
  2

  9
$PUCSORG
 10
0.0
 20
0.0
 30
0.0
  9
$PUCSXDIR
 10
1.0
 20
0.0
 30
0.0
  9
$PUCSYDIR
 10
0.0
 20
1.0
 30
0.0
  9
$PUCSORTHOREF
  2

  9
$PUCSORTHOVIEW
 70
     0
  9
$PUCSORGTOP
 10
0.0
 20
0.0
 30
0.0
  9
$PUCSORGBOTTOM
 10
0.0
 20
0.0
 30
0.0
  9
$PUCSORGLEFT
 10
0.0
 20
0.0
 30
0.0
  9
$PUCSORGRIGHT
 10
0.0
 20
0.0
 30
0.0
  9
$PUCSORGFRONT
 10
0.0
 20
0.0
 30
0.0
  9
$PUCSORGBACK
 10
0.0
 20
0.0
 30
0.0
  9
$USERI1
 70
     0
  9
$USERI2
 70
     0
  9
$USERI3
 70
     0
  9
$USERI4
 70
     0
  9
$USERI5
 70
     0
  9
$USERR1
 40
0.0
  9
$USERR2
 40
0.0
  9
$USERR3
 40
0.0
  9
$USERR4
 40
0.0
  9
$USERR5
 40
0.0
  9
$WORLDVIEW
 70
     1
  9
$SHADEDGE
 70
     3
  9
$SHADEDIF
 70
    70
  9
$TILEMODE
 70
     1
  9
$MAXACTVP
 70
    48
  9
$PINSBASE
 10
0.0
 20
0.0
 30
0.0
  9
$PLIMCHECK
 70
     0
  9
$PEXTMIN
 10
0.0
 20
0.0
 30
0.0
  9
$PEXTMAX
 10
1134.574585
 20
769.989746
 30
2.0
  9
$PLIMMIN
 10
0.0
 20
0.0
  9
$PLIMMAX
 10
420.0
 20
297.0
  9
$UNITMODE
 70
     0
  9
$VISRETAIN
 70
     0
  9
$PLINEGEN
 70
     0
  9
$PSLTSCALE
 70
     1
  9
$TREEDEPTH
 70
  3020
  9
$CMLSTYLE
  2
Standard
  9
$CMLJUST
 70
     0
  9
$CMLSCALE
 40
20.0
  9
$PROXYGRAPHICS
 70
     1
  9
$MEASUREMENT
 70
     1
  9
$CELWEIGHT
370
    -1
  9
$ENDCAPS
280
     0
  9
$JOINSTYLE
280
     0
  9
$LWDISPLAY
290
     0
  9
$INSUNITS
 70
     0
  9
$HYPERLINKBASE
  1

  9
$STYLESHEET
  1

  9
$XEDIT
290
     1
  9
$CEPSNTYPE
380
     0
  9
$PSTYLEMODE
290
     0
  9
$FINGERPRINTGUID
  2

  9
$VERSIONGUID
  2

  9
$EXTNAMES
290
     0
  9
$PSVPSCALE
 40
0.0
  0
ENDSEC
  0
SECTION
  2
CLASSES
  0
CLASS
  1
LWPOLYLINE
  2
AcDbPolyline
  3
AutoCAD 2000
 90
        0
280
     0
281
     1
  0
CLASS
  1
IMAGE
  2
AcDbRasterImage
  3
ISM
 90
      127
280
     0
281
     1
  0
CLASS
  1
OLE2FRAME
  2
AcDbOle2Frame
  3
AutoCAD 2000
 90
        0
280
     0
281
     1
  0
CLASS
  1
HATCH
  2
AcDbHatch
  3
AutoCAD 2000
 90
        0
280
     0
281
     1
  0
CLASS
  1
DICTIONARYVAR
  2
AcDbDictionaryVar
  3
AutoCAD 2000
 90
        0
280
     0
281
     0
  0
CLASS
  1
RASTERVARIABLES
  2
AcDbRasterVariables
  3
ISM
 90
        0
280
     0
281
     0
  0
CLASS
  1
IMAGEDEF
  2
AcDbRasterImageDef
  3
ISM
 90
        0
280
     0
281
     0
  0
CLASS
  1
IMAGEDEF_REACTOR
  2
AcDbRasterImageDefReactor
  3
ISM
 90
        1
280
     0
281
     0
  0
CLASS
  1
IDBUFFER
  2
AcDbIdBuffer
  3
AutoCAD 2000
 90
        0
280
     0
281
     0
  0
CLASS
  1
SPATIAL_FILTER
  2
AcDbSpatialFilter
  3
AutoCAD 2000
 90
        0
280
     0
281
     0
  0
CLASS
  1
XRECORD
  2
AcDbXrecord
  3
AutoCAD 2000
 90
        0
280
     0
281
     0
  0
CLASS
  1
SORTENTSTABLE
  2
AcDbSortentsTable
  3
AutoCAD 2000
 90
        0
280
     0
281
     0
  0
CLASS
  1
LAYER_INDEX
  2
AcDbLayerIndex
  3
AutoCAD 2000
 90
        0
280
     0
281
     0
  0
CLASS
  1
SPATIAL_INDEX
  2
AcDbSpatialIndex
  3
AutoCAD 2000
 90
        0
280
     0
281
     0
  0
CLASS
  1
OBJECT_PTR
  2
CAseDLPNTableRecord
  3
"ASE-LPNTableRecord"
 90
        1
280
     0
281
     0
  0
CLASS
  1
LAYOUT
  2
AcDbLayout
  3
AutoCAD 2000
 90
        0
280
     0
281
     0
  0
CLASS
  1
PLOTSETTINGS
  2
AcDbPlotSettings
  3
AutoCAD 2000
 90
        0
280
     0
281
     0
  0
CLASS
  1
ACDBDICTIONARYWDFLT
  2
AcDbDictionaryWithDefault
  3
AutoCAD 2000
 90
        0
280
     0
281
     0
  0
CLASS
  1
ACDBPLACEHOLDER
  2
AcDbPlaceHolder
  3
AutoCAD 2000
 90
        0
280
     0
281
     0
  0
CLASS
  1
VBA_PROJECT
  2
AcDbVbaProject
  3
acadvba
 90
        0
280
     0
281
     0
  0
CLASS
  1
WIPEOUT
  2
AcDbWipeout
  3
WipeOut|AutoCAD Express Tool|expresstools@autodesk.com
 90
      127
280
     0
281
     1
  0
CLASS
  1
WIPEOUTVARIABLES
  2
AcDbWipeoutVariables
  3
WipeOut|AutoCAD Express Tool|expresstools@autodesk.com
 90
        0
280
     0
281
     0
  0
CLASS
  1
RTEXT
  2
RText
  3
RText|AutoCAD Express Tool|expresstools@autodesk.com
 90
        0
280
     0
281
     1
  0
CLASS
  1
ARCALIGNEDTEXT
  2
AcDbArcAlignedText
  3
ATEXT|AutoCAD Express Tool|expresstools@autodesk.com
 90
        0
280
     0
281
     1
  0
ENDSEC
  0
SECTION
  2
TABLES
  0
TABLE
  2
VPORT
  5
7
100
AcDbSymbolTable
 70
     1
  0
VPORT
  5
15
100
AcDbSymbolTableRecord
100
AcDbViewportTableRecord
  2
*ACTIVE
 70
     0
 10
0.0
 20
0.0
 11
1.0
 21
1.0
 12
6.591288
 22
4.579184
 13
0.0
 23
0.0
 14
1.0
 24
1.0
 15
0.0
 25
0.0
 16
0.0
 26
0.0
 36
1.0
 17
0.0
 27
0.0
 37
0.0
 40
9.158369
 41
0.688564
 42
50.0
 43
0.0
 44
0.0
 50
0.0
 51
0.0
 71
     0
 72
   100
 73
     1
 74
     1
 75
     0
 76
     0
 77
     0
 78
     0
281
     0
 65
     0
110
0.0
120
0.0
130
0.0
111
1.0
121
0.0
131
0.0
112
0.0
122
1.0
132
0.0
345
0
346
0
 79
     0
146
0.0
  0
ENDTAB
  0
TABLE
  2
LTYPE
  5
4
100
AcDbSymbolTable
 70
     3
  0
LTYPE
  5
11
100
AcDbSymbolTableRecord
100
AcDbLinetypeTableRecord
  2
ByBlock
 70
    64
  3

 72
    65
 73
     0
 40
0.0
  0
LTYPE
  5
12
100
AcDbSymbolTableRecord
100
AcDbLinetypeTableRecord
  2
ByLayer
 70
    64
  3

 72
    65
 73
     0
 40
0.0
  0
LTYPE
  5
13
100
AcDbSymbolTableRecord
100
AcDbLinetypeTableRecord
  2
Continuous
 70
    64
  3
Solid line
 72
    65
 73
     0
 40
0.0
  0
ENDTAB
  0
TABLE
  2
LAYER
  5
2
100
AcDbSymbolTable
 70
     1
  0
LAYER
  5
14
100
AcDbSymbolTableRecord
100
AcDbLayerTableRecord
  2
0
 70
     0
 62
     7
  6
Continuous
290
     1
370
    -3
390
1D
  0
ENDTAB
  0
TABLE
  2
STYLE
  5
3
100
AcDbSymbolTable
 70
     1
  0
STYLE
  5
17
100
AcDbSymbolTableRecord
100
AcDbTextStyleTableRecord
  2
Standard
 70
     0
 40
0.0
 41
1.0
 50
0.0
 71
     0
 42
0.0
  3
txt
  4

  0
ENDTAB
  0
TABLE
  2
VIEW
  5
5
100
AcDbSymbolTable
 70
     0
  0
ENDTAB
  0
TABLE
  2
UCS
  5
6
100
AcDbSymbolTable
 70
     0
  0
ENDTAB
  0
TABLE
  2
APPID
  5
8
100
AcDbSymbolTable
 70
     1
  0
APPID
  5
16
100
AcDbSymbolTableRecord
100
AcDbRegAppTableRecord
  2
ACAD
 70
     0
  0
ENDTAB
  0
TABLE
  2
DIMSTYLE
  5
9
100
AcDbSymbolTable
 70
     1
100
AcDbDimStyleTable
 71
     0
  0
DIMSTYLE
105
18
100
AcDbSymbolTableRecord
100
AcDbDimStyleTableRecord
  2
Standard
 70
     0
  3

  4

 40
1.0
 41
0.18
 42
0.0625
 43
0.38
 44
0.18
 45
0.0
 46
0.0
 47
0.0
 48
0.0
 71
     0
 72
     0
 73
     1
 74
     1
 75
     0
 76
     0
 77
     0
 78
     0
 79
     0
140
0.18
141
0.09
142
0.0
143
25.4
144
1.0
145
0.0
146
1.0
147
0.09
148
0.0
170
     0
171
     2
172
     0
173
     0
174
     0
175
     0
176
     0
177
     0
178
     0
179
     0
271
     4
272
     4
273
     2
274
     2
275
     0
276
     0
277
     2
278
    46
279
     0
280
     0
281
     0
282
     0
283
     1
284
     0
285
     0
286
     0
288
     0
289
     3
340
17
341
0
342
0
343
0
344
0
371
    -2
372
    -2
  0
ENDTAB
  0
TABLE
  2
BLOCK_RECORD
  5
1
100
AcDbSymbolTable
 70
     0
  0
BLOCK_RECORD
  5
A
100
AcDbSymbolTableRecord
100
AcDbBlockTableRecord
  2
*MODEL_SPACE
340
20
  0
BLOCK_RECORD
  5
B
100
AcDbSymbolTableRecord
100
AcDbBlockTableRecord
  2
*PAPER_SPACE
340
21
  0
ENDTAB
  0
ENDSEC
  0
SECTION
  2
BLOCKS
  0
BLOCK
  5
D
100
AcDbEntity
  8
0
390
0
100
AcDbBlockBegin
  2
*MODEL_SPACE
 70
     0
 10
0.0
 20
0.0
 30
0.0
  3
*MODEL_SPACE
  1

  0
ENDBLK
  5
E
100
AcDbEntity
  8
0
390
0
100
AcDbBlockEnd
  0
BLOCK
  5
F
100
AcDbEntity
 67
     1
  8
0
390
0
100
AcDbBlockBegin
  2
*PAPER_SPACE
 70
     0
 10
0.0
 20
0.0
 30
0.0
  3
*PAPER_SPACE
  1

  0
ENDBLK
  5
10
100
AcDbEntity
 67
     1
  8
0
390
0
100
AcDbBlockEnd
  0
ENDSEC
  0
SECTION
  2
ENTITIES
  0
VIEWPORT
  5
2EB
100
AcDbEntity
 67
     1
  8
0
370
     0
390
0
 62
     0
 48
0.0
100
AcDbViewport
 10
0.0
 20
0.0
 30
0.0
 40
1000.0
 41
1000.0
 68
     1
 69
     1
 12
0.0
 22
0.0
 13
0.0
 23
0.0
 14
1.0
 24
1.0
 15
1.0
 25
1.0
 16
0.0
 26
0.0
 36
1.0
 17
0.0
 27
0.0
 37
0.0
 42
50.0
 43
0.0
 44
0.0
 45
1000.0
 50
0.0
 51
0.0
 72
   100
 90
        0
340
0
  1

281
     0
 71
     0
 74
     1
110
0.0
120
0.0
130
0.0
111
1.0
121
0.0
131
0.0
112
0.0
122
1.0
132
0.0
345
0
346
0
 79
     0
146
0.0
  0
LINE
  5
24
100
AcDbEntity
  8
0
370
    35
390
0
 62
     7
 48
0.375
100
AcDbLine
 10
993.665527
 20
480.822021
 30
0.0
 11
993.665527
 21
465.822021
 31
0.0
210
0.0
220
0.0
230
1.0
  0
LINE
  5
25
100
AcDbEntity
  8
0
370
    35
390
0
 62
     7
 48
0.07
100
AcDbLine
 10
993.665527
 20
480.822021
 30
0.0
 11
996.465515
 21
480.822021
 31
0.0
210
0.0
220
0.0
230
1.0
  0
LINE
  5
26
100
AcDbEntity
  8
0
370
    35
390
0
 62
     7
100
AcDbLine
 10
996.465515
 20
505.822021
 30
0.0
 11
996.465515
 21
480.822021
 31
0.0
210
0.0
220
0.0
230
1.0
  0
LINE
  5
27
100
AcDbEntity
  8
0
370
    35
390
0
 62
     7
 48
0.07
100
AcDbLine
 10
993.665527
 20
505.822021
 30
0.0
 11
996.465515
 21
505.822021
 31
0.0
210
0.0
220
0.0
230
1.0
  0
LINE
  5
28
100
AcDbEntity
  8
0
370
    35
390
0
 62
     7
 48
0.375
100
AcDbLine
 10
993.665527
 20
520.822021
 30
0.0
 11
993.665527
 21
505.822021
 31
0.0
210
0.0
220
0.0
230
1.0
  0
LINE
  5
29
100
AcDbEntity
  8
0
370
    35
390
0
 62
     7
100
AcDbLine
 10
993.665527
 20
520.822021
 30
0.0
 11
920.665527
 21
520.822021
 31
0.0
210
0.0
220
0.0
230
1.0
  0
LINE
  5
2A
100
AcDbEntity
  8
0
370
    35
390
0
 62
     7
 48
0.07
100
AcDbLine
 10
920.665527
 20
520.822021
 30
0.0
 11
920.665527
 21
518.022034
 31
0.0
210
0.0
220
0.0
230
1.0
  0
LINE
  5
2B
100
AcDbEntity
  8
0
370
    35
390
0
 62
     7
100
AcDbLine
 10
770.665527
 20
518.022034
 30
0.0
 11
920.665527
 21
518.022034
 31
0.0
210
0.0
220
0.0
230
1.0
  0
LINE
  5
2C
100
AcDbEntity
  8
0
370
    35
390
0
 62
     7
 48
0.07
100
AcDbLine
 10
770.665527
 20
520.822021
 30
0.0
 11
770.665527
 21
518.022034
 31
0.0
210
0.0
220
0.0
230
1.0
  0
LINE
  5
2D
100
AcDbEntity
  8
0
370
    35
390
0
 62
     7
100
AcDbLine
 10
770.665527
 20
520.822021
 30
0.0
 11
697.665527
 21
520.822021
 31
0.0
210
0.0
220
0.0
230
1.0
  0
LINE
  5
2E
100
AcDbEntity
  8
0
370
    35
390
0
 62
     7
 48
0.375
100
AcDbLine
 10
697.665527
 20
505.822021
 30
0.0
 11
697.665527
 21
520.822021
 31
0.0
210
0.0
220
0.0
230
1.0
  0
LINE
  5
2F
100
AcDbEntity
  8
0
370
    35
390
0
 62
     7
 48
0.07
100
AcDbLine
 10
697.665527
 20
505.822021
 30
0.0
 11
694.86554
 21
505.822021
 31
0.0
210
0.0
220
0.0
230
1.0
  0
LINE
  5
30
100
AcDbEntity
  8
0
370
    35
390
0
 62
     7
100
AcDbLine
 10
694.86554
 20
505.822021
 30
0.0
 11
694.86554
 21
480.822021
 31
0.0
210
0.0
220
0.0
230
1.0
  0
LINE
  5
31
100
AcDbEntity
  8
0
370
    35
390
0
 62
     7
 48
0.07
100
AcDbLine
 10
697.665527
 20
480.822021
 30
0.0
 11
694.86554
 21
480.822021
 31
0.0
210
0.0
220
0.0
230
1.0
  0
LINE
  5
32
100
AcDbEntity
  8
0
370
    35
390
0
 62
     7
 48
0.375
100
AcDbLine
 10
697.665527
 20
465.822021
 30
0.0
 11
697.665527
 21
480.822021
 31
0.0
210
0.0
220
0.0
230
1.0
  0
LINE
  5
33
100
AcDbEntity
  8
0
370
    35
390
0
 62
     7
100
AcDbLine
 10
697.665527
 20
465.822021
 30
0.0
 11
770.665527
 21
465.822021
 31
0.0
210
0.0
220
0.0
230
1.0
  0
LINE
  5
34
100
AcDbEntity
  8
0
370
    35
390
0
 62
     7
 48
0.07
100
AcDbLine
 10
770.665527
 20
465.822021
 30
0.0
 11
770.665527
 21
468.622009
 31
0.0
210
0.0
220
0.0
230
1.0
  0
LINE
  5
35
100
AcDbEntity
  8
0
370
    35
390
0
 62
     7
100
AcDbLine
 10
920.665527
 20
468.622009
 30
0.0
 11
770.665527
 21
468.622009
 31
0.0
210
0.0
220
0.0
230
1.0
  0
LINE
  5
36
100
AcDbEntity
  8
0
370
    35
390
0
 62
     7
 48
0.07
100
AcDbLine
 10
920.665527
 20
465.822021
 30
0.0
 11
920.665527
 21
468.622009
 31
0.0
210
0.0
220
0.0
230
1.0
  0
LINE
  5
37
100
AcDbEntity
  8
0
370
    35
390
0
 62
     7
100
AcDbLine
 10
920.665527
 20
465.822021
 30
0.0
 11
993.665527
 21
465.822021
 31
0.0
210
0.0
220
0.0
230
1.0
  0
CIRCLE
  5
38
100
AcDbEntity
  8
0
370
    35
390
0
 62
     7
100
AcDbCircle
 10
960.665527
 20
510.322021
 30
0.0
 40
1.5
210
0.0
220
0.0
230
1.0
  0
CIRCLE
  5
39
100
AcDbEntity
  8
0
370
    35
390
0
 62
     7
100
AcDbCircle
 10
942.665527
 20
510.322021
 30
0.0
 40
1.5
210
0.0
220
0.0
230
1.0
  0
CIRCLE
  5
3A
100
AcDbEntity
  8
0
370
    35
390
0
 62
     7
100
AcDbCircle
 10
748.665527
 20
510.322021
 30
0.0
 40
1.5
210
0.0
220
0.0
230
1.0
  0
CIRCLE
  5
3B
100
AcDbEntity
  8
0
370
    35
390
0
 62
     7
100
AcDbCircle
 10
730.665527
 20
510.322021
 30
0.0
 40
1.5
210
0.0
220
0.0
230
1.0
  0
LINE
  5
3C
100
AcDbEntity
  8
0
370
    35
390
0
 62
     7
100
AcDbLine
 10
770.398621
 20
357.213287
 30
0.0
 11
920.398621
 21
357.213287
 31
0.0
210
0.0
220
0.0
230
1.0
  0
LINE
  5
3D
100
AcDbEntity
  8
0
370
    35
390
0
 62
     7
 48
0.07
100
AcDbLine
 10
920.398621
 20
357.213287
 30
0.0
 11
920.398621
 21
360.013275
 31
0.0
210
0.0
220
0.0
230
1.0
  0
LINE
  5
3E
100
AcDbEntity
  8
0
370
    35
390
0
 62
     7
100
AcDbLine
 10
920.398621
 20
360.013275
 30
0.0
 11
993.398621
 21
360.013275
 31
0.0
210
0.0
220
0.0
230
1.0
  0
LINE
  5
3F
100
AcDbEntity
  8
0
370
    35
390
0
 62
     7
 48
0.305
100
AcDbLine
 10
993.398621
 20
360.013275
 30
0.0
 11
993.398621
 21
372.213287
 31
0.0
210
0.0
220
0.0
230
1.0
  0
LINE
  5
40
100
AcDbEntity
  8
0
370
    35
390
0
 62
     7
 48
0.07
100
AcDbLine
 10
996.198608
 20
372.213287
 30
0.0
 11
993.398621
 21
372.213287
 31
0.0
210
0.0
220
0.0
230
1.0
  0
LINE
  5
41
100
AcDbEntity
  8
0
370
    35
390
0
 62
     7
100
AcDbLine
 10
996.198608
 20
397.213287
 30
0.0
 11
996.198608
 21
372.213287
 31
0.0
210
0.0
220
0.0
230
1.0
  0
LINE
  5
42
100
AcDbEntity
  8
0
370
    35
390
0
 62
     7
 48
0.07
100
AcDbLine
 10
993.398621
 20
397.213287
 30
0.0
 11
996.198608
 21
397.213287
 31
0.0
210
0.0
220
0.0
230
1.0
  0
LINE
  5
43
100
AcDbEntity
  8
0
370
    35
390
0
 62
     7
 48
0.305
100
AcDbLine
 10
993.398621
 20
397.213287
 30
0.0
 11
993.398621
 21
409.4133
 31
0.0
210
0.0
220
0.0
230
1.0
  0
LINE
  5
44
100
AcDbEntity
  8
0
370
    35
390
0
 62
     7
100
AcDbLine
 10
993.398621
 20
409.4133
 30
0.0
 11
965.398621
 21
409.4133
 31
0.0
210
0.0
220
0.0
230
1.0
  0
LINE
  5
45
100
AcDbEntity
  8
0
370
    35
390
0
 62
     7
 48
0.305
100
AcDbLine
 10
965.398621
 20
409.4133
 30
0.0
 11
965.398621
 21
397.213287
 31
0.0
210
0.0
220
0.0
230
1.0
  0
LINE
  5
46
100
AcDbEntity
  8
0
370
    35
390
0
 62
     7
100
AcDbLine
 10
725.398621
 20
397.213287
 30
0.0
 11
965.398621
 21
397.213287
 31
0.0
210
0.0
220
0.0
230
1.0
  0
LINE
  5
47
100
AcDbEntity
  8
0
370
    35
390
0
 62
     7
 48
0.305
100
AcDbLine
 10
725.398621
 20
409.4133
 30
0.0
 11
725.398621
 21
397.213287
 31
0.0
210
0.0
220
0.0
230
1.0
  0
LINE
  5
48
100
AcDbEntity
  8
0
370
    35
390
0
 62
     7
100
AcDbLine
 10
697.398621
 20
409.4133
 30
0.0
 11
725.398621
 21
409.4133
 31
0.0
210
0.0
220
0.0
230
1.0
  0
LINE
  5
49
100
AcDbEntity
  8
0
370
    35
390
0
 62
     7
 48
0.305
100
AcDbLine
 10
697.398621
 20
409.4133
 30
0.0
 11
697.398621
 21
397.213287
 31
0.0
210
0.0
220
0.0
230
1.0
  0
LINE
  5
4A
100
AcDbEntity
  8
0
370
    35
390
0
 62
     7
 48
0.07
100
AcDbLine
 10
697.398621
 20
397.213287
 30
0.0
 11
694.598633
 21
397.213287
 31
0.0
210
0.0
220
0.0
230
1.0
  0
LINE
  5
4B
100
AcDbEntity
  8
0
370
    35
390
0
 62
     7
100
AcDbLine
 10
694.598633
 20
397.213287
 30
0.0
 11
694.598633
 21
372.213287
 31
0.0
210
0.0
220
0.0
230
1.0
  0
LINE
  5
4C
100
AcDbEntity
  8
0
370
    35
390
0
 62
     7
 48
0.07
100
AcDbLine
 10
694.598633
 20
372.213287
 30
0.0
 11
697.398621
 21
372.213287
 31
0.0
210
0.0
220
0.0
230
1.0
  0
LINE
  5
4D
100
AcDbEntity
  8
0
370
    35
390
0
 62
     7
 48
0.305
100
AcDbLine
 10
697.398621
 20
372.213287
 30
0.0
 11
697.398621
 21
360.013275
 31
0.0
210
0.0
220
0.0
230
1.0
  0
LINE
  5
4E
100
AcDbEntity
  8
0
370
    35
390
0
 62
     7
100
AcDbLine
 10
770.398621
 20
360.013275
 30
0.0
 11
697.398621
 21
360.013275
 31
0.0
210
0.0
220
0.0
230
1.0
  0
LINE
  5
4F
100
AcDbEntity
  8
0
370
    35
390
0
 62
     7
 48
0.07
100
AcDbLine
 10
770.398621
 20
357.213287
 30
0.0
 11
770.398621
 21
360.013275
 31
0.0
210
0.0
220
0.0
230
1.0
  0
LINE
  5
50
100
AcDbEntity
  8
0
370
    35
390
0
 62
     7
100
AcDbLine
 10
765.398621
 20
391.613281
 30
0.0
 11
795.398621
 21
391.613281
 31
0.0
210
0.0
220
0.0
230
1.0
  0
LINE
  5
51
100
AcDbEntity
  8
0
370
    35
390
0
 62
     7
 48
0.07
100
AcDbLine
 10
795.398621
 20
391.613281
 30
0.0
 11
795.398621
 21
388.813293
 31
0.0
210
0.0
220
0.0
230
1.0
  0
LINE
  5
52
100
AcDbEntity
  8
0
370
    35
390
0
 62
     7
100
AcDbLine
 10
795.398621
 20
388.813293
 30
0.0
 11
765.398621
 21
388.813293
 31
0.0
210
0.0
220
0.0
230
1.0
  0
LINE
  5
53
100
AcDbEntity
  8
0
370
    35
390
0
 62
     7
 48
0.07
100
AcDbLine
 10
765.398621
 20
388.813293
 30
0.0
 11
765.398621
 21
391.613281
 31
0.0
210
0.0
220
0.0
230
1.0
  0
LINE
  5
54
100
AcDbEntity
  8
0
370
    35
390
0
 62
     7
 48
0.07
100
AcDbLine
 10
925.398621
 20
391.613281
 30
0.0
 11
925.398621
 21
388.813293
 31
0.0
210
0.0
220
0.0
230
1.0
  0
LINE
  5
55
100
AcDbEntity
  8
0
370
    35
390
0
 62
     7
100
AcDbLine
 10
925.398621
 20
388.813293
 30
0.0
 11
895.398621
 21
388.813293
 31
0.0
210
0.0
220
0.0
230
1.0
  0
LINE
  5
56
100
AcDbEntity
  8
0
370
    35
390
0
 62
     7
 48
0.07
100
AcDbLine
 10
895.398621
 20
391.613281
 30
0.0
 11
895.398621
 21
388.813293
 31
0.0
210
0.0
220
0.0
230
1.0
  0
LINE
  5
57
100
AcDbEntity
  8
0
370
    35
390
0
 62
     7
100
AcDbLine
 10
895.398621
 20
391.613281
 30
0.0
 11
925.398621
 21
391.613281
 31
0.0
210
0.0
220
0.0
230
1.0
  0
LINE
  5
58
100
AcDbEntity
  8
0
370
    35
390
0
 62
     7
100
AcDbLine
 10
830.398621
 20
391.613281
 30
0.0
 11
860.398621
 21
391.613281
 31
0.0
210
0.0
220
0.0
230
1.0
  0
LINE
  5
59
100
AcDbEntity
  8
0
370
    35
390
0
 62
     7
 48
0.07
100
AcDbLine
 10
860.398621
 20
391.613281
 30
0.0
 11
860.398621
 21
388.813293
 31
0.0
210
0.0
220
0.0
230
1.0
  0
LINE
  5
5A
100
AcDbEntity
  8
0
370
    35
390
0
 62
     7
100
AcDbLine
 10
860.398621
 20
388.813293
 30
0.0
 11
830.398621
 21
388.813293
 31
0.0
210
0.0
220
0.0
230
1.0
  0
LINE
  5
5B
100
AcDbEntity
  8
0
370
    35
390
0
 62
     7
 48
0.07
100
AcDbLine
 10
830.398621
 20
391.613281
 30
0.0
 11
830.398621
 21
388.813293
 31
0.0
210
0.0
220
0.0
230
1.0
  0
LINE
  5
5C
100
AcDbEntity
  8
0
370
    35
390
0
 62
     7
 48
0.07
100
AcDbLine
 10
765.398621
 20
383.213287
 30
0.0
 11
768.198608
 21
383.213287
 31
0.0
210
0.0
220
0.0
230
1.0
  0
LINE
  5
5D
100
AcDbEntity
  8
0
370
    35
390
0
 62
     7
 48
0.15
100
AcDbLine
 10
768.198608
 20
377.213287
 30
0.0
 11
768.198608
 21
383.213287
 31
0.0
210
0.0
220
0.0
230
1.0
  0
LINE
  5
5E
100
AcDbEntity
  8
0
370
    35
390
0
 62
     7
 48
0.07
100
AcDbLine
 10
768.198608
 20
377.213287
 30
0.0
 11
765.398621
 21
377.213287
 31
0.0
210
0.0
220
0.0
230
1.0
  0
LINE
  5
5F
100
AcDbEntity
  8
0
370
    35
390
0
 62
     7
 48
0.15
100
AcDbLine
 10
765.398621
 20
383.213287
 30
0.0
 11
765.398621
 21
377.213287
 31
0.0
210
0.0
220
0.0
230
1.0
  0
LINE
  5
60
100
AcDbEntity
  8
0
370
    35
390
0
 62
     7
 48
0.07
100
AcDbLine
 10
795.398621
 20
383.213287
 30
0.0
 11
798.198608
 21
383.213287
 31
0.0
210
0.0
220
0.0
230
1.0
  0
LINE
  5
61
100
AcDbEntity
  8
0
370
    35
390
0
 62
     7
 48
0.15
100
AcDbLine
 10
798.198608
 20
377.213287
 30
0.0
 11
798.198608
 21
383.213287
 31
0.0
210
0.0
220
0.0
230
1.0
  0
LINE
  5
62
100
AcDbEntity
  8
0
370
    35
390
0
 62
     7
 48
0.07
100
AcDbLine
 10
798.198608
 20
377.213287
 30
0.0
 11
795.398621
 21
377.213287
 31
0.0
210
0.0
220
0.0
230
1.0
  0
LINE
  5
63
100
AcDbEntity
  8
0
370
    35
390
0
 62
     7
 48
0.15
100
AcDbLine
 10
795.398621
 20
383.213287
 30
0.0
 11
795.398621
 21
377.213287
 31
0.0
210
0.0
220
0.0
230
1.0
  0
LINE
  5
64
100
AcDbEntity
  8
0
370
    35
390
0
 62
     7
 48
0.07
100
AcDbLine
 10
827.598633
 20
383.213287
 30
0.0
 11
830.398621
 21
383.213287
 31
0.0
210
0.0
220
0.0
230
1.0
  0
LINE
  5
65
100
AcDbEntity
  8
0
370
    35
390
0
 62
     7
 48
0.15
100
AcDbLine
 10
830.398621
 20
377.213287
 30
0.0
 11
830.398621
 21
383.213287
 31
0.0
210
0.0
220
0.0
230
1.0
  0
LINE
  5
66
100
AcDbEntity
  8
0
370
    35
390
0
 62
     7
 48
0.07
100
AcDbLine
 10
830.398621
 20
377.213287
 30
0.0
 11
827.598633
 21
377.213287
 31
0.0
210
0.0
220
0.0
230
1.0
  0
LINE
  5
67
100
AcDbEntity
  8
0
370
    35
390
0
 62
     7
 48
0.15
100
AcDbLine
 10
827.598633
 20
383.213287
 30
0.0
 11
827.598633
 21
377.213287
 31
0.0
210
0.0
220
0.0
230
1.0
  0
LINE
  5
68
100
AcDbEntity
  8
0
370
    35
390
0
 62
     7
 48
0.15
100
AcDbLine
 10
925.398621
 20
383.213287
 30
0.0
 11
925.398621
 21
377.213287
 31
0.0
210
0.0
220
0.0
230
1.0
  0
LINE
  5
69
100
AcDbEntity
  8
0
370
    35
390
0
 62
     7
 48
0.07
100
AcDbLine
 10
922.598633
 20
377.213287
 30
0.0
 11
925.398621
 21
377.213287
 31
0.0
210
0.0
220
0.0
230
1.0
  0
LINE
  5
6A
100
AcDbEntity
  8
0
370
    35
390
0
 62
     7
 48
0.15
100
AcDbLine
 10
922.598633
 20
377.213287
 30
0.0
 11
922.598633
 21
383.213287
 31
0.0
210
0.0
220
0.0
230
1.0
  0
LINE
  5
6B
100
AcDbEntity
  8
0
370
    35
390
0
 62
     7
 48
0.07
100
AcDbLine
 10
925.398621
 20
383.213287
 30
0.0
 11
922.598633
 21
383.213287
 31
0.0
210
0.0
220
0.0
230
1.0
  0
LINE
  5
6C
100
AcDbEntity
  8
0
370
    35
390
0
 62
     7
 48
0.15
100
AcDbLine
 10
895.398621
 20
383.213287
 30
0.0
 11
895.398621
 21
377.213287
 31
0.0
210
0.0
220
0.0
230
1.0
  0
LINE
  5
6D
100
AcDbEntity
  8
0
370
    35
390
0
 62
     7
 48
0.07
100
AcDbLine
 10
892.598633
 20
377.213287
 30
0.0
 11
895.398621
 21
377.213287
 31
0.0
210
0.0
220
0.0
230
1.0
  0
LINE
  5
6E
100
AcDbEntity
  8
0
370
    35
390
0
 62
     7
 48
0.15
100
AcDbLine
 10
892.598633
 20
377.213287
 30
0.0
 11
892.598633
 21
383.213287
 31
0.0
210
0.0
220
0.0
230
1.0
  0
LINE
  5
6F
100
AcDbEntity
  8
0
370
    35
390
0
 62
     7
 48
0.07
100
AcDbLine
 10
895.398621
 20
383.213287
 30
0.0
 11
892.598633
 21
383.213287
 31
0.0
210
0.0
220
0.0
230
1.0
  0
LINE
  5
70
100
AcDbEntity
  8
0
370
    35
390
0
 62
     7
 48
0.15
100
AcDbLine
 10
863.198608
 20
383.213287
 30
0.0
 11
863.198608
 21
377.213287
 31
0.0
210
0.0
220
0.0
230
1.0
  0
LINE
  5
71
100
AcDbEntity
  8
0
370
    35
390
0
 62
     7
 48
0.07
100
AcDbLine
 10
860.398621
 20
377.213287
 30
0.0
 11
863.198608
 21
377.213287
 31
0.0
210
0.0
220
0.0
230
1.0
  0
LINE
  5
72
100
AcDbEntity
  8
0
370
    35
390
0
 62
     7
 48
0.15
100
AcDbLine
 10
860.398621
 20
377.213287
 30
0.0
 11
860.398621
 21
383.213287
 31
0.0
210
0.0
220
0.0
230
1.0
  0
LINE
  5
73
100
AcDbEntity
  8
0
370
    35
390
0
 62
     7
 48
0.07
100
AcDbLine
 10
863.198608
 20
383.213287
 30
0.0
 11
860.398621
 21
383.213287
 31
0.0
210
0.0
220
0.0
230
1.0
  0
LINE
  5
74
100
AcDbEntity
  8
0
370
    35
390
0
 62
     7
 48
0.07
100
AcDbLine
 10
1079.846313
 20
468.271301
 30
0.0
 11
1079.846313
 21
471.071289
 31
0.0
210
0.0
220
0.0
230
1.0
  0
LINE
  5
75
100
AcDbEntity
  8
0
370
    35
390
0
 62
     7
 48
0.25
100
AcDbLine
 10
1089.846313
 20
468.271301
 30
0.0
 11
1079.846313
 21
468.271301
 31
0.0
210
0.0
220
0.0
230
1.0
  0
LINE
  5
76
100
AcDbEntity
  8
0
370
    35
390
0
 62
     7
 48
0.07
100
AcDbLine
 10
1089.846313
 20
471.071289
 30
0.0
 11
1089.846313
 21
468.271301
 31
0.0
210
0.0
220
0.0
230
1.0
  0
LINE
  5
77
100
AcDbEntity
  8
0
370
    35
390
0
 62
     7
100
AcDbLine
 10
1089.846313
 20
767.071289
 30
0.0
 11
1089.846313
 21
471.071289
 31
0.0
210
0.0
220
0.0
230
1.0
  0
LINE
  5
78
100
AcDbEntity
  8
0
370
    35
390
0
 62
     7
 48
0.07
100
AcDbLine
 10
1089.846313
 20
767.071289
 30
0.0
 11
1089.846313
 21
769.871277
 31
0.0
210
0.0
220
0.0
230
1.0
  0
LINE
  5
79
100
AcDbEntity
  8
0
370
    35
390
0
 62
     7
 48
0.25
100
AcDbLine
 10
1089.846313
 20
769.871277
 30
0.0
 11
1079.846313
 21
769.871277
 31
0.0
210
0.0
220
0.0
230
1.0
  0
LINE
  5
7A
100
AcDbEntity
  8
0
370
    35
390
0
 62
     7
 48
0.07
100
AcDbLine
 10
1079.846313
 20
769.871277
 30
0.0
 11
1079.846313
 21
767.071289
 31
0.0
210
0.0
220
0.0
230
1.0
  0
LINE
  5
7B
100
AcDbEntity
  8
0
370
    35
390
0
 62
     7
100
AcDbLine
 10
1079.846313
 20
694.071289
 30
0.0
 11
1079.846313
 21
767.071289
 31
0.0
210
0.0
220
0.0
230
1.0
  0
LINE
  5
7C
100
AcDbEntity
  8
0
370
    35
390
0
 62
     7
 48
0.070001
100
AcDbLine
 10
1079.846313
 20
694.071289
 30
0.0
 11
1077.046265
 21
694.071289
 31
0.0
210
0.0
220
0.0
230
1.0
  0
LINE
  5
7D
100
AcDbEntity
  8
0
370
    35
390
0
 62
     7
100
AcDbLine
 10
1077.046265
 20
694.071289
 30
0.0
 11
1077.046265
 21
544.071289
 31
0.0
210
0.0
220
0.0
230
1.0
  0
LINE
  5
7E
100
AcDbEntity
  8
0
370
    35
390
0
 62
     7
 48
0.070001
100
AcDbLine
 10
1079.846313
 20
544.071289
 30
0.0
 11
1077.046265
 21
544.071289
 31
0.0
210
0.0
220
0.0
230
1.0
  0
LINE
  5
7F
100
AcDbEntity
  8
0
370
    35
390
0
 62
     7
100
AcDbLine
 10
1079.846313
 20
471.071289
 30
0.0
 11
1079.846313
 21
544.071289
 31
0.0
210
0.0
220
0.0
230
1.0
  0
LINE
  5
80
100
AcDbEntity
  8
0
370
    35
390
0
 62
     7
100
AcDbLine
 10
697.738831
 20
765.217773
 30
0.0
 11
697.738831
 21
705.217773
 31
0.0
210
0.0
220
0.0
230
1.0
  0
LINE
  5
81
100
AcDbEntity
  8
0
370
    35
390
0
 62
     7
 48
0.07
100
AcDbLine
 10
697.738831
 20
705.217773
 30
0.0
 11
694.938843
 21
705.217773
 31
0.0
210
0.0
220
0.0
230
1.0
  0
LINE
  5
82
100
AcDbEntity
  8
0
370
    35
390
0
 62
     7
100
AcDbLine
 10
694.938843
 20
585.217773
 30
0.0
 11
694.938843
 21
705.217773
 31
0.0
210
0.0
220
0.0
230
1.0
  0
LINE
  5
83
100
AcDbEntity
  8
0
370
    35
390
0
 62
     7
 48
0.07
100
AcDbLine
 10
697.738831
 20
585.217773
 30
0.0
 11
694.938843
 21
585.217773
 31
0.0
210
0.0
220
0.0
230
1.0
  0
LINE
  5
84
100
AcDbEntity
  8
0
370
    35
390
0
 62
     7
100
AcDbLine
 10
697.738831
 20
585.217773
 30
0.0
 11
697.738831
 21
525.217773
 31
0.0
210
0.0
220
0.0
230
1.0
  0
LINE
  5
85
100
AcDbEntity
  8
0
370
    35
390
0
 62
     7
100
AcDbLine
 10
770.738831
 20
525.217773
 30
0.0
 11
697.738831
 21
525.217773
 31
0.0
210
0.0
220
0.0
230
1.0
  0
LINE
  5
86
100
AcDbEntity
  8
0
370
    35
390
0
 62
     7
 48
0.07
100
AcDbLine
 10
770.738831
 20
525.217773
 30
0.0
 11
770.738831
 21
522.417786
 31
0.0
210
0.0
220
0.0
230
1.0
  0
LINE
  5
87
100
AcDbEntity
  8
0
370
    35
390
0
 62
     7
100
AcDbLine
 10
770.738831
 20
522.417786
 30
0.0
 11
920.738831
 21
522.417786
 31
0.0
210
0.0
220
0.0
230
1.0
  0
LINE
  5
88
100
AcDbEntity
  8
0
370
    35
390
0
 62
     7
 48
0.07
100
AcDbLine
 10
920.738831
 20
525.217773
 30
0.0
 11
920.738831
 21
522.417786
 31
0.0
210
0.0
220
0.0
230
1.0
  0
LINE
  5
89
100
AcDbEntity
  8
0
370
    35
390
0
 62
     7
100
AcDbLine
 10
993.738831
 20
525.217773
 30
0.0
 11
920.738831
 21
525.217773
 31
0.0
210
0.0
220
0.0
230
1.0
  0
LINE
  5
8A
100
AcDbEntity
  8
0
370
    35
390
0
 62
     7
100
AcDbLine
 10
993.738831
 20
525.217773
 30
0.0
 11
993.738831
 21
585.217773
 31
0.0
210
0.0
220
0.0
230
1.0
  0
LINE
  5
8B
100
AcDbEntity
  8
0
370
    35
390
0
 62
     7
 48
0.07
100
AcDbLine
 10
993.738831
 20
585.217773
 30
0.0
 11
996.538818
 21
585.217773
 31
0.0
210
0.0
220
0.0
230
1.0
  0
LINE
  5
8C
100
AcDbEntity
  8
0
370
    35
390
0
 62
     7
100
AcDbLine
 10
996.538818
 20
585.217773
 30
0.0
 11
996.538818
 21
705.217773
 31
0.0
210
0.0
220
0.0
230
1.0
  0
LINE
  5
8D
100
AcDbEntity
  8
0
370
    35
390
0
 62
     7
 48
0.07
100
AcDbLine
 10
993.738831
 20
705.217773
 30
0.0
 11
996.538818
 21
705.217773
 31
0.0
210
0.0
220
0.0
230
1.0
  0
LINE
  5
8E
100
AcDbEntity
  8
0
370
    35
390
0
 62
     7
100
AcDbLine
 10
993.738831
 20
705.217773
 30
0.0
 11
993.738831
 21
765.217773
 31
0.0
210
0.0
220
0.0
230
1.0
  0
LINE
  5
8F
100
AcDbEntity
  8
0
370
    35
390
0
 62
     7
100
AcDbLine
 10
920.738831
 20
765.217773
 30
0.0
 11
993.738831
 21
765.217773
 31
0.0
210
0.0
220
0.0
230
1.0
  0
LINE
  5
90
100
AcDbEntity
  8
0
370
    35
390
0
 62
     7
 48
0.07
100
AcDbLine
 10
920.738831
 20
765.217773
 30
0.0
 11
920.738831
 21
768.017761
 31
0.0
210
0.0
220
0.0
230
1.0
  0
LINE
  5
91
100
AcDbEntity
  8
0
370
    35
390
0
 62
     7
100
AcDbLine
 10
770.738831
 20
768.017761
 30
0.0
 11
920.738831
 21
768.017761
 31
0.0
210
0.0
220
0.0
230
1.0
  0
LINE
  5
92
100
AcDbEntity
  8
0
370
    35
390
0
 62
     7
 48
0.07
100
AcDbLine
 10
770.738831
 20
765.217773
 30
0.0
 11
770.738831
 21
768.017761
 31
0.0
210
0.0
220
0.0
230
1.0
  0
LINE
  5
93
100
AcDbEntity
  8
0
370
    35
390
0
 62
     7
100
AcDbLine
 10
697.738831
 20
765.217773
 30
0.0
 11
770.738831
 21
765.217773
 31
0.0
210
0.0
220
0.0
230
1.0
  0
LINE
  5
94
100
AcDbEntity
  8
0
370
    35
390
0
 62
     7
 48
0.07
100
AcDbLine
 10
770.738831
 20
748.017761
 30
0.0
 11
770.738831
 21
745.217773
 31
0.0
210
0.0
220
0.0
230
1.0
  0
LINE
  5
95
100
AcDbEntity
  8
0
370
    35
390
0
 62
     7
100
AcDbLine
 10
920.738831
 20
748.017761
 30
0.0
 11
770.738831
 21
748.017761
 31
0.0
210
0.0
220
0.0
230
1.0
  0
LINE
  5
96
100
AcDbEntity
  8
0
370
    35
390
0
 62
     7
 48
0.07
100
AcDbLine
 10
920.738831
 20
745.217773
 30
0.0
 11
920.738831
 21
748.017761
 31
0.0
210
0.0
220
0.0
230
1.0
  0
LINE
  5
97
100
AcDbEntity
  8
0
370
    35
390
0
 62
     7
100
AcDbLine
 10
770.738831
 20
745.217773
 30
0.0
 11
920.738831
 21
745.217773
 31
0.0
210
0.0
220
0.0
230
1.0
  0
LINE
  5
98
100
AcDbEntity
  8
0
370
    35
390
0
 62
     7
100
AcDbLine
 10
770.738831
 20
535.217773
 30
0.0
 11
920.738831
 21
535.217773
 31
0.0
210
0.0
220
0.0
230
1.0
  0
LINE
  5
99
100
AcDbEntity
  8
0
370
    35
390
0
 62
     7
 48
0.07
100
AcDbLine
 10
920.738831
 20
532.417786
 30
0.0
 11
920.738831
 21
535.217773
 31
0.0
210
0.0
220
0.0
230
1.0
  0
LINE
  5
9A
100
AcDbEntity
  8
0
370
    35
390
0
 62
     7
100
AcDbLine
 10
920.738831
 20
532.417786
 30
0.0
 11
770.738831
 21
532.417786
 31
0.0
210
0.0
220
0.0
230
1.0
  0
LINE
  5
9B
100
AcDbEntity
  8
0
370
    35
390
0
 62
     7
 48
0.07
100
AcDbLine
 10
770.738831
 20
535.217773
 30
0.0
 11
770.738831
 21
532.417786
 31
0.0
210
0.0
220
0.0
230
1.0
  0
LINE
  5
9C
100
AcDbEntity
  8
0
370
    35
390
0
 62
     7
 48
0.07
100
AcDbLine
 10
770.738831
 20
735.217773
 30
0.0
 11
773.538818
 21
735.217773
 31
0.0
210
0.0
220
0.0
230
1.0
  0
LINE
  5
9D
100
AcDbEntity
  8
0
370
    35
390
0
 62
     7
100
AcDbLine
 10
773.538818
 20
715.217773
 30
0.0
 11
773.538818
 21
735.217773
 31
0.0
210
0.0
220
0.0
230
1.0
  0
LINE
  5
9E
100
AcDbEntity
  8
0
370
    35
390
0
 62
     7
 48
0.07
100
AcDbLine
 10
773.538818
 20
715.217773
 30
0.0
 11
770.738831
 21
715.217773
 31
0.0
210
0.0
220
0.0
230
1.0
  0
LINE
  5
9F
100
AcDbEntity
  8
0
370
    35
390
0
 62
     7
100
AcDbLine
 10
770.738831
 20
735.217773
 30
0.0
 11
770.738831
 21
715.217773
 31
0.0
210
0.0
220
0.0
230
1.0
  0
LINE
  5
A0
100
AcDbEntity
  8
0
370
    35
390
0
 62
     7
100
AcDbLine
 10
920.738831
 20
735.217773
 30
0.0
 11
920.738831
 21
715.217773
 31
0.0
210
0.0
220
0.0
230
1.0
  0
LINE
  5
A1
100
AcDbEntity
  8
0
370
    35
390
0
 62
     7
 48
0.07
100
AcDbLine
 10
917.938843
 20
715.217773
 30
0.0
 11
920.738831
 21
715.217773
 31
0.0
210
0.0
220
0.0
230
1.0
  0
LINE
  5
A2
100
AcDbEntity
  8
0
370
    35
390
0
 62
     7
100
AcDbLine
 10
917.938843
 20
715.217773
 30
0.0
 11
917.938843
 21
735.217773
 31
0.0
210
0.0
220
0.0
230
1.0
  0
LINE
  5
A3
100
AcDbEntity
  8
0
370
    35
390
0
 62
     7
 48
0.07
100
AcDbLine
 10
920.738831
 20
735.217773
 30
0.0
 11
917.938843
 21
735.217773
 31
0.0
210
0.0
220
0.0
230
1.0
  0
LINE
  5
A4
100
AcDbEntity
  8
0
370
    35
390
0
 62
     7
100
AcDbLine
 10
815.738831
 20
705.217773
 30
0.0
 11
875.738831
 21
705.217773
 31
0.0
210
0.0
220
0.0
230
1.0
  0
LINE
  5
A5
100
AcDbEntity
  8
0
370
    35
390
0
 62
     7
 48
0.07
100
AcDbLine
 10
875.738831
 20
702.417786
 30
0.0
 11
875.738831
 21
705.217773
 31
0.0
210
0.0
220
0.0
230
1.0
  0
LINE
  5
A6
100
AcDbEntity
  8
0
370
    35
390
0
 62
     7
100
AcDbLine
 10
875.738831
 20
702.417786
 30
0.0
 11
815.738831
 21
702.417786
 31
0.0
210
0.0
220
0.0
230
1.0
  0
LINE
  5
A7
100
AcDbEntity
  8
0
370
    35
390
0
 62
     7
 48
0.07
100
AcDbLine
 10
815.738831
 20
705.217773
 30
0.0
 11
815.738831
 21
702.417786
 31
0.0
210
0.0
220
0.0
230
1.0
  0
LINE
  5
A8
100
AcDbEntity
  8
0
370
    35
390
0
 62
     7
 48
0.305
100
AcDbLine
 10
993.503845
 20
411.48764
 30
0.0
 11
993.503845
 21
423.687653
 31
0.0
210
0.0
220
0.0
230
1.0
  0
LINE
  5
A9
100
AcDbEntity
  8
0
370
    35
390
0
 62
     7
 48
0.07
100
AcDbLine
 10
996.303833
 20
423.687653
 30
0.0
 11
993.503845
 21
423.687653
 31
0.0
210
0.0
220
0.0
230
1.0
  0
LINE
  5
AA
100
AcDbEntity
  8
0
370
    35
390
0
 62
     7
100
AcDbLine
 10
996.303833
 20
448.687653
 30
0.0
 11
996.303833
 21
423.687653
 31
0.0
210
0.0
220
0.0
230
1.0
  0
LINE
  5
AB
100
AcDbEntity
  8
0
370
    35
390
0
 62
     7
 48
0.07
100
AcDbLine
 10
993.503845
 20
448.687653
 30
0.0
 11
996.303833
 21
448.687653
 31
0.0
210
0.0
220
0.0
230
1.0
  0
LINE
  5
AC
100
AcDbEntity
  8
0
370
    35
390
0
 62
     7
 48
0.375
100
AcDbLine
 10
993.503845
 20
448.687653
 30
0.0
 11
993.503845
 21
463.687653
 31
0.0
210
0.0
220
0.0
230
1.0
  0
LINE
  5
AD
100
AcDbEntity
  8
0
370
    35
390
0
 62
     7
100
AcDbLine
 10
993.503845
 20
463.687653
 30
0.0
 11
920.503845
 21
463.687653
 31
0.0
210
0.0
220
0.0
230
1.0
  0
LINE
  5
AE
100
AcDbEntity
  8
0
370
    35
390
0
 62
     7
 48
0.07
100
AcDbLine
 10
920.503845
 20
463.687653
 30
0.0
 11
920.503845
 21
460.887665
 31
0.0
210
0.0
220
0.0
230
1.0
  0
LINE
  5
AF
100
AcDbEntity
  8
0
370
    35
390
0
 62
     7
100
AcDbLine
 10
770.503845
 20
460.887665
 30
0.0
 11
920.503845
 21
460.887665
 31
0.0
210
0.0
220
0.0
230
1.0
  0
LINE
  5
B0
100
AcDbEntity
  8
0
370
    35
390
0
 62
     7
 48
0.07
100
AcDbLine
 10
770.503845
 20
463.687653
 30
0.0
 11
770.503845
 21
460.887665
 31
0.0
210
0.0
220
0.0
230
1.0
  0
LINE
  5
B1
100
AcDbEntity
  8
0
370
    35
390
0
 62
     7
100
AcDbLine
 10
770.503845
 20
463.687653
 30
0.0
 11
697.503845
 21
463.687653
 31
0.0
210
0.0
220
0.0
230
1.0
  0
LINE
  5
B2
100
AcDbEntity
  8
0
370
    35
390
0
 62
     7
 48
0.375
100
AcDbLine
 10
697.503845
 20
463.687653
 30
0.0
 11
697.503845
 21
448.687653
 31
0.0
210
0.0
220
0.0
230
1.0
  0
LINE
  5
B3
100
AcDbEntity
  8
0
370
    35
390
0
 62
     7
 48
0.07
100
AcDbLine
 10
697.503845
 20
448.687653
 30
0.0
 11
694.703857
 21
448.687653
 31
0.0
210
0.0
220
0.0
230
1.0
  0
LINE
  5
B4
100
AcDbEntity
  8
0
370
    35
390
0
 62
     7
100
AcDbLine
 10
694.703857
 20
448.687653
 30
0.0
 11
694.703857
 21
423.687653
 31
0.0
210
0.0
220
0.0
230
1.0
  0
LINE
  5
B5
100
AcDbEntity
  8
0
370
    35
390
0
 62
     7
 48
0.07
100
AcDbLine
 10
694.703857
 20
423.687653
 30
0.0
 11
697.503845
 21
423.687653
 31
0.0
210
0.0
220
0.0
230
1.0
  0
LINE
  5
B6
100
AcDbEntity
  8
0
370
    35
390
0
 62
     7
 48
0.305
100
AcDbLine
 10
697.503845
 20
423.687653
 30
0.0
 11
697.503845
 21
411.48764
 31
0.0
210
0.0
220
0.0
230
1.0
  0
LINE
  5
B7
100
AcDbEntity
  8
0
370
    35
390
0
 62
     7
100
AcDbLine
 10
770.503845
 20
411.48764
 30
0.0
 11
697.503845
 21
411.48764
 31
0.0
210
0.0
220
0.0
230
1.0
  0
LINE
  5
B8
100
AcDbEntity
  8
0
370
    35
390
0
 62
     7
 48
0.07
100
AcDbLine
 10
770.503845
 20
408.687653
 30
0.0
 11
770.503845
 21
411.48764
 31
0.0
210
0.0
220
0.0
230
1.0
  0
LINE
  5
B9
100
AcDbEntity
  8
0
370
    35
390
0
 62
     7
100
AcDbLine
 10
770.503845
 20
408.687653
 30
0.0
 11
920.503845
 21
408.687653
 31
0.0
210
0.0
220
0.0
230
1.0
  0
LINE
  5
BA
100
AcDbEntity
  8
0
370
    35
390
0
 62
     7
 48
0.07
100
AcDbLine
 10
920.503845
 20
408.687653
 30
0.0
 11
920.503845
 21
411.48764
 31
0.0
210
0.0
220
0.0
230
1.0
  0
LINE
  5
BB
100
AcDbEntity
  8
0
370
    35
390
0
 62
     7
100
AcDbLine
 10
920.503845
 20
411.48764
 30
0.0
 11
993.503845
 21
411.48764
 31
0.0
210
0.0
220
0.0
230
1.0
  0
LINE
  5
BC
100
AcDbEntity
  8
0
370
    35
390
0
 62
     7
100
AcDbLine
 10
980.503845
 20
438.687653
 30
0.0
 11
980.503845
 21
418.687653
 31
0.0
210
0.0
220
0.0
230
1.0
  0
LINE
  5
BD
100
AcDbEntity
  8
0
370
    35
390
0
 62
     7
100
AcDbLine
 10
980.503845
 20
418.687653
 30
0.0
 11
950.503845
 21
418.687653
 31
0.0
210
0.0
220
0.0
230
1.0
  0
LINE
  5
BE
100
AcDbEntity
  8
0
370
    35
390
0
 62
     7
100
AcDbLine
 10
950.503845
 20
418.687653
 30
0.0
 11
950.503845
 21
438.687653
 31
0.0
210
0.0
220
0.0
230
1.0
  0
LINE
  5
BF
100
AcDbEntity
  8
0
370
    35
390
0
 62
     7
100
AcDbLine
 10
950.503845
 20
438.687653
 30
0.0
 11
980.503845
 21
438.687653
 31
0.0
210
0.0
220
0.0
230
1.0
  0
LINE
  5
C0
100
AcDbEntity
  8
0
370
    35
390
0
 62
     7
100
AcDbLine
 10
740.503845
 20
438.687653
 30
0.0
 11
710.503845
 21
438.687653
 31
0.0
210
0.0
220
0.0
230
1.0
  0
LINE
  5
C1
100
AcDbEntity
  8
0
370
    35
390
0
 62
     7
100
AcDbLine
 10
740.503845
 20
418.687653
 30
0.0
 11
740.503845
 21
438.687653
 31
0.0
210
0.0
220
0.0
230
1.0
  0
LINE
  5
C2
100
AcDbEntity
  8
0
370
    35
390
0
 62
     7
100
AcDbLine
 10
710.503845
 20
418.687653
 30
0.0
 11
740.503845
 21
418.687653
 31
0.0
210
0.0
220
0.0
230
1.0
  0
LINE
  5
C3
100
AcDbEntity
  8
0
370
    35
390
0
 62
     7
100
AcDbLine
 10
710.503845
 20
438.687653
 30
0.0
 11
710.503845
 21
418.687653
 31
0.0
210
0.0
220
0.0
230
1.0
  0
LINE
  5
C4
100
AcDbEntity
  8
0
370
    35
390
0
 62
     7
 48
0.25
100
AcDbLine
 10
770.503845
 20
433.687653
 30
0.0
 11
770.503845
 21
423.687653
 31
0.0
210
0.0
220
0.0
230
1.0
  0
LINE
  5
C5
100
AcDbEntity
  8
0
370
    35
390
0
 62
     7
 48
0.07
100
AcDbLine
 10
773.303833
 20
433.687653
 30
0.0
 11
770.503845
 21
433.687653
 31
0.0
210
0.0
220
0.0
230
1.0
  0
LINE
  5
C6
100
AcDbEntity
  8
0
370
    35
390
0
 62
     7
 48
0.25
100
AcDbLine
 10
773.303833
 20
423.687653
 30
0.0
 11
773.303833
 21
433.687653
 31
0.0
210
0.0
220
0.0
230
1.0
  0
LINE
  5
C7
100
AcDbEntity
  8
0
370
    35
390
0
 62
     7
 48
0.07
100
AcDbLine
 10
770.503845
 20
423.687653
 30
0.0
 11
773.303833
 21
423.687653
 31
0.0
210
0.0
220
0.0
230
1.0
  0
LINE
  5
C8
100
AcDbEntity
  8
0
370
    35
390
0
 62
     7
 48
0.07
100
AcDbLine
 10
920.503845
 20
423.687653
 30
0.0
 11
917.703857
 21
423.687653
 31
0.0
210
0.0
220
0.0
230
1.0
  0
LINE
  5
C9
100
AcDbEntity
  8
0
370
    35
390
0
 62
     7
 48
0.25
100
AcDbLine
 10
917.703857
 20
423.687653
 30
0.0
 11
917.703857
 21
433.687653
 31
0.0
210
0.0
220
0.0
230
1.0
  0
LINE
  5
CA
100
AcDbEntity
  8
0
370
    35
390
0
 62
     7
 48
0.07
100
AcDbLine
 10
917.703857
 20
433.687653
 30
0.0
 11
920.503845
 21
433.687653
 31
0.0
210
0.0
220
0.0
230
1.0
  0
LINE
  5
CB
100
AcDbEntity
  8
0
370
    35
390
0
 62
     7
 48
0.25
100
AcDbLine
 10
920.503845
 20
433.687653
 30
0.0
 11
920.503845
 21
423.687653
 31
0.0
210
0.0
220
0.0
230
1.0
  0
LINE
  5
CC
100
AcDbEntity
  8
0
370
    35
390
0
 62
     7
 48
0.210001
100
AcDbLine
 10
1067.135742
 20
344.185333
 30
0.0
 11
1075.535767
 21
344.185333
 31
0.0
210
0.0
220
0.0
230
1.0
  0
LINE
  5
CD
100
AcDbEntity
  8
0
370
    35
390
0
 62
     7
 48
0.15
100
AcDbLine
 10
1075.535767
 20
344.185333
 30
0.0
 11
1075.535767
 21
338.185333
 31
0.0
210
0.0
220
0.0
230
1.0
  0
LINE
  5
CE
100
AcDbEntity
  8
0
370
    35
390
0
 62
     7
 48
0.210001
100
AcDbLine
 10
1075.535767
 20
338.185333
 30
0.0
 11
1067.135742
 21
338.185333
 31
0.0
210
0.0
220
0.0
230
1.0
  0
LINE
  5
CF
100
AcDbEntity
  8
0
370
    35
390
0
 62
     7
 48
0.075
100
AcDbLine
 10
1067.135742
 20
338.185333
 30
0.0
 11
1067.135742
 21
335.185333
 31
0.0
210
0.0
220
0.0
230
1.0
  0
LINE
  5
D0
100
AcDbEntity
  8
0
370
    35
390
0
 62
     7
 48
0.05
100
AcDbLine
 10
1067.135742
 20
335.185333
 30
0.0
 11
1065.135742
 21
335.185333
 31
0.0
210
0.0
220
0.0
230
1.0
  0
LINE
  5
D1
100
AcDbEntity
  8
0
370
    35
390
0
 62
     7
 48
0.33541
100
AcDbLine
 10
1059.135742
 20
347.185333
 30
0.0
 11
1065.135742
 21
335.185333
 31
0.0
210
0.0
220
0.0
230
1.0
  0
LINE
  5
D2
100
AcDbEntity
  8
0
370
    35
390
0
 62
     7
 48
0.05
100
AcDbLine
 10
1059.135742
 20
347.185333
 30
0.0
 11
1061.135742
 21
347.185333
 31
0.0
210
0.0
220
0.0
230
1.0
  0
LINE
  5
D3
100
AcDbEntity
  8
0
370
    35
390
0
 62
     7
 48
0.07
100
AcDbLine
 10
1061.135742
 20
347.185333
 30
0.0
 11
1061.135742
 21
349.985352
 31
0.0
210
0.0
220
0.0
230
1.0
  0
LINE
  5
D4
100
AcDbEntity
  8
0
370
    35
390
0
 62
     7
 48
0.15
100
AcDbLine
 10
1061.135742
 20
349.985352
 30
0.0
 11
1067.135742
 21
349.985352
 31
0.0
210
0.0
220
0.0
230
1.0
  0
LINE
  5
D5
100
AcDbEntity
  8
0
370
    35
390
0
 62
     7
 48
0.145
100
AcDbLine
 10
1067.135742
 20
344.185333
 30
0.0
 11
1067.135742
 21
349.985352
 31
0.0
210
0.0
220
0.0
230
1.0
  0
LINE
  5
D6
100
AcDbEntity
  8
0
370
    35
390
0
 62
     7
 48
0.210001
100
AcDbLine
 10
1069.135742
 20
352.185333
 30
0.0
 11
1060.735718
 21
352.185333
 31
0.0
210
0.0
220
0.0
230
1.0
  0
LINE
  5
D7
100
AcDbEntity
  8
0
370
    35
390
0
 62
     7
 48
0.15
100
AcDbLine
 10
1060.735718
 20
352.185333
 30
0.0
 11
1060.735718
 21
358.185333
 31
0.0
210
0.0
220
0.0
230
1.0
  0
LINE
  5
D8
100
AcDbEntity
  8
0
370
    35
390
0
 62
     7
 48
0.210001
100
AcDbLine
 10
1060.735718
 20
358.185333
 30
0.0
 11
1069.135742
 21
358.185333
 31
0.0
210
0.0
220
0.0
230
1.0
  0
LINE
  5
D9
100
AcDbEntity
  8
0
370
    35
390
0
 62
     7
 48
0.075
100
AcDbLine
 10
1069.135742
 20
358.185333
 30
0.0
 11
1069.135742
 21
361.185333
 31
0.0
210
0.0
220
0.0
230
1.0
  0
LINE
  5
DA
100
AcDbEntity
  8
0
370
    35
390
0
 62
     7
 48
0.05
100
AcDbLine
 10
1069.135742
 20
361.185333
 30
0.0
 11
1071.135742
 21
361.185333
 31
0.0
210
0.0
220
0.0
230
1.0
  0
LINE
  5
DB
100
AcDbEntity
  8
0
370
    35
390
0
 62
     7
 48
0.33541
100
AcDbLine
 10
1077.135742
 20
349.185333
 30
0.0
 11
1071.135742
 21
361.185333
 31
0.0
210
0.0
220
0.0
230
1.0
  0
LINE
  5
DC
100
AcDbEntity
  8
0
370
    35
390
0
 62
     7
 48
0.05
100
AcDbLine
 10
1077.135742
 20
349.185333
 30
0.0
 11
1075.135742
 21
349.185333
 31
0.0
210
0.0
220
0.0
230
1.0
  0
LINE
  5
DD
100
AcDbEntity
  8
0
370
    35
390
0
 62
     7
 48
0.07
100
AcDbLine
 10
1075.135742
 20
349.185333
 30
0.0
 11
1075.135742
 21
346.385315
 31
0.0
210
0.0
220
0.0
230
1.0
  0
LINE
  5
DE
100
AcDbEntity
  8
0
370
    35
390
0
 62
     7
 48
0.15
100
AcDbLine
 10
1075.135742
 20
346.385315
 30
0.0
 11
1069.135742
 21
346.385315
 31
0.0
210
0.0
220
0.0
230
1.0
  0
LINE
  5
DF
100
AcDbEntity
  8
0
370
    35
390
0
 62
     7
 48
0.145
100
AcDbLine
 10
1069.135742
 20
352.185333
 30
0.0
 11
1069.135742
 21
346.385315
 31
0.0
210
0.0
220
0.0
230
1.0
  0
LINE
  5
E0
100
AcDbEntity
  8
0
370
    35
390
0
 62
     7
 48
0.210001
100
AcDbLine
 10
1067.135742
 20
369.185333
 30
0.0
 11
1075.535767
 21
369.185333
 31
0.0
210
0.0
220
0.0
230
1.0
  0
LINE
  5
E1
100
AcDbEntity
  8
0
370
    35
390
0
 62
     7
 48
0.15
100
AcDbLine
 10
1075.535767
 20
369.185333
 30
0.0
 11
1075.535767
 21
363.185333
 31
0.0
210
0.0
220
0.0
230
1.0
  0
LINE
  5
E2
100
AcDbEntity
  8
0
370
    35
390
0
 62
     7
 48
0.210001
100
AcDbLine
 10
1075.535767
 20
363.185333
 30
0.0
 11
1067.135742
 21
363.185333
 31
0.0
210
0.0
220
0.0
230
1.0
  0
LINE
  5
E3
100
AcDbEntity
  8
0
370
    35
390
0
 62
     7
 48
0.075
100
AcDbLine
 10
1067.135742
 20
363.185333
 30
0.0
 11
1067.135742
 21
360.185333
 31
0.0
210
0.0
220
0.0
230
1.0
  0
LINE
  5
E4
100
AcDbEntity
  8
0
370
    35
390
0
 62
     7
 48
0.05
100
AcDbLine
 10
1067.135742
 20
360.185333
 30
0.0
 11
1065.135742
 21
360.185333
 31
0.0
210
0.0
220
0.0
230
1.0
  0
LINE
  5
E5
100
AcDbEntity
  8
0
370
    35
390
0
 62
     7
 48
0.33541
100
AcDbLine
 10
1059.135742
 20
372.185333
 30
0.0
 11
1065.135742
 21
360.185333
 31
0.0
210
0.0
220
0.0
230
1.0
  0
LINE
  5
E6
100
AcDbEntity
  8
0
370
    35
390
0
 62
     7
 48
0.05
100
AcDbLine
 10
1059.135742
 20
372.185333
 30
0.0
 11
1061.135742
 21
372.185333
 31
0.0
210
0.0
220
0.0
230
1.0
  0
LINE
  5
E7
100
AcDbEntity
  8
0
370
    35
390
0
 62
     7
 48
0.07
100
AcDbLine
 10
1061.135742
 20
372.185333
 30
0.0
 11
1061.135742
 21
374.985352
 31
0.0
210
0.0
220
0.0
230
1.0
  0
LINE
  5
E8
100
AcDbEntity
  8
0
370
    35
390
0
 62
     7
 48
0.15
100
AcDbLine
 10
1061.135742
 20
374.985352
 30
0.0
 11
1067.135742
 21
374.985352
 31
0.0
210
0.0
220
0.0
230
1.0
  0
LINE
  5
E9
100
AcDbEntity
  8
0
370
    35
390
0
 62
     7
 48
0.145
100
AcDbLine
 10
1067.135742
 20
369.185333
 30
0.0
 11
1067.135742
 21
374.985352
 31
0.0
210
0.0
220
0.0
230
1.0
  0
LINE
  5
EA
100
AcDbEntity
  8
0
370
    35
390
0
 62
     7
 48
0.210001
100
AcDbLine
 10
1069.135742
 20
377.185333
 30
0.0
 11
1060.735718
 21
377.185333
 31
0.0
210
0.0
220
0.0
230
1.0
  0
LINE
  5
EB
100
AcDbEntity
  8
0
370
    35
390
0
 62
     7
 48
0.15
100
AcDbLine
 10
1060.735718
 20
377.185333
 30
0.0
 11
1060.735718
 21
383.185333
 31
0.0
210
0.0
220
0.0
230
1.0
  0
LINE
  5
EC
100
AcDbEntity
  8
0
370
    35
390
0
 62
     7
 48
0.210001
100
AcDbLine
 10
1060.735718
 20
383.185333
 30
0.0
 11
1069.135742
 21
383.185333
 31
0.0
210
0.0
220
0.0
230
1.0
  0
LINE
  5
ED
100
AcDbEntity
  8
0
370
    35
390
0
 62
     7
 48
0.075
100
AcDbLine
 10
1069.135742
 20
383.185333
 30
0.0
 11
1069.135742
 21
386.185333
 31
0.0
210
0.0
220
0.0
230
1.0
  0
LINE
  5
EE
100
AcDbEntity
  8
0
370
    35
390
0
 62
     7
 48
0.05
100
AcDbLine
 10
1069.135742
 20
386.185333
 30
0.0
 11
1071.135742
 21
386.185333
 31
0.0
210
0.0
220
0.0
230
1.0
  0
LINE
  5
EF
100
AcDbEntity
  8
0
370
    35
390
0
 62
     7
 48
0.33541
100
AcDbLine
 10
1077.135742
 20
374.185333
 30
0.0
 11
1071.135742
 21
386.185333
 31
0.0
210
0.0
220
0.0
230
1.0
  0
LINE
  5
F0
100
AcDbEntity
  8
0
370
    35
390
0
 62
     7
 48
0.05
100
AcDbLine
 10
1077.135742
 20
374.185333
 30
0.0
 11
1075.135742
 21
374.185333
 31
0.0
210
0.0
220
0.0
230
1.0
  0
LINE
  5
F1
100
AcDbEntity
  8
0
370
    35
390
0
 62
     7
 48
0.07
100
AcDbLine
 10
1075.135742
 20
374.185333
 30
0.0
 11
1075.135742
 21
371.385315
 31
0.0
210
0.0
220
0.0
230
1.0
  0
LINE
  5
F2
100
AcDbEntity
  8
0
370
    35
390
0
 62
     7
 48
0.15
100
AcDbLine
 10
1075.135742
 20
371.385315
 30
0.0
 11
1069.135742
 21
371.385315
 31
0.0
210
0.0
220
0.0
230
1.0
  0
LINE
  5
F3
100
AcDbEntity
  8
0
370
    35
390
0
 62
     7
 48
0.145
100
AcDbLine
 10
1069.135742
 20
377.185333
 30
0.0
 11
1069.135742
 21
371.385315
 31
0.0
210
0.0
220
0.0
230
1.0
  0
LINE
  5
F4
100
AcDbEntity
  8
0
370
    35
390
0
 62
     7
 48
0.210001
100
AcDbLine
 10
1067.135742
 20
394.185333
 30
0.0
 11
1075.535767
 21
394.185333
 31
0.0
210
0.0
220
0.0
230
1.0
  0
LINE
  5
F5
100
AcDbEntity
  8
0
370
    35
390
0
 62
     7
 48
0.15
100
AcDbLine
 10
1075.535767
 20
394.185333
 30
0.0
 11
1075.535767
 21
388.185333
 31
0.0
210
0.0
220
0.0
230
1.0
  0
LINE
  5
F6
100
AcDbEntity
  8
0
370
    35
390
0
 62
     7
 48
0.210001
100
AcDbLine
 10
1075.535767
 20
388.185333
 30
0.0
 11
1067.135742
 21
388.185333
 31
0.0
210
0.0
220
0.0
230
1.0
  0
LINE
  5
F7
100
AcDbEntity
  8
0
370
    35
390
0
 62
     7
 48
0.075
100
AcDbLine
 10
1067.135742
 20
388.185333
 30
0.0
 11
1067.135742
 21
385.185333
 31
0.0
210
0.0
220
0.0
230
1.0
  0
LINE
  5
F8
100
AcDbEntity
  8
0
370
    35
390
0
 62
     7
 48
0.05
100
AcDbLine
 10
1067.135742
 20
385.185333
 30
0.0
 11
1065.135742
 21
385.185333
 31
0.0
210
0.0
220
0.0
230
1.0
  0
LINE
  5
F9
100
AcDbEntity
  8
0
370
    35
390
0
 62
     7
 48
0.33541
100
AcDbLine
 10
1059.135742
 20
397.185333
 30
0.0
 11
1065.135742
 21
385.185333
 31
0.0
210
0.0
220
0.0
230
1.0
  0
LINE
  5
FA
100
AcDbEntity
  8
0
370
    35
390
0
 62
     7
 48
0.05
100
AcDbLine
 10
1059.135742
 20
397.185333
 30
0.0
 11
1061.135742
 21
397.185333
 31
0.0
210
0.0
220
0.0
230
1.0
  0
LINE
  5
FB
100
AcDbEntity
  8
0
370
    35
390
0
 62
     7
 48
0.07
100
AcDbLine
 10
1061.135742
 20
397.185333
 30
0.0
 11
1061.135742
 21
399.985352
 31
0.0
210
0.0
220
0.0
230
1.0
  0
LINE
  5
FC
100
AcDbEntity
  8
0
370
    35
390
0
 62
     7
 48
0.15
100
AcDbLine
 10
1061.135742
 20
399.985352
 30
0.0
 11
1067.135742
 21
399.985352
 31
0.0
210
0.0
220
0.0
230
1.0
  0
LINE
  5
FD
100
AcDbEntity
  8
0
370
    35
390
0
 62
     7
 48
0.145
100
AcDbLine
 10
1067.135742
 20
394.185333
 30
0.0
 11
1067.135742
 21
399.985352
 31
0.0
210
0.0
220
0.0
230
1.0
  0
LINE
  5
FE
100
AcDbEntity
  8
0
370
    35
390
0
 62
     7
 48
0.210001
100
AcDbLine
 10
1069.135742
 20
402.185333
 30
0.0
 11
1060.735718
 21
402.185333
 31
0.0
210
0.0
220
0.0
230
1.0
  0
LINE
  5
FF
100
AcDbEntity
  8
0
370
    35
390
0
 62
     7
 48
0.15
100
AcDbLine
 10
1060.735718
 20
402.185333
 30
0.0
 11
1060.735718
 21
408.185333
 31
0.0
210
0.0
220
0.0
230
1.0
  0
LINE
  5
100
100
AcDbEntity
  8
0
370
    35
390
0
 62
     7
 48
0.210001
100
AcDbLine
 10
1060.735718
 20
408.185333
 30
0.0
 11
1069.135742
 21
408.185333
 31
0.0
210
0.0
220
0.0
230
1.0
  0
LINE
  5
101
100
AcDbEntity
  8
0
370
    35
390
0
 62
     7
 48
0.075
100
AcDbLine
 10
1069.135742
 20
408.185333
 30
0.0
 11
1069.135742
 21
411.185333
 31
0.0
210
0.0
220
0.0
230
1.0
  0
LINE
  5
102
100
AcDbEntity
  8
0
370
    35
390
0
 62
     7
 48
0.05
100
AcDbLine
 10
1069.135742
 20
411.185333
 30
0.0
 11
1071.135742
 21
411.185333
 31
0.0
210
0.0
220
0.0
230
1.0
  0
LINE
  5
103
100
AcDbEntity
  8
0
370
    35
390
0
 62
     7
 48
0.33541
100
AcDbLine
 10
1077.135742
 20
399.185333
 30
0.0
 11
1071.135742
 21
411.185333
 31
0.0
210
0.0
220
0.0
230
1.0
  0
LINE
  5
104
100
AcDbEntity
  8
0
370
    35
390
0
 62
     7
 48
0.05
100
AcDbLine
 10
1077.135742
 20
399.185333
 30
0.0
 11
1075.135742
 21
399.185333
 31
0.0
210
0.0
220
0.0
230
1.0
  0
LINE
  5
105
100
AcDbEntity
  8
0
370
    35
390
0
 62
     7
 48
0.07
100
AcDbLine
 10
1075.135742
 20
399.185333
 30
0.0
 11
1075.135742
 21
396.385315
 31
0.0
210
0.0
220
0.0
230
1.0
  0
LINE
  5
106
100
AcDbEntity
  8
0
370
    35
390
0
 62
     7
 48
0.15
100
AcDbLine
 10
1075.135742
 20
396.385315
 30
0.0
 11
1069.135742
 21
396.385315
 31
0.0
210
0.0
220
0.0
230
1.0
  0
LINE
  5
107
100
AcDbEntity
  8
0
370
    35
390
0
 62
     7
 48
0.145
100
AcDbLine
 10
1069.135742
 20
402.185333
 30
0.0
 11
1069.135742
 21
396.385315
 31
0.0
210
0.0
220
0.0
230
1.0
  0
LINE
  5
108
100
AcDbEntity
  8
0
370
    35
390
0
 62
     7
 48
0.210001
100
AcDbLine
 10
1067.135742
 20
419.185333
 30
0.0
 11
1075.535767
 21
419.185333
 31
0.0
210
0.0
220
0.0
230
1.0
  0
LINE
  5
109
100
AcDbEntity
  8
0
370
    35
390
0
 62
     7
 48
0.15
100
AcDbLine
 10
1075.535767
 20
419.185333
 30
0.0
 11
1075.535767
 21
413.185333
 31
0.0
210
0.0
220
0.0
230
1.0
  0
LINE
  5
10A
100
AcDbEntity
  8
0
370
    35
390
0
 62
     7
 48
0.210001
100
AcDbLine
 10
1075.535767
 20
413.185333
 30
0.0
 11
1067.135742
 21
413.185333
 31
0.0
210
0.0
220
0.0
230
1.0
  0
LINE
  5
10B
100
AcDbEntity
  8
0
370
    35
390
0
 62
     7
 48
0.075
100
AcDbLine
 10
1067.135742
 20
413.185333
 30
0.0
 11
1067.135742
 21
410.185333
 31
0.0
210
0.0
220
0.0
230
1.0
  0
LINE
  5
10C
100
AcDbEntity
  8
0
370
    35
390
0
 62
     7
 48
0.05
100
AcDbLine
 10
1067.135742
 20
410.185333
 30
0.0
 11
1065.135742
 21
410.185333
 31
0.0
210
0.0
220
0.0
230
1.0
  0
LINE
  5
10D
100
AcDbEntity
  8
0
370
    35
390
0
 62
     7
 48
0.33541
100
AcDbLine
 10
1059.135742
 20
422.185333
 30
0.0
 11
1065.135742
 21
410.185333
 31
0.0
210
0.0
220
0.0
230
1.0
  0
LINE
  5
10E
100
AcDbEntity
  8
0
370
    35
390
0
 62
     7
 48
0.05
100
AcDbLine
 10
1059.135742
 20
422.185333
 30
0.0
 11
1061.135742
 21
422.185333
 31
0.0
210
0.0
220
0.0
230
1.0
  0
LINE
  5
10F
100
AcDbEntity
  8
0
370
    35
390
0
 62
     7
 48
0.07
100
AcDbLine
 10
1061.135742
 20
422.185333
 30
0.0
 11
1061.135742
 21
424.985352
 31
0.0
210
0.0
220
0.0
230
1.0
  0
LINE
  5
110
100
AcDbEntity
  8
0
370
    35
390
0
 62
     7
 48
0.15
100
AcDbLine
 10
1061.135742
 20
424.985352
 30
0.0
 11
1067.135742
 21
424.985352
 31
0.0
210
0.0
220
0.0
230
1.0
  0
LINE
  5
111
100
AcDbEntity
  8
0
370
    35
390
0
 62
     7
 48
0.145
100
AcDbLine
 10
1067.135742
 20
419.185333
 30
0.0
 11
1067.135742
 21
424.985352
 31
0.0
210
0.0
220
0.0
230
1.0
  0
LINE
  5
112
100
AcDbEntity
  8
0
370
    35
390
0
 62
     7
 48
0.210001
100
AcDbLine
 10
1069.135742
 20
427.185333
 30
0.0
 11
1060.735718
 21
427.185333
 31
0.0
210
0.0
220
0.0
230
1.0
  0
LINE
  5
113
100
AcDbEntity
  8
0
370
    35
390
0
 62
     7
 48
0.15
100
AcDbLine
 10
1060.735718
 20
427.185333
 30
0.0
 11
1060.735718
 21
433.185333
 31
0.0
210
0.0
220
0.0
230
1.0
  0
LINE
  5
114
100
AcDbEntity
  8
0
370
    35
390
0
 62
     7
 48
0.210001
100
AcDbLine
 10
1060.735718
 20
433.185333
 30
0.0
 11
1069.135742
 21
433.185333
 31
0.0
210
0.0
220
0.0
230
1.0
  0
LINE
  5
115
100
AcDbEntity
  8
0
370
    35
390
0
 62
     7
 48
0.075
100
AcDbLine
 10
1069.135742
 20
433.185333
 30
0.0
 11
1069.135742
 21
436.185333
 31
0.0
210
0.0
220
0.0
230
1.0
  0
LINE
  5
116
100
AcDbEntity
  8
0
370
    35
390
0
 62
     7
 48
0.05
100
AcDbLine
 10
1069.135742
 20
436.185333
 30
0.0
 11
1071.135742
 21
436.185333
 31
0.0
210
0.0
220
0.0
230
1.0
  0
LINE
  5
117
100
AcDbEntity
  8
0
370
    35
390
0
 62
     7
 48
0.33541
100
AcDbLine
 10
1077.135742
 20
424.185333
 30
0.0
 11
1071.135742
 21
436.185333
 31
0.0
210
0.0
220
0.0
230
1.0
  0
LINE
  5
118
100
AcDbEntity
  8
0
370
    35
390
0
 62
     7
 48
0.05
100
AcDbLine
 10
1077.135742
 20
424.185333
 30
0.0
 11
1075.135742
 21
424.185333
 31
0.0
210
0.0
220
0.0
230
1.0
  0
LINE
  5
119
100
AcDbEntity
  8
0
370
    35
390
0
 62
     7
 48
0.07
100
AcDbLine
 10
1075.135742
 20
424.185333
 30
0.0
 11
1075.135742
 21
421.385315
 31
0.0
210
0.0
220
0.0
230
1.0
  0
LINE
  5
11A
100
AcDbEntity
  8
0
370
    35
390
0
 62
     7
 48
0.15
100
AcDbLine
 10
1075.135742
 20
421.385315
 30
0.0
 11
1069.135742
 21
421.385315
 31
0.0
210
0.0
220
0.0
230
1.0
  0
LINE
  5
11B
100
AcDbEntity
  8
0
370
    35
390
0
 62
     7
 48
0.145
100
AcDbLine
 10
1069.135742
 20
427.185333
 30
0.0
 11
1069.135742
 21
421.385315
 31
0.0
210
0.0
220
0.0
230
1.0
  0
LINE
  5
11C
100
AcDbEntity
  8
0
370
    35
390
0
 62
     7
 48
0.210001
100
AcDbLine
 10
1067.135742
 20
444.185333
 30
0.0
 11
1075.535767
 21
444.185333
 31
0.0
210
0.0
220
0.0
230
1.0
  0
LINE
  5
11D
100
AcDbEntity
  8
0
370
    35
390
0
 62
     7
 48
0.15
100
AcDbLine
 10
1075.535767
 20
444.185333
 30
0.0
 11
1075.535767
 21
438.185333
 31
0.0
210
0.0
220
0.0
230
1.0
  0
LINE
  5
11E
100
AcDbEntity
  8
0
370
    35
390
0
 62
     7
 48
0.210001
100
AcDbLine
 10
1075.535767
 20
438.185333
 30
0.0
 11
1067.135742
 21
438.185333
 31
0.0
210
0.0
220
0.0
230
1.0
  0
LINE
  5
11F
100
AcDbEntity
  8
0
370
    35
390
0
 62
     7
 48
0.075
100
AcDbLine
 10
1067.135742
 20
438.185333
 30
0.0
 11
1067.135742
 21
435.185333
 31
0.0
210
0.0
220
0.0
230
1.0
  0
LINE
  5
120
100
AcDbEntity
  8
0
370
    35
390
0
 62
     7
 48
0.05
100
AcDbLine
 10
1067.135742
 20
435.185333
 30
0.0
 11
1065.135742
 21
435.185333
 31
0.0
210
0.0
220
0.0
230
1.0
  0
LINE
  5
121
100
AcDbEntity
  8
0
370
    35
390
0
 62
     7
 48
0.33541
100
AcDbLine
 10
1059.135742
 20
447.185333
 30
0.0
 11
1065.135742
 21
435.185333
 31
0.0
210
0.0
220
0.0
230
1.0
  0
LINE
  5
122
100
AcDbEntity
  8
0
370
    35
390
0
 62
     7
 48
0.05
100
AcDbLine
 10
1059.135742
 20
447.185333
 30
0.0
 11
1061.135742
 21
447.185333
 31
0.0
210
0.0
220
0.0
230
1.0
  0
LINE
  5
123
100
AcDbEntity
  8
0
370
    35
390
0
 62
     7
 48
0.07
100
AcDbLine
 10
1061.135742
 20
447.185333
 30
0.0
 11
1061.135742
 21
449.985352
 31
0.0
210
0.0
220
0.0
230
1.0
  0
LINE
  5
124
100
AcDbEntity
  8
0
370
    35
390
0
 62
     7
 48
0.15
100
AcDbLine
 10
1061.135742
 20
449.985352
 30
0.0
 11
1067.135742
 21
449.985352
 31
0.0
210
0.0
220
0.0
230
1.0
  0
LINE
  5
125
100
AcDbEntity
  8
0
370
    35
390
0
 62
     7
 48
0.145
100
AcDbLine
 10
1067.135742
 20
444.185333
 30
0.0
 11
1067.135742
 21
449.985352
 31
0.0
210
0.0
220
0.0
230
1.0
  0
LINE
  5
126
100
AcDbEntity
  8
0
370
    35
390
0
 62
     7
 48
0.210001
100
AcDbLine
 10
1069.135742
 20
452.185333
 30
0.0
 11
1060.735718
 21
452.185333
 31
0.0
210
0.0
220
0.0
230
1.0
  0
LINE
  5
127
100
AcDbEntity
  8
0
370
    35
390
0
 62
     7
 48
0.15
100
AcDbLine
 10
1060.735718
 20
452.185333
 30
0.0
 11
1060.735718
 21
458.185333
 31
0.0
210
0.0
220
0.0
230
1.0
  0
LINE
  5
128
100
AcDbEntity
  8
0
370
    35
390
0
 62
     7
 48
0.210001
100
AcDbLine
 10
1060.735718
 20
458.185333
 30
0.0
 11
1069.135742
 21
458.185333
 31
0.0
210
0.0
220
0.0
230
1.0
  0
LINE
  5
129
100
AcDbEntity
  8
0
370
    35
390
0
 62
     7
 48
0.075
100
AcDbLine
 10
1069.135742
 20
458.185333
 30
0.0
 11
1069.135742
 21
461.185333
 31
0.0
210
0.0
220
0.0
230
1.0
  0
LINE
  5
12A
100
AcDbEntity
  8
0
370
    35
390
0
 62
     7
 48
0.05
100
AcDbLine
 10
1069.135742
 20
461.185333
 30
0.0
 11
1071.135742
 21
461.185333
 31
0.0
210
0.0
220
0.0
230
1.0
  0
LINE
  5
12B
100
AcDbEntity
  8
0
370
    35
390
0
 62
     7
 48
0.33541
100
AcDbLine
 10
1077.135742
 20
449.185333
 30
0.0
 11
1071.135742
 21
461.185333
 31
0.0
210
0.0
220
0.0
230
1.0
  0
LINE
  5
12C
100
AcDbEntity
  8
0
370
    35
390
0
 62
     7
 48
0.05
100
AcDbLine
 10
1077.135742
 20
449.185333
 30
0.0
 11
1075.135742
 21
449.185333
 31
0.0
210
0.0
220
0.0
230
1.0
  0
LINE
  5
12D
100
AcDbEntity
  8
0
370
    35
390
0
 62
     7
 48
0.07
100
AcDbLine
 10
1075.135742
 20
449.185333
 30
0.0
 11
1075.135742
 21
446.385315
 31
0.0
210
0.0
220
0.0
230
1.0
  0
LINE
  5
12E
100
AcDbEntity
  8
0
370
    35
390
0
 62
     7
 48
0.15
100
AcDbLine
 10
1075.135742
 20
446.385315
 30
0.0
 11
1069.135742
 21
446.385315
 31
0.0
210
0.0
220
0.0
230
1.0
  0
LINE
  5
12F
100
AcDbEntity
  8
0
370
    35
390
0
 62
     7
 48
0.145
100
AcDbLine
 10
1069.135742
 20
452.185333
 30
0.0
 11
1069.135742
 21
446.385315
 31
0.0
210
0.0
220
0.0
230
1.0
  0
LINE
  5
130
100
AcDbEntity
  8
0
370
    35
390
0
 62
     7
 48
0.210001
100
AcDbLine
 10
1052.135742
 20
338.185333
 30
0.0
 11
1043.735718
 21
338.185333
 31
0.0
210
0.0
220
0.0
230
1.0
  0
LINE
  5
131
100
AcDbEntity
  8
0
370
    35
390
0
 62
     7
 48
0.15
100
AcDbLine
 10
1043.735718
 20
338.185333
 30
0.0
 11
1043.735718
 21
344.185333
 31
0.0
210
0.0
220
0.0
230
1.0
  0
LINE
  5
132
100
AcDbEntity
  8
0
370
    35
390
0
 62
     7
 48
0.210001
100
AcDbLine
 10
1043.735718
 20
344.185333
 30
0.0
 11
1052.135742
 21
344.185333
 31
0.0
210
0.0
220
0.0
230
1.0
  0
LINE
  5
133
100
AcDbEntity
  8
0
370
    35
390
0
 62
     7
 48
0.075
100
AcDbLine
 10
1052.135742
 20
344.185333
 30
0.0
 11
1052.135742
 21
347.185333
 31
0.0
210
0.0
220
0.0
230
1.0
  0
LINE
  5
134
100
AcDbEntity
  8
0
370
    35
390
0
 62
     7
 48
0.05
100
AcDbLine
 10
1052.135742
 20
347.185333
 30
0.0
 11
1054.135742
 21
347.185333
 31
0.0
210
0.0
220
0.0
230
1.0
  0
LINE
  5
135
100
AcDbEntity
  8
0
370
    35
390
0
 62
     7
 48
0.33541
100
AcDbLine
 10
1060.135742
 20
335.185333
 30
0.0
 11
1054.135742
 21
347.185333
 31
0.0
210
0.0
220
0.0
230
1.0
  0
LINE
  5
136
100
AcDbEntity
  8
0
370
    35
390
0
 62
     7
 48
0.05
100
AcDbLine
 10
1060.135742
 20
335.185333
 30
0.0
 11
1058.135742
 21
335.185333
 31
0.0
210
0.0
220
0.0
230
1.0
  0
LINE
  5
137
100
AcDbEntity
  8
0
370
    35
390
0
 62
     7
 48
0.07
100
AcDbLine
 10
1058.135742
 20
335.185333
 30
0.0
 11
1058.135742
 21
332.385345
 31
0.0
210
0.0
220
0.0
230
1.0
  0
LINE
  5
138
100
AcDbEntity
  8
0
370
    35
390
0
 62
     7
 48
0.15
100
AcDbLine
 10
1058.135742
 20
332.385345
 30
0.0
 11
1052.135742
 21
332.385345
 31
0.0
210
0.0
220
0.0
230
1.0
  0
LINE
  5
139
100
AcDbEntity
  8
0
370
    35
390
0
 62
     7
 48
0.145
100
AcDbLine
 10
1052.135742
 20
338.185333
 30
0.0
 11
1052.135742
 21
332.385345
 31
0.0
210
0.0
220
0.0
230
1.0
  0
LINE
  5
13A
100
AcDbEntity
  8
0
370
    35
390
0
 62
     7
 48
0.210001
100
AcDbLine
 10
1050.135742
 20
355.185333
 30
0.0
 11
1058.535767
 21
355.185333
 31
0.0
210
0.0
220
0.0
230
1.0
  0
LINE
  5
13B
100
AcDbEntity
  8
0
370
    35
390
0
 62
     7
 48
0.15
100
AcDbLine
 10
1058.535767
 20
355.185333
 30
0.0
 11
1058.535767
 21
349.185333
 31
0.0
210
0.0
220
0.0
230
1.0
  0
LINE
  5
13C
100
AcDbEntity
  8
0
370
    35
390
0
 62
     7
 48
0.210001
100
AcDbLine
 10
1058.535767
 20
349.185333
 30
0.0
 11
1050.135742
 21
349.185333
 31
0.0
210
0.0
220
0.0
230
1.0
  0
LINE
  5
13D
100
AcDbEntity
  8
0
370
    35
390
0
 62
     7
 48
0.075
100
AcDbLine
 10
1050.135742
 20
349.185333
 30
0.0
 11
1050.135742
 21
346.185333
 31
0.0
210
0.0
220
0.0
230
1.0
  0
LINE
  5
13E
100
AcDbEntity
  8
0
370
    35
390
0
 62
     7
 48
0.05
100
AcDbLine
 10
1050.135742
 20
346.185333
 30
0.0
 11
1048.135742
 21
346.185333
 31
0.0
210
0.0
220
0.0
230
1.0
  0
LINE
  5
13F
100
AcDbEntity
  8
0
370
    35
390
0
 62
     7
 48
0.33541
100
AcDbLine
 10
1042.135742
 20
358.185333
 30
0.0
 11
1048.135742
 21
346.185333
 31
0.0
210
0.0
220
0.0
230
1.0
  0
LINE
  5
140
100
AcDbEntity
  8
0
370
    35
390
0
 62
     7
 48
0.05
100
AcDbLine
 10
1042.135742
 20
358.185333
 30
0.0
 11
1044.135742
 21
358.185333
 31
0.0
210
0.0
220
0.0
230
1.0
  0
LINE
  5
141
100
AcDbEntity
  8
0
370
    35
390
0
 62
     7
 48
0.07
100
AcDbLine
 10
1044.135742
 20
358.185333
 30
0.0
 11
1044.135742
 21
360.985352
 31
0.0
210
0.0
220
0.0
230
1.0
  0
LINE
  5
142
100
AcDbEntity
  8
0
370
    35
390
0
 62
     7
 48
0.15
100
AcDbLine
 10
1044.135742
 20
360.985352
 30
0.0
 11
1050.135742
 21
360.985352
 31
0.0
210
0.0
220
0.0
230
1.0
  0
LINE
  5
143
100
AcDbEntity
  8
0
370
    35
390
0
 62
     7
 48
0.145
100
AcDbLine
 10
1050.135742
 20
355.185333
 30
0.0
 11
1050.135742
 21
360.985352
 31
0.0
210
0.0
220
0.0
230
1.0
  0
LINE
  5
144
100
AcDbEntity
  8
0
370
    35
390
0
 62
     7
 48
0.210001
100
AcDbLine
 10
1052.135742
 20
363.185333
 30
0.0
 11
1043.735718
 21
363.185333
 31
0.0
210
0.0
220
0.0
230
1.0
  0
LINE
  5
145
100
AcDbEntity
  8
0
370
    35
390
0
 62
     7
 48
0.15
100
AcDbLine
 10
1043.735718
 20
363.185333
 30
0.0
 11
1043.735718
 21
369.185333
 31
0.0
210
0.0
220
0.0
230
1.0
  0
LINE
  5
146
100
AcDbEntity
  8
0
370
    35
390
0
 62
     7
 48
0.210001
100
AcDbLine
 10
1043.735718
 20
369.185333
 30
0.0
 11
1052.135742
 21
369.185333
 31
0.0
210
0.0
220
0.0
230
1.0
  0
LINE
  5
147
100
AcDbEntity
  8
0
370
    35
390
0
 62
     7
 48
0.075
100
AcDbLine
 10
1052.135742
 20
369.185333
 30
0.0
 11
1052.135742
 21
372.185333
 31
0.0
210
0.0
220
0.0
230
1.0
  0
LINE
  5
148
100
AcDbEntity
  8
0
370
    35
390
0
 62
     7
 48
0.05
100
AcDbLine
 10
1052.135742
 20
372.185333
 30
0.0
 11
1054.135742
 21
372.185333
 31
0.0
210
0.0
220
0.0
230
1.0
  0
LINE
  5
149
100
AcDbEntity
  8
0
370
    35
390
0
 62
     7
 48
0.33541
100
AcDbLine
 10
1060.135742
 20
360.185333
 30
0.0
 11
1054.135742
 21
372.185333
 31
0.0
210
0.0
220
0.0
230
1.0
  0
LINE
  5
14A
100
AcDbEntity
  8
0
370
    35
390
0
 62
     7
 48
0.05
100
AcDbLine
 10
1060.135742
 20
360.185333
 30
0.0
 11
1058.135742
 21
360.185333
 31
0.0
210
0.0
220
0.0
230
1.0
  0
LINE
  5
14B
100
AcDbEntity
  8
0
370
    35
390
0
 62
     7
 48
0.07
100
AcDbLine
 10
1058.135742
 20
360.185333
 30
0.0
 11
1058.135742
 21
357.385315
 31
0.0
210
0.0
220
0.0
230
1.0
  0
LINE
  5
14C
100
AcDbEntity
  8
0
370
    35
390
0
 62
     7
 48
0.15
100
AcDbLine
 10
1058.135742
 20
357.385315
 30
0.0
 11
1052.135742
 21
357.385315
 31
0.0
210
0.0
220
0.0
230
1.0
  0
LINE
  5
14D
100
AcDbEntity
  8
0
370
    35
390
0
 62
     7
 48
0.145
100
AcDbLine
 10
1052.135742
 20
363.185333
 30
0.0
 11
1052.135742
 21
357.385315
 31
0.0
210
0.0
220
0.0
230
1.0
  0
LINE
  5
14E
100
AcDbEntity
  8
0
370
    35
390
0
 62
     7
 48
0.210001
100
AcDbLine
 10
1050.135742
 20
380.185333
 30
0.0
 11
1058.535767
 21
380.185333
 31
0.0
210
0.0
220
0.0
230
1.0
  0
LINE
  5
14F
100
AcDbEntity
  8
0
370
    35
390
0
 62
     7
 48
0.15
100
AcDbLine
 10
1058.535767
 20
380.185333
 30
0.0
 11
1058.535767
 21
374.185333
 31
0.0
210
0.0
220
0.0
230
1.0
  0
LINE
  5
150
100
AcDbEntity
  8
0
370
    35
390
0
 62
     7
 48
0.210001
100
AcDbLine
 10
1058.535767
 20
374.185333
 30
0.0
 11
1050.135742
 21
374.185333
 31
0.0
210
0.0
220
0.0
230
1.0
  0
LINE
  5
151
100
AcDbEntity
  8
0
370
    35
390
0
 62
     7
 48
0.075
100
AcDbLine
 10
1050.135742
 20
374.185333
 30
0.0
 11
1050.135742
 21
371.185333
 31
0.0
210
0.0
220
0.0
230
1.0
  0
LINE
  5
152
100
AcDbEntity
  8
0
370
    35
390
0
 62
     7
 48
0.05
100
AcDbLine
 10
1050.135742
 20
371.185333
 30
0.0
 11
1048.135742
 21
371.185333
 31
0.0
210
0.0
220
0.0
230
1.0
  0
LINE
  5
153
100
AcDbEntity
  8
0
370
    35
390
0
 62
     7
 48
0.33541
100
AcDbLine
 10
1042.135742
 20
383.185333
 30
0.0
 11
1048.135742
 21
371.185333
 31
0.0
210
0.0
220
0.0
230
1.0
  0
LINE
  5
154
100
AcDbEntity
  8
0
370
    35
390
0
 62
     7
 48
0.05
100
AcDbLine
 10
1042.135742
 20
383.185333
 30
0.0
 11
1044.135742
 21
383.185333
 31
0.0
210
0.0
220
0.0
230
1.0
  0
LINE
  5
155
100
AcDbEntity
  8
0
370
    35
390
0
 62
     7
 48
0.07
100
AcDbLine
 10
1044.135742
 20
383.185333
 30
0.0
 11
1044.135742
 21
385.985352
 31
0.0
210
0.0
220
0.0
230
1.0
  0
LINE
  5
156
100
AcDbEntity
  8
0
370
    35
390
0
 62
     7
 48
0.15
100
AcDbLine
 10
1044.135742
 20
385.985352
 30
0.0
 11
1050.135742
 21
385.985352
 31
0.0
210
0.0
220
0.0
230
1.0
  0
LINE
  5
157
100
AcDbEntity
  8
0
370
    35
390
0
 62
     7
 48
0.145
100
AcDbLine
 10
1050.135742
 20
380.185333
 30
0.0
 11
1050.135742
 21
385.985352
 31
0.0
210
0.0
220
0.0
230
1.0
  0
LINE
  5
158
100
AcDbEntity
  8
0
370
    35
390
0
 62
     7
 48
0.210001
100
AcDbLine
 10
1052.135742
 20
388.185333
 30
0.0
 11
1043.735718
 21
388.185333
 31
0.0
210
0.0
220
0.0
230
1.0
  0
LINE
  5
159
100
AcDbEntity
  8
0
370
    35
390
0
 62
     7
 48
0.15
100
AcDbLine
 10
1043.735718
 20
388.185333
 30
0.0
 11
1043.735718
 21
394.185333
 31
0.0
210
0.0
220
0.0
230
1.0
  0
LINE
  5
15A
100
AcDbEntity
  8
0
370
    35
390
0
 62
     7
 48
0.210001
100
AcDbLine
 10
1043.735718
 20
394.185333
 30
0.0
 11
1052.135742
 21
394.185333
 31
0.0
210
0.0
220
0.0
230
1.0
  0
LINE
  5
15B
100
AcDbEntity
  8
0
370
    35
390
0
 62
     7
 48
0.075
100
AcDbLine
 10
1052.135742
 20
394.185333
 30
0.0
 11
1052.135742
 21
397.185333
 31
0.0
210
0.0
220
0.0
230
1.0
  0
LINE
  5
15C
100
AcDbEntity
  8
0
370
    35
390
0
 62
     7
 48
0.05
100
AcDbLine
 10
1052.135742
 20
397.185333
 30
0.0
 11
1054.135742
 21
397.185333
 31
0.0
210
0.0
220
0.0
230
1.0
  0
LINE
  5
15D
100
AcDbEntity
  8
0
370
    35
390
0
 62
     7
 48
0.33541
100
AcDbLine
 10
1060.135742
 20
385.185333
 30
0.0
 11
1054.135742
 21
397.185333
 31
0.0
210
0.0
220
0.0
230
1.0
  0
LINE
  5
15E
100
AcDbEntity
  8
0
370
    35
390
0
 62
     7
 48
0.05
100
AcDbLine
 10
1060.135742
 20
385.185333
 30
0.0
 11
1058.135742
 21
385.185333
 31
0.0
210
0.0
220
0.0
230
1.0
  0
LINE
  5
15F
100
AcDbEntity
  8
0
370
    35
390
0
 62
     7
 48
0.07
100
AcDbLine
 10
1058.135742
 20
385.185333
 30
0.0
 11
1058.135742
 21
382.385315
 31
0.0
210
0.0
220
0.0
230
1.0
  0
LINE
  5
160
100
AcDbEntity
  8
0
370
    35
390
0
 62
     7
 48
0.15
100
AcDbLine
 10
1058.135742
 20
382.385315
 30
0.0
 11
1052.135742
 21
382.385315
 31
0.0
210
0.0
220
0.0
230
1.0
  0
LINE
  5
161
100
AcDbEntity
  8
0
370
    35
390
0
 62
     7
 48
0.145
100
AcDbLine
 10
1052.135742
 20
388.185333
 30
0.0
 11
1052.135742
 21
382.385315
 31
0.0
210
0.0
220
0.0
230
1.0
  0
LINE
  5
162
100
AcDbEntity
  8
0
370
    35
390
0
 62
     7
 48
0.210001
100
AcDbLine
 10
1050.135742
 20
405.185333
 30
0.0
 11
1058.535767
 21
405.185333
 31
0.0
210
0.0
220
0.0
230
1.0
  0
LINE
  5
163
100
AcDbEntity
  8
0
370
    35
390
0
 62
     7
 48
0.15
100
AcDbLine
 10
1058.535767
 20
405.185333
 30
0.0
 11
1058.535767
 21
399.185333
 31
0.0
210
0.0
220
0.0
230
1.0
  0
LINE
  5
164
100
AcDbEntity
  8
0
370
    35
390
0
 62
     7
 48
0.210001
100
AcDbLine
 10
1058.535767
 20
399.185333
 30
0.0
 11
1050.135742
 21
399.185333
 31
0.0
210
0.0
220
0.0
230
1.0
  0
LINE
  5
165
100
AcDbEntity
  8
0
370
    35
390
0
 62
     7
 48
0.075
100
AcDbLine
 10
1050.135742
 20
399.185333
 30
0.0
 11
1050.135742
 21
396.185333
 31
0.0
210
0.0
220
0.0
230
1.0
  0
LINE
  5
166
100
AcDbEntity
  8
0
370
    35
390
0
 62
     7
 48
0.05
100
AcDbLine
 10
1050.135742
 20
396.185333
 30
0.0
 11
1048.135742
 21
396.185333
 31
0.0
210
0.0
220
0.0
230
1.0
  0
LINE
  5
167
100
AcDbEntity
  8
0
370
    35
390
0
 62
     7
 48
0.33541
100
AcDbLine
 10
1042.135742
 20
408.185333
 30
0.0
 11
1048.135742
 21
396.185333
 31
0.0
210
0.0
220
0.0
230
1.0
  0
LINE
  5
168
100
AcDbEntity
  8
0
370
    35
390
0
 62
     7
 48
0.05
100
AcDbLine
 10
1042.135742
 20
408.185333
 30
0.0
 11
1044.135742
 21
408.185333
 31
0.0
210
0.0
220
0.0
230
1.0
  0
LINE
  5
169
100
AcDbEntity
  8
0
370
    35
390
0
 62
     7
 48
0.07
100
AcDbLine
 10
1044.135742
 20
408.185333
 30
0.0
 11
1044.135742
 21
410.985352
 31
0.0
210
0.0
220
0.0
230
1.0
  0
LINE
  5
16A
100
AcDbEntity
  8
0
370
    35
390
0
 62
     7
 48
0.15
100
AcDbLine
 10
1044.135742
 20
410.985352
 30
0.0
 11
1050.135742
 21
410.985352
 31
0.0
210
0.0
220
0.0
230
1.0
  0
LINE
  5
16B
100
AcDbEntity
  8
0
370
    35
390
0
 62
     7
 48
0.145
100
AcDbLine
 10
1050.135742
 20
405.185333
 30
0.0
 11
1050.135742
 21
410.985352
 31
0.0
210
0.0
220
0.0
230
1.0
  0
LINE
  5
16C
100
AcDbEntity
  8
0
370
    35
390
0
 62
     7
 48
0.210001
100
AcDbLine
 10
1052.135742
 20
413.185333
 30
0.0
 11
1043.735718
 21
413.185333
 31
0.0
210
0.0
220
0.0
230
1.0
  0
LINE
  5
16D
100
AcDbEntity
  8
0
370
    35
390
0
 62
     7
 48
0.15
100
AcDbLine
 10
1043.735718
 20
413.185333
 30
0.0
 11
1043.735718
 21
419.185333
 31
0.0
210
0.0
220
0.0
230
1.0
  0
LINE
  5
16E
100
AcDbEntity
  8
0
370
    35
390
0
 62
     7
 48
0.210001
100
AcDbLine
 10
1043.735718
 20
419.185333
 30
0.0
 11
1052.135742
 21
419.185333
 31
0.0
210
0.0
220
0.0
230
1.0
  0
LINE
  5
16F
100
AcDbEntity
  8
0
370
    35
390
0
 62
     7
 48
0.075
100
AcDbLine
 10
1052.135742
 20
419.185333
 30
0.0
 11
1052.135742
 21
422.185333
 31
0.0
210
0.0
220
0.0
230
1.0
  0
LINE
  5
170
100
AcDbEntity
  8
0
370
    35
390
0
 62
     7
 48
0.05
100
AcDbLine
 10
1052.135742
 20
422.185333
 30
0.0
 11
1054.135742
 21
422.185333
 31
0.0
210
0.0
220
0.0
230
1.0
  0
LINE
  5
171
100
AcDbEntity
  8
0
370
    35
390
0
 62
     7
 48
0.33541
100
AcDbLine
 10
1060.135742
 20
410.185333
 30
0.0
 11
1054.135742
 21
422.185333
 31
0.0
210
0.0
220
0.0
230
1.0
  0
LINE
  5
172
100
AcDbEntity
  8
0
370
    35
390
0
 62
     7
 48
0.05
100
AcDbLine
 10
1060.135742
 20
410.185333
 30
0.0
 11
1058.135742
 21
410.185333
 31
0.0
210
0.0
220
0.0
230
1.0
  0
LINE
  5
173
100
AcDbEntity
  8
0
370
    35
390
0
 62
     7
 48
0.07
100
AcDbLine
 10
1058.135742
 20
410.185333
 30
0.0
 11
1058.135742
 21
407.385315
 31
0.0
210
0.0
220
0.0
230
1.0
  0
LINE
  5
174
100
AcDbEntity
  8
0
370
    35
390
0
 62
     7
 48
0.15
100
AcDbLine
 10
1058.135742
 20
407.385315
 30
0.0
 11
1052.135742
 21
407.385315
 31
0.0
210
0.0
220
0.0
230
1.0
  0
LINE
  5
175
100
AcDbEntity
  8
0
370
    35
390
0
 62
     7
 48
0.145
100
AcDbLine
 10
1052.135742
 20
413.185333
 30
0.0
 11
1052.135742
 21
407.385315
 31
0.0
210
0.0
220
0.0
230
1.0
  0
LINE
  5
176
100
AcDbEntity
  8
0
370
    35
390
0
 62
     7
 48
0.210001
100
AcDbLine
 10
1050.135742
 20
430.185333
 30
0.0
 11
1058.535767
 21
430.185333
 31
0.0
210
0.0
220
0.0
230
1.0
  0
LINE
  5
177
100
AcDbEntity
  8
0
370
    35
390
0
 62
     7
 48
0.15
100
AcDbLine
 10
1058.535767
 20
430.185333
 30
0.0
 11
1058.535767
 21
424.185333
 31
0.0
210
0.0
220
0.0
230
1.0
  0
LINE
  5
178
100
AcDbEntity
  8
0
370
    35
390
0
 62
     7
 48
0.210001
100
AcDbLine
 10
1058.535767
 20
424.185333
 30
0.0
 11
1050.135742
 21
424.185333
 31
0.0
210
0.0
220
0.0
230
1.0
  0
LINE
  5
179
100
AcDbEntity
  8
0
370
    35
390
0
 62
     7
 48
0.075
100
AcDbLine
 10
1050.135742
 20
424.185333
 30
0.0
 11
1050.135742
 21
421.185333
 31
0.0
210
0.0
220
0.0
230
1.0
  0
LINE
  5
17A
100
AcDbEntity
  8
0
370
    35
390
0
 62
     7
 48
0.05
100
AcDbLine
 10
1050.135742
 20
421.185333
 30
0.0
 11
1048.135742
 21
421.185333
 31
0.0
210
0.0
220
0.0
230
1.0
  0
LINE
  5
17B
100
AcDbEntity
  8
0
370
    35
390
0
 62
     7
 48
0.33541
100
AcDbLine
 10
1042.135742
 20
433.185333
 30
0.0
 11
1048.135742
 21
421.185333
 31
0.0
210
0.0
220
0.0
230
1.0
  0
LINE
  5
17C
100
AcDbEntity
  8
0
370
    35
390
0
 62
     7
 48
0.05
100
AcDbLine
 10
1042.135742
 20
433.185333
 30
0.0
 11
1044.135742
 21
433.185333
 31
0.0
210
0.0
220
0.0
230
1.0
  0
LINE
  5
17D
100
AcDbEntity
  8
0
370
    35
390
0
 62
     7
 48
0.07
100
AcDbLine
 10
1044.135742
 20
433.185333
 30
0.0
 11
1044.135742
 21
435.985352
 31
0.0
210
0.0
220
0.0
230
1.0
  0
LINE
  5
17E
100
AcDbEntity
  8
0
370
    35
390
0
 62
     7
 48
0.15
100
AcDbLine
 10
1044.135742
 20
435.985352
 30
0.0
 11
1050.135742
 21
435.985352
 31
0.0
210
0.0
220
0.0
230
1.0
  0
LINE
  5
17F
100
AcDbEntity
  8
0
370
    35
390
0
 62
     7
 48
0.145
100
AcDbLine
 10
1050.135742
 20
430.185333
 30
0.0
 11
1050.135742
 21
435.985352
 31
0.0
210
0.0
220
0.0
230
1.0
  0
LINE
  5
180
100
AcDbEntity
  8
0
370
    35
390
0
 62
     7
 48
0.210001
100
AcDbLine
 10
1052.135742
 20
438.185333
 30
0.0
 11
1043.735718
 21
438.185333
 31
0.0
210
0.0
220
0.0
230
1.0
  0
LINE
  5
181
100
AcDbEntity
  8
0
370
    35
390
0
 62
     7
 48
0.15
100
AcDbLine
 10
1043.735718
 20
438.185333
 30
0.0
 11
1043.735718
 21
444.185333
 31
0.0
210
0.0
220
0.0
230
1.0
  0
LINE
  5
182
100
AcDbEntity
  8
0
370
    35
390
0
 62
     7
 48
0.210001
100
AcDbLine
 10
1043.735718
 20
444.185333
 30
0.0
 11
1052.135742
 21
444.185333
 31
0.0
210
0.0
220
0.0
230
1.0
  0
LINE
  5
183
100
AcDbEntity
  8
0
370
    35
390
0
 62
     7
 48
0.075
100
AcDbLine
 10
1052.135742
 20
444.185333
 30
0.0
 11
1052.135742
 21
447.185333
 31
0.0
210
0.0
220
0.0
230
1.0
  0
LINE
  5
184
100
AcDbEntity
  8
0
370
    35
390
0
 62
     7
 48
0.05
100
AcDbLine
 10
1052.135742
 20
447.185333
 30
0.0
 11
1054.135742
 21
447.185333
 31
0.0
210
0.0
220
0.0
230
1.0
  0
LINE
  5
185
100
AcDbEntity
  8
0
370
    35
390
0
 62
     7
 48
0.33541
100
AcDbLine
 10
1060.135742
 20
435.185333
 30
0.0
 11
1054.135742
 21
447.185333
 31
0.0
210
0.0
220
0.0
230
1.0
  0
LINE
  5
186
100
AcDbEntity
  8
0
370
    35
390
0
 62
     7
 48
0.05
100
AcDbLine
 10
1060.135742
 20
435.185333
 30
0.0
 11
1058.135742
 21
435.185333
 31
0.0
210
0.0
220
0.0
230
1.0
  0
LINE
  5
187
100
AcDbEntity
  8
0
370
    35
390
0
 62
     7
 48
0.07
100
AcDbLine
 10
1058.135742
 20
435.185333
 30
0.0
 11
1058.135742
 21
432.385315
 31
0.0
210
0.0
220
0.0
230
1.0
  0
LINE
  5
188
100
AcDbEntity
  8
0
370
    35
390
0
 62
     7
 48
0.15
100
AcDbLine
 10
1058.135742
 20
432.385315
 30
0.0
 11
1052.135742
 21
432.385315
 31
0.0
210
0.0
220
0.0
230
1.0
  0
LINE
  5
189
100
AcDbEntity
  8
0
370
    35
390
0
 62
     7
 48
0.145
100
AcDbLine
 10
1052.135742
 20
438.185333
 30
0.0
 11
1052.135742
 21
432.385315
 31
0.0
210
0.0
220
0.0
230
1.0
  0
LINE
  5
18A
100
AcDbEntity
  8
0
370
    35
390
0
 62
     7
 48
0.210001
100
AcDbLine
 10
1050.135742
 20
455.185333
 30
0.0
 11
1058.535767
 21
455.185333
 31
0.0
210
0.0
220
0.0
230
1.0
  0
LINE
  5
18B
100
AcDbEntity
  8
0
370
    35
390
0
 62
     7
 48
0.15
100
AcDbLine
 10
1058.535767
 20
455.185333
 30
0.0
 11
1058.535767
 21
449.185333
 31
0.0
210
0.0
220
0.0
230
1.0
  0
LINE
  5
18C
100
AcDbEntity
  8
0
370
    35
390
0
 62
     7
 48
0.210001
100
AcDbLine
 10
1058.535767
 20
449.185333
 30
0.0
 11
1050.135742
 21
449.185333
 31
0.0
210
0.0
220
0.0
230
1.0
  0
LINE
  5
18D
100
AcDbEntity
  8
0
370
    35
390
0
 62
     7
 48
0.075
100
AcDbLine
 10
1050.135742
 20
449.185333
 30
0.0
 11
1050.135742
 21
446.185333
 31
0.0
210
0.0
220
0.0
230
1.0
  0
LINE
  5
18E
100
AcDbEntity
  8
0
370
    35
390
0
 62
     7
 48
0.05
100
AcDbLine
 10
1050.135742
 20
446.185333
 30
0.0
 11
1048.135742
 21
446.185333
 31
0.0
210
0.0
220
0.0
230
1.0
  0
LINE
  5
18F
100
AcDbEntity
  8
0
370
    35
390
0
 62
     7
 48
0.33541
100
AcDbLine
 10
1042.135742
 20
458.185333
 30
0.0
 11
1048.135742
 21
446.185333
 31
0.0
210
0.0
220
0.0
230
1.0
  0
LINE
  5
190
100
AcDbEntity
  8
0
370
    35
390
0
 62
     7
 48
0.05
100
AcDbLine
 10
1042.135742
 20
458.185333
 30
0.0
 11
1044.135742
 21
458.185333
 31
0.0
210
0.0
220
0.0
230
1.0
  0
LINE
  5
191
100
AcDbEntity
  8
0
370
    35
390
0
 62
     7
 48
0.07
100
AcDbLine
 10
1044.135742
 20
458.185333
 30
0.0
 11
1044.135742
 21
460.985352
 31
0.0
210
0.0
220
0.0
230
1.0
  0
LINE
  5
192
100
AcDbEntity
  8
0
370
    35
390
0
 62
     7
 48
0.15
100
AcDbLine
 10
1044.135742
 20
460.985352
 30
0.0
 11
1050.135742
 21
460.985352
 31
0.0
210
0.0
220
0.0
230
1.0
  0
LINE
  5
193
100
AcDbEntity
  8
0
370
    35
390
0
 62
     7
 48
0.145
100
AcDbLine
 10
1050.135742
 20
455.185333
 30
0.0
 11
1050.135742
 21
460.985352
 31
0.0
210
0.0
220
0.0
230
1.0
  0
LINE
  5
194
100
AcDbEntity
  8
0
370
    35
390
0
 62
     7
 48
0.210001
100
AcDbLine
 10
1033.135742
 20
341.185333
 30
0.0
 11
1041.535767
 21
341.185333
 31
0.0
210
0.0
220
0.0
230
1.0
  0
LINE
  5
195
100
AcDbEntity
  8
0
370
    35
390
0
 62
     7
 48
0.15
100
AcDbLine
 10
1041.535767
 20
341.185333
 30
0.0
 11
1041.535767
 21
335.185333
 31
0.0
210
0.0
220
0.0
230
1.0
  0
LINE
  5
196
100
AcDbEntity
  8
0
370
    35
390
0
 62
     7
 48
0.210001
100
AcDbLine
 10
1041.535767
 20
335.185333
 30
0.0
 11
1033.135742
 21
335.185333
 31
0.0
210
0.0
220
0.0
230
1.0
  0
LINE
  5
197
100
AcDbEntity
  8
0
370
    35
390
0
 62
     7
 48
0.075
100
AcDbLine
 10
1033.135742
 20
335.185333
 30
0.0
 11
1033.135742
 21
332.185333
 31
0.0
210
0.0
220
0.0
230
1.0
  0
LINE
  5
198
100
AcDbEntity
  8
0
370
    35
390
0
 62
     7
 48
0.05
100
AcDbLine
 10
1033.135742
 20
332.185333
 30
0.0
 11
1031.135742
 21
332.185333
 31
0.0
210
0.0
220
0.0
230
1.0
  0
LINE
  5
199
100
AcDbEntity
  8
0
370
    35
390
0
 62
     7
 48
0.33541
100
AcDbLine
 10
1025.135742
 20
344.185333
 30
0.0
 11
1031.135742
 21
332.185333
 31
0.0
210
0.0
220
0.0
230
1.0
  0
LINE
  5
19A
100
AcDbEntity
  8
0
370
    35
390
0
 62
     7
 48
0.05
100
AcDbLine
 10
1025.135742
 20
344.185333
 30
0.0
 11
1027.135742
 21
344.185333
 31
0.0
210
0.0
220
0.0
230
1.0
  0
LINE
  5
19B
100
AcDbEntity
  8
0
370
    35
390
0
 62
     7
 48
0.07
100
AcDbLine
 10
1027.135742
 20
344.185333
 30
0.0
 11
1027.135742
 21
346.985352
 31
0.0
210
0.0
220
0.0
230
1.0
  0
LINE
  5
19C
100
AcDbEntity
  8
0
370
    35
390
0
 62
     7
 48
0.15
100
AcDbLine
 10
1027.135742
 20
346.985352
 30
0.0
 11
1033.135742
 21
346.985352
 31
0.0
210
0.0
220
0.0
230
1.0
  0
LINE
  5
19D
100
AcDbEntity
  8
0
370
    35
390
0
 62
     7
 48
0.145
100
AcDbLine
 10
1033.135742
 20
341.185333
 30
0.0
 11
1033.135742
 21
346.985352
 31
0.0
210
0.0
220
0.0
230
1.0
  0
LINE
  5
19E
100
AcDbEntity
  8
0
370
    35
390
0
 62
     7
 48
0.210001
100
AcDbLine
 10
1035.135742
 20
349.185333
 30
0.0
 11
1026.735718
 21
349.185333
 31
0.0
210
0.0
220
0.0
230
1.0
  0
LINE
  5
19F
100
AcDbEntity
  8
0
370
    35
390
0
 62
     7
 48
0.15
100
AcDbLine
 10
1026.735718
 20
349.185333
 30
0.0
 11
1026.735718
 21
355.185333
 31
0.0
210
0.0
220
0.0
230
1.0
  0
LINE
  5
1A0
100
AcDbEntity
  8
0
370
    35
390
0
 62
     7
 48
0.210001
100
AcDbLine
 10
1026.735718
 20
355.185333
 30
0.0
 11
1035.135742
 21
355.185333
 31
0.0
210
0.0
220
0.0
230
1.0
  0
LINE
  5
1A1
100
AcDbEntity
  8
0
370
    35
390
0
 62
     7
 48
0.075
100
AcDbLine
 10
1035.135742
 20
355.185333
 30
0.0
 11
1035.135742
 21
358.185333
 31
0.0
210
0.0
220
0.0
230
1.0
  0
LINE
  5
1A2
100
AcDbEntity
  8
0
370
    35
390
0
 62
     7
 48
0.05
100
AcDbLine
 10
1035.135742
 20
358.185333
 30
0.0
 11
1037.135742
 21
358.185333
 31
0.0
210
0.0
220
0.0
230
1.0
  0
LINE
  5
1A3
100
AcDbEntity
  8
0
370
    35
390
0
 62
     7
 48
0.33541
100
AcDbLine
 10
1043.135742
 20
346.185333
 30
0.0
 11
1037.135742
 21
358.185333
 31
0.0
210
0.0
220
0.0
230
1.0
  0
LINE
  5
1A4
100
AcDbEntity
  8
0
370
    35
390
0
 62
     7
 48
0.05
100
AcDbLine
 10
1043.135742
 20
346.185333
 30
0.0
 11
1041.135742
 21
346.185333
 31
0.0
210
0.0
220
0.0
230
1.0
  0
LINE
  5
1A5
100
AcDbEntity
  8
0
370
    35
390
0
 62
     7
 48
0.07
100
AcDbLine
 10
1041.135742
 20
346.185333
 30
0.0
 11
1041.135742
 21
343.385315
 31
0.0
210
0.0
220
0.0
230
1.0
  0
LINE
  5
1A6
100
AcDbEntity
  8
0
370
    35
390
0
 62
     7
 48
0.15
100
AcDbLine
 10
1041.135742
 20
343.385315
 30
0.0
 11
1035.135742
 21
343.385315
 31
0.0
210
0.0
220
0.0
230
1.0
  0
LINE
  5
1A7
100
AcDbEntity
  8
0
370
    35
390
0
 62
     7
 48
0.145
100
AcDbLine
 10
1035.135742
 20
349.185333
 30
0.0
 11
1035.135742
 21
343.385315
 31
0.0
210
0.0
220
0.0
230
1.0
  0
LINE
  5
1A8
100
AcDbEntity
  8
0
370
    35
390
0
 62
     7
 48
0.210001
100
AcDbLine
 10
1033.135742
 20
366.185333
 30
0.0
 11
1041.535767
 21
366.185333
 31
0.0
210
0.0
220
0.0
230
1.0
  0
LINE
  5
1A9
100
AcDbEntity
  8
0
370
    35
390
0
 62
     7
 48
0.15
100
AcDbLine
 10
1041.535767
 20
366.185333
 30
0.0
 11
1041.535767
 21
360.185333
 31
0.0
210
0.0
220
0.0
230
1.0
  0
LINE
  5
1AA
100
AcDbEntity
  8
0
370
    35
390
0
 62
     7
 48
0.210001
100
AcDbLine
 10
1041.535767
 20
360.185333
 30
0.0
 11
1033.135742
 21
360.185333
 31
0.0
210
0.0
220
0.0
230
1.0
  0
LINE
  5
1AB
100
AcDbEntity
  8
0
370
    35
390
0
 62
     7
 48
0.075
100
AcDbLine
 10
1033.135742
 20
360.185333
 30
0.0
 11
1033.135742
 21
357.185333
 31
0.0
210
0.0
220
0.0
230
1.0
  0
LINE
  5
1AC
100
AcDbEntity
  8
0
370
    35
390
0
 62
     7
 48
0.05
100
AcDbLine
 10
1033.135742
 20
357.185333
 30
0.0
 11
1031.135742
 21
357.185333
 31
0.0
210
0.0
220
0.0
230
1.0
  0
LINE
  5
1AD
100
AcDbEntity
  8
0
370
    35
390
0
 62
     7
 48
0.33541
100
AcDbLine
 10
1025.135742
 20
369.185333
 30
0.0
 11
1031.135742
 21
357.185333
 31
0.0
210
0.0
220
0.0
230
1.0
  0
LINE
  5
1AE
100
AcDbEntity
  8
0
370
    35
390
0
 62
     7
 48
0.05
100
AcDbLine
 10
1025.135742
 20
369.185333
 30
0.0
 11
1027.135742
 21
369.185333
 31
0.0
210
0.0
220
0.0
230
1.0
  0
LINE
  5
1AF
100
AcDbEntity
  8
0
370
    35
390
0
 62
     7
 48
0.07
100
AcDbLine
 10
1027.135742
 20
369.185333
 30
0.0
 11
1027.135742
 21
371.985352
 31
0.0
210
0.0
220
0.0
230
1.0
  0
LINE
  5
1B0
100
AcDbEntity
  8
0
370
    35
390
0
 62
     7
 48
0.15
100
AcDbLine
 10
1027.135742
 20
371.985352
 30
0.0
 11
1033.135742
 21
371.985352
 31
0.0
210
0.0
220
0.0
230
1.0
  0
LINE
  5
1B1
100
AcDbEntity
  8
0
370
    35
390
0
 62
     7
 48
0.145
100
AcDbLine
 10
1033.135742
 20
366.185333
 30
0.0
 11
1033.135742
 21
371.985352
 31
0.0
210
0.0
220
0.0
230
1.0
  0
LINE
  5
1B2
100
AcDbEntity
  8
0
370
    35
390
0
 62
     7
 48
0.210001
100
AcDbLine
 10
1035.135742
 20
374.185333
 30
0.0
 11
1026.735718
 21
374.185333
 31
0.0
210
0.0
220
0.0
230
1.0
  0
LINE
  5
1B3
100
AcDbEntity
  8
0
370
    35
390
0
 62
     7
 48
0.15
100
AcDbLine
 10
1026.735718
 20
374.185333
 30
0.0
 11
1026.735718
 21
380.185333
 31
0.0
210
0.0
220
0.0
230
1.0
  0
LINE
  5
1B4
100
AcDbEntity
  8
0
370
    35
390
0
 62
     7
 48
0.210001
100
AcDbLine
 10
1026.735718
 20
380.185333
 30
0.0
 11
1035.135742
 21
380.185333
 31
0.0
210
0.0
220
0.0
230
1.0
  0
LINE
  5
1B5
100
AcDbEntity
  8
0
370
    35
390
0
 62
     7
 48
0.075
100
AcDbLine
 10
1035.135742
 20
380.185333
 30
0.0
 11
1035.135742
 21
383.185333
 31
0.0
210
0.0
220
0.0
230
1.0
  0
LINE
  5
1B6
100
AcDbEntity
  8
0
370
    35
390
0
 62
     7
 48
0.05
100
AcDbLine
 10
1035.135742
 20
383.185333
 30
0.0
 11
1037.135742
 21
383.185333
 31
0.0
210
0.0
220
0.0
230
1.0
  0
LINE
  5
1B7
100
AcDbEntity
  8
0
370
    35
390
0
 62
     7
 48
0.33541
100
AcDbLine
 10
1043.135742
 20
371.185333
 30
0.0
 11
1037.135742
 21
383.185333
 31
0.0
210
0.0
220
0.0
230
1.0
  0
LINE
  5
1B8
100
AcDbEntity
  8
0
370
    35
390
0
 62
     7
 48
0.05
100
AcDbLine
 10
1043.135742
 20
371.185333
 30
0.0
 11
1041.135742
 21
371.185333
 31
0.0
210
0.0
220
0.0
230
1.0
  0
LINE
  5
1B9
100
AcDbEntity
  8
0
370
    35
390
0
 62
     7
 48
0.07
100
AcDbLine
 10
1041.135742
 20
371.185333
 30
0.0
 11
1041.135742
 21
368.385315
 31
0.0
210
0.0
220
0.0
230
1.0
  0
LINE
  5
1BA
100
AcDbEntity
  8
0
370
    35
390
0
 62
     7
 48
0.15
100
AcDbLine
 10
1041.135742
 20
368.385315
 30
0.0
 11
1035.135742
 21
368.385315
 31
0.0
210
0.0
220
0.0
230
1.0
  0
LINE
  5
1BB
100
AcDbEntity
  8
0
370
    35
390
0
 62
     7
 48
0.145
100
AcDbLine
 10
1035.135742
 20
374.185333
 30
0.0
 11
1035.135742
 21
368.385315
 31
0.0
210
0.0
220
0.0
230
1.0
  0
LINE
  5
1BC
100
AcDbEntity
  8
0
370
    35
390
0
 62
     7
 48
0.210001
100
AcDbLine
 10
1033.135742
 20
391.185333
 30
0.0
 11
1041.535767
 21
391.185333
 31
0.0
210
0.0
220
0.0
230
1.0
  0
LINE
  5
1BD
100
AcDbEntity
  8
0
370
    35
390
0
 62
     7
 48
0.15
100
AcDbLine
 10
1041.535767
 20
391.185333
 30
0.0
 11
1041.535767
 21
385.185333
 31
0.0
210
0.0
220
0.0
230
1.0
  0
LINE
  5
1BE
100
AcDbEntity
  8
0
370
    35
390
0
 62
     7
 48
0.210001
100
AcDbLine
 10
1041.535767
 20
385.185333
 30
0.0
 11
1033.135742
 21
385.185333
 31
0.0
210
0.0
220
0.0
230
1.0
  0
LINE
  5
1BF
100
AcDbEntity
  8
0
370
    35
390
0
 62
     7
 48
0.075
100
AcDbLine
 10
1033.135742
 20
385.185333
 30
0.0
 11
1033.135742
 21
382.185333
 31
0.0
210
0.0
220
0.0
230
1.0
  0
LINE
  5
1C0
100
AcDbEntity
  8
0
370
    35
390
0
 62
     7
 48
0.05
100
AcDbLine
 10
1033.135742
 20
382.185333
 30
0.0
 11
1031.135742
 21
382.185333
 31
0.0
210
0.0
220
0.0
230
1.0
  0
LINE
  5
1C1
100
AcDbEntity
  8
0
370
    35
390
0
 62
     7
 48
0.33541
100
AcDbLine
 10
1025.135742
 20
394.185333
 30
0.0
 11
1031.135742
 21
382.185333
 31
0.0
210
0.0
220
0.0
230
1.0
  0
LINE
  5
1C2
100
AcDbEntity
  8
0
370
    35
390
0
 62
     7
 48
0.05
100
AcDbLine
 10
1025.135742
 20
394.185333
 30
0.0
 11
1027.135742
 21
394.185333
 31
0.0
210
0.0
220
0.0
230
1.0
  0
LINE
  5
1C3
100
AcDbEntity
  8
0
370
    35
390
0
 62
     7
 48
0.07
100
AcDbLine
 10
1027.135742
 20
394.185333
 30
0.0
 11
1027.135742
 21
396.985352
 31
0.0
210
0.0
220
0.0
230
1.0
  0
LINE
  5
1C4
100
AcDbEntity
  8
0
370
    35
390
0
 62
     7
 48
0.15
100
AcDbLine
 10
1027.135742
 20
396.985352
 30
0.0
 11
1033.135742
 21
396.985352
 31
0.0
210
0.0
220
0.0
230
1.0
  0
LINE
  5
1C5
100
AcDbEntity
  8
0
370
    35
390
0
 62
     7
 48
0.145
100
AcDbLine
 10
1033.135742
 20
391.185333
 30
0.0
 11
1033.135742
 21
396.985352
 31
0.0
210
0.0
220
0.0
230
1.0
  0
LINE
  5
1C6
100
AcDbEntity
  8
0
370
    35
390
0
 62
     7
 48
0.210001
100
AcDbLine
 10
1035.135742
 20
399.185333
 30
0.0
 11
1026.735718
 21
399.185333
 31
0.0
210
0.0
220
0.0
230
1.0
  0
LINE
  5
1C7
100
AcDbEntity
  8
0
370
    35
390
0
 62
     7
 48
0.15
100
AcDbLine
 10
1026.735718
 20
399.185333
 30
0.0
 11
1026.735718
 21
405.185333
 31
0.0
210
0.0
220
0.0
230
1.0
  0
LINE
  5
1C8
100
AcDbEntity
  8
0
370
    35
390
0
 62
     7
 48
0.210001
100
AcDbLine
 10
1026.735718
 20
405.185333
 30
0.0
 11
1035.135742
 21
405.185333
 31
0.0
210
0.0
220
0.0
230
1.0
  0
LINE
  5
1C9
100
AcDbEntity
  8
0
370
    35
390
0
 62
     7
 48
0.075
100
AcDbLine
 10
1035.135742
 20
405.185333
 30
0.0
 11
1035.135742
 21
408.185333
 31
0.0
210
0.0
220
0.0
230
1.0
  0
LINE
  5
1CA
100
AcDbEntity
  8
0
370
    35
390
0
 62
     7
 48
0.05
100
AcDbLine
 10
1035.135742
 20
408.185333
 30
0.0
 11
1037.135742
 21
408.185333
 31
0.0
210
0.0
220
0.0
230
1.0
  0
LINE
  5
1CB
100
AcDbEntity
  8
0
370
    35
390
0
 62
     7
 48
0.33541
100
AcDbLine
 10
1043.135742
 20
396.185333
 30
0.0
 11
1037.135742
 21
408.185333
 31
0.0
210
0.0
220
0.0
230
1.0
  0
LINE
  5
1CC
100
AcDbEntity
  8
0
370
    35
390
0
 62
     7
 48
0.05
100
AcDbLine
 10
1043.135742
 20
396.185333
 30
0.0
 11
1041.135742
 21
396.185333
 31
0.0
210
0.0
220
0.0
230
1.0
  0
LINE
  5
1CD
100
AcDbEntity
  8
0
370
    35
390
0
 62
     7
 48
0.07
100
AcDbLine
 10
1041.135742
 20
396.185333
 30
0.0
 11
1041.135742
 21
393.385315
 31
0.0
210
0.0
220
0.0
230
1.0
  0
LINE
  5
1CE
100
AcDbEntity
  8
0
370
    35
390
0
 62
     7
 48
0.15
100
AcDbLine
 10
1041.135742
 20
393.385315
 30
0.0
 11
1035.135742
 21
393.385315
 31
0.0
210
0.0
220
0.0
230
1.0
  0
LINE
  5
1CF
100
AcDbEntity
  8
0
370
    35
390
0
 62
     7
 48
0.145
100
AcDbLine
 10
1035.135742
 20
399.185333
 30
0.0
 11
1035.135742
 21
393.385315
 31
0.0
210
0.0
220
0.0
230
1.0
  0
LINE
  5
1D0
100
AcDbEntity
  8
0
370
    35
390
0
 62
     7
 48
0.210001
100
AcDbLine
 10
1033.135742
 20
416.185333
 30
0.0
 11
1041.535767
 21
416.185333
 31
0.0
210
0.0
220
0.0
230
1.0
  0
LINE
  5
1D1
100
AcDbEntity
  8
0
370
    35
390
0
 62
     7
 48
0.15
100
AcDbLine
 10
1041.535767
 20
416.185333
 30
0.0
 11
1041.535767
 21
410.185333
 31
0.0
210
0.0
220
0.0
230
1.0
  0
LINE
  5
1D2
100
AcDbEntity
  8
0
370
    35
390
0
 62
     7
 48
0.210001
100
AcDbLine
 10
1041.535767
 20
410.185333
 30
0.0
 11
1033.135742
 21
410.185333
 31
0.0
210
0.0
220
0.0
230
1.0
  0
LINE
  5
1D3
100
AcDbEntity
  8
0
370
    35
390
0
 62
     7
 48
0.075
100
AcDbLine
 10
1033.135742
 20
410.185333
 30
0.0
 11
1033.135742
 21
407.185333
 31
0.0
210
0.0
220
0.0
230
1.0
  0
LINE
  5
1D4
100
AcDbEntity
  8
0
370
    35
390
0
 62
     7
 48
0.05
100
AcDbLine
 10
1033.135742
 20
407.185333
 30
0.0
 11
1031.135742
 21
407.185333
 31
0.0
210
0.0
220
0.0
230
1.0
  0
LINE
  5
1D5
100
AcDbEntity
  8
0
370
    35
390
0
 62
     7
 48
0.33541
100
AcDbLine
 10
1025.135742
 20
419.185333
 30
0.0
 11
1031.135742
 21
407.185333
 31
0.0
210
0.0
220
0.0
230
1.0
  0
LINE
  5
1D6
100
AcDbEntity
  8
0
370
    35
390
0
 62
     7
 48
0.05
100
AcDbLine
 10
1025.135742
 20
419.185333
 30
0.0
 11
1027.135742
 21
419.185333
 31
0.0
210
0.0
220
0.0
230
1.0
  0
LINE
  5
1D7
100
AcDbEntity
  8
0
370
    35
390
0
 62
     7
 48
0.07
100
AcDbLine
 10
1027.135742
 20
419.185333
 30
0.0
 11
1027.135742
 21
421.985352
 31
0.0
210
0.0
220
0.0
230
1.0
  0
LINE
  5
1D8
100
AcDbEntity
  8
0
370
    35
390
0
 62
     7
 48
0.15
100
AcDbLine
 10
1027.135742
 20
421.985352
 30
0.0
 11
1033.135742
 21
421.985352
 31
0.0
210
0.0
220
0.0
230
1.0
  0
LINE
  5
1D9
100
AcDbEntity
  8
0
370
    35
390
0
 62
     7
 48
0.145
100
AcDbLine
 10
1033.135742
 20
416.185333
 30
0.0
 11
1033.135742
 21
421.985352
 31
0.0
210
0.0
220
0.0
230
1.0
  0
LINE
  5
1DA
100
AcDbEntity
  8
0
370
    35
390
0
 62
     7
 48
0.210001
100
AcDbLine
 10
1035.135742
 20
424.185333
 30
0.0
 11
1026.735718
 21
424.185333
 31
0.0
210
0.0
220
0.0
230
1.0
  0
LINE
  5
1DB
100
AcDbEntity
  8
0
370
    35
390
0
 62
     7
 48
0.15
100
AcDbLine
 10
1026.735718
 20
424.185333
 30
0.0
 11
1026.735718
 21
430.185333
 31
0.0
210
0.0
220
0.0
230
1.0
  0
LINE
  5
1DC
100
AcDbEntity
  8
0
370
    35
390
0
 62
     7
 48
0.210001
100
AcDbLine
 10
1026.735718
 20
430.185333
 30
0.0
 11
1035.135742
 21
430.185333
 31
0.0
210
0.0
220
0.0
230
1.0
  0
LINE
  5
1DD
100
AcDbEntity
  8
0
370
    35
390
0
 62
     7
 48
0.075
100
AcDbLine
 10
1035.135742
 20
430.185333
 30
0.0
 11
1035.135742
 21
433.185333
 31
0.0
210
0.0
220
0.0
230
1.0
  0
LINE
  5
1DE
100
AcDbEntity
  8
0
370
    35
390
0
 62
     7
 48
0.05
100
AcDbLine
 10
1035.135742
 20
433.185333
 30
0.0
 11
1037.135742
 21
433.185333
 31
0.0
210
0.0
220
0.0
230
1.0
  0
LINE
  5
1DF
100
AcDbEntity
  8
0
370
    35
390
0
 62
     7
 48
0.33541
100
AcDbLine
 10
1043.135742
 20
421.185333
 30
0.0
 11
1037.135742
 21
433.185333
 31
0.0
210
0.0
220
0.0
230
1.0
  0
LINE
  5
1E0
100
AcDbEntity
  8
0
370
    35
390
0
 62
     7
 48
0.05
100
AcDbLine
 10
1043.135742
 20
421.185333
 30
0.0
 11
1041.135742
 21
421.185333
 31
0.0
210
0.0
220
0.0
230
1.0
  0
LINE
  5
1E1
100
AcDbEntity
  8
0
370
    35
390
0
 62
     7
 48
0.07
100
AcDbLine
 10
1041.135742
 20
421.185333
 30
0.0
 11
1041.135742
 21
418.385315
 31
0.0
210
0.0
220
0.0
230
1.0
  0
LINE
  5
1E2
100
AcDbEntity
  8
0
370
    35
390
0
 62
     7
 48
0.15
100
AcDbLine
 10
1041.135742
 20
418.385315
 30
0.0
 11
1035.135742
 21
418.385315
 31
0.0
210
0.0
220
0.0
230
1.0
  0
LINE
  5
1E3
100
AcDbEntity
  8
0
370
    35
390
0
 62
     7
 48
0.145
100
AcDbLine
 10
1035.135742
 20
424.185333
 30
0.0
 11
1035.135742
 21
418.385315
 31
0.0
210
0.0
220
0.0
230
1.0
  0
LINE
  5
1E4
100
AcDbEntity
  8
0
370
    35
390
0
 62
     7
 48
0.210001
100
AcDbLine
 10
1033.135742
 20
441.185333
 30
0.0
 11
1041.535767
 21
441.185333
 31
0.0
210
0.0
220
0.0
230
1.0
  0
LINE
  5
1E5
100
AcDbEntity
  8
0
370
    35
390
0
 62
     7
 48
0.15
100
AcDbLine
 10
1041.535767
 20
441.185333
 30
0.0
 11
1041.535767
 21
435.185333
 31
0.0
210
0.0
220
0.0
230
1.0
  0
LINE
  5
1E6
100
AcDbEntity
  8
0
370
    35
390
0
 62
     7
 48
0.210001
100
AcDbLine
 10
1041.535767
 20
435.185333
 30
0.0
 11
1033.135742
 21
435.185333
 31
0.0
210
0.0
220
0.0
230
1.0
  0
LINE
  5
1E7
100
AcDbEntity
  8
0
370
    35
390
0
 62
     7
 48
0.075
100
AcDbLine
 10
1033.135742
 20
435.185333
 30
0.0
 11
1033.135742
 21
432.185333
 31
0.0
210
0.0
220
0.0
230
1.0
  0
LINE
  5
1E8
100
AcDbEntity
  8
0
370
    35
390
0
 62
     7
 48
0.05
100
AcDbLine
 10
1033.135742
 20
432.185333
 30
0.0
 11
1031.135742
 21
432.185333
 31
0.0
210
0.0
220
0.0
230
1.0
  0
LINE
  5
1E9
100
AcDbEntity
  8
0
370
    35
390
0
 62
     7
 48
0.33541
100
AcDbLine
 10
1025.135742
 20
444.185333
 30
0.0
 11
1031.135742
 21
432.185333
 31
0.0
210
0.0
220
0.0
230
1.0
  0
LINE
  5
1EA
100
AcDbEntity
  8
0
370
    35
390
0
 62
     7
 48
0.05
100
AcDbLine
 10
1025.135742
 20
444.185333
 30
0.0
 11
1027.135742
 21
444.185333
 31
0.0
210
0.0
220
0.0
230
1.0
  0
LINE
  5
1EB
100
AcDbEntity
  8
0
370
    35
390
0
 62
     7
 48
0.07
100
AcDbLine
 10
1027.135742
 20
444.185333
 30
0.0
 11
1027.135742
 21
446.985352
 31
0.0
210
0.0
220
0.0
230
1.0
  0
LINE
  5
1EC
100
AcDbEntity
  8
0
370
    35
390
0
 62
     7
 48
0.15
100
AcDbLine
 10
1027.135742
 20
446.985352
 30
0.0
 11
1033.135742
 21
446.985352
 31
0.0
210
0.0
220
0.0
230
1.0
  0
LINE
  5
1ED
100
AcDbEntity
  8
0
370
    35
390
0
 62
     7
 48
0.145
100
AcDbLine
 10
1033.135742
 20
441.185333
 30
0.0
 11
1033.135742
 21
446.985352
 31
0.0
210
0.0
220
0.0
230
1.0
  0
LINE
  5
1EE
100
AcDbEntity
  8
0
370
    35
390
0
 62
     7
 48
0.210001
100
AcDbLine
 10
1035.135742
 20
449.185333
 30
0.0
 11
1026.735718
 21
449.185333
 31
0.0
210
0.0
220
0.0
230
1.0
  0
LINE
  5
1EF
100
AcDbEntity
  8
0
370
    35
390
0
 62
     7
 48
0.15
100
AcDbLine
 10
1026.735718
 20
449.185333
 30
0.0
 11
1026.735718
 21
455.185333
 31
0.0
210
0.0
220
0.0
230
1.0
  0
LINE
  5
1F0
100
AcDbEntity
  8
0
370
    35
390
0
 62
     7
 48
0.210001
100
AcDbLine
 10
1026.735718
 20
455.185333
 30
0.0
 11
1035.135742
 21
455.185333
 31
0.0
210
0.0
220
0.0
230
1.0
  0
LINE
  5
1F1
100
AcDbEntity
  8
0
370
    35
390
0
 62
     7
 48
0.075
100
AcDbLine
 10
1035.135742
 20
455.185333
 30
0.0
 11
1035.135742
 21
458.185333
 31
0.0
210
0.0
220
0.0
230
1.0
  0
LINE
  5
1F2
100
AcDbEntity
  8
0
370
    35
390
0
 62
     7
 48
0.05
100
AcDbLine
 10
1035.135742
 20
458.185333
 30
0.0
 11
1037.135742
 21
458.185333
 31
0.0
210
0.0
220
0.0
230
1.0
  0
LINE
  5
1F3
100
AcDbEntity
  8
0
370
    35
390
0
 62
     7
 48
0.33541
100
AcDbLine
 10
1043.135742
 20
446.185333
 30
0.0
 11
1037.135742
 21
458.185333
 31
0.0
210
0.0
220
0.0
230
1.0
  0
LINE
  5
1F4
100
AcDbEntity
  8
0
370
    35
390
0
 62
     7
 48
0.05
100
AcDbLine
 10
1043.135742
 20
446.185333
 30
0.0
 11
1041.135742
 21
446.185333
 31
0.0
210
0.0
220
0.0
230
1.0
  0
LINE
  5
1F5
100
AcDbEntity
  8
0
370
    35
390
0
 62
     7
 48
0.07
100
AcDbLine
 10
1041.135742
 20
446.185333
 30
0.0
 11
1041.135742
 21
443.385315
 31
0.0
210
0.0
220
0.0
230
1.0
  0
LINE
  5
1F6
100
AcDbEntity
  8
0
370
    35
390
0
 62
     7
 48
0.15
100
AcDbLine
 10
1041.135742
 20
443.385315
 30
0.0
 11
1035.135742
 21
443.385315
 31
0.0
210
0.0
220
0.0
230
1.0
  0
LINE
  5
1F7
100
AcDbEntity
  8
0
370
    35
390
0
 62
     7
 48
0.145
100
AcDbLine
 10
1035.135742
 20
449.185333
 30
0.0
 11
1035.135742
 21
443.385315
 31
0.0
210
0.0
220
0.0
230
1.0
  0
LINE
  5
1F8
100
AcDbEntity
  8
0
370
    35
390
0
 62
     7
 48
0.210001
100
AcDbLine
 10
1018.135742
 20
335.185333
 30
0.0
 11
1009.735718
 21
335.185333
 31
0.0
210
0.0
220
0.0
230
1.0
  0
LINE
  5
1F9
100
AcDbEntity
  8
0
370
    35
390
0
 62
     7
 48
0.15
100
AcDbLine
 10
1009.735718
 20
335.185333
 30
0.0
 11
1009.735718
 21
341.185333
 31
0.0
210
0.0
220
0.0
230
1.0
  0
LINE
  5
1FA
100
AcDbEntity
  8
0
370
    35
390
0
 62
     7
 48
0.210001
100
AcDbLine
 10
1009.735718
 20
341.185333
 30
0.0
 11
1018.135742
 21
341.185333
 31
0.0
210
0.0
220
0.0
230
1.0
  0
LINE
  5
1FB
100
AcDbEntity
  8
0
370
    35
390
0
 62
     7
 48
0.075
100
AcDbLine
 10
1018.135742
 20
341.185333
 30
0.0
 11
1018.135742
 21
344.185333
 31
0.0
210
0.0
220
0.0
230
1.0
  0
LINE
  5
1FC
100
AcDbEntity
  8
0
370
    35
390
0
 62
     7
 48
0.05
100
AcDbLine
 10
1018.135742
 20
344.185333
 30
0.0
 11
1020.135742
 21
344.185333
 31
0.0
210
0.0
220
0.0
230
1.0
  0
LINE
  5
1FD
100
AcDbEntity
  8
0
370
    35
390
0
 62
     7
 48
0.33541
100
AcDbLine
 10
1026.135742
 20
332.185333
 30
0.0
 11
1020.135742
 21
344.185333
 31
0.0
210
0.0
220
0.0
230
1.0
  0
LINE
  5
1FE
100
AcDbEntity
  8
0
370
    35
390
0
 62
     7
 48
0.05
100
AcDbLine
 10
1026.135742
 20
332.185333
 30
0.0
 11
1024.135742
 21
332.185333
 31
0.0
210
0.0
220
0.0
230
1.0
  0
LINE
  5
1FF
100
AcDbEntity
  8
0
370
    35
390
0
 62
     7
 48
0.07
100
AcDbLine
 10
1024.135742
 20
332.185333
 30
0.0
 11
1024.135742
 21
329.385345
 31
0.0
210
0.0
220
0.0
230
1.0
  0
LINE
  5
200
100
AcDbEntity
  8
0
370
    35
390
0
 62
     7
 48
0.15
100
AcDbLine
 10
1024.135742
 20
329.385345
 30
0.0
 11
1018.135742
 21
329.385345
 31
0.0
210
0.0
220
0.0
230
1.0
  0
LINE
  5
201
100
AcDbEntity
  8
0
370
    35
390
0
 62
     7
 48
0.145
100
AcDbLine
 10
1018.135742
 20
335.185333
 30
0.0
 11
1018.135742
 21
329.385345
 31
0.0
210
0.0
220
0.0
230
1.0
  0
LINE
  5
202
100
AcDbEntity
  8
0
370
    35
390
0
 62
     7
 48
0.210001
100
AcDbLine
 10
1016.135742
 20
352.185333
 30
0.0
 11
1024.535767
 21
352.185333
 31
0.0
210
0.0
220
0.0
230
1.0
  0
LINE
  5
203
100
AcDbEntity
  8
0
370
    35
390
0
 62
     7
 48
0.15
100
AcDbLine
 10
1024.535767
 20
352.185333
 30
0.0
 11
1024.535767
 21
346.185333
 31
0.0
210
0.0
220
0.0
230
1.0
  0
LINE
  5
204
100
AcDbEntity
  8
0
370
    35
390
0
 62
     7
 48
0.210001
100
AcDbLine
 10
1024.535767
 20
346.185333
 30
0.0
 11
1016.135742
 21
346.185333
 31
0.0
210
0.0
220
0.0
230
1.0
  0
LINE
  5
205
100
AcDbEntity
  8
0
370
    35
390
0
 62
     7
 48
0.075
100
AcDbLine
 10
1016.135742
 20
346.185333
 30
0.0
 11
1016.135742
 21
343.185333
 31
0.0
210
0.0
220
0.0
230
1.0
  0
LINE
  5
206
100
AcDbEntity
  8
0
370
    35
390
0
 62
     7
 48
0.05
100
AcDbLine
 10
1016.135742
 20
343.185333
 30
0.0
 11
1014.135742
 21
343.185333
 31
0.0
210
0.0
220
0.0
230
1.0
  0
LINE
  5
207
100
AcDbEntity
  8
0
370
    35
390
0
 62
     7
 48
0.33541
100
AcDbLine
 10
1008.135742
 20
355.185333
 30
0.0
 11
1014.135742
 21
343.185333
 31
0.0
210
0.0
220
0.0
230
1.0
  0
LINE
  5
208
100
AcDbEntity
  8
0
370
    35
390
0
 62
     7
 48
0.05
100
AcDbLine
 10
1008.135742
 20
355.185333
 30
0.0
 11
1010.135742
 21
355.185333
 31
0.0
210
0.0
220
0.0
230
1.0
  0
LINE
  5
209
100
AcDbEntity
  8
0
370
    35
390
0
 62
     7
 48
0.07
100
AcDbLine
 10
1010.135742
 20
355.185333
 30
0.0
 11
1010.135742
 21
357.985352
 31
0.0
210
0.0
220
0.0
230
1.0
  0
LINE
  5
20A
100
AcDbEntity
  8
0
370
    35
390
0
 62
     7
 48
0.15
100
AcDbLine
 10
1010.135742
 20
357.985352
 30
0.0
 11
1016.135742
 21
357.985352
 31
0.0
210
0.0
220
0.0
230
1.0
  0
LINE
  5
20B
100
AcDbEntity
  8
0
370
    35
390
0
 62
     7
 48
0.145
100
AcDbLine
 10
1016.135742
 20
352.185333
 30
0.0
 11
1016.135742
 21
357.985352
 31
0.0
210
0.0
220
0.0
230
1.0
  0
LINE
  5
20C
100
AcDbEntity
  8
0
370
    35
390
0
 62
     7
 48
0.210001
100
AcDbLine
 10
1018.135742
 20
360.185333
 30
0.0
 11
1009.735718
 21
360.185333
 31
0.0
210
0.0
220
0.0
230
1.0
  0
LINE
  5
20D
100
AcDbEntity
  8
0
370
    35
390
0
 62
     7
 48
0.15
100
AcDbLine
 10
1009.735718
 20
360.185333
 30
0.0
 11
1009.735718
 21
366.185333
 31
0.0
210
0.0
220
0.0
230
1.0
  0
LINE
  5
20E
100
AcDbEntity
  8
0
370
    35
390
0
 62
     7
 48
0.210001
100
AcDbLine
 10
1009.735718
 20
366.185333
 30
0.0
 11
1018.135742
 21
366.185333
 31
0.0
210
0.0
220
0.0
230
1.0
  0
LINE
  5
20F
100
AcDbEntity
  8
0
370
    35
390
0
 62
     7
 48
0.075
100
AcDbLine
 10
1018.135742
 20
366.185333
 30
0.0
 11
1018.135742
 21
369.185333
 31
0.0
210
0.0
220
0.0
230
1.0
  0
LINE
  5
210
100
AcDbEntity
  8
0
370
    35
390
0
 62
     7
 48
0.05
100
AcDbLine
 10
1018.135742
 20
369.185333
 30
0.0
 11
1020.135742
 21
369.185333
 31
0.0
210
0.0
220
0.0
230
1.0
  0
LINE
  5
211
100
AcDbEntity
  8
0
370
    35
390
0
 62
     7
 48
0.33541
100
AcDbLine
 10
1026.135742
 20
357.185333
 30
0.0
 11
1020.135742
 21
369.185333
 31
0.0
210
0.0
220
0.0
230
1.0
  0
LINE
  5
212
100
AcDbEntity
  8
0
370
    35
390
0
 62
     7
 48
0.05
100
AcDbLine
 10
1026.135742
 20
357.185333
 30
0.0
 11
1024.135742
 21
357.185333
 31
0.0
210
0.0
220
0.0
230
1.0
  0
LINE
  5
213
100
AcDbEntity
  8
0
370
    35
390
0
 62
     7
 48
0.07
100
AcDbLine
 10
1024.135742
 20
357.185333
 30
0.0
 11
1024.135742
 21
354.385315
 31
0.0
210
0.0
220
0.0
230
1.0
  0
LINE
  5
214
100
AcDbEntity
  8
0
370
    35
390
0
 62
     7
 48
0.15
100
AcDbLine
 10
1024.135742
 20
354.385315
 30
0.0
 11
1018.135742
 21
354.385315
 31
0.0
210
0.0
220
0.0
230
1.0
  0
LINE
  5
215
100
AcDbEntity
  8
0
370
    35
390
0
 62
     7
 48
0.145
100
AcDbLine
 10
1018.135742
 20
360.185333
 30
0.0
 11
1018.135742
 21
354.385315
 31
0.0
210
0.0
220
0.0
230
1.0
  0
LINE
  5
216
100
AcDbEntity
  8
0
370
    35
390
0
 62
     7
 48
0.210001
100
AcDbLine
 10
1016.135742
 20
377.185333
 30
0.0
 11
1024.535767
 21
377.185333
 31
0.0
210
0.0
220
0.0
230
1.0
  0
LINE
  5
217
100
AcDbEntity
  8
0
370
    35
390
0
 62
     7
 48
0.15
100
AcDbLine
 10
1024.535767
 20
377.185333
 30
0.0
 11
1024.535767
 21
371.185333
 31
0.0
210
0.0
220
0.0
230
1.0
  0
LINE
  5
218
100
AcDbEntity
  8
0
370
    35
390
0
 62
     7
 48
0.210001
100
AcDbLine
 10
1024.535767
 20
371.185333
 30
0.0
 11
1016.135742
 21
371.185333
 31
0.0
210
0.0
220
0.0
230
1.0
  0
LINE
  5
219
100
AcDbEntity
  8
0
370
    35
390
0
 62
     7
 48
0.075
100
AcDbLine
 10
1016.135742
 20
371.185333
 30
0.0
 11
1016.135742
 21
368.185333
 31
0.0
210
0.0
220
0.0
230
1.0
  0
LINE
  5
21A
100
AcDbEntity
  8
0
370
    35
390
0
 62
     7
 48
0.05
100
AcDbLine
 10
1016.135742
 20
368.185333
 30
0.0
 11
1014.135742
 21
368.185333
 31
0.0
210
0.0
220
0.0
230
1.0
  0
LINE
  5
21B
100
AcDbEntity
  8
0
370
    35
390
0
 62
     7
 48
0.33541
100
AcDbLine
 10
1008.135742
 20
380.185333
 30
0.0
 11
1014.135742
 21
368.185333
 31
0.0
210
0.0
220
0.0
230
1.0
  0
LINE
  5
21C
100
AcDbEntity
  8
0
370
    35
390
0
 62
     7
 48
0.05
100
AcDbLine
 10
1008.135742
 20
380.185333
 30
0.0
 11
1010.135742
 21
380.185333
 31
0.0
210
0.0
220
0.0
230
1.0
  0
LINE
  5
21D
100
AcDbEntity
  8
0
370
    35
390
0
 62
     7
 48
0.07
100
AcDbLine
 10
1010.135742
 20
380.185333
 30
0.0
 11
1010.135742
 21
382.985352
 31
0.0
210
0.0
220
0.0
230
1.0
  0
LINE
  5
21E
100
AcDbEntity
  8
0
370
    35
390
0
 62
     7
 48
0.15
100
AcDbLine
 10
1010.135742
 20
382.985352
 30
0.0
 11
1016.135742
 21
382.985352
 31
0.0
210
0.0
220
0.0
230
1.0
  0
LINE
  5
21F
100
AcDbEntity
  8
0
370
    35
390
0
 62
     7
 48
0.145
100
AcDbLine
 10
1016.135742
 20
377.185333
 30
0.0
 11
1016.135742
 21
382.985352
 31
0.0
210
0.0
220
0.0
230
1.0
  0
LINE
  5
220
100
AcDbEntity
  8
0
370
    35
390
0
 62
     7
 48
0.210001
100
AcDbLine
 10
1018.135742
 20
385.185333
 30
0.0
 11
1009.735718
 21
385.185333
 31
0.0
210
0.0
220
0.0
230
1.0
  0
LINE
  5
221
100
AcDbEntity
  8
0
370
    35
390
0
 62
     7
 48
0.15
100
AcDbLine
 10
1009.735718
 20
385.185333
 30
0.0
 11
1009.735718
 21
391.185333
 31
0.0
210
0.0
220
0.0
230
1.0
  0
LINE
  5
222
100
AcDbEntity
  8
0
370
    35
390
0
 62
     7
 48
0.210001
100
AcDbLine
 10
1009.735718
 20
391.185333
 30
0.0
 11
1018.135742
 21
391.185333
 31
0.0
210
0.0
220
0.0
230
1.0
  0
LINE
  5
223
100
AcDbEntity
  8
0
370
    35
390
0
 62
     7
 48
0.075
100
AcDbLine
 10
1018.135742
 20
391.185333
 30
0.0
 11
1018.135742
 21
394.185333
 31
0.0
210
0.0
220
0.0
230
1.0
  0
LINE
  5
224
100
AcDbEntity
  8
0
370
    35
390
0
 62
     7
 48
0.05
100
AcDbLine
 10
1018.135742
 20
394.185333
 30
0.0
 11
1020.135742
 21
394.185333
 31
0.0
210
0.0
220
0.0
230
1.0
  0
LINE
  5
225
100
AcDbEntity
  8
0
370
    35
390
0
 62
     7
 48
0.33541
100
AcDbLine
 10
1026.135742
 20
382.185333
 30
0.0
 11
1020.135742
 21
394.185333
 31
0.0
210
0.0
220
0.0
230
1.0
  0
LINE
  5
226
100
AcDbEntity
  8
0
370
    35
390
0
 62
     7
 48
0.05
100
AcDbLine
 10
1026.135742
 20
382.185333
 30
0.0
 11
1024.135742
 21
382.185333
 31
0.0
210
0.0
220
0.0
230
1.0
  0
LINE
  5
227
100
AcDbEntity
  8
0
370
    35
390
0
 62
     7
 48
0.07
100
AcDbLine
 10
1024.135742
 20
382.185333
 30
0.0
 11
1024.135742
 21
379.385315
 31
0.0
210
0.0
220
0.0
230
1.0
  0
LINE
  5
228
100
AcDbEntity
  8
0
370
    35
390
0
 62
     7
 48
0.15
100
AcDbLine
 10
1024.135742
 20
379.385315
 30
0.0
 11
1018.135742
 21
379.385315
 31
0.0
210
0.0
220
0.0
230
1.0
  0
LINE
  5
229
100
AcDbEntity
  8
0
370
    35
390
0
 62
     7
 48
0.145
100
AcDbLine
 10
1018.135742
 20
385.185333
 30
0.0
 11
1018.135742
 21
379.385315
 31
0.0
210
0.0
220
0.0
230
1.0
  0
LINE
  5
22A
100
AcDbEntity
  8
0
370
    35
390
0
 62
     7
 48
0.210001
100
AcDbLine
 10
1016.135742
 20
402.185333
 30
0.0
 11
1024.535767
 21
402.185333
 31
0.0
210
0.0
220
0.0
230
1.0
  0
LINE
  5
22B
100
AcDbEntity
  8
0
370
    35
390
0
 62
     7
 48
0.15
100
AcDbLine
 10
1024.535767
 20
402.185333
 30
0.0
 11
1024.535767
 21
396.185333
 31
0.0
210
0.0
220
0.0
230
1.0
  0
LINE
  5
22C
100
AcDbEntity
  8
0
370
    35
390
0
 62
     7
 48
0.210001
100
AcDbLine
 10
1024.535767
 20
396.185333
 30
0.0
 11
1016.135742
 21
396.185333
 31
0.0
210
0.0
220
0.0
230
1.0
  0
LINE
  5
22D
100
AcDbEntity
  8
0
370
    35
390
0
 62
     7
 48
0.075
100
AcDbLine
 10
1016.135742
 20
396.185333
 30
0.0
 11
1016.135742
 21
393.185333
 31
0.0
210
0.0
220
0.0
230
1.0
  0
LINE
  5
22E
100
AcDbEntity
  8
0
370
    35
390
0
 62
     7
 48
0.05
100
AcDbLine
 10
1016.135742
 20
393.185333
 30
0.0
 11
1014.135742
 21
393.185333
 31
0.0
210
0.0
220
0.0
230
1.0
  0
LINE
  5
22F
100
AcDbEntity
  8
0
370
    35
390
0
 62
     7
 48
0.33541
100
AcDbLine
 10
1008.135742
 20
405.185333
 30
0.0
 11
1014.135742
 21
393.185333
 31
0.0
210
0.0
220
0.0
230
1.0
  0
LINE
  5
230
100
AcDbEntity
  8
0
370
    35
390
0
 62
     7
 48
0.05
100
AcDbLine
 10
1008.135742
 20
405.185333
 30
0.0
 11
1010.135742
 21
405.185333
 31
0.0
210
0.0
220
0.0
230
1.0
  0
LINE
  5
231
100
AcDbEntity
  8
0
370
    35
390
0
 62
     7
 48
0.07
100
AcDbLine
 10
1010.135742
 20
405.185333
 30
0.0
 11
1010.135742
 21
407.985352
 31
0.0
210
0.0
220
0.0
230
1.0
  0
LINE
  5
232
100
AcDbEntity
  8
0
370
    35
390
0
 62
     7
 48
0.15
100
AcDbLine
 10
1010.135742
 20
407.985352
 30
0.0
 11
1016.135742
 21
407.985352
 31
0.0
210
0.0
220
0.0
230
1.0
  0
LINE
  5
233
100
AcDbEntity
  8
0
370
    35
390
0
 62
     7
 48
0.145
100
AcDbLine
 10
1016.135742
 20
402.185333
 30
0.0
 11
1016.135742
 21
407.985352
 31
0.0
210
0.0
220
0.0
230
1.0
  0
LINE
  5
234
100
AcDbEntity
  8
0
370
    35
390
0
 62
     7
 48
0.210001
100
AcDbLine
 10
1018.135742
 20
410.185333
 30
0.0
 11
1009.735718
 21
410.185333
 31
0.0
210
0.0
220
0.0
230
1.0
  0
LINE
  5
235
100
AcDbEntity
  8
0
370
    35
390
0
 62
     7
 48
0.15
100
AcDbLine
 10
1009.735718
 20
410.185333
 30
0.0
 11
1009.735718
 21
416.185333
 31
0.0
210
0.0
220
0.0
230
1.0
  0
LINE
  5
236
100
AcDbEntity
  8
0
370
    35
390
0
 62
     7
 48
0.210001
100
AcDbLine
 10
1009.735718
 20
416.185333
 30
0.0
 11
1018.135742
 21
416.185333
 31
0.0
210
0.0
220
0.0
230
1.0
  0
LINE
  5
237
100
AcDbEntity
  8
0
370
    35
390
0
 62
     7
 48
0.075
100
AcDbLine
 10
1018.135742
 20
416.185333
 30
0.0
 11
1018.135742
 21
419.185333
 31
0.0
210
0.0
220
0.0
230
1.0
  0
LINE
  5
238
100
AcDbEntity
  8
0
370
    35
390
0
 62
     7
 48
0.05
100
AcDbLine
 10
1018.135742
 20
419.185333
 30
0.0
 11
1020.135742
 21
419.185333
 31
0.0
210
0.0
220
0.0
230
1.0
  0
LINE
  5
239
100
AcDbEntity
  8
0
370
    35
390
0
 62
     7
 48
0.33541
100
AcDbLine
 10
1026.135742
 20
407.185333
 30
0.0
 11
1020.135742
 21
419.185333
 31
0.0
210
0.0
220
0.0
230
1.0
  0
LINE
  5
23A
100
AcDbEntity
  8
0
370
    35
390
0
 62
     7
 48
0.05
100
AcDbLine
 10
1026.135742
 20
407.185333
 30
0.0
 11
1024.135742
 21
407.185333
 31
0.0
210
0.0
220
0.0
230
1.0
  0
LINE
  5
23B
100
AcDbEntity
  8
0
370
    35
390
0
 62
     7
 48
0.07
100
AcDbLine
 10
1024.135742
 20
407.185333
 30
0.0
 11
1024.135742
 21
404.385315
 31
0.0
210
0.0
220
0.0
230
1.0
  0
LINE
  5
23C
100
AcDbEntity
  8
0
370
    35
390
0
 62
     7
 48
0.15
100
AcDbLine
 10
1024.135742
 20
404.385315
 30
0.0
 11
1018.135742
 21
404.385315
 31
0.0
210
0.0
220
0.0
230
1.0
  0
LINE
  5
23D
100
AcDbEntity
  8
0
370
    35
390
0
 62
     7
 48
0.145
100
AcDbLine
 10
1018.135742
 20
410.185333
 30
0.0
 11
1018.135742
 21
404.385315
 31
0.0
210
0.0
220
0.0
230
1.0
  0
LINE
  5
23E
100
AcDbEntity
  8
0
370
    35
390
0
 62
     7
 48
0.210001
100
AcDbLine
 10
1016.135742
 20
427.185333
 30
0.0
 11
1024.535767
 21
427.185333
 31
0.0
210
0.0
220
0.0
230
1.0
  0
LINE
  5
23F
100
AcDbEntity
  8
0
370
    35
390
0
 62
     7
 48
0.15
100
AcDbLine
 10
1024.535767
 20
427.185333
 30
0.0
 11
1024.535767
 21
421.185333
 31
0.0
210
0.0
220
0.0
230
1.0
  0
LINE
  5
240
100
AcDbEntity
  8
0
370
    35
390
0
 62
     7
 48
0.210001
100
AcDbLine
 10
1024.535767
 20
421.185333
 30
0.0
 11
1016.135742
 21
421.185333
 31
0.0
210
0.0
220
0.0
230
1.0
  0
LINE
  5
241
100
AcDbEntity
  8
0
370
    35
390
0
 62
     7
 48
0.075
100
AcDbLine
 10
1016.135742
 20
421.185333
 30
0.0
 11
1016.135742
 21
418.185333
 31
0.0
210
0.0
220
0.0
230
1.0
  0
LINE
  5
242
100
AcDbEntity
  8
0
370
    35
390
0
 62
     7
 48
0.05
100
AcDbLine
 10
1016.135742
 20
418.185333
 30
0.0
 11
1014.135742
 21
418.185333
 31
0.0
210
0.0
220
0.0
230
1.0
  0
LINE
  5
243
100
AcDbEntity
  8
0
370
    35
390
0
 62
     7
 48
0.33541
100
AcDbLine
 10
1008.135742
 20
430.185333
 30
0.0
 11
1014.135742
 21
418.185333
 31
0.0
210
0.0
220
0.0
230
1.0
  0
LINE
  5
244
100
AcDbEntity
  8
0
370
    35
390
0
 62
     7
 48
0.05
100
AcDbLine
 10
1008.135742
 20
430.185333
 30
0.0
 11
1010.135742
 21
430.185333
 31
0.0
210
0.0
220
0.0
230
1.0
  0
LINE
  5
245
100
AcDbEntity
  8
0
370
    35
390
0
 62
     7
 48
0.07
100
AcDbLine
 10
1010.135742
 20
430.185333
 30
0.0
 11
1010.135742
 21
432.985352
 31
0.0
210
0.0
220
0.0
230
1.0
  0
LINE
  5
246
100
AcDbEntity
  8
0
370
    35
390
0
 62
     7
 48
0.15
100
AcDbLine
 10
1010.135742
 20
432.985352
 30
0.0
 11
1016.135742
 21
432.985352
 31
0.0
210
0.0
220
0.0
230
1.0
  0
LINE
  5
247
100
AcDbEntity
  8
0
370
    35
390
0
 62
     7
 48
0.145
100
AcDbLine
 10
1016.135742
 20
427.185333
 30
0.0
 11
1016.135742
 21
432.985352
 31
0.0
210
0.0
220
0.0
230
1.0
  0
LINE
  5
248
100
AcDbEntity
  8
0
370
    35
390
0
 62
     7
 48
0.210001
100
AcDbLine
 10
1018.135742
 20
435.185333
 30
0.0
 11
1009.735718
 21
435.185333
 31
0.0
210
0.0
220
0.0
230
1.0
  0
LINE
  5
249
100
AcDbEntity
  8
0
370
    35
390
0
 62
     7
 48
0.15
100
AcDbLine
 10
1009.735718
 20
435.185333
 30
0.0
 11
1009.735718
 21
441.185333
 31
0.0
210
0.0
220
0.0
230
1.0
  0
LINE
  5
24A
100
AcDbEntity
  8
0
370
    35
390
0
 62
     7
 48
0.210001
100
AcDbLine
 10
1009.735718
 20
441.185333
 30
0.0
 11
1018.135742
 21
441.185333
 31
0.0
210
0.0
220
0.0
230
1.0
  0
LINE
  5
24B
100
AcDbEntity
  8
0
370
    35
390
0
 62
     7
 48
0.075
100
AcDbLine
 10
1018.135742
 20
441.185333
 30
0.0
 11
1018.135742
 21
444.185333
 31
0.0
210
0.0
220
0.0
230
1.0
  0
LINE
  5
24C
100
AcDbEntity
  8
0
370
    35
390
0
 62
     7
 48
0.05
100
AcDbLine
 10
1018.135742
 20
444.185333
 30
0.0
 11
1020.135742
 21
444.185333
 31
0.0
210
0.0
220
0.0
230
1.0
  0
LINE
  5
24D
100
AcDbEntity
  8
0
370
    35
390
0
 62
     7
 48
0.33541
100
AcDbLine
 10
1026.135742
 20
432.185333
 30
0.0
 11
1020.135742
 21
444.185333
 31
0.0
210
0.0
220
0.0
230
1.0
  0
LINE
  5
24E
100
AcDbEntity
  8
0
370
    35
390
0
 62
     7
 48
0.05
100
AcDbLine
 10
1026.135742
 20
432.185333
 30
0.0
 11
1024.135742
 21
432.185333
 31
0.0
210
0.0
220
0.0
230
1.0
  0
LINE
  5
24F
100
AcDbEntity
  8
0
370
    35
390
0
 62
     7
 48
0.07
100
AcDbLine
 10
1024.135742
 20
432.185333
 30
0.0
 11
1024.135742
 21
429.385315
 31
0.0
210
0.0
220
0.0
230
1.0
  0
LINE
  5
250
100
AcDbEntity
  8
0
370
    35
390
0
 62
     7
 48
0.15
100
AcDbLine
 10
1024.135742
 20
429.385315
 30
0.0
 11
1018.135742
 21
429.385315
 31
0.0
210
0.0
220
0.0
230
1.0
  0
LINE
  5
251
100
AcDbEntity
  8
0
370
    35
390
0
 62
     7
 48
0.145
100
AcDbLine
 10
1018.135742
 20
435.185333
 30
0.0
 11
1018.135742
 21
429.385315
 31
0.0
210
0.0
220
0.0
230
1.0
  0
LINE
  5
252
100
AcDbEntity
  8
0
370
    35
390
0
 62
     7
 48
0.210001
100
AcDbLine
 10
1016.135742
 20
452.185333
 30
0.0
 11
1024.535767
 21
452.185333
 31
0.0
210
0.0
220
0.0
230
1.0
  0
LINE
  5
253
100
AcDbEntity
  8
0
370
    35
390
0
 62
     7
 48
0.15
100
AcDbLine
 10
1024.535767
 20
452.185333
 30
0.0
 11
1024.535767
 21
446.185333
 31
0.0
210
0.0
220
0.0
230
1.0
  0
LINE
  5
254
100
AcDbEntity
  8
0
370
    35
390
0
 62
     7
 48
0.210001
100
AcDbLine
 10
1024.535767
 20
446.185333
 30
0.0
 11
1016.135742
 21
446.185333
 31
0.0
210
0.0
220
0.0
230
1.0
  0
LINE
  5
255
100
AcDbEntity
  8
0
370
    35
390
0
 62
     7
 48
0.075
100
AcDbLine
 10
1016.135742
 20
446.185333
 30
0.0
 11
1016.135742
 21
443.185333
 31
0.0
210
0.0
220
0.0
230
1.0
  0
LINE
  5
256
100
AcDbEntity
  8
0
370
    35
390
0
 62
     7
 48
0.05
100
AcDbLine
 10
1016.135742
 20
443.185333
 30
0.0
 11
1014.135742
 21
443.185333
 31
0.0
210
0.0
220
0.0
230
1.0
  0
LINE
  5
257
100
AcDbEntity
  8
0
370
    35
390
0
 62
     7
 48
0.33541
100
AcDbLine
 10
1008.135742
 20
455.185333
 30
0.0
 11
1014.135742
 21
443.185333
 31
0.0
210
0.0
220
0.0
230
1.0
  0
LINE
  5
258
100
AcDbEntity
  8
0
370
    35
390
0
 62
     7
 48
0.05
100
AcDbLine
 10
1008.135742
 20
455.185333
 30
0.0
 11
1010.135742
 21
455.185333
 31
0.0
210
0.0
220
0.0
230
1.0
  0
LINE
  5
259
100
AcDbEntity
  8
0
370
    35
390
0
 62
     7
 48
0.07
100
AcDbLine
 10
1010.135742
 20
455.185333
 30
0.0
 11
1010.135742
 21
457.985352
 31
0.0
210
0.0
220
0.0
230
1.0
  0
LINE
  5
25A
100
AcDbEntity
  8
0
370
    35
390
0
 62
     7
 48
0.15
100
AcDbLine
 10
1010.135742
 20
457.985352
 30
0.0
 11
1016.135742
 21
457.985352
 31
0.0
210
0.0
220
0.0
230
1.0
  0
LINE
  5
25B
100
AcDbEntity
  8
0
370
    35
390
0
 62
     7
 48
0.145
100
AcDbLine
 10
1016.135742
 20
452.185333
 30
0.0
 11
1016.135742
 21
457.985352
 31
0.0
210
0.0
220
0.0
230
1.0
  0
LINE
  5
25C
100
AcDbEntity
  8
0
370
    35
390
0
 62
     7
100
AcDbLine
 10
1094.574585
 20
495.155884
 30
0.0
 11
1094.574585
 21
335.155884
 31
0.0
210
0.0
220
0.0
230
1.0
  0
LINE
  5
25D
100
AcDbEntity
  8
0
370
    35
390
0
 62
     7
 48
0.3
100
AcDbLine
 10
1106.574585
 20
335.155884
 30
0.0
 11
1094.574585
 21
335.155884
 31
0.0
210
0.0
220
0.0
230
1.0
  0
LINE
  5
25E
100
AcDbEntity
  8
0
370
    35
390
0
 62
     7
100
AcDbLine
 10
1106.574585
 20
335.155884
 30
0.0
 11
1106.574585
 21
495.155884
 31
0.0
210
0.0
220
0.0
230
1.0
  0
LINE
  5
25F
100
AcDbEntity
  8
0
370
    35
390
0
 62
     7
 48
0.3
100
AcDbLine
 10
1094.574585
 20
495.155884
 30
0.0
 11
1106.574585
 21
495.155884
 31
0.0
210
0.0
220
0.0
230
1.0
  0
CIRCLE
  5
260
100
AcDbEntity
  8
0
370
    35
390
0
 62
     7
100
AcDbCircle
 10
1100.574585
 20
485.155884
 30
0.0
 40
1.5
210
0.0
220
0.0
230
1.0
  0
CIRCLE
  5
261
100
AcDbEntity
  8
0
370
    35
390
0
 62
     7
100
AcDbCircle
 10
1100.574585
 20
345.155884
 30
0.0
 40
1.5
210
0.0
220
0.0
230
1.0
  0
LINE
  5
262
100
AcDbEntity
  8
0
370
    35
390
0
 62
     7
100
AcDbLine
 10
1108.574585
 20
495.155884
 30
0.0
 11
1108.574585
 21
335.155884
 31
0.0
210
0.0
220
0.0
230
1.0
  0
LINE
  5
263
100
AcDbEntity
  8
0
370
    35
390
0
 62
     7
 48
0.3
100
AcDbLine
 10
1120.574585
 20
335.155884
 30
0.0
 11
1108.574585
 21
335.155884
 31
0.0
210
0.0
220
0.0
230
1.0
  0
LINE
  5
264
100
AcDbEntity
  8
0
370
    35
390
0
 62
     7
100
AcDbLine
 10
1120.574585
 20
335.155884
 30
0.0
 11
1120.574585
 21
495.155884
 31
0.0
210
0.0
220
0.0
230
1.0
  0
LINE
  5
265
100
AcDbEntity
  8
0
370
    35
390
0
 62
     7
 48
0.3
100
AcDbLine
 10
1108.574585
 20
495.155884
 30
0.0
 11
1120.574585
 21
495.155884
 31
0.0
210
0.0
220
0.0
230
1.0
  0
CIRCLE
  5
266
100
AcDbEntity
  8
0
370
    35
390
0
 62
     7
100
AcDbCircle
 10
1114.574585
 20
485.155884
 30
0.0
 40
1.5
210
0.0
220
0.0
230
1.0
  0
CIRCLE
  5
267
100
AcDbEntity
  8
0
370
    35
390
0
 62
     7
100
AcDbCircle
 10
1114.574585
 20
345.155884
 30
0.0
 40
1.5
210
0.0
220
0.0
230
1.0
  0
LINE
  5
268
100
AcDbEntity
  8
0
370
    35
390
0
 62
     7
100
AcDbLine
 10
1122.574585
 20
495.155884
 30
0.0
 11
1122.574585
 21
335.155884
 31
0.0
210
0.0
220
0.0
230
1.0
  0
LINE
  5
269
100
AcDbEntity
  8
0
370
    35
390
0
 62
     7
 48
0.3
100
AcDbLine
 10
1134.574585
 20
335.155884
 30
0.0
 11
1122.574585
 21
335.155884
 31
0.0
210
0.0
220
0.0
230
1.0
  0
LINE
  5
26A
100
AcDbEntity
  8
0
370
    35
390
0
 62
     7
100
AcDbLine
 10
1134.574585
 20
335.155884
 30
0.0
 11
1134.574585
 21
495.155884
 31
0.0
210
0.0
220
0.0
230
1.0
  0
LINE
  5
26B
100
AcDbEntity
  8
0
370
    35
390
0
 62
     7
 48
0.3
100
AcDbLine
 10
1122.574585
 20
495.155884
 30
0.0
 11
1134.574585
 21
495.155884
 31
0.0
210
0.0
220
0.0
230
1.0
  0
CIRCLE
  5
26C
100
AcDbEntity
  8
0
370
    35
390
0
 62
     7
100
AcDbCircle
 10
1128.574585
 20
485.155884
 30
0.0
 40
1.5
210
0.0
220
0.0
230
1.0
  0
CIRCLE
  5
26D
100
AcDbEntity
  8
0
370
    35
390
0
 62
     7
100
AcDbCircle
 10
1128.574585
 20
345.155884
 30
0.0
 40
1.5
210
0.0
220
0.0
230
1.0
  0
LINE
  5
26E
100
AcDbEntity
  8
0
370
    35
390
0
 62
     7
 48
0.175
100
AcDbLine
 10
1028.77478
 20
767.189758
 30
0.0
 11
1021.77478
 21
767.189758
 31
0.0
210
0.0
220
0.0
230
1.0
  0
LINE
  5
26F
100
AcDbEntity
  8
0
370
    35
390
0
 62
     7
 48
0.07
100
AcDbLine
 10
1021.77478
 20
767.189758
 30
0.0
 11
1021.77478
 21
769.989746
 31
0.0
210
0.0
220
0.0
230
1.0
  0
LINE
  5
270
100
AcDbEntity
  8
0
370
    35
390
0
 62
     7
 48
0.25
100
AcDbLine
 10
1021.77478
 20
769.989746
 30
0.0
 11
1011.77478
 21
769.989746
 31
0.0
210
0.0
220
0.0
230
1.0
  0
LINE
  5
271
100
AcDbEntity
  8
0
370
    35
390
0
 62
     7
 48
0.07
100
AcDbLine
 10
1011.77478
 20
769.989746
 30
0.0
 11
1011.77478
 21
767.189758
 31
0.0
210
0.0
220
0.0
230
1.0
  0
LINE
  5
272
100
AcDbEntity
  8
0
370
    35
390
0
 62
     7
 48
0.325
100
AcDbLine
 10
1011.77478
 20
767.189758
 30
0.0
 11
998.77478
 21
767.189758
 31
0.0
210
0.0
220
0.0
230
1.0
  0
LINE
  5
273
100
AcDbEntity
  8
0
370
    35
390
0
 62
     7
100
AcDbLine
 10
998.77478
 20
471.189758
 30
0.0
 11
998.77478
 21
767.189758
 31
0.0
210
0.0
220
0.0
230
1.0
  0
LINE
  5
274
100
AcDbEntity
  8
0
370
    35
390
0
 62
     7
 48
0.325
100
AcDbLine
 10
998.77478
 20
471.189758
 30
0.0
 11
1011.77478
 21
471.189758
 31
0.0
210
0.0
220
0.0
230
1.0
  0
LINE
  5
275
100
AcDbEntity
  8
0
370
    35
390
0
 62
     7
 48
0.07
100
AcDbLine
 10
1011.77478
 20
468.389771
 30
0.0
 11
1011.77478
 21
471.189758
 31
0.0
210
0.0
220
0.0
230
1.0
  0
LINE
  5
276
100
AcDbEntity
  8
0
370
    35
390
0
 62
     7
 48
0.25
100
AcDbLine
 10
1021.77478
 20
468.389771
 30
0.0
 11
1011.77478
 21
468.389771
 31
0.0
210
0.0
220
0.0
230
1.0
  0
LINE
  5
277
100
AcDbEntity
  8
0
370
    35
390
0
 62
     7
 48
0.07
100
AcDbLine
 10
1021.77478
 20
471.189758
 30
0.0
 11
1021.77478
 21
468.389771
 31
0.0
210
0.0
220
0.0
230
1.0
  0
LINE
  5
278
100
AcDbEntity
  8
0
370
    35
390
0
 62
     7
 48
0.175
100
AcDbLine
 10
1021.77478
 20
471.189758
 30
0.0
 11
1028.77478
 21
471.189758
 31
0.0
210
0.0
220
0.0
230
1.0
  0
LINE
  5
279
100
AcDbEntity
  8
0
370
    35
390
0
 62
     7
100
AcDbLine
 10
1028.77478
 20
544.189758
 30
0.0
 11
1028.77478
 21
471.189758
 31
0.0
210
0.0
220
0.0
230
1.0
  0
LINE
  5
27A
100
AcDbEntity
  8
0
370
    35
390
0
 62
     7
 48
0.070001
100
AcDbLine
 10
1028.77478
 20
544.189758
 30
0.0
 11
1025.974731
 21
544.189758
 31
0.0
210
0.0
220
0.0
230
1.0
  0
LINE
  5
27B
100
AcDbEntity
  8
0
370
    35
390
0
 62
     7
100
AcDbLine
 10
1025.974731
 20
694.189758
 30
0.0
 11
1025.974731
 21
544.189758
 31
0.0
210
0.0
220
0.0
230
1.0
  0
LINE
  5
27C
100
AcDbEntity
  8
0
370
    35
390
0
 62
     7
 48
0.070001
100
AcDbLine
 10
1028.77478
 20
694.189758
 30
0.0
 11
1025.974731
 21
694.189758
 31
0.0
210
0.0
220
0.0
230
1.0
  0
LINE
  5
27D
100
AcDbEntity
  8
0
370
    35
390
0
 62
     7
100
AcDbLine
 10
1028.77478
 20
767.189758
 30
0.0
 11
1028.77478
 21
694.189758
 31
0.0
210
0.0
220
0.0
230
1.0
  0
CIRCLE
  5
27E
100
AcDbEntity
  8
0
370
    35
390
0
 62
     7
100
AcDbCircle
 10
1009.27478
 20
734.189758
 30
0.0
 40
1.5
210
0.0
220
0.0
230
1.0
  0
CIRCLE
  5
27F
100
AcDbEntity
  8
0
370
    35
390
0
 62
     7
100
AcDbCircle
 10
1009.27478
 20
716.189758
 30
0.0
 40
1.5
210
0.0
220
0.0
230
1.0
  0
CIRCLE
  5
280
100
AcDbEntity
  8
0
370
    35
390
0
 62
     7
100
AcDbCircle
 10
1009.27478
 20
522.189758
 30
0.0
 40
1.5
210
0.0
220
0.0
230
1.0
  0
CIRCLE
  5
281
100
AcDbEntity
  8
0
370
    35
390
0
 62
     7
100
AcDbCircle
 10
1009.27478
 20
504.189758
 30
0.0
 40
1.5
210
0.0
220
0.0
230
1.0
  0
LINE
  5
282
100
AcDbEntity
  8
0
370
    35
390
0
 62
     7
 48
0.175
100
AcDbLine
 10
1065.391479
 20
767.103516
 30
0.0
 11
1058.391479
 21
767.103516
 31
0.0
210
0.0
220
0.0
230
1.0
  0
LINE
  5
283
100
AcDbEntity
  8
0
370
    35
390
0
 62
     7
 48
0.07
100
AcDbLine
 10
1058.391479
 20
767.103516
 30
0.0
 11
1058.391479
 21
769.903503
 31
0.0
210
0.0
220
0.0
230
1.0
  0
LINE
  5
284
100
AcDbEntity
  8
0
370
    35
390
0
 62
     7
 48
0.25
100
AcDbLine
 10
1058.391479
 20
769.903503
 30
0.0
 11
1048.391479
 21
769.903503
 31
0.0
210
0.0
220
0.0
230
1.0
  0
LINE
  5
285
100
AcDbEntity
  8
0
370
    35
390
0
 62
     7
 48
0.07
100
AcDbLine
 10
1048.391479
 20
769.903503
 30
0.0
 11
1048.391479
 21
767.103516
 31
0.0
210
0.0
220
0.0
230
1.0
  0
LINE
  5
286
100
AcDbEntity
  8
0
370
    35
390
0
 62
     7
 48
0.325
100
AcDbLine
 10
1048.391479
 20
767.103516
 30
0.0
 11
1035.391479
 21
767.103516
 31
0.0
210
0.0
220
0.0
230
1.0
  0
LINE
  5
287
100
AcDbEntity
  8
0
370
    35
390
0
 62
     7
100
AcDbLine
 10
1035.391479
 20
471.103516
 30
0.0
 11
1035.391479
 21
767.103516
 31
0.0
210
0.0
220
0.0
230
1.0
  0
LINE
  5
288
100
AcDbEntity
  8
0
370
    35
390
0
 62
     7
 48
0.325
100
AcDbLine
 10
1035.391479
 20
471.103516
 30
0.0
 11
1048.391479
 21
471.103516
 31
0.0
210
0.0
220
0.0
230
1.0
  0
LINE
  5
289
100
AcDbEntity
  8
0
370
    35
390
0
 62
     7
 48
0.07
100
AcDbLine
 10
1048.391479
 20
468.303528
 30
0.0
 11
1048.391479
 21
471.103516
 31
0.0
210
0.0
220
0.0
230
1.0
  0
LINE
  5
28A
100
AcDbEntity
  8
0
370
    35
390
0
 62
     7
 48
0.25
100
AcDbLine
 10
1058.391479
 20
468.303528
 30
0.0
 11
1048.391479
 21
468.303528
 31
0.0
210
0.0
220
0.0
230
1.0
  0
LINE
  5
28B
100
AcDbEntity
  8
0
370
    35
390
0
 62
     7
 48
0.07
100
AcDbLine
 10
1058.391479
 20
471.103516
 30
0.0
 11
1058.391479
 21
468.303528
 31
0.0
210
0.0
220
0.0
230
1.0
  0
LINE
  5
28C
100
AcDbEntity
  8
0
370
    35
390
0
 62
     7
 48
0.175
100
AcDbLine
 10
1058.391479
 20
471.103516
 30
0.0
 11
1065.391479
 21
471.103516
 31
0.0
210
0.0
220
0.0
230
1.0
  0
LINE
  5
28D
100
AcDbEntity
  8
0
370
    35
390
0
 62
     7
100
AcDbLine
 10
1065.391479
 20
544.103516
 30
0.0
 11
1065.391479
 21
471.103516
 31
0.0
210
0.0
220
0.0
230
1.0
  0
LINE
  5
28E
100
AcDbEntity
  8
0
370
    35
390
0
 62
     7
 48
0.070001
100
AcDbLine
 10
1065.391479
 20
544.103516
 30
0.0
 11
1062.591431
 21
544.103516
 31
0.0
210
0.0
220
0.0
230
1.0
  0
LINE
  5
28F
100
AcDbEntity
  8
0
370
    35
390
0
 62
     7
100
AcDbLine
 10
1062.591431
 20
694.103516
 30
0.0
 11
1062.591431
 21
544.103516
 31
0.0
210
0.0
220
0.0
230
1.0
  0
LINE
  5
290
100
AcDbEntity
  8
0
370
    35
390
0
 62
     7
 48
0.070001
100
AcDbLine
 10
1065.391479
 20
694.103516
 30
0.0
 11
1062.591431
 21
694.103516
 31
0.0
210
0.0
220
0.0
230
1.0
  0
LINE
  5
291
100
AcDbEntity
  8
0
370
    35
390
0
 62
     7
100
AcDbLine
 10
1065.391479
 20
767.103516
 30
0.0
 11
1065.391479
 21
694.103516
 31
0.0
210
0.0
220
0.0
230
1.0
  0
LINE
  5
292
100
AcDbEntity
  8
0
370
    35
390
0
 62
     7
100
AcDbLine
 10
1099.006836
 20
769.907166
 30
0.0
 11
1099.006836
 21
524.30719
 31
0.0
210
0.0
220
0.0
230
1.0
  0
LINE
  5
293
100
AcDbEntity
  8
0
370
    35
390
0
 62
     7
 48
0.325
100
AcDbLine
 10
1099.006836
 20
524.30719
 30
0.0
 11
1112.006836
 21
524.30719
 31
0.0
210
0.0
220
0.0
230
1.0
  0
LINE
  5
294
100
AcDbEntity
  8
0
370
    35
390
0
 62
     7
 48
0.07
100
AcDbLine
 10
1112.006836
 20
524.30719
 30
0.0
 11
1112.006836
 21
527.107178
 31
0.0
210
0.0
220
0.0
230
1.0
  0
LINE
  5
295
100
AcDbEntity
  8
0
370
    35
390
0
 62
     7
 48
0.25
100
AcDbLine
 10
1112.006836
 20
527.107178
 30
0.0
 11
1122.006836
 21
527.107178
 31
0.0
210
0.0
220
0.0
230
1.0
  0
LINE
  5
296
100
AcDbEntity
  8
0
370
    35
390
0
 62
     7
 48
0.07
100
AcDbLine
 10
1122.006836
 20
527.107178
 30
0.0
 11
1122.006836
 21
524.30719
 31
0.0
210
0.0
220
0.0
230
1.0
  0
LINE
  5
297
100
AcDbEntity
  8
0
370
    35
390
0
 62
     7
 48
0.175
100
AcDbLine
 10
1122.006836
 20
524.30719
 30
0.0
 11
1129.006836
 21
524.30719
 31
0.0
210
0.0
220
0.0
230
1.0
  0
LINE
  5
298
100
AcDbEntity
  8
0
370
    35
390
0
 62
     7
100
AcDbLine
 10
1129.006836
 20
524.30719
 30
0.0
 11
1129.006836
 21
587.107178
 31
0.0
210
0.0
220
0.0
230
1.0
  0
LINE
  5
299
100
AcDbEntity
  8
0
370
    35
390
0
 62
     7
 48
0.070001
100
AcDbLine
 10
1129.006836
 20
587.107178
 30
0.0
 11
1126.206787
 21
587.107178
 31
0.0
210
0.0
220
0.0
230
1.0
  0
LINE
  5
29A
100
AcDbEntity
  8
0
370
    35
390
0
 62
     7
100
AcDbLine
 10
1126.206787
 20
707.107178
 30
0.0
 11
1126.206787
 21
587.107178
 31
0.0
210
0.0
220
0.0
230
1.0
  0
LINE
  5
29B
100
AcDbEntity
  8
0
370
    35
390
0
 62
     7
 48
0.070001
100
AcDbLine
 10
1129.006836
 20
707.107178
 30
0.0
 11
1126.206787
 21
707.107178
 31
0.0
210
0.0
220
0.0
230
1.0
  0
LINE
  5
29C
100
AcDbEntity
  8
0
370
    35
390
0
 62
     7
100
AcDbLine
 10
1129.006836
 20
707.107178
 30
0.0
 11
1129.006836
 21
769.907166
 31
0.0
210
0.0
220
0.0
230
1.0
  0
LINE
  5
29D
100
AcDbEntity
  8
0
370
    35
390
0
 62
     7
 48
0.175
100
AcDbLine
 10
1129.006836
 20
769.907166
 30
0.0
 11
1122.006836
 21
769.907166
 31
0.0
210
0.0
220
0.0
230
1.0
  0
LINE
  5
29E
100
AcDbEntity
  8
0
370
    35
390
0
 62
     7
 48
0.07
100
AcDbLine
 10
1122.006836
 20
767.107178
 30
0.0
 11
1122.006836
 21
769.907166
 31
0.0
210
0.0
220
0.0
230
1.0
  0
LINE
  5
29F
100
AcDbEntity
  8
0
370
    35
390
0
 62
     7
 48
0.25
100
AcDbLine
 10
1112.006836
 20
767.107178
 30
0.0
 11
1122.006836
 21
767.107178
 31
0.0
210
0.0
220
0.0
230
1.0
  0
LINE
  5
2A0
100
AcDbEntity
  8
0
370
    35
390
0
 62
     7
 48
0.07
100
AcDbLine
 10
1112.006836
 20
769.907166
 30
0.0
 11
1112.006836
 21
767.107178
 31
0.0
210
0.0
220
0.0
230
1.0
  0
LINE
  5
2A1
100
AcDbEntity
  8
0
370
    35
390
0
 62
     7
 48
0.325
100
AcDbLine
 10
1112.006836
 20
769.907166
 30
0.0
 11
1099.006836
 21
769.907166
 31
0.0
210
0.0
220
0.0
230
1.0
  0
LINE
  5
2A2
100
AcDbEntity
  8
0
370
    35
390
0
 62
     7
 48
0.070001
100
AcDbLine
 10
1112.40686
 20
727.107178
 30
0.0
 11
1109.606812
 21
727.107178
 31
0.0
210
0.0
220
0.0
230
1.0
  0
LINE
  5
2A3
100
AcDbEntity
  8
0
370
    35
390
0
 62
     7
100
AcDbLine
 10
1112.40686
 20
697.107178
 30
0.0
 11
1112.40686
 21
727.107178
 31
0.0
210
0.0
220
0.0
230
1.0
  0
LINE
  5
2A4
100
AcDbEntity
  8
0
370
    35
390
0
 62
     7
 48
0.070001
100
AcDbLine
 10
1112.40686
 20
697.107178
 30
0.0
 11
1109.606812
 21
697.107178
 31
0.0
210
0.0
220
0.0
230
1.0
  0
LINE
  5
2A5
100
AcDbEntity
  8
0
370
    35
390
0
 62
     7
100
AcDbLine
 10
1109.606812
 20
727.107178
 30
0.0
 11
1109.606812
 21
697.107178
 31
0.0
210
0.0
220
0.0
230
1.0
  0
LINE
  5
2A6
100
AcDbEntity
  8
0
370
    35
390
0
 62
     7
100
AcDbLine
 10
1109.606812
 20
597.107178
 30
0.0
 11
1109.606812
 21
567.107178
 31
0.0
210
0.0
220
0.0
230
1.0
  0
LINE
  5
2A7
100
AcDbEntity
  8
0
370
    35
390
0
 62
     7
 48
0.070001
100
AcDbLine
 10
1112.40686
 20
597.107178
 30
0.0
 11
1109.606812
 21
597.107178
 31
0.0
210
0.0
220
0.0
230
1.0
  0
LINE
  5
2A8
100
AcDbEntity
  8
0
370
    35
390
0
 62
     7
100
AcDbLine
 10
1112.40686
 20
567.107178
 30
0.0
 11
1112.40686
 21
597.107178
 31
0.0
210
0.0
220
0.0
230
1.0
  0
LINE
  5
2A9
100
AcDbEntity
  8
0
370
    35
390
0
 62
     7
 48
0.070001
100
AcDbLine
 10
1109.606812
 20
567.107178
 30
0.0
 11
1112.40686
 21
567.107178
 31
0.0
210
0.0
220
0.0
230
1.0
  0
LINE
  5
2AA
100
AcDbEntity
  8
0
370
    35
390
0
 62
     7
100
AcDbLine
 10
1112.40686
 20
632.107178
 30
0.0
 11
1112.40686
 21
662.107178
 31
0.0
210
0.0
220
0.0
230
1.0
  0
LINE
  5
2AB
100
AcDbEntity
  8
0
370
    35
390
0
 62
     7
 48
0.070001
100
AcDbLine
 10
1112.40686
 20
632.107178
 30
0.0
 11
1109.606812
 21
632.107178
 31
0.0
210
0.0
220
0.0
230
1.0
  0
LINE
  5
2AC
100
AcDbEntity
  8
0
370
    35
390
0
 62
     7
100
AcDbLine
 10
1109.606812
 20
662.107178
 30
0.0
 11
1109.606812
 21
632.107178
 31
0.0
210
0.0
220
0.0
230
1.0
  0
LINE
  5
2AD
100
AcDbEntity
  8
0
370
    35
390
0
 62
     7
 48
0.070001
100
AcDbLine
 10
1112.40686
 20
662.107178
 30
0.0
 11
1109.606812
 21
662.107178
 31
0.0
210
0.0
220
0.0
230
1.0
  0
LINE
  5
2AE
100
AcDbEntity
  8
0
370
    35
390
0
 62
     7
 48
0.15
100
AcDbLine
 10
1124.006836
 20
727.107178
 30
0.0
 11
1118.006836
 21
727.107178
 31
0.0
210
0.0
220
0.0
230
1.0
  0
LINE
  5
2AF
100
AcDbEntity
  8
0
370
    35
390
0
 62
     7
 48
0.07
100
AcDbLine
 10
1124.006836
 20
724.30719
 30
0.0
 11
1124.006836
 21
727.107178
 31
0.0
210
0.0
220
0.0
230
1.0
  0
LINE
  5
2B0
100
AcDbEntity
  8
0
370
    35
390
0
 62
     7
 48
0.15
100
AcDbLine
 10
1118.006836
 20
724.30719
 30
0.0
 11
1124.006836
 21
724.30719
 31
0.0
210
0.0
220
0.0
230
1.0
  0
LINE
  5
2B1
100
AcDbEntity
  8
0
370
    35
390
0
 62
     7
 48
0.07
100
AcDbLine
 10
1118.006836
 20
727.107178
 30
0.0
 11
1118.006836
 21
724.30719
 31
0.0
210
0.0
220
0.0
230
1.0
  0
LINE
  5
2B2
100
AcDbEntity
  8
0
370
    35
390
0
 62
     7
 48
0.15
100
AcDbLine
 10
1124.006836
 20
697.107178
 30
0.0
 11
1118.006836
 21
697.107178
 31
0.0
210
0.0
220
0.0
230
1.0
  0
LINE
  5
2B3
100
AcDbEntity
  8
0
370
    35
390
0
 62
     7
 48
0.07
100
AcDbLine
 10
1124.006836
 20
694.30719
 30
0.0
 11
1124.006836
 21
697.107178
 31
0.0
210
0.0
220
0.0
230
1.0
  0
LINE
  5
2B4
100
AcDbEntity
  8
0
370
    35
390
0
 62
     7
 48
0.15
100
AcDbLine
 10
1118.006836
 20
694.30719
 30
0.0
 11
1124.006836
 21
694.30719
 31
0.0
210
0.0
220
0.0
230
1.0
  0
LINE
  5
2B5
100
AcDbEntity
  8
0
370
    35
390
0
 62
     7
 48
0.07
100
AcDbLine
 10
1118.006836
 20
697.107178
 30
0.0
 11
1118.006836
 21
694.30719
 31
0.0
210
0.0
220
0.0
230
1.0
  0
LINE
  5
2B6
100
AcDbEntity
  8
0
370
    35
390
0
 62
     7
 48
0.15
100
AcDbLine
 10
1124.006836
 20
664.907166
 30
0.0
 11
1118.006836
 21
664.907166
 31
0.0
210
0.0
220
0.0
230
1.0
  0
LINE
  5
2B7
100
AcDbEntity
  8
0
370
    35
390
0
 62
     7
 48
0.07
100
AcDbLine
 10
1124.006836
 20
662.107178
 30
0.0
 11
1124.006836
 21
664.907166
 31
0.0
210
0.0
220
0.0
230
1.0
  0
LINE
  5
2B8
100
AcDbEntity
  8
0
370
    35
390
0
 62
     7
 48
0.15
100
AcDbLine
 10
1118.006836
 20
662.107178
 30
0.0
 11
1124.006836
 21
662.107178
 31
0.0
210
0.0
220
0.0
230
1.0
  0
LINE
  5
2B9
100
AcDbEntity
  8
0
370
    35
390
0
 62
     7
 48
0.07
100
AcDbLine
 10
1118.006836
 20
664.907166
 30
0.0
 11
1118.006836
 21
662.107178
 31
0.0
210
0.0
220
0.0
230
1.0
  0
LINE
  5
2BA
100
AcDbEntity
  8
0
370
    35
390
0
 62
     7
 48
0.07
100
AcDbLine
 10
1118.006836
 20
567.107178
 30
0.0
 11
1118.006836
 21
569.907166
 31
0.0
210
0.0
220
0.0
230
1.0
  0
LINE
  5
2BB
100
AcDbEntity
  8
0
370
    35
390
0
 62
     7
 48
0.15
100
AcDbLine
 10
1118.006836
 20
569.907166
 30
0.0
 11
1124.006836
 21
569.907166
 31
0.0
210
0.0
220
0.0
230
1.0
  0
LINE
  5
2BC
100
AcDbEntity
  8
0
370
    35
390
0
 62
     7
 48
0.07
100
AcDbLine
 10
1124.006836
 20
569.907166
 30
0.0
 11
1124.006836
 21
567.107178
 31
0.0
210
0.0
220
0.0
230
1.0
  0
LINE
  5
2BD
100
AcDbEntity
  8
0
370
    35
390
0
 62
     7
 48
0.15
100
AcDbLine
 10
1124.006836
 20
567.107178
 30
0.0
 11
1118.006836
 21
567.107178
 31
0.0
210
0.0
220
0.0
230
1.0
  0
LINE
  5
2BE
100
AcDbEntity
  8
0
370
    35
390
0
 62
     7
 48
0.07
100
AcDbLine
 10
1118.006836
 20
597.107178
 30
0.0
 11
1118.006836
 21
599.907166
 31
0.0
210
0.0
220
0.0
230
1.0
  0
LINE
  5
2BF
100
AcDbEntity
  8
0
370
    35
390
0
 62
     7
 48
0.15
100
AcDbLine
 10
1118.006836
 20
599.907166
 30
0.0
 11
1124.006836
 21
599.907166
 31
0.0
210
0.0
220
0.0
230
1.0
  0
LINE
  5
2C0
100
AcDbEntity
  8
0
370
    35
390
0
 62
     7
 48
0.07
100
AcDbLine
 10
1124.006836
 20
599.907166
 30
0.0
 11
1124.006836
 21
597.107178
 31
0.0
210
0.0
220
0.0
230
1.0
  0
LINE
  5
2C1
100
AcDbEntity
  8
0
370
    35
390
0
 62
     7
 48
0.15
100
AcDbLine
 10
1124.006836
 20
597.107178
 30
0.0
 11
1118.006836
 21
597.107178
 31
0.0
210
0.0
220
0.0
230
1.0
  0
LINE
  5
2C2
100
AcDbEntity
  8
0
370
    35
390
0
 62
     7
 48
0.07
100
AcDbLine
 10
1118.006836
 20
629.30719
 30
0.0
 11
1118.006836
 21
632.107178
 31
0.0
210
0.0
220
0.0
230
1.0
  0
LINE
  5
2C3
100
AcDbEntity
  8
0
370
    35
390
0
 62
     7
 48
0.15
100
AcDbLine
 10
1118.006836
 20
632.107178
 30
0.0
 11
1124.006836
 21
632.107178
 31
0.0
210
0.0
220
0.0
230
1.0
  0
LINE
  5
2C4
100
AcDbEntity
  8
0
370
    35
390
0
 62
     7
 48
0.07
100
AcDbLine
 10
1124.006836
 20
632.107178
 30
0.0
 11
1124.006836
 21
629.30719
 31
0.0
210
0.0
220
0.0
230
1.0
  0
LINE
  5
2C5
100
AcDbEntity
  8
0
370
    35
390
0
 62
     7
 48
0.15
100
AcDbLine
 10
1124.006836
 20
629.30719
 30
0.0
 11
1118.006836
 21
629.30719
 31
0.0
210
0.0
220
0.0
230
1.0
  0
LINE
  5
2C6
100
AcDbEntity
  8
0
370
    35
390
0
 62
     7
 48
0.125
100
AcDbLine
 10
697.516785
 20
352.271088
 30
0.0
 11
697.516785
 21
347.271088
 31
0.0
210
0.0
220
0.0
230
1.0
  0
LINE
  5
2C7
100
AcDbEntity
  8
0
370
    35
390
0
 62
     7
 48
0.07
100
AcDbLine
 10
697.516785
 20
347.271088
 30
0.0
 11
694.716797
 21
347.271088
 31
0.0
210
0.0
220
0.0
230
1.0
  0
LINE
  5
2C8
100
AcDbEntity
  8
0
370
    35
390
0
 62
     7
 48
0.25
100
AcDbLine
 10
694.716797
 20
347.271088
 30
0.0
 11
694.716797
 21
337.271088
 31
0.0
210
0.0
220
0.0
230
1.0
  0
LINE
  5
2C9
100
AcDbEntity
  8
0
370
    35
390
0
 62
     7
 48
0.07
100
AcDbLine
 10
697.516785
 20
337.271088
 30
0.0
 11
694.716797
 21
337.271088
 31
0.0
210
0.0
220
0.0
230
1.0
  0
LINE
  5
2CA
100
AcDbEntity
  8
0
370
    35
390
0
 62
     7
 48
0.055
100
AcDbLine
 10
697.516785
 20
337.271088
 30
0.0
 11
697.516785
 21
335.071075
 31
0.0
210
0.0
220
0.0
230
1.0
  0
LINE
  5
2CB
100
AcDbEntity
  8
0
370
    35
390
0
 62
     7
100
AcDbLine
 10
770.516785
 20
335.071075
 30
0.0
 11
697.516785
 21
335.071075
 31
0.0
210
0.0
220
0.0
230
1.0
  0
LINE
  5
2CC
100
AcDbEntity
  8
0
370
    35
390
0
 62
     7
 48
0.07
100
AcDbLine
 10
770.516785
 20
332.271088
 30
0.0
 11
770.516785
 21
335.071075
 31
0.0
210
0.0
220
0.0
230
1.0
  0
LINE
  5
2CD
100
AcDbEntity
  8
0
370
    35
390
0
 62
     7
100
AcDbLine
 10
920.516785
 20
332.271088
 30
0.0
 11
770.516785
 21
332.271088
 31
0.0
210
0.0
220
0.0
230
1.0
  0
LINE
  5
2CE
100
AcDbEntity
  8
0
370
    35
390
0
 62
     7
 48
0.07
100
AcDbLine
 10
920.516785
 20
332.271088
 30
0.0
 11
920.516785
 21
335.071075
 31
0.0
210
0.0
220
0.0
230
1.0
  0
LINE
  5
2CF
100
AcDbEntity
  8
0
370
    35
390
0
 62
     7
100
AcDbLine
 10
920.516785
 20
335.071075
 30
0.0
 11
993.516785
 21
335.071075
 31
0.0
210
0.0
220
0.0
230
1.0
  0
LINE
  5
2D0
100
AcDbEntity
  8
0
370
    35
390
0
 62
     7
 48
0.055
100
AcDbLine
 10
993.516785
 20
335.071075
 30
0.0
 11
993.516785
 21
337.271088
 31
0.0
210
0.0
220
0.0
230
1.0
  0
LINE
  5
2D1
100
AcDbEntity
  8
0
370
    35
390
0
 62
     7
 48
0.07
100
AcDbLine
 10
993.516785
 20
337.271088
 30
0.0
 11
996.316772
 21
337.271088
 31
0.0
210
0.0
220
0.0
230
1.0
  0
LINE
  5
2D2
100
AcDbEntity
  8
0
370
    35
390
0
 62
     7
 48
0.25
100
AcDbLine
 10
996.316772
 20
347.271088
 30
0.0
 11
996.316772
 21
337.271088
 31
0.0
210
0.0
220
0.0
230
1.0
  0
LINE
  5
2D3
100
AcDbEntity
  8
0
370
    35
390
0
 62
     7
 48
0.07
100
AcDbLine
 10
993.516785
 20
347.271088
 30
0.0
 11
996.316772
 21
347.271088
 31
0.0
210
0.0
220
0.0
230
1.0
  0
LINE
  5
2D4
100
AcDbEntity
  8
0
370
    35
390
0
 62
     7
 48
0.125
100
AcDbLine
 10
993.516785
 20
347.271088
 30
0.0
 11
993.516785
 21
352.271088
 31
0.0
210
0.0
220
0.0
230
1.0
  0
LINE
  5
2D5
100
AcDbEntity
  8
0
370
    35
390
0
 62
     7
100
AcDbLine
 10
920.516785
 20
352.271088
 30
0.0
 11
993.516785
 21
352.271088
 31
0.0
210
0.0
220
0.0
230
1.0
  0
LINE
  5
2D6
100
AcDbEntity
  8
0
370
    35
390
0
 62
     7
 48
0.07
100
AcDbLine
 10
920.516785
 20
352.271088
 30
0.0
 11
920.516785
 21
355.071075
 31
0.0
210
0.0
220
0.0
230
1.0
  0
LINE
  5
2D7
100
AcDbEntity
  8
0
370
    35
390
0
 62
     7
100
AcDbLine
 10
770.516785
 20
355.071075
 30
0.0
 11
920.516785
 21
355.071075
 31
0.0
210
0.0
220
0.0
230
1.0
  0
LINE
  5
2D8
100
AcDbEntity
  8
0
370
    35
390
0
 62
     7
 48
0.07
100
AcDbLine
 10
770.516785
 20
352.271088
 30
0.0
 11
770.516785
 21
355.071075
 31
0.0
210
0.0
220
0.0
230
1.0
  0
LINE
  5
2D9
100
AcDbEntity
  8
0
370
    35
390
0
 62
     7
100
AcDbLine
 10
697.516785
 20
352.271088
 30
0.0
 11
770.516785
 21
352.271088
 31
0.0
210
0.0
220
0.0
230
1.0
  0
CIRCLE
  5
2DA
100
AcDbEntity
  8
0
370
    35
390
0
 62
     7
100
AcDbCircle
 10
905.516785
 20
344.271088
 30
0.0
 40
7.0
210
0.0
220
0.0
230
1.0
  0
LINE
  5
2DB
100
AcDbEntity
  8
0
370
    35
390
0
 62
     7
 48
0.3
100
AcDbLine
 10
730.516785
 20
337.271088
 30
0.0
 11
730.516785
 21
349.271088
 31
0.0
210
0.0
220
0.0
230
1.0
  0
LINE
  5
2DC
100
AcDbEntity
  8
0
370
    35
390
0
 62
     7
100
AcDbLine
 10
730.516785
 20
337.271088
 30
0.0
 11
710.516785
 21
337.271088
 31
0.0
210
0.0
220
0.0
230
1.0
  0
LINE
  5
2DD
100
AcDbEntity
  8
0
370
    35
390
0
 62
     7
 48
0.3
100
AcDbLine
 10
710.516785
 20
349.271088
 30
0.0
 11
710.516785
 21
337.271088
 31
0.0
210
0.0
220
0.0
230
1.0
  0
LINE
  5
2DE
100
AcDbEntity
  8
0
370
    35
390
0
 62
     7
100
AcDbLine
 10
710.516785
 20
349.271088
 30
0.0
 11
730.516785
 21
349.271088
 31
0.0
210
0.0
220
0.0
230
1.0
  0
LINE
  5
2DF
100
AcDbEntity
  8
0
370
    35
390
0
 62
     7
 48
0.3
100
AcDbLine
 10
980.516785
 20
349.271088
 30
0.0
 11
980.516785
 21
337.271088
 31
0.0
210
0.0
220
0.0
230
1.0
  0
LINE
  5
2E0
100
AcDbEntity
  8
0
370
    35
390
0
 62
     7
100
AcDbLine
 10
960.516785
 20
337.271088
 30
0.0
 11
980.516785
 21
337.271088
 31
0.0
210
0.0
220
0.0
230
1.0
  0
LINE
  5
2E1
100
AcDbEntity
  8
0
370
    35
390
0
 62
     7
 48
0.3
100
AcDbLine
 10
960.516785
 20
337.271088
 30
0.0
 11
960.516785
 21
349.271088
 31
0.0
210
0.0
220
0.0
230
1.0
  0
LINE
  5
2E2
100
AcDbEntity
  8
0
370
    35
390
0
 62
     7
100
AcDbLine
 10
980.516785
 20
349.271088
 30
0.0
 11
960.516785
 21
349.271088
 31
0.0
210
0.0
220
0.0
230
1.0
  0
LINE
  5
2E3
100
AcDbEntity
  8
0
370
    35
390
0
 62
     7
100
AcDbLine
 10
833.516785
 20
351.271088
 30
0.0
 11
857.516785
 21
351.271088
 31
0.0
210
0.0
220
0.0
230
1.0
  0
LINE
  5
2E4
100
AcDbEntity
  8
0
370
    35
390
0
 62
     7
 48
0.375
100
AcDbLine
 10
857.516785
 20
336.271088
 30
0.0
 11
857.516785
 21
351.271088
 31
0.0
210
0.0
220
0.0
230
1.0
  0
LINE
  5
2E5
100
AcDbEntity
  8
0
370
    35
390
0
 62
     7
100
AcDbLine
 10
857.516785
 20
336.271088
 30
0.0
 11
833.516785
 21
336.271088
 31
0.0
210
0.0
220
0.0
230
1.0
  0
LINE
  5
2E6
100
AcDbEntity
  8
0
370
    35
390
0
 62
     7
 48
0.375
100
AcDbLine
 10
833.516785
 20
351.271088
 30
0.0
 11
833.516785
 21
336.271088
 31
0.0
210
0.0
220
0.0
230
1.0
  0
LINE
  5
2E7
100
AcDbEntity
  8
0
370
    35
390
0
 62
     7
 48
0.275
100
AcDbLine
 10
924.516785
 20
346.271088
 30
0.0
 11
935.516785
 21
346.271088
 31
0.0
210
0.0
220
0.0
230
1.0
  0
LINE
  5
2E8
100
AcDbEntity
  8
0
370
    35
390
0
 62
     7
 48
0.1
100
AcDbLine
 10
935.516785
 20
342.271088
 30
0.0
 11
935.516785
 21
346.271088
 31
0.0
210
0.0
220
0.0
230
1.0
  0
LINE
  5
2E9
100
AcDbEntity
  8
0
370
    35
390
0
 62
     7
 48
0.275
100
AcDbLine
 10
935.516785
 20
342.271088
 30
0.0
 11
924.516785
 21
342.271088
 31
0.0
210
0.0
220
0.0
230
1.0
  0
LINE
  5
2EA
100
AcDbEntity
  8
0
370
    35
390
0
 62
     7
 48
0.1
100
AcDbLine
 10
924.516785
 20
346.271088
 30
0.0
 11
924.516785
 21
342.271088
 31
0.0
210
0.0
220
0.0
230
1.0
  0
ENDSEC
  0
SECTION
  2
OBJECTS
  0
DICTIONARY
  5
19
100
AcDbDictionary
280
     0
281
     1
  3
ACAD_GROUP
350
1A
  3
ACAD_MLINESTYLE
350
1B
  3
ACAD_LAYOUT
350
1E
  3
ACAD_PLOTSETTINGS
350
22
  3
ACAD_PLOTSTYLENAME
350
1F
  3
ACAD_WIPEOUT_VARS
350
23
  0
DICTIONARY
  5
1A
102
{ACAD_REACTORS
330
19
102
}
100
AcDbDictionary
280
     0
281
     1
  0
DICTIONARY
  5
1B
102
{ACAD_REACTORS
330
19
102
}
100
AcDbDictionary
280
     0
281
     1
  3
Standard
350
1C
  0
MLINESTYLE
  5
1C
102
{ACAD_REACTORS
330
1B
102
}
100
AcDbMlineStyle
  2
Standard
 70
     0
  3

 62
     0
 51
90.0
 52
90.0
 71
     2
 49
0.5
 62
   256
  6
ByLayer
 49
-0.5
 62
   256
  6
ByLayer
  0
ACDBDICTIONARYWDFLT
  5
1F
102
{ACAD_REACTORS
330
19
102
}
100
AcDbDictionary
281
     1
  3
Normal
350
1D
100
AcDbDictionaryWithDefault
340
1D
  0
ACDBPLACEHOLDER
  5
1D
102
{ACAD_REACTORS
330
1F
102
}
  0
LAYOUT
  5
20
102
{ACAD_REACTORS
330
1E
102
}
100
AcDbPlotSettings
  1

  2

  4

  6

 40
0.0
 41
0.0
 42
0.0
 43
0.0
 44
0.0
 45
0.0
 46
0.0
 47
0.0
 48
0.0
 49
0.0
140
0.0
141
0.0
142
1.0
143
1.0
 70
  1024
 72
     0
 73
     0
 74
     0
  7

 75
     0
147
1.0
148
0.0
149
0.0
100
AcDbLayout
  1
Model
 70
     0
 71
     0
 10
0.0
 20
0.0
 11
0.0
 21
0.0
 12
0.0
 22
0.0
 32
0.0
 14
0.0
 24
0.0
 34
0.0
 15
0.0
 25
0.0
 35
0.0
146
0.0
 13
0.0
 23
0.0
 33
0.0
 16
0.0
 26
0.0
 36
0.0
 17
0.0
 27
0.0
 37
0.0
 76
     0
330
A
331
0
345
0
346
0
  0
LAYOUT
  5
21
102
{ACAD_REACTORS
330
1E
102
}
100
AcDbPlotSettings
  1

  2

  4

  6

 40
0.0
 41
0.0
 42
0.0
 43
0.0
 44
0.0
 45
0.0
 46
0.0
 47
0.0
 48
0.0
 49
0.0
140
0.0
141
0.0
142
1.0
143
1.0
 70
     0
 72
     0
 73
     0
 74
     0
  7

 75
     0
147
1.0
148
0.0
149
0.0
100
AcDbLayout
  1
Layout1
 70
     0
 71
     0
 10
0.0
 20
0.0
 11
0.0
 21
0.0
 12
0.0
 22
0.0
 32
0.0
 14
0.0
 24
0.0
 34
0.0
 15
0.0
 25
0.0
 35
0.0
146
0.0
 13
0.0
 23
0.0
 33
0.0
 16
0.0
 26
0.0
 36
0.0
 17
0.0
 27
0.0
 37
0.0
 76
     0
330
B
331
0
345
0
346
0
  0
DICTIONARY
  5
1E
102
{ACAD_REACTORS
330
19
102
}
100
AcDbDictionary
280
     0
281
     1
  3
Layout1
350
21
  3
Model
350
20
  0
DICTIONARY
  5
22
102
{ACAD_REACTORS
330
19
102
}
100
AcDbDictionary
280
     0
281
     1
  0
WIPEOUTVARIABLES
  5
23
100
AcDbWipeoutVariables
 70
     1
  0
ENDSEC
  0
EOF
