  0
SECTION
  2
HEADER
  9
$ACADVER
  1
AC1015
  9
$ACADMAINTVER
 70
     6
  9
$DWGCODEPAGE
  3
ANSI_1252
  9
$INSBASE
 10
0.0
 20
0.0
 30
0.0
  9
$EXTMIN
 10
0.0
 20
0.0
 30
0.0
  9
$EXTMAX
 10
638.740601
 20
516.901794
 30
2.0
  9
$LIMMIN
 10
0.0
 20
0.0
  9
$LIMMAX
 10
420.0
 20
297.0
  9
$ORTHOMODE
 70
     0
  9
$REGENMODE
 70
     1
  9
$FILLMODE
 70
     1
  9
$QTEXTMODE
 70
     0
  9
$MIRRTEXT
 70
     1
  9
$LTSCALE
 40
1.0
  9
$ATTMODE
 70
     1
  9
$TEXTSIZE
 40
2.5
  9
$TRACEWID
 40
1.0
  9
$TEXTSTYLE
  7
Standard
  9
$CLAYER
  8
0
  9
$CELTYPE
  6
ByLayer
  9
$CECOLOR
 62
   256
  9
$CELTSCALE
 40
1.0
  9
$DISPSILH
 70
     0
  9
$DIMSCALE
 40
1.0
  9
$DIMASZ
 40
2.5
  9
$DIMEXO
 40
0.625
  9
$DIMDLI
 40
3.75
  9
$DIMRND
 40
0.0
  9
$DIMDLE
 40
0.0
  9
$DIMEXE
 40
1.25
  9
$DIMTP
 40
0.0
  9
$DIMTM
 40
0.0
  9
$DIMTXT
 40
2.5
  9
$DIMCEN
 40
2.5
  9
$DIMTSZ
 40
0.0
  9
$DIMTOL
 70
     0
  9
$DIMLIM
 70
     0
  9
$DIMTIH
 70
     0
  9
$DIMTOH
 70
     0
  9
$DIMSE1
 70
     0
  9
$DIMSE2
 70
     0
  9
$DIMTAD
 70
     1
  9
$DIMZIN
 70
     8
  9
$DIMBLK
  1

  9
$DIMASO
 70
     1
  9
$DIMSHO
 70
     1
  9
$DIMPOST
  1

  9
$DIMAPOST
  1

  9
$DIMALT
 70
     0
  9
$DIMALTD
 70
     3
  9
$DIMALTF
 40
0.03937
  9
$DIMLFAC
 40
1.0
  9
$DIMTOFL
 70
     1
  9
$DIMTVP
 40
0.0
  9
$DIMTIX
 70
     0
  9
$DIMSOXD
 70
     0
  9
$DIMSAH
 70
     0
  9
$DIMBLK1
  1

  9
$DIMBLK2
  1

  9
$DIMSTYLE
  2

  9
$DIMCLRD
 70
     0
  9
$DIMCLRE
 70
     0
  9
$DIMCLRT
 70
     0
  9
$DIMTFAC
 40
1.0
  9
$DIMGAP
 40
0.625
  9
$DIMJUST
 70
     0
  9
$DIMSD1
 70
     0
  9
$DIMSD2
 70
     0
  9
$DIMTOLJ
 70
     0
  9
$DIMTZIN
 70
     8
  9
$DIMALTZ
 70
     0
  9
$DIMALTTZ
 70
     0
  9
$DIMUPT
 70
     0
  9
$DIMDEC
 70
     2
  9
$DIMTDEC
 70
     2
  9
$DIMALTU
 70
     2
  9
$DIMALTTD
 70
     3
  9
$DIMTXSTY
  7
Standard
  9
$DIMAUNIT
 70
     0
  9
$DIMADEC
 70
     0
  9
$DIMALTRND
 40
0.0
  9
$DIMAZIN
 70
     0
  9
$DIMDSEP
 70
    44
  9
$DIMATFIT
 70
     0
  9
$DIMFRAC
 70
     0
  9
$DIMLDRBLK
  1

  9
$DIMLUNIT
 70
     2
  9
$DIMLWD
 70
    -2
  9
$DIMLWE
 70
    -2
  9
$DIMTMOVE
 70
     0
  9
$LUNITS
 70
     2
  9
$LUPREC
 70
     4
  9
$SKETCHINC
 40
1.0
  9
$FILLETRAD
 40
2.5
  9
$AUNITS
 70
     0
  9
$AUPREC
 70
     0
  9
$MENU
  1
.
  9
$ELEVATION
 40
0.0
  9
$PELEVATION
 40
0.0
  9
$THICKNESS
 40
0.0
  9
$LIMCHECK
 70
     0
  9
$CHAMFERA
 40
2.5
  9
$CHAMFERB
 40
2.5
  9
$CHAMFERC
 40
0.0
  9
$CHAMFERD
 40
0.0
  9
$SKPOLY
 70
     0
  9
$TDCREATE
 40
0.000000000
  9
$TDUCREATE
 40
0.000000000
  9
$TDUPDATE
 40
0.000000000
  9
$TDUUPDATE
 40
0.000000000
  9
$TDINDWG
 40
0.0000000000
  9
$TDUSRTIMER
 40
0.0000000000
  9
$USRTIMER
 70
     1
  9
$ANGBASE
 50
0.0
  9
$ANGDIR
 70
     0
  9
$PDMODE
 70
     0
  9
$PDSIZE
 40
0.0
  9
$PLINEWID
 40
0.0
  9
$SPLFRAME
 70
     0
  9
$SPLINETYPE
 70
     6
  9
$SPLINESEGS
 70
     8
  9
$HANDSEED
  5
2D5
  9
$SURFTAB1
 70
     6
  9
$SURFTAB2
 70
     6
  9
$SURFTYPE
 70
     6
  9
$SURFU
 70
     6
  9
$SURFV
 70
     6
  9
$UCSBASE
  2

  9
$UCSNAME
  2

  9
$UCSORG
 10
0.0
 20
0.0
 30
0.0
  9
$UCSXDIR
 10
1.0
 20
0.0
 30
0.0
  9
$UCSYDIR
 10
0.0
 20
1.0
 30
0.0
  9
$UCSORTHOREF
  2

  9
$UCSORTHOVIEW
 70
     1
  9
$UCSORGTOP
 10
0.0
 20
0.0
 30
0.0
  9
$UCSORGBOTTOM
 10
0.0
 20
0.0
 30
0.0
  9
$UCSORGLEFT
 10
0.0
 20
0.0
 30
0.0
  9
$UCSORGRIGHT
 10
0.0
 20
0.0
 30
0.0
  9
$UCSORGFRONT
 10
0.0
 20
0.0
 30
0.0
  9
$UCSORGBACK
 10
0.0
 20
0.0
 30
0.0
  9
$PUCSBASE
  2

  9
$PUCSNAME
  2

  9
$PUCSORG
 10
0.0
 20
0.0
 30
0.0
  9
$PUCSXDIR
 10
1.0
 20
0.0
 30
0.0
  9
$PUCSYDIR
 10
0.0
 20
1.0
 30
0.0
  9
$PUCSORTHOREF
  2

  9
$PUCSORTHOVIEW
 70
     0
  9
$PUCSORGTOP
 10
0.0
 20
0.0
 30
0.0
  9
$PUCSORGBOTTOM
 10
0.0
 20
0.0
 30
0.0
  9
$PUCSORGLEFT
 10
0.0
 20
0.0
 30
0.0
  9
$PUCSORGRIGHT
 10
0.0
 20
0.0
 30
0.0
  9
$PUCSORGFRONT
 10
0.0
 20
0.0
 30
0.0
  9
$PUCSORGBACK
 10
0.0
 20
0.0
 30
0.0
  9
$USERI1
 70
     0
  9
$USERI2
 70
     0
  9
$USERI3
 70
     0
  9
$USERI4
 70
     0
  9
$USERI5
 70
     0
  9
$USERR1
 40
0.0
  9
$USERR2
 40
0.0
  9
$USERR3
 40
0.0
  9
$USERR4
 40
0.0
  9
$USERR5
 40
0.0
  9
$WORLDVIEW
 70
     1
  9
$SHADEDGE
 70
     3
  9
$SHADEDIF
 70
    70
  9
$TILEMODE
 70
     1
  9
$MAXACTVP
 70
    48
  9
$PINSBASE
 10
0.0
 20
0.0
 30
0.0
  9
$PLIMCHECK
 70
     0
  9
$PEXTMIN
 10
0.0
 20
0.0
 30
0.0
  9
$PEXTMAX
 10
638.740601
 20
516.901794
 30
2.0
  9
$PLIMMIN
 10
0.0
 20
0.0
  9
$PLIMMAX
 10
420.0
 20
297.0
  9
$UNITMODE
 70
     0
  9
$VISRETAIN
 70
     0
  9
$PLINEGEN
 70
     0
  9
$PSLTSCALE
 70
     1
  9
$TREEDEPTH
 70
  3020
  9
$CMLSTYLE
  2
Standard
  9
$CMLJUST
 70
     0
  9
$CMLSCALE
 40
20.0
  9
$PROXYGRAPHICS
 70
     1
  9
$MEASUREMENT
 70
     1
  9
$CELWEIGHT
370
    -1
  9
$ENDCAPS
280
     0
  9
$JOINSTYLE
280
     0
  9
$LWDISPLAY
290
     0
  9
$INSUNITS
 70
     0
  9
$HYPERLINKBASE
  1

  9
$STYLESHEET
  1

  9
$XEDIT
290
     1
  9
$CEPSNTYPE
380
     0
  9
$PSTYLEMODE
290
     0
  9
$FINGERPRINTGUID
  2

  9
$VERSIONGUID
  2

  9
$EXTNAMES
290
     0
  9
$PSVPSCALE
 40
0.0
  0
ENDSEC
  0
SECTION
  2
CLASSES
  0
CLASS
  1
LWPOLYLINE
  2
AcDbPolyline
  3
AutoCAD 2000
 90
        0
280
     0
281
     1
  0
CLASS
  1
IMAGE
  2
AcDbRasterImage
  3
ISM
 90
      127
280
     0
281
     1
  0
CLASS
  1
OLE2FRAME
  2
AcDbOle2Frame
  3
AutoCAD 2000
 90
        0
280
     0
281
     1
  0
CLASS
  1
HATCH
  2
AcDbHatch
  3
AutoCAD 2000
 90
        0
280
     0
281
     1
  0
CLASS
  1
DICTIONARYVAR
  2
AcDbDictionaryVar
  3
AutoCAD 2000
 90
        0
280
     0
281
     0
  0
CLASS
  1
RASTERVARIABLES
  2
AcDbRasterVariables
  3
ISM
 90
        0
280
     0
281
     0
  0
CLASS
  1
IMAGEDEF
  2
AcDbRasterImageDef
  3
ISM
 90
        0
280
     0
281
     0
  0
CLASS
  1
IMAGEDEF_REACTOR
  2
AcDbRasterImageDefReactor
  3
ISM
 90
        1
280
     0
281
     0
  0
CLASS
  1
IDBUFFER
  2
AcDbIdBuffer
  3
AutoCAD 2000
 90
        0
280
     0
281
     0
  0
CLASS
  1
SPATIAL_FILTER
  2
AcDbSpatialFilter
  3
AutoCAD 2000
 90
        0
280
     0
281
     0
  0
CLASS
  1
XRECORD
  2
AcDbXrecord
  3
AutoCAD 2000
 90
        0
280
     0
281
     0
  0
CLASS
  1
SORTENTSTABLE
  2
AcDbSortentsTable
  3
AutoCAD 2000
 90
        0
280
     0
281
     0
  0
CLASS
  1
LAYER_INDEX
  2
AcDbLayerIndex
  3
AutoCAD 2000
 90
        0
280
     0
281
     0
  0
CLASS
  1
SPATIAL_INDEX
  2
AcDbSpatialIndex
  3
AutoCAD 2000
 90
        0
280
     0
281
     0
  0
CLASS
  1
OBJECT_PTR
  2
CAseDLPNTableRecord
  3
"ASE-LPNTableRecord"
 90
        1
280
     0
281
     0
  0
CLASS
  1
LAYOUT
  2
AcDbLayout
  3
AutoCAD 2000
 90
        0
280
     0
281
     0
  0
CLASS
  1
PLOTSETTINGS
  2
AcDbPlotSettings
  3
AutoCAD 2000
 90
        0
280
     0
281
     0
  0
CLASS
  1
ACDBDICTIONARYWDFLT
  2
AcDbDictionaryWithDefault
  3
AutoCAD 2000
 90
        0
280
     0
281
     0
  0
CLASS
  1
ACDBPLACEHOLDER
  2
AcDbPlaceHolder
  3
AutoCAD 2000
 90
        0
280
     0
281
     0
  0
CLASS
  1
VBA_PROJECT
  2
AcDbVbaProject
  3
acadvba
 90
        0
280
     0
281
     0
  0
CLASS
  1
WIPEOUT
  2
AcDbWipeout
  3
WipeOut|AutoCAD Express Tool|expresstools@autodesk.com
 90
      127
280
     0
281
     1
  0
CLASS
  1
WIPEOUTVARIABLES
  2
AcDbWipeoutVariables
  3
WipeOut|AutoCAD Express Tool|expresstools@autodesk.com
 90
        0
280
     0
281
     0
  0
CLASS
  1
RTEXT
  2
RText
  3
RText|AutoCAD Express Tool|expresstools@autodesk.com
 90
        0
280
     0
281
     1
  0
CLASS
  1
ARCALIGNEDTEXT
  2
AcDbArcAlignedText
  3
ATEXT|AutoCAD Express Tool|expresstools@autodesk.com
 90
        0
280
     0
281
     1
  0
ENDSEC
  0
SECTION
  2
TABLES
  0
TABLE
  2
VPORT
  5
7
100
AcDbSymbolTable
 70
     1
  0
VPORT
  5
15
100
AcDbSymbolTableRecord
100
AcDbViewportTableRecord
  2
*ACTIVE
 70
     0
 10
0.0
 20
0.0
 11
1.0
 21
1.0
 12
6.591288
 22
4.579184
 13
0.0
 23
0.0
 14
1.0
 24
1.0
 15
0.0
 25
0.0
 16
0.0
 26
0.0
 36
1.0
 17
0.0
 27
0.0
 37
0.0
 40
9.158369
 41
0.688564
 42
50.0
 43
0.0
 44
0.0
 50
0.0
 51
0.0
 71
     0
 72
   100
 73
     1
 74
     1
 75
     0
 76
     0
 77
     0
 78
     0
281
     0
 65
     0
110
0.0
120
0.0
130
0.0
111
1.0
121
0.0
131
0.0
112
0.0
122
1.0
132
0.0
345
0
346
0
 79
     0
146
0.0
  0
ENDTAB
  0
TABLE
  2
LTYPE
  5
4
100
AcDbSymbolTable
 70
     3
  0
LTYPE
  5
11
100
AcDbSymbolTableRecord
100
AcDbLinetypeTableRecord
  2
ByBlock
 70
    64
  3

 72
    65
 73
     0
 40
0.0
  0
LTYPE
  5
12
100
AcDbSymbolTableRecord
100
AcDbLinetypeTableRecord
  2
ByLayer
 70
    64
  3

 72
    65
 73
     0
 40
0.0
  0
LTYPE
  5
13
100
AcDbSymbolTableRecord
100
AcDbLinetypeTableRecord
  2
Continuous
 70
    64
  3
Solid line
 72
    65
 73
     0
 40
0.0
  0
ENDTAB
  0
TABLE
  2
LAYER
  5
2
100
AcDbSymbolTable
 70
     1
  0
LAYER
  5
14
100
AcDbSymbolTableRecord
100
AcDbLayerTableRecord
  2
0
 70
     0
 62
     7
  6
Continuous
290
     1
370
    -3
390
1D
  0
ENDTAB
  0
TABLE
  2
STYLE
  5
3
100
AcDbSymbolTable
 70
     1
  0
STYLE
  5
17
100
AcDbSymbolTableRecord
100
AcDbTextStyleTableRecord
  2
Standard
 70
     0
 40
0.0
 41
1.0
 50
0.0
 71
     0
 42
0.0
  3
txt
  4

  0
ENDTAB
  0
TABLE
  2
VIEW
  5
5
100
AcDbSymbolTable
 70
     0
  0
ENDTAB
  0
TABLE
  2
UCS
  5
6
100
AcDbSymbolTable
 70
     0
  0
ENDTAB
  0
TABLE
  2
APPID
  5
8
100
AcDbSymbolTable
 70
     1
  0
APPID
  5
16
100
AcDbSymbolTableRecord
100
AcDbRegAppTableRecord
  2
ACAD
 70
     0
  0
ENDTAB
  0
TABLE
  2
DIMSTYLE
  5
9
100
AcDbSymbolTable
 70
     1
100
AcDbDimStyleTable
 71
     0
  0
DIMSTYLE
105
18
100
AcDbSymbolTableRecord
100
AcDbDimStyleTableRecord
  2
Standard
 70
     0
  3

  4

 40
1.0
 41
0.18
 42
0.0625
 43
0.38
 44
0.18
 45
0.0
 46
0.0
 47
0.0
 48
0.0
 71
     0
 72
     0
 73
     1
 74
     1
 75
     0
 76
     0
 77
     0
 78
     0
 79
     0
140
0.18
141
0.09
142
0.0
143
25.4
144
1.0
145
0.0
146
1.0
147
0.09
148
0.0
170
     0
171
     2
172
     0
173
     0
174
     0
175
     0
176
     0
177
     0
178
     0
179
     0
271
     4
272
     4
273
     2
274
     2
275
     0
276
     0
277
     2
278
    46
279
     0
280
     0
281
     0
282
     0
283
     1
284
     0
285
     0
286
     0
288
     0
289
     3
340
17
341
0
342
0
343
0
344
0
371
    -2
372
    -2
  0
ENDTAB
  0
TABLE
  2
BLOCK_RECORD
  5
1
100
AcDbSymbolTable
 70
     0
  0
BLOCK_RECORD
  5
A
100
AcDbSymbolTableRecord
100
AcDbBlockTableRecord
  2
*MODEL_SPACE
340
20
  0
BLOCK_RECORD
  5
B
100
AcDbSymbolTableRecord
100
AcDbBlockTableRecord
  2
*PAPER_SPACE
340
21
  0
ENDTAB
  0
ENDSEC
  0
SECTION
  2
BLOCKS
  0
BLOCK
  5
D
100
AcDbEntity
  8
0
390
0
100
AcDbBlockBegin
  2
*MODEL_SPACE
 70
     0
 10
0.0
 20
0.0
 30
0.0
  3
*MODEL_SPACE
  1

  0
ENDBLK
  5
E
100
AcDbEntity
  8
0
390
0
100
AcDbBlockEnd
  0
BLOCK
  5
F
100
AcDbEntity
 67
     1
  8
0
390
0
100
AcDbBlockBegin
  2
*PAPER_SPACE
 70
     0
 10
0.0
 20
0.0
 30
0.0
  3
*PAPER_SPACE
  1

  0
ENDBLK
  5
10
100
AcDbEntity
 67
     1
  8
0
390
0
100
AcDbBlockEnd
  0
ENDSEC
  0
SECTION
  2
ENTITIES
  0
VIEWPORT
  5
2D4
100
AcDbEntity
 67
     1
  8
0
370
     0
390
0
 62
     0
 48
0.0
100
AcDbViewport
 10
0.0
 20
0.0
 30
0.0
 40
1000.0
 41
1000.0
 68
     1
 69
     1
 12
0.0
 22
0.0
 13
0.0
 23
0.0
 14
1.0
 24
1.0
 15
1.0
 25
1.0
 16
0.0
 26
0.0
 36
1.0
 17
0.0
 27
0.0
 37
0.0
 42
50.0
 43
0.0
 44
0.0
 45
1000.0
 50
0.0
 51
0.0
 72
   100
 90
        0
340
0
  1

281
     0
 71
     0
 74
     1
110
0.0
120
0.0
130
0.0
111
1.0
121
0.0
131
0.0
112
0.0
122
1.0
132
0.0
345
0
346
0
 79
     0
146
0.0
  0
LINE
  5
24
100
AcDbEntity
  8
0
370
    35
390
0
 62
     7
 48
0.375
100
AcDbLine
 10
499.405884
 20
228.247559
 30
0.0
 11
499.405884
 21
213.247559
 31
0.0
210
0.0
220
0.0
230
1.0
  0
LINE
  5
25
100
AcDbEntity
  8
0
370
    35
390
0
 62
     7
 48
0.070001
100
AcDbLine
 10
499.405884
 20
228.247559
 30
0.0
 11
502.205933
 21
228.247559
 31
0.0
210
0.0
220
0.0
230
1.0
  0
LINE
  5
26
100
AcDbEntity
  8
0
370
    35
390
0
 62
     7
100
AcDbLine
 10
502.205933
 20
253.247559
 30
0.0
 11
502.205933
 21
228.247559
 31
0.0
210
0.0
220
0.0
230
1.0
  0
LINE
  5
27
100
AcDbEntity
  8
0
370
    35
390
0
 62
     7
 48
0.070001
100
AcDbLine
 10
499.405884
 20
253.247559
 30
0.0
 11
502.205933
 21
253.247559
 31
0.0
210
0.0
220
0.0
230
1.0
  0
LINE
  5
28
100
AcDbEntity
  8
0
370
    35
390
0
 62
     7
 48
0.375
100
AcDbLine
 10
499.405884
 20
268.247559
 30
0.0
 11
499.405884
 21
253.247559
 31
0.0
210
0.0
220
0.0
230
1.0
  0
LINE
  5
29
100
AcDbEntity
  8
0
370
    35
390
0
 62
     7
100
AcDbLine
 10
499.405884
 20
268.247559
 30
0.0
 11
426.405914
 21
268.247559
 31
0.0
210
0.0
220
0.0
230
1.0
  0
LINE
  5
2A
100
AcDbEntity
  8
0
370
    35
390
0
 62
     7
 48
0.07
100
AcDbLine
 10
426.405914
 20
268.247559
 30
0.0
 11
426.405914
 21
265.447571
 31
0.0
210
0.0
220
0.0
230
1.0
  0
LINE
  5
2B
100
AcDbEntity
  8
0
370
    35
390
0
 62
     7
100
AcDbLine
 10
276.405914
 20
265.447571
 30
0.0
 11
426.405914
 21
265.447571
 31
0.0
210
0.0
220
0.0
230
1.0
  0
LINE
  5
2C
100
AcDbEntity
  8
0
370
    35
390
0
 62
     7
 48
0.07
100
AcDbLine
 10
276.405914
 20
268.247559
 30
0.0
 11
276.405914
 21
265.447571
 31
0.0
210
0.0
220
0.0
230
1.0
  0
LINE
  5
2D
100
AcDbEntity
  8
0
370
    35
390
0
 62
     7
100
AcDbLine
 10
276.405914
 20
268.247559
 30
0.0
 11
203.405914
 21
268.247559
 31
0.0
210
0.0
220
0.0
230
1.0
  0
LINE
  5
2E
100
AcDbEntity
  8
0
370
    35
390
0
 62
     7
 48
0.375
100
AcDbLine
 10
203.405914
 20
253.247559
 30
0.0
 11
203.405914
 21
268.247559
 31
0.0
210
0.0
220
0.0
230
1.0
  0
LINE
  5
2F
100
AcDbEntity
  8
0
370
    35
390
0
 62
     7
 48
0.07
100
AcDbLine
 10
203.405914
 20
253.247559
 30
0.0
 11
200.605911
 21
253.247559
 31
0.0
210
0.0
220
0.0
230
1.0
  0
LINE
  5
30
100
AcDbEntity
  8
0
370
    35
390
0
 62
     7
100
AcDbLine
 10
200.605911
 20
253.247559
 30
0.0
 11
200.605911
 21
228.247559
 31
0.0
210
0.0
220
0.0
230
1.0
  0
LINE
  5
31
100
AcDbEntity
  8
0
370
    35
390
0
 62
     7
 48
0.07
100
AcDbLine
 10
203.405914
 20
228.247559
 30
0.0
 11
200.605911
 21
228.247559
 31
0.0
210
0.0
220
0.0
230
1.0
  0
LINE
  5
32
100
AcDbEntity
  8
0
370
    35
390
0
 62
     7
 48
0.375
100
AcDbLine
 10
203.405914
 20
213.247559
 30
0.0
 11
203.405914
 21
228.247559
 31
0.0
210
0.0
220
0.0
230
1.0
  0
LINE
  5
33
100
AcDbEntity
  8
0
370
    35
390
0
 62
     7
100
AcDbLine
 10
203.405914
 20
213.247559
 30
0.0
 11
276.405914
 21
213.247559
 31
0.0
210
0.0
220
0.0
230
1.0
  0
LINE
  5
34
100
AcDbEntity
  8
0
370
    35
390
0
 62
     7
 48
0.07
100
AcDbLine
 10
276.405914
 20
213.247559
 30
0.0
 11
276.405914
 21
216.047546
 31
0.0
210
0.0
220
0.0
230
1.0
  0
LINE
  5
35
100
AcDbEntity
  8
0
370
    35
390
0
 62
     7
100
AcDbLine
 10
426.405914
 20
216.047546
 30
0.0
 11
276.405914
 21
216.047546
 31
0.0
210
0.0
220
0.0
230
1.0
  0
LINE
  5
36
100
AcDbEntity
  8
0
370
    35
390
0
 62
     7
 48
0.07
100
AcDbLine
 10
426.405914
 20
213.247559
 30
0.0
 11
426.405914
 21
216.047546
 31
0.0
210
0.0
220
0.0
230
1.0
  0
LINE
  5
37
100
AcDbEntity
  8
0
370
    35
390
0
 62
     7
100
AcDbLine
 10
426.405914
 20
213.247559
 30
0.0
 11
499.405884
 21
213.247559
 31
0.0
210
0.0
220
0.0
230
1.0
  0
LINE
  5
38
100
AcDbEntity
  8
0
370
    35
390
0
 62
     7
100
AcDbLine
 10
205.293976
 20
122.92691
 30
0.0
 11
205.293976
 21
97.92691
 31
0.0
210
0.0
220
0.0
230
1.0
  0
LINE
  5
39
100
AcDbEntity
  8
0
370
    35
390
0
 62
     7
 48
0.07
100
AcDbLine
 10
202.493973
 20
97.92691
 30
0.0
 11
205.293976
 21
97.92691
 31
0.0
210
0.0
220
0.0
230
1.0
  0
LINE
  5
3A
100
AcDbEntity
  8
0
370
    35
390
0
 62
     7
 48
0.375
100
AcDbLine
 10
202.493973
 20
97.92691
 30
0.0
 11
202.493973
 21
82.92691
 31
0.0
210
0.0
220
0.0
230
1.0
  0
LINE
  5
3B
100
AcDbEntity
  8
0
370
    35
390
0
 62
     7
100
AcDbLine
 10
202.493973
 20
82.92691
 30
0.0
 11
265.293976
 21
82.92691
 31
0.0
210
0.0
220
0.0
230
1.0
  0
LINE
  5
3C
100
AcDbEntity
  8
0
370
    35
390
0
 62
     7
 48
0.07
100
AcDbLine
 10
265.293976
 20
82.92691
 30
0.0
 11
265.293976
 21
85.726898
 31
0.0
210
0.0
220
0.0
230
1.0
  0
LINE
  5
3D
100
AcDbEntity
  8
0
370
    35
390
0
 62
     7
100
AcDbLine
 10
265.293976
 20
85.726898
 30
0.0
 11
385.293976
 21
85.726898
 31
0.0
210
0.0
220
0.0
230
1.0
  0
LINE
  5
3E
100
AcDbEntity
  8
0
370
    35
390
0
 62
     7
 48
0.07
100
AcDbLine
 10
385.293976
 20
82.92691
 30
0.0
 11
385.293976
 21
85.726898
 31
0.0
210
0.0
220
0.0
230
1.0
  0
LINE
  5
3F
100
AcDbEntity
  8
0
370
    35
390
0
 62
     7
100
AcDbLine
 10
385.293976
 20
82.92691
 30
0.0
 11
448.093994
 21
82.92691
 31
0.0
210
0.0
220
0.0
230
1.0
  0
LINE
  5
40
100
AcDbEntity
  8
0
370
    35
390
0
 62
     7
 48
0.375
100
AcDbLine
 10
448.093994
 20
97.92691
 30
0.0
 11
448.093994
 21
82.92691
 31
0.0
210
0.0
220
0.0
230
1.0
  0
LINE
  5
41
100
AcDbEntity
  8
0
370
    35
390
0
 62
     7
 48
0.07
100
AcDbLine
 10
448.093994
 20
97.92691
 30
0.0
 11
445.293976
 21
97.92691
 31
0.0
210
0.0
220
0.0
230
1.0
  0
LINE
  5
42
100
AcDbEntity
  8
0
370
    35
390
0
 62
     7
100
AcDbLine
 10
445.293976
 20
122.92691
 30
0.0
 11
445.293976
 21
97.92691
 31
0.0
210
0.0
220
0.0
230
1.0
  0
LINE
  5
43
100
AcDbEntity
  8
0
370
    35
390
0
 62
     7
 48
0.07
100
AcDbLine
 10
448.093994
 20
122.92691
 30
0.0
 11
445.293976
 21
122.92691
 31
0.0
210
0.0
220
0.0
230
1.0
  0
LINE
  5
44
100
AcDbEntity
  8
0
370
    35
390
0
 62
     7
 48
0.375
100
AcDbLine
 10
448.093994
 20
137.92691
 30
0.0
 11
448.093994
 21
122.92691
 31
0.0
210
0.0
220
0.0
230
1.0
  0
LINE
  5
45
100
AcDbEntity
  8
0
370
    35
390
0
 62
     7
 48
0.195
100
AcDbLine
 10
440.293976
 20
137.92691
 30
0.0
 11
448.093994
 21
137.92691
 31
0.0
210
0.0
220
0.0
230
1.0
  0
LINE
  5
46
100
AcDbEntity
  8
0
370
    35
390
0
 62
     7
 48
0.07
100
AcDbLine
 10
440.293976
 20
137.92691
 30
0.0
 11
440.293976
 21
135.126923
 31
0.0
210
0.0
220
0.0
230
1.0
  0
LINE
  5
47
100
AcDbEntity
  8
0
370
    35
390
0
 62
     7
 48
0.25
100
AcDbLine
 10
440.293976
 20
135.126923
 30
0.0
 11
430.293976
 21
135.126923
 31
0.0
210
0.0
220
0.0
230
1.0
  0
LINE
  5
48
100
AcDbEntity
  8
0
370
    35
390
0
 62
     7
 48
0.07
100
AcDbLine
 10
430.293976
 20
135.126923
 30
0.0
 11
430.293976
 21
137.92691
 31
0.0
210
0.0
220
0.0
230
1.0
  0
LINE
  5
49
100
AcDbEntity
  8
0
370
    35
390
0
 62
     7
100
AcDbLine
 10
215.293976
 20
137.92691
 30
0.0
 11
430.293976
 21
137.92691
 31
0.0
210
0.0
220
0.0
230
1.0
  0
LINE
  5
4A
100
AcDbEntity
  8
0
370
    35
390
0
 62
     7
 48
0.07
100
AcDbLine
 10
215.293976
 20
135.126923
 30
0.0
 11
215.293976
 21
137.92691
 31
0.0
210
0.0
220
0.0
230
1.0
  0
LINE
  5
4B
100
AcDbEntity
  8
0
370
    35
390
0
 62
     7
 48
0.25
100
AcDbLine
 10
205.293976
 20
135.126923
 30
0.0
 11
215.293976
 21
135.126923
 31
0.0
210
0.0
220
0.0
230
1.0
  0
LINE
  5
4C
100
AcDbEntity
  8
0
370
    35
390
0
 62
     7
 48
0.07
100
AcDbLine
 10
205.293976
 20
137.92691
 30
0.0
 11
205.293976
 21
135.126923
 31
0.0
210
0.0
220
0.0
230
1.0
  0
LINE
  5
4D
100
AcDbEntity
  8
0
370
    35
390
0
 62
     7
 48
0.07
100
AcDbLine
 10
202.493973
 20
137.92691
 30
0.0
 11
205.293976
 21
137.92691
 31
0.0
210
0.0
220
0.0
230
1.0
  0
LINE
  5
4E
100
AcDbEntity
  8
0
370
    35
390
0
 62
     7
 48
0.375
100
AcDbLine
 10
202.493973
 20
137.92691
 30
0.0
 11
202.493973
 21
122.92691
 31
0.0
210
0.0
220
0.0
230
1.0
  0
LINE
  5
4F
100
AcDbEntity
  8
0
370
    35
390
0
 62
     7
 48
0.07
100
AcDbLine
 10
202.493973
 20
122.92691
 30
0.0
 11
205.293976
 21
122.92691
 31
0.0
210
0.0
220
0.0
230
1.0
  0
CIRCLE
  5
50
100
AcDbEntity
  8
0
370
    35
390
0
 62
     7
100
AcDbCircle
 10
347.793976
 20
98.42691
 30
0.0
 40
12.0
210
0.0
220
0.0
230
1.0
  0
LINE
  5
51
100
AcDbEntity
  8
0
370
    35
390
0
 62
     7
 48
0.07
100
AcDbLine
 10
395.293976
 20
117.326904
 30
0.0
 11
395.293976
 21
114.526917
 31
0.0
210
0.0
220
0.0
230
1.0
  0
LINE
  5
52
100
AcDbEntity
  8
0
370
    35
390
0
 62
     7
100
AcDbLine
 10
395.293976
 20
114.526917
 30
0.0
 11
365.293976
 21
114.526917
 31
0.0
210
0.0
220
0.0
230
1.0
  0
LINE
  5
53
100
AcDbEntity
  8
0
370
    35
390
0
 62
     7
 48
0.07
100
AcDbLine
 10
365.293976
 20
114.526917
 30
0.0
 11
365.293976
 21
117.326904
 31
0.0
210
0.0
220
0.0
230
1.0
  0
LINE
  5
54
100
AcDbEntity
  8
0
370
    35
390
0
 62
     7
100
AcDbLine
 10
395.293976
 20
117.326904
 30
0.0
 11
365.293976
 21
117.326904
 31
0.0
210
0.0
220
0.0
230
1.0
  0
LINE
  5
55
100
AcDbEntity
  8
0
370
    35
390
0
 62
     7
 48
0.07
100
AcDbLine
 10
330.293976
 20
117.326904
 30
0.0
 11
330.293976
 21
114.526917
 31
0.0
210
0.0
220
0.0
230
1.0
  0
LINE
  5
56
100
AcDbEntity
  8
0
370
    35
390
0
 62
     7
100
AcDbLine
 10
330.293976
 20
114.526917
 30
0.0
 11
300.293976
 21
114.526917
 31
0.0
210
0.0
220
0.0
230
1.0
  0
LINE
  5
57
100
AcDbEntity
  8
0
370
    35
390
0
 62
     7
 48
0.07
100
AcDbLine
 10
300.293976
 20
114.526917
 30
0.0
 11
300.293976
 21
117.326904
 31
0.0
210
0.0
220
0.0
230
1.0
  0
LINE
  5
58
100
AcDbEntity
  8
0
370
    35
390
0
 62
     7
100
AcDbLine
 10
330.293976
 20
117.326904
 30
0.0
 11
300.293976
 21
117.326904
 31
0.0
210
0.0
220
0.0
230
1.0
  0
LINE
  5
59
100
AcDbEntity
  8
0
370
    35
390
0
 62
     7
100
AcDbLine
 10
265.293976
 20
117.326904
 30
0.0
 11
235.293976
 21
117.326904
 31
0.0
210
0.0
220
0.0
230
1.0
  0
LINE
  5
5A
100
AcDbEntity
  8
0
370
    35
390
0
 62
     7
 48
0.07
100
AcDbLine
 10
265.293976
 20
114.526917
 30
0.0
 11
265.293976
 21
117.326904
 31
0.0
210
0.0
220
0.0
230
1.0
  0
LINE
  5
5B
100
AcDbEntity
  8
0
370
    35
390
0
 62
     7
100
AcDbLine
 10
235.293976
 20
114.526917
 30
0.0
 11
265.293976
 21
114.526917
 31
0.0
210
0.0
220
0.0
230
1.0
  0
LINE
  5
5C
100
AcDbEntity
  8
0
370
    35
390
0
 62
     7
 48
0.07
100
AcDbLine
 10
235.293976
 20
117.326904
 30
0.0
 11
235.293976
 21
114.526917
 31
0.0
210
0.0
220
0.0
230
1.0
  0
LINE
  5
5D
100
AcDbEntity
  8
0
370
    35
390
0
 62
     7
 48
0.15
100
AcDbLine
 10
395.293976
 20
108.92691
 30
0.0
 11
395.293976
 21
102.92691
 31
0.0
210
0.0
220
0.0
230
1.0
  0
LINE
  5
5E
100
AcDbEntity
  8
0
370
    35
390
0
 62
     7
 48
0.07
100
AcDbLine
 10
392.493958
 20
102.92691
 30
0.0
 11
395.293976
 21
102.92691
 31
0.0
210
0.0
220
0.0
230
1.0
  0
LINE
  5
5F
100
AcDbEntity
  8
0
370
    35
390
0
 62
     7
 48
0.15
100
AcDbLine
 10
392.493958
 20
102.92691
 30
0.0
 11
392.493958
 21
108.92691
 31
0.0
210
0.0
220
0.0
230
1.0
  0
LINE
  5
60
100
AcDbEntity
  8
0
370
    35
390
0
 62
     7
 48
0.07
100
AcDbLine
 10
395.293976
 20
108.92691
 30
0.0
 11
392.493958
 21
108.92691
 31
0.0
210
0.0
220
0.0
230
1.0
  0
LINE
  5
61
100
AcDbEntity
  8
0
370
    35
390
0
 62
     7
 48
0.15
100
AcDbLine
 10
365.293976
 20
108.92691
 30
0.0
 11
365.293976
 21
102.92691
 31
0.0
210
0.0
220
0.0
230
1.0
  0
LINE
  5
62
100
AcDbEntity
  8
0
370
    35
390
0
 62
     7
 48
0.07
100
AcDbLine
 10
362.493988
 20
102.92691
 30
0.0
 11
365.293976
 21
102.92691
 31
0.0
210
0.0
220
0.0
230
1.0
  0
LINE
  5
63
100
AcDbEntity
  8
0
370
    35
390
0
 62
     7
 48
0.15
100
AcDbLine
 10
362.493988
 20
102.92691
 30
0.0
 11
362.493988
 21
108.92691
 31
0.0
210
0.0
220
0.0
230
1.0
  0
LINE
  5
64
100
AcDbEntity
  8
0
370
    35
390
0
 62
     7
 48
0.07
100
AcDbLine
 10
365.293976
 20
108.92691
 30
0.0
 11
362.493988
 21
108.92691
 31
0.0
210
0.0
220
0.0
230
1.0
  0
LINE
  5
65
100
AcDbEntity
  8
0
370
    35
390
0
 62
     7
 48
0.15
100
AcDbLine
 10
333.093964
 20
108.92691
 30
0.0
 11
333.093964
 21
102.92691
 31
0.0
210
0.0
220
0.0
230
1.0
  0
LINE
  5
66
100
AcDbEntity
  8
0
370
    35
390
0
 62
     7
 48
0.07
100
AcDbLine
 10
330.293976
 20
102.92691
 30
0.0
 11
333.093964
 21
102.92691
 31
0.0
210
0.0
220
0.0
230
1.0
  0
LINE
  5
67
100
AcDbEntity
  8
0
370
    35
390
0
 62
     7
 48
0.15
100
AcDbLine
 10
330.293976
 20
102.92691
 30
0.0
 11
330.293976
 21
108.92691
 31
0.0
210
0.0
220
0.0
230
1.0
  0
LINE
  5
68
100
AcDbEntity
  8
0
370
    35
390
0
 62
     7
 48
0.07
100
AcDbLine
 10
333.093964
 20
108.92691
 30
0.0
 11
330.293976
 21
108.92691
 31
0.0
210
0.0
220
0.0
230
1.0
  0
LINE
  5
69
100
AcDbEntity
  8
0
370
    35
390
0
 62
     7
 48
0.15
100
AcDbLine
 10
300.293976
 20
108.92691
 30
0.0
 11
300.293976
 21
102.92691
 31
0.0
210
0.0
220
0.0
230
1.0
  0
LINE
  5
6A
100
AcDbEntity
  8
0
370
    35
390
0
 62
     7
 48
0.07
100
AcDbLine
 10
297.493988
 20
102.92691
 30
0.0
 11
300.293976
 21
102.92691
 31
0.0
210
0.0
220
0.0
230
1.0
  0
LINE
  5
6B
100
AcDbEntity
  8
0
370
    35
390
0
 62
     7
 48
0.15
100
AcDbLine
 10
297.493988
 20
102.92691
 30
0.0
 11
297.493988
 21
108.92691
 31
0.0
210
0.0
220
0.0
230
1.0
  0
LINE
  5
6C
100
AcDbEntity
  8
0
370
    35
390
0
 62
     7
 48
0.07
100
AcDbLine
 10
300.293976
 20
108.92691
 30
0.0
 11
297.493988
 21
108.92691
 31
0.0
210
0.0
220
0.0
230
1.0
  0
LINE
  5
6D
100
AcDbEntity
  8
0
370
    35
390
0
 62
     7
 48
0.15
100
AcDbLine
 10
268.093964
 20
108.92691
 30
0.0
 11
268.093964
 21
102.92691
 31
0.0
210
0.0
220
0.0
230
1.0
  0
LINE
  5
6E
100
AcDbEntity
  8
0
370
    35
390
0
 62
     7
 48
0.07
100
AcDbLine
 10
265.293976
 20
102.92691
 30
0.0
 11
268.093964
 21
102.92691
 31
0.0
210
0.0
220
0.0
230
1.0
  0
LINE
  5
6F
100
AcDbEntity
  8
0
370
    35
390
0
 62
     7
 48
0.15
100
AcDbLine
 10
265.293976
 20
102.92691
 30
0.0
 11
265.293976
 21
108.92691
 31
0.0
210
0.0
220
0.0
230
1.0
  0
LINE
  5
70
100
AcDbEntity
  8
0
370
    35
390
0
 62
     7
 48
0.07
100
AcDbLine
 10
268.093964
 20
108.92691
 30
0.0
 11
265.293976
 21
108.92691
 31
0.0
210
0.0
220
0.0
230
1.0
  0
LINE
  5
71
100
AcDbEntity
  8
0
370
    35
390
0
 62
     7
 48
0.15
100
AcDbLine
 10
238.093994
 20
108.92691
 30
0.0
 11
238.093994
 21
102.92691
 31
0.0
210
0.0
220
0.0
230
1.0
  0
LINE
  5
72
100
AcDbEntity
  8
0
370
    35
390
0
 62
     7
 48
0.07
100
AcDbLine
 10
235.293976
 20
102.92691
 30
0.0
 11
238.093994
 21
102.92691
 31
0.0
210
0.0
220
0.0
230
1.0
  0
LINE
  5
73
100
AcDbEntity
  8
0
370
    35
390
0
 62
     7
 48
0.15
100
AcDbLine
 10
235.293976
 20
102.92691
 30
0.0
 11
235.293976
 21
108.92691
 31
0.0
210
0.0
220
0.0
230
1.0
  0
LINE
  5
74
100
AcDbEntity
  8
0
370
    35
390
0
 62
     7
 48
0.07
100
AcDbLine
 10
238.093994
 20
108.92691
 30
0.0
 11
235.293976
 21
108.92691
 31
0.0
210
0.0
220
0.0
230
1.0
  0
LINE
  5
75
100
AcDbEntity
  8
0
370
    35
390
0
 62
     7
 48
0.07
100
AcDbLine
 10
425.293976
 20
122.92691
 30
0.0
 11
428.093994
 21
122.92691
 31
0.0
210
0.0
220
0.0
230
1.0
  0
LINE
  5
76
100
AcDbEntity
  8
0
370
    35
390
0
 62
     7
100
AcDbLine
 10
428.093994
 20
122.92691
 30
0.0
 11
428.093994
 21
97.92691
 31
0.0
210
0.0
220
0.0
230
1.0
  0
LINE
  5
77
100
AcDbEntity
  8
0
370
    35
390
0
 62
     7
 48
0.07
100
AcDbLine
 10
428.093994
 20
97.92691
 30
0.0
 11
425.293976
 21
97.92691
 31
0.0
210
0.0
220
0.0
230
1.0
  0
LINE
  5
78
100
AcDbEntity
  8
0
370
    35
390
0
 62
     7
100
AcDbLine
 10
425.293976
 20
122.92691
 30
0.0
 11
425.293976
 21
97.92691
 31
0.0
210
0.0
220
0.0
230
1.0
  0
LINE
  5
79
100
AcDbEntity
  8
0
370
    35
390
0
 62
     7
100
AcDbLine
 10
215.293976
 20
122.92691
 30
0.0
 11
215.293976
 21
97.92691
 31
0.0
210
0.0
220
0.0
230
1.0
  0
LINE
  5
7A
100
AcDbEntity
  8
0
370
    35
390
0
 62
     7
 48
0.07
100
AcDbLine
 10
215.293976
 20
97.92691
 30
0.0
 11
212.493958
 21
97.92691
 31
0.0
210
0.0
220
0.0
230
1.0
  0
LINE
  5
7B
100
AcDbEntity
  8
0
370
    35
390
0
 62
     7
100
AcDbLine
 10
212.493958
 20
97.92691
 30
0.0
 11
212.493958
 21
122.92691
 31
0.0
210
0.0
220
0.0
230
1.0
  0
LINE
  5
7C
100
AcDbEntity
  8
0
370
    35
390
0
 62
     7
 48
0.07
100
AcDbLine
 10
212.493958
 20
122.92691
 30
0.0
 11
215.293976
 21
122.92691
 31
0.0
210
0.0
220
0.0
230
1.0
  0
LINE
  5
7D
100
AcDbEntity
  8
0
370
    35
390
0
 62
     7
100
AcDbLine
 10
335.293976
 20
122.92691
 30
0.0
 11
415.293976
 21
122.92691
 31
0.0
210
0.0
220
0.0
230
1.0
  0
ARC
  5
7E
100
AcDbEntity
  8
0
370
    35
390
0
 62
     7
100
AcDbCircle
 10
335.293976
 20
125.42691
 30
0.0
 40
2.5
210
0.0
220
0.0
230
1.0
100
AcDbArc
 50
90.000003
 51
269.999997
  0
LINE
  5
7F
100
AcDbEntity
  8
0
370
    35
390
0
 62
     7
100
AcDbLine
 10
415.293976
 20
127.92691
 30
0.0
 11
335.293976
 21
127.92691
 31
0.0
210
0.0
220
0.0
230
1.0
  0
ARC
  5
80
100
AcDbEntity
  8
0
370
    35
390
0
 62
     7
100
AcDbCircle
 10
415.293976
 20
125.42691
 30
0.0
 40
2.5
210
0.0
220
0.0
230
1.0
100
AcDbArc
 50
269.999997
 51
90.000003
  0
LINE
  5
81
100
AcDbEntity
  8
0
370
    35
390
0
 62
     7
100
AcDbLine
 10
204.595276
 20
190.899841
 30
0.0
 11
204.595276
 21
165.899841
 31
0.0
210
0.0
220
0.0
230
1.0
  0
LINE
  5
82
100
AcDbEntity
  8
0
370
    35
390
0
 62
     7
 48
0.07
100
AcDbLine
 10
201.795273
 20
165.899841
 30
0.0
 11
204.595276
 21
165.899841
 31
0.0
210
0.0
220
0.0
230
1.0
  0
LINE
  5
83
100
AcDbEntity
  8
0
370
    35
390
0
 62
     7
 48
0.375
100
AcDbLine
 10
201.795273
 20
165.899841
 30
0.0
 11
201.795273
 21
150.899841
 31
0.0
210
0.0
220
0.0
230
1.0
  0
LINE
  5
84
100
AcDbEntity
  8
0
370
    35
390
0
 62
     7
100
AcDbLine
 10
201.795273
 20
150.899841
 30
0.0
 11
264.595276
 21
150.899841
 31
0.0
210
0.0
220
0.0
230
1.0
  0
LINE
  5
85
100
AcDbEntity
  8
0
370
    35
390
0
 62
     7
 48
0.07
100
AcDbLine
 10
264.595276
 20
150.899841
 30
0.0
 11
264.595276
 21
153.699829
 31
0.0
210
0.0
220
0.0
230
1.0
  0
LINE
  5
86
100
AcDbEntity
  8
0
370
    35
390
0
 62
     7
100
AcDbLine
 10
264.595276
 20
153.699829
 30
0.0
 11
384.595276
 21
153.699829
 31
0.0
210
0.0
220
0.0
230
1.0
  0
LINE
  5
87
100
AcDbEntity
  8
0
370
    35
390
0
 62
     7
 48
0.07
100
AcDbLine
 10
384.595276
 20
150.899841
 30
0.0
 11
384.595276
 21
153.699829
 31
0.0
210
0.0
220
0.0
230
1.0
  0
LINE
  5
88
100
AcDbEntity
  8
0
370
    35
390
0
 62
     7
100
AcDbLine
 10
384.595276
 20
150.899841
 30
0.0
 11
447.395264
 21
150.899841
 31
0.0
210
0.0
220
0.0
230
1.0
  0
LINE
  5
89
100
AcDbEntity
  8
0
370
    35
390
0
 62
     7
 48
0.375
100
AcDbLine
 10
447.395264
 20
165.899841
 30
0.0
 11
447.395264
 21
150.899841
 31
0.0
210
0.0
220
0.0
230
1.0
  0
LINE
  5
8A
100
AcDbEntity
  8
0
370
    35
390
0
 62
     7
 48
0.07
100
AcDbLine
 10
447.395264
 20
165.899841
 30
0.0
 11
444.595276
 21
165.899841
 31
0.0
210
0.0
220
0.0
230
1.0
  0
LINE
  5
8B
100
AcDbEntity
  8
0
370
    35
390
0
 62
     7
100
AcDbLine
 10
444.595276
 20
190.899841
 30
0.0
 11
444.595276
 21
165.899841
 31
0.0
210
0.0
220
0.0
230
1.0
  0
LINE
  5
8C
100
AcDbEntity
  8
0
370
    35
390
0
 62
     7
 48
0.07
100
AcDbLine
 10
447.395264
 20
190.899841
 30
0.0
 11
444.595276
 21
190.899841
 31
0.0
210
0.0
220
0.0
230
1.0
  0
LINE
  5
8D
100
AcDbEntity
  8
0
370
    35
390
0
 62
     7
 48
0.375
100
AcDbLine
 10
447.395264
 20
205.899841
 30
0.0
 11
447.395264
 21
190.899841
 31
0.0
210
0.0
220
0.0
230
1.0
  0
LINE
  5
8E
100
AcDbEntity
  8
0
370
    35
390
0
 62
     7
 48
0.195
100
AcDbLine
 10
439.595276
 20
205.899841
 30
0.0
 11
447.395264
 21
205.899841
 31
0.0
210
0.0
220
0.0
230
1.0
  0
LINE
  5
8F
100
AcDbEntity
  8
0
370
    35
390
0
 62
     7
 48
0.07
100
AcDbLine
 10
439.595276
 20
205.899841
 30
0.0
 11
439.595276
 21
203.099854
 31
0.0
210
0.0
220
0.0
230
1.0
  0
LINE
  5
90
100
AcDbEntity
  8
0
370
    35
390
0
 62
     7
 48
0.25
100
AcDbLine
 10
439.595276
 20
203.099854
 30
0.0
 11
429.595276
 21
203.099854
 31
0.0
210
0.0
220
0.0
230
1.0
  0
LINE
  5
91
100
AcDbEntity
  8
0
370
    35
390
0
 62
     7
 48
0.07
100
AcDbLine
 10
429.595276
 20
203.099854
 30
0.0
 11
429.595276
 21
205.899841
 31
0.0
210
0.0
220
0.0
230
1.0
  0
LINE
  5
92
100
AcDbEntity
  8
0
370
    35
390
0
 62
     7
100
AcDbLine
 10
214.595276
 20
205.899841
 30
0.0
 11
429.595276
 21
205.899841
 31
0.0
210
0.0
220
0.0
230
1.0
  0
LINE
  5
93
100
AcDbEntity
  8
0
370
    35
390
0
 62
     7
 48
0.07
100
AcDbLine
 10
214.595276
 20
203.099854
 30
0.0
 11
214.595276
 21
205.899841
 31
0.0
210
0.0
220
0.0
230
1.0
  0
LINE
  5
94
100
AcDbEntity
  8
0
370
    35
390
0
 62
     7
 48
0.25
100
AcDbLine
 10
204.595276
 20
203.099854
 30
0.0
 11
214.595276
 21
203.099854
 31
0.0
210
0.0
220
0.0
230
1.0
  0
LINE
  5
95
100
AcDbEntity
  8
0
370
    35
390
0
 62
     7
 48
0.07
100
AcDbLine
 10
204.595276
 20
205.899841
 30
0.0
 11
204.595276
 21
203.099854
 31
0.0
210
0.0
220
0.0
230
1.0
  0
LINE
  5
96
100
AcDbEntity
  8
0
370
    35
390
0
 62
     7
 48
0.07
100
AcDbLine
 10
201.795273
 20
205.899841
 30
0.0
 11
204.595276
 21
205.899841
 31
0.0
210
0.0
220
0.0
230
1.0
  0
LINE
  5
97
100
AcDbEntity
  8
0
370
    35
390
0
 62
     7
 48
0.375
100
AcDbLine
 10
201.795273
 20
205.899841
 30
0.0
 11
201.795273
 21
190.899841
 31
0.0
210
0.0
220
0.0
230
1.0
  0
LINE
  5
98
100
AcDbEntity
  8
0
370
    35
390
0
 62
     7
 48
0.07
100
AcDbLine
 10
201.795273
 20
190.899841
 30
0.0
 11
204.595276
 21
190.899841
 31
0.0
210
0.0
220
0.0
230
1.0
  0
CIRCLE
  5
99
100
AcDbEntity
  8
0
370
    35
390
0
 62
     7
100
AcDbCircle
 10
347.095276
 20
166.399841
 30
0.0
 40
12.0
210
0.0
220
0.0
230
1.0
  0
LINE
  5
9A
100
AcDbEntity
  8
0
370
    35
390
0
 62
     7
 48
0.07
100
AcDbLine
 10
394.595276
 20
185.299835
 30
0.0
 11
394.595276
 21
182.499847
 31
0.0
210
0.0
220
0.0
230
1.0
  0
LINE
  5
9B
100
AcDbEntity
  8
0
370
    35
390
0
 62
     7
100
AcDbLine
 10
394.595276
 20
182.499847
 30
0.0
 11
364.595276
 21
182.499847
 31
0.0
210
0.0
220
0.0
230
1.0
  0
LINE
  5
9C
100
AcDbEntity
  8
0
370
    35
390
0
 62
     7
 48
0.07
100
AcDbLine
 10
364.595276
 20
182.499847
 30
0.0
 11
364.595276
 21
185.299835
 31
0.0
210
0.0
220
0.0
230
1.0
  0
LINE
  5
9D
100
AcDbEntity
  8
0
370
    35
390
0
 62
     7
100
AcDbLine
 10
394.595276
 20
185.299835
 30
0.0
 11
364.595276
 21
185.299835
 31
0.0
210
0.0
220
0.0
230
1.0
  0
LINE
  5
9E
100
AcDbEntity
  8
0
370
    35
390
0
 62
     7
 48
0.07
100
AcDbLine
 10
329.595276
 20
185.299835
 30
0.0
 11
329.595276
 21
182.499847
 31
0.0
210
0.0
220
0.0
230
1.0
  0
LINE
  5
9F
100
AcDbEntity
  8
0
370
    35
390
0
 62
     7
100
AcDbLine
 10
329.595276
 20
182.499847
 30
0.0
 11
299.595276
 21
182.499847
 31
0.0
210
0.0
220
0.0
230
1.0
  0
LINE
  5
A0
100
AcDbEntity
  8
0
370
    35
390
0
 62
     7
 48
0.07
100
AcDbLine
 10
299.595276
 20
182.499847
 30
0.0
 11
299.595276
 21
185.299835
 31
0.0
210
0.0
220
0.0
230
1.0
  0
LINE
  5
A1
100
AcDbEntity
  8
0
370
    35
390
0
 62
     7
100
AcDbLine
 10
329.595276
 20
185.299835
 30
0.0
 11
299.595276
 21
185.299835
 31
0.0
210
0.0
220
0.0
230
1.0
  0
LINE
  5
A2
100
AcDbEntity
  8
0
370
    35
390
0
 62
     7
100
AcDbLine
 10
264.595276
 20
185.299835
 30
0.0
 11
234.595276
 21
185.299835
 31
0.0
210
0.0
220
0.0
230
1.0
  0
LINE
  5
A3
100
AcDbEntity
  8
0
370
    35
390
0
 62
     7
 48
0.07
100
AcDbLine
 10
264.595276
 20
182.499847
 30
0.0
 11
264.595276
 21
185.299835
 31
0.0
210
0.0
220
0.0
230
1.0
  0
LINE
  5
A4
100
AcDbEntity
  8
0
370
    35
390
0
 62
     7
100
AcDbLine
 10
234.595276
 20
182.499847
 30
0.0
 11
264.595276
 21
182.499847
 31
0.0
210
0.0
220
0.0
230
1.0
  0
LINE
  5
A5
100
AcDbEntity
  8
0
370
    35
390
0
 62
     7
 48
0.07
100
AcDbLine
 10
234.595276
 20
185.299835
 30
0.0
 11
234.595276
 21
182.499847
 31
0.0
210
0.0
220
0.0
230
1.0
  0
LINE
  5
A6
100
AcDbEntity
  8
0
370
    35
390
0
 62
     7
 48
0.15
100
AcDbLine
 10
394.595276
 20
176.899841
 30
0.0
 11
394.595276
 21
170.899841
 31
0.0
210
0.0
220
0.0
230
1.0
  0
LINE
  5
A7
100
AcDbEntity
  8
0
370
    35
390
0
 62
     7
 48
0.07
100
AcDbLine
 10
391.795288
 20
170.899841
 30
0.0
 11
394.595276
 21
170.899841
 31
0.0
210
0.0
220
0.0
230
1.0
  0
LINE
  5
A8
100
AcDbEntity
  8
0
370
    35
390
0
 62
     7
 48
0.15
100
AcDbLine
 10
391.795288
 20
170.899841
 30
0.0
 11
391.795288
 21
176.899841
 31
0.0
210
0.0
220
0.0
230
1.0
  0
LINE
  5
A9
100
AcDbEntity
  8
0
370
    35
390
0
 62
     7
 48
0.07
100
AcDbLine
 10
394.595276
 20
176.899841
 30
0.0
 11
391.795288
 21
176.899841
 31
0.0
210
0.0
220
0.0
230
1.0
  0
LINE
  5
AA
100
AcDbEntity
  8
0
370
    35
390
0
 62
     7
 48
0.15
100
AcDbLine
 10
364.595276
 20
176.899841
 30
0.0
 11
364.595276
 21
170.899841
 31
0.0
210
0.0
220
0.0
230
1.0
  0
LINE
  5
AB
100
AcDbEntity
  8
0
370
    35
390
0
 62
     7
 48
0.07
100
AcDbLine
 10
361.795288
 20
170.899841
 30
0.0
 11
364.595276
 21
170.899841
 31
0.0
210
0.0
220
0.0
230
1.0
  0
LINE
  5
AC
100
AcDbEntity
  8
0
370
    35
390
0
 62
     7
 48
0.15
100
AcDbLine
 10
361.795288
 20
170.899841
 30
0.0
 11
361.795288
 21
176.899841
 31
0.0
210
0.0
220
0.0
230
1.0
  0
LINE
  5
AD
100
AcDbEntity
  8
0
370
    35
390
0
 62
     7
 48
0.07
100
AcDbLine
 10
364.595276
 20
176.899841
 30
0.0
 11
361.795288
 21
176.899841
 31
0.0
210
0.0
220
0.0
230
1.0
  0
LINE
  5
AE
100
AcDbEntity
  8
0
370
    35
390
0
 62
     7
 48
0.15
100
AcDbLine
 10
332.395264
 20
176.899841
 30
0.0
 11
332.395264
 21
170.899841
 31
0.0
210
0.0
220
0.0
230
1.0
  0
LINE
  5
AF
100
AcDbEntity
  8
0
370
    35
390
0
 62
     7
 48
0.07
100
AcDbLine
 10
329.595276
 20
170.899841
 30
0.0
 11
332.395264
 21
170.899841
 31
0.0
210
0.0
220
0.0
230
1.0
  0
LINE
  5
B0
100
AcDbEntity
  8
0
370
    35
390
0
 62
     7
 48
0.15
100
AcDbLine
 10
329.595276
 20
170.899841
 30
0.0
 11
329.595276
 21
176.899841
 31
0.0
210
0.0
220
0.0
230
1.0
  0
LINE
  5
B1
100
AcDbEntity
  8
0
370
    35
390
0
 62
     7
 48
0.07
100
AcDbLine
 10
332.395264
 20
176.899841
 30
0.0
 11
329.595276
 21
176.899841
 31
0.0
210
0.0
220
0.0
230
1.0
  0
LINE
  5
B2
100
AcDbEntity
  8
0
370
    35
390
0
 62
     7
 48
0.15
100
AcDbLine
 10
299.595276
 20
176.899841
 30
0.0
 11
299.595276
 21
170.899841
 31
0.0
210
0.0
220
0.0
230
1.0
  0
LINE
  5
B3
100
AcDbEntity
  8
0
370
    35
390
0
 62
     7
 48
0.07
100
AcDbLine
 10
296.795288
 20
170.899841
 30
0.0
 11
299.595276
 21
170.899841
 31
0.0
210
0.0
220
0.0
230
1.0
  0
LINE
  5
B4
100
AcDbEntity
  8
0
370
    35
390
0
 62
     7
 48
0.15
100
AcDbLine
 10
296.795288
 20
170.899841
 30
0.0
 11
296.795288
 21
176.899841
 31
0.0
210
0.0
220
0.0
230
1.0
  0
LINE
  5
B5
100
AcDbEntity
  8
0
370
    35
390
0
 62
     7
 48
0.07
100
AcDbLine
 10
299.595276
 20
176.899841
 30
0.0
 11
296.795288
 21
176.899841
 31
0.0
210
0.0
220
0.0
230
1.0
  0
LINE
  5
B6
100
AcDbEntity
  8
0
370
    35
390
0
 62
     7
 48
0.15
100
AcDbLine
 10
267.395264
 20
176.899841
 30
0.0
 11
267.395264
 21
170.899841
 31
0.0
210
0.0
220
0.0
230
1.0
  0
LINE
  5
B7
100
AcDbEntity
  8
0
370
    35
390
0
 62
     7
 48
0.07
100
AcDbLine
 10
264.595276
 20
170.899841
 30
0.0
 11
267.395264
 21
170.899841
 31
0.0
210
0.0
220
0.0
230
1.0
  0
LINE
  5
B8
100
AcDbEntity
  8
0
370
    35
390
0
 62
     7
 48
0.15
100
AcDbLine
 10
264.595276
 20
170.899841
 30
0.0
 11
264.595276
 21
176.899841
 31
0.0
210
0.0
220
0.0
230
1.0
  0
LINE
  5
B9
100
AcDbEntity
  8
0
370
    35
390
0
 62
     7
 48
0.07
100
AcDbLine
 10
267.395264
 20
176.899841
 30
0.0
 11
264.595276
 21
176.899841
 31
0.0
210
0.0
220
0.0
230
1.0
  0
LINE
  5
BA
100
AcDbEntity
  8
0
370
    35
390
0
 62
     7
 48
0.15
100
AcDbLine
 10
237.395264
 20
176.899841
 30
0.0
 11
237.395264
 21
170.899841
 31
0.0
210
0.0
220
0.0
230
1.0
  0
LINE
  5
BB
100
AcDbEntity
  8
0
370
    35
390
0
 62
     7
 48
0.07
100
AcDbLine
 10
234.595276
 20
170.899841
 30
0.0
 11
237.395264
 21
170.899841
 31
0.0
210
0.0
220
0.0
230
1.0
  0
LINE
  5
BC
100
AcDbEntity
  8
0
370
    35
390
0
 62
     7
 48
0.15
100
AcDbLine
 10
234.595276
 20
170.899841
 30
0.0
 11
234.595276
 21
176.899841
 31
0.0
210
0.0
220
0.0
230
1.0
  0
LINE
  5
BD
100
AcDbEntity
  8
0
370
    35
390
0
 62
     7
 48
0.07
100
AcDbLine
 10
237.395264
 20
176.899841
 30
0.0
 11
234.595276
 21
176.899841
 31
0.0
210
0.0
220
0.0
230
1.0
  0
LINE
  5
BE
100
AcDbEntity
  8
0
370
    35
390
0
 62
     7
100
AcDbLine
 10
214.595276
 20
190.899841
 30
0.0
 11
214.595276
 21
165.899841
 31
0.0
210
0.0
220
0.0
230
1.0
  0
LINE
  5
BF
100
AcDbEntity
  8
0
370
    35
390
0
 62
     7
 48
0.07
100
AcDbLine
 10
214.595276
 20
165.899841
 30
0.0
 11
211.795288
 21
165.899841
 31
0.0
210
0.0
220
0.0
230
1.0
  0
LINE
  5
C0
100
AcDbEntity
  8
0
370
    35
390
0
 62
     7
100
AcDbLine
 10
211.795288
 20
165.899841
 30
0.0
 11
211.795288
 21
190.899841
 31
0.0
210
0.0
220
0.0
230
1.0
  0
LINE
  5
C1
100
AcDbEntity
  8
0
370
    35
390
0
 62
     7
 48
0.07
100
AcDbLine
 10
211.795288
 20
190.899841
 30
0.0
 11
214.595276
 21
190.899841
 31
0.0
210
0.0
220
0.0
230
1.0
  0
LINE
  5
C2
100
AcDbEntity
  8
0
370
    35
390
0
 62
     7
 48
0.225
100
AcDbLine
 10
384.595276
 20
199.899841
 30
0.0
 11
384.595276
 21
190.899841
 31
0.0
210
0.0
220
0.0
230
1.0
  0
LINE
  5
C3
100
AcDbEntity
  8
0
370
    35
390
0
 62
     7
100
AcDbLine
 10
384.595276
 20
190.899841
 30
0.0
 11
339.595276
 21
190.899841
 31
0.0
210
0.0
220
0.0
230
1.0
  0
LINE
  5
C4
100
AcDbEntity
  8
0
370
    35
390
0
 62
     7
 48
0.225
100
AcDbLine
 10
339.595276
 20
190.899841
 30
0.0
 11
339.595276
 21
199.899841
 31
0.0
210
0.0
220
0.0
230
1.0
  0
LINE
  5
C5
100
AcDbEntity
  8
0
370
    35
390
0
 62
     7
100
AcDbLine
 10
339.595276
 20
199.899841
 30
0.0
 11
384.595276
 21
199.899841
 31
0.0
210
0.0
220
0.0
230
1.0
  0
LINE
  5
C6
100
AcDbEntity
  8
0
370
    35
390
0
 62
     7
 48
0.225
100
AcDbLine
 10
304.595276
 20
199.899841
 30
0.0
 11
304.595276
 21
190.899841
 31
0.0
210
0.0
220
0.0
230
1.0
  0
LINE
  5
C7
100
AcDbEntity
  8
0
370
    35
390
0
 62
     7
100
AcDbLine
 10
304.595276
 20
190.899841
 30
0.0
 11
244.595276
 21
190.899841
 31
0.0
210
0.0
220
0.0
230
1.0
  0
LINE
  5
C8
100
AcDbEntity
  8
0
370
    35
390
0
 62
     7
 48
0.225
100
AcDbLine
 10
244.595276
 20
190.899841
 30
0.0
 11
244.595276
 21
199.899841
 31
0.0
210
0.0
220
0.0
230
1.0
  0
LINE
  5
C9
100
AcDbEntity
  8
0
370
    35
390
0
 62
     7
100
AcDbLine
 10
244.595276
 20
199.899841
 30
0.0
 11
304.595276
 21
199.899841
 31
0.0
210
0.0
220
0.0
230
1.0
  0
LINE
  5
CA
100
AcDbEntity
  8
0
370
    35
390
0
 62
     7
 48
0.07
100
AcDbLine
 10
424.595276
 20
190.899841
 30
0.0
 11
427.395264
 21
190.899841
 31
0.0
210
0.0
220
0.0
230
1.0
  0
LINE
  5
CB
100
AcDbEntity
  8
0
370
    35
390
0
 62
     7
100
AcDbLine
 10
427.395264
 20
190.899841
 30
0.0
 11
427.395264
 21
165.899841
 31
0.0
210
0.0
220
0.0
230
1.0
  0
LINE
  5
CC
100
AcDbEntity
  8
0
370
    35
390
0
 62
     7
 48
0.07
100
AcDbLine
 10
427.395264
 20
165.899841
 30
0.0
 11
424.595276
 21
165.899841
 31
0.0
210
0.0
220
0.0
230
1.0
  0
LINE
  5
CD
100
AcDbEntity
  8
0
370
    35
390
0
 62
     7
100
AcDbLine
 10
424.595276
 20
190.899841
 30
0.0
 11
424.595276
 21
165.899841
 31
0.0
210
0.0
220
0.0
230
1.0
  0
LINE
  5
CE
100
AcDbEntity
  8
0
370
    35
390
0
 62
     7
 48
0.25
100
AcDbLine
 10
373.595276
 20
176.899841
 30
0.0
 11
383.595276
 21
176.899841
 31
0.0
210
0.0
220
0.0
230
1.0
  0
ARC
  5
CF
100
AcDbEntity
  8
0
370
    35
390
0
 62
     7
100
AcDbCircle
 10
383.595276
 20
173.899841
 30
0.0
 40
3.0
210
0.0
220
0.0
230
1.0
100
AcDbArc
 50
0.0
 51
90.000003
  0
LINE
  5
D0
100
AcDbEntity
  8
0
370
    35
390
0
 62
     7
 48
0.25
100
AcDbLine
 10
386.595276
 20
163.899841
 30
0.0
 11
386.595276
 21
173.899841
 31
0.0
210
0.0
220
0.0
230
1.0
  0
ARC
  5
D1
100
AcDbEntity
  8
0
370
    35
390
0
 62
     7
100
AcDbCircle
 10
383.595276
 20
163.899841
 30
0.0
 40
3.0
210
0.0
220
0.0
230
1.0
100
AcDbArc
 50
269.999997
 51
360.0
  0
LINE
  5
D2
100
AcDbEntity
  8
0
370
    35
390
0
 62
     7
 48
0.25
100
AcDbLine
 10
383.595276
 20
160.899841
 30
0.0
 11
373.595276
 21
160.899841
 31
0.0
210
0.0
220
0.0
230
1.0
  0
ARC
  5
D3
100
AcDbEntity
  8
0
370
    35
390
0
 62
     7
100
AcDbCircle
 10
373.595276
 20
163.899841
 30
0.0
 40
3.0
210
0.0
220
0.0
230
1.0
100
AcDbArc
 50
180.000009
 51
269.999997
  0
LINE
  5
D4
100
AcDbEntity
  8
0
370
    35
390
0
 62
     7
 48
0.25
100
AcDbLine
 10
370.595276
 20
173.899841
 30
0.0
 11
370.595276
 21
163.899841
 31
0.0
210
0.0
220
0.0
230
1.0
  0
ARC
  5
D5
100
AcDbEntity
  8
0
370
    35
390
0
 62
     7
100
AcDbCircle
 10
373.595276
 20
173.899841
 30
0.0
 40
3.0
210
0.0
220
0.0
230
1.0
100
AcDbArc
 50
90.000003
 51
180.000009
  0
LINE
  5
D6
100
AcDbEntity
  8
0
370
    35
390
0
 62
     7
100
AcDbLine
 10
203.305786
 20
514.101807
 30
0.0
 11
203.305786
 21
454.101807
 31
0.0
210
0.0
220
0.0
230
1.0
  0
LINE
  5
D7
100
AcDbEntity
  8
0
370
    35
390
0
 62
     7
 48
0.07
100
AcDbLine
 10
203.305786
 20
454.101807
 30
0.0
 11
200.505783
 21
454.101807
 31
0.0
210
0.0
220
0.0
230
1.0
  0
LINE
  5
D8
100
AcDbEntity
  8
0
370
    35
390
0
 62
     7
100
AcDbLine
 10
200.505783
 20
334.101807
 30
0.0
 11
200.505783
 21
454.101807
 31
0.0
210
0.0
220
0.0
230
1.0
  0
LINE
  5
D9
100
AcDbEntity
  8
0
370
    35
390
0
 62
     7
 48
0.07
100
AcDbLine
 10
203.305786
 20
334.101807
 30
0.0
 11
200.505783
 21
334.101807
 31
0.0
210
0.0
220
0.0
230
1.0
  0
LINE
  5
DA
100
AcDbEntity
  8
0
370
    35
390
0
 62
     7
100
AcDbLine
 10
203.305786
 20
334.101807
 30
0.0
 11
203.305786
 21
274.101807
 31
0.0
210
0.0
220
0.0
230
1.0
  0
LINE
  5
DB
100
AcDbEntity
  8
0
370
    35
390
0
 62
     7
100
AcDbLine
 10
276.305786
 20
274.101807
 30
0.0
 11
203.305786
 21
274.101807
 31
0.0
210
0.0
220
0.0
230
1.0
  0
LINE
  5
DC
100
AcDbEntity
  8
0
370
    35
390
0
 62
     7
 48
0.07
100
AcDbLine
 10
276.305786
 20
274.101807
 30
0.0
 11
276.305786
 21
271.301819
 31
0.0
210
0.0
220
0.0
230
1.0
  0
LINE
  5
DD
100
AcDbEntity
  8
0
370
    35
390
0
 62
     7
100
AcDbLine
 10
276.305786
 20
271.301819
 30
0.0
 11
426.305786
 21
271.301819
 31
0.0
210
0.0
220
0.0
230
1.0
  0
LINE
  5
DE
100
AcDbEntity
  8
0
370
    35
390
0
 62
     7
 48
0.07
100
AcDbLine
 10
426.305786
 20
274.101807
 30
0.0
 11
426.305786
 21
271.301819
 31
0.0
210
0.0
220
0.0
230
1.0
  0
LINE
  5
DF
100
AcDbEntity
  8
0
370
    35
390
0
 62
     7
100
AcDbLine
 10
499.305786
 20
274.101807
 30
0.0
 11
426.305786
 21
274.101807
 31
0.0
210
0.0
220
0.0
230
1.0
  0
LINE
  5
E0
100
AcDbEntity
  8
0
370
    35
390
0
 62
     7
100
AcDbLine
 10
499.305786
 20
274.101807
 30
0.0
 11
499.305786
 21
334.101807
 31
0.0
210
0.0
220
0.0
230
1.0
  0
LINE
  5
E1
100
AcDbEntity
  8
0
370
    35
390
0
 62
     7
 48
0.07
100
AcDbLine
 10
499.305786
 20
334.101807
 30
0.0
 11
502.105774
 21
334.101807
 31
0.0
210
0.0
220
0.0
230
1.0
  0
LINE
  5
E2
100
AcDbEntity
  8
0
370
    35
390
0
 62
     7
100
AcDbLine
 10
502.105774
 20
334.101807
 30
0.0
 11
502.105774
 21
454.101807
 31
0.0
210
0.0
220
0.0
230
1.0
  0
LINE
  5
E3
100
AcDbEntity
  8
0
370
    35
390
0
 62
     7
 48
0.07
100
AcDbLine
 10
499.305786
 20
454.101807
 30
0.0
 11
502.105774
 21
454.101807
 31
0.0
210
0.0
220
0.0
230
1.0
  0
LINE
  5
E4
100
AcDbEntity
  8
0
370
    35
390
0
 62
     7
100
AcDbLine
 10
499.305786
 20
454.101807
 30
0.0
 11
499.305786
 21
514.101807
 31
0.0
210
0.0
220
0.0
230
1.0
  0
LINE
  5
E5
100
AcDbEntity
  8
0
370
    35
390
0
 62
     7
100
AcDbLine
 10
426.305786
 20
514.101807
 30
0.0
 11
499.305786
 21
514.101807
 31
0.0
210
0.0
220
0.0
230
1.0
  0
LINE
  5
E6
100
AcDbEntity
  8
0
370
    35
390
0
 62
     7
 48
0.07
100
AcDbLine
 10
426.305786
 20
514.101807
 30
0.0
 11
426.305786
 21
516.901794
 31
0.0
210
0.0
220
0.0
230
1.0
  0
LINE
  5
E7
100
AcDbEntity
  8
0
370
    35
390
0
 62
     7
100
AcDbLine
 10
276.305786
 20
516.901794
 30
0.0
 11
426.305786
 21
516.901794
 31
0.0
210
0.0
220
0.0
230
1.0
  0
LINE
  5
E8
100
AcDbEntity
  8
0
370
    35
390
0
 62
     7
 48
0.07
100
AcDbLine
 10
276.305786
 20
514.101807
 30
0.0
 11
276.305786
 21
516.901794
 31
0.0
210
0.0
220
0.0
230
1.0
  0
LINE
  5
E9
100
AcDbEntity
  8
0
370
    35
390
0
 62
     7
100
AcDbLine
 10
203.305786
 20
514.101807
 30
0.0
 11
276.305786
 21
514.101807
 31
0.0
210
0.0
220
0.0
230
1.0
  0
LINE
  5
EA
100
AcDbEntity
  8
0
370
    35
390
0
 62
     7
100
AcDbLine
 10
552.310425
 20
193.225403
 30
0.0
 11
552.310425
 21
353.225403
 31
0.0
210
0.0
220
0.0
230
1.0
  0
LINE
  5
EB
100
AcDbEntity
  8
0
370
    35
390
0
 62
     7
 48
0.075
100
AcDbLine
 10
549.310425
 20
353.225403
 30
0.0
 11
552.310425
 21
353.225403
 31
0.0
210
0.0
220
0.0
230
1.0
  0
LINE
  5
EC
100
AcDbEntity
  8
0
370
    35
390
0
 62
     7
 48
0.07
100
AcDbLine
 10
549.310425
 20
353.225403
 30
0.0
 11
549.310425
 21
350.425415
 31
0.0
210
0.0
220
0.0
230
1.0
  0
LINE
  5
ED
100
AcDbEntity
  8
0
370
    35
390
0
 62
     7
 48
0.15
100
AcDbLine
 10
543.310425
 20
350.425415
 30
0.0
 11
549.310425
 21
350.425415
 31
0.0
210
0.0
220
0.0
230
1.0
  0
LINE
  5
EE
100
AcDbEntity
  8
0
370
    35
390
0
 62
     7
 48
0.07
100
AcDbLine
 10
543.310425
 20
353.225403
 30
0.0
 11
543.310425
 21
350.425415
 31
0.0
210
0.0
220
0.0
230
1.0
  0
LINE
  5
EF
100
AcDbEntity
  8
0
370
    35
390
0
 62
     7
 48
0.075
100
AcDbLine
 10
540.310425
 20
353.225403
 30
0.0
 11
543.310425
 21
353.225403
 31
0.0
210
0.0
220
0.0
230
1.0
  0
LINE
  5
F0
100
AcDbEntity
  8
0
370
    35
390
0
 62
     7
100
AcDbLine
 10
540.310425
 20
193.225403
 30
0.0
 11
540.310425
 21
353.225403
 31
0.0
210
0.0
220
0.0
230
1.0
  0
LINE
  5
F1
100
AcDbEntity
  8
0
370
    35
390
0
 62
     7
 48
0.075
100
AcDbLine
 10
543.310425
 20
193.225403
 30
0.0
 11
540.310425
 21
193.225403
 31
0.0
210
0.0
220
0.0
230
1.0
  0
LINE
  5
F2
100
AcDbEntity
  8
0
370
    35
390
0
 62
     7
 48
0.07
100
AcDbLine
 10
543.310425
 20
193.225403
 30
0.0
 11
543.310425
 21
196.025391
 31
0.0
210
0.0
220
0.0
230
1.0
  0
LINE
  5
F3
100
AcDbEntity
  8
0
370
    35
390
0
 62
     7
 48
0.15
100
AcDbLine
 10
543.310425
 20
196.025391
 30
0.0
 11
549.310425
 21
196.025391
 31
0.0
210
0.0
220
0.0
230
1.0
  0
LINE
  5
F4
100
AcDbEntity
  8
0
370
    35
390
0
 62
     7
 48
0.07
100
AcDbLine
 10
549.310425
 20
193.225403
 30
0.0
 11
549.310425
 21
196.025391
 31
0.0
210
0.0
220
0.0
230
1.0
  0
LINE
  5
F5
100
AcDbEntity
  8
0
370
    35
390
0
 62
     7
 48
0.075
100
AcDbLine
 10
552.310425
 20
193.225403
 30
0.0
 11
549.310425
 21
193.225403
 31
0.0
210
0.0
220
0.0
230
1.0
  0
CIRCLE
  5
F6
100
AcDbEntity
  8
0
370
    35
390
0
 62
     7
100
AcDbCircle
 10
546.310425
 20
343.225403
 30
0.0
 40
1.5
210
0.0
220
0.0
230
1.0
  0
CIRCLE
  5
F7
100
AcDbEntity
  8
0
370
    35
390
0
 62
     7
100
AcDbCircle
 10
546.310425
 20
203.225403
 30
0.0
 40
1.5
210
0.0
220
0.0
230
1.0
  0
LINE
  5
F8
100
AcDbEntity
  8
0
370
    35
390
0
 62
     7
 48
0.15
100
AcDbLine
 10
549.310425
 20
320.425415
 30
0.0
 11
543.310425
 21
320.425415
 31
0.0
210
0.0
220
0.0
230
1.0
  0
LINE
  5
F9
100
AcDbEntity
  8
0
370
    35
390
0
 62
     7
 48
0.07
100
AcDbLine
 10
543.310425
 20
323.225403
 30
0.0
 11
543.310425
 21
320.425415
 31
0.0
210
0.0
220
0.0
230
1.0
  0
LINE
  5
FA
100
AcDbEntity
  8
0
370
    35
390
0
 62
     7
 48
0.15
100
AcDbLine
 10
543.310425
 20
323.225403
 30
0.0
 11
549.310425
 21
323.225403
 31
0.0
210
0.0
220
0.0
230
1.0
  0
LINE
  5
FB
100
AcDbEntity
  8
0
370
    35
390
0
 62
     7
 48
0.07
100
AcDbLine
 10
549.310425
 20
320.425415
 30
0.0
 11
549.310425
 21
323.225403
 31
0.0
210
0.0
220
0.0
230
1.0
  0
LINE
  5
FC
100
AcDbEntity
  8
0
370
    35
390
0
 62
     7
 48
0.07
100
AcDbLine
 10
549.310425
 20
288.225403
 30
0.0
 11
549.310425
 21
291.025391
 31
0.0
210
0.0
220
0.0
230
1.0
  0
LINE
  5
FD
100
AcDbEntity
  8
0
370
    35
390
0
 62
     7
 48
0.15
100
AcDbLine
 10
543.310425
 20
288.225403
 30
0.0
 11
549.310425
 21
288.225403
 31
0.0
210
0.0
220
0.0
230
1.0
  0
LINE
  5
FE
100
AcDbEntity
  8
0
370
    35
390
0
 62
     7
 48
0.07
100
AcDbLine
 10
543.310425
 20
291.025391
 30
0.0
 11
543.310425
 21
288.225403
 31
0.0
210
0.0
220
0.0
230
1.0
  0
LINE
  5
FF
100
AcDbEntity
  8
0
370
    35
390
0
 62
     7
 48
0.15
100
AcDbLine
 10
549.310425
 20
291.025391
 30
0.0
 11
543.310425
 21
291.025391
 31
0.0
210
0.0
220
0.0
230
1.0
  0
LINE
  5
100
100
AcDbEntity
  8
0
370
    35
390
0
 62
     7
 48
0.15
100
AcDbLine
 10
543.310425
 20
223.225403
 30
0.0
 11
549.310425
 21
223.225403
 31
0.0
210
0.0
220
0.0
230
1.0
  0
LINE
  5
101
100
AcDbEntity
  8
0
370
    35
390
0
 62
     7
 48
0.07
100
AcDbLine
 10
543.310425
 20
223.225403
 30
0.0
 11
543.310425
 21
226.025391
 31
0.0
210
0.0
220
0.0
230
1.0
  0
LINE
  5
102
100
AcDbEntity
  8
0
370
    35
390
0
 62
     7
 48
0.15
100
AcDbLine
 10
549.310425
 20
226.025391
 30
0.0
 11
543.310425
 21
226.025391
 31
0.0
210
0.0
220
0.0
230
1.0
  0
LINE
  5
103
100
AcDbEntity
  8
0
370
    35
390
0
 62
     7
 48
0.07
100
AcDbLine
 10
549.310425
 20
226.025391
 30
0.0
 11
549.310425
 21
223.225403
 31
0.0
210
0.0
220
0.0
230
1.0
  0
LINE
  5
104
100
AcDbEntity
  8
0
370
    35
390
0
 62
     7
 48
0.07
100
AcDbLine
 10
549.310425
 20
258.225403
 30
0.0
 11
549.310425
 21
255.425415
 31
0.0
210
0.0
220
0.0
230
1.0
  0
LINE
  5
105
100
AcDbEntity
  8
0
370
    35
390
0
 62
     7
 48
0.15
100
AcDbLine
 10
549.310425
 20
255.425415
 30
0.0
 11
543.310425
 21
255.425415
 31
0.0
210
0.0
220
0.0
230
1.0
  0
LINE
  5
106
100
AcDbEntity
  8
0
370
    35
390
0
 62
     7
 48
0.07
100
AcDbLine
 10
543.310425
 20
255.425415
 30
0.0
 11
543.310425
 21
258.225403
 31
0.0
210
0.0
220
0.0
230
1.0
  0
LINE
  5
107
100
AcDbEntity
  8
0
370
    35
390
0
 62
     7
 48
0.15
100
AcDbLine
 10
543.310425
 20
258.225403
 30
0.0
 11
549.310425
 21
258.225403
 31
0.0
210
0.0
220
0.0
230
1.0
  0
LINE
  5
108
100
AcDbEntity
  8
0
370
    35
390
0
 62
     7
100
AcDbLine
 10
566.310425
 20
193.225403
 30
0.0
 11
566.310425
 21
353.225403
 31
0.0
210
0.0
220
0.0
230
1.0
  0
LINE
  5
109
100
AcDbEntity
  8
0
370
    35
390
0
 62
     7
 48
0.075
100
AcDbLine
 10
563.310425
 20
353.225403
 30
0.0
 11
566.310425
 21
353.225403
 31
0.0
210
0.0
220
0.0
230
1.0
  0
LINE
  5
10A
100
AcDbEntity
  8
0
370
    35
390
0
 62
     7
 48
0.07
100
AcDbLine
 10
563.310425
 20
353.225403
 30
0.0
 11
563.310425
 21
350.425415
 31
0.0
210
0.0
220
0.0
230
1.0
  0
LINE
  5
10B
100
AcDbEntity
  8
0
370
    35
390
0
 62
     7
 48
0.15
100
AcDbLine
 10
557.310425
 20
350.425415
 30
0.0
 11
563.310425
 21
350.425415
 31
0.0
210
0.0
220
0.0
230
1.0
  0
LINE
  5
10C
100
AcDbEntity
  8
0
370
    35
390
0
 62
     7
 48
0.07
100
AcDbLine
 10
557.310425
 20
353.225403
 30
0.0
 11
557.310425
 21
350.425415
 31
0.0
210
0.0
220
0.0
230
1.0
  0
LINE
  5
10D
100
AcDbEntity
  8
0
370
    35
390
0
 62
     7
 48
0.075
100
AcDbLine
 10
554.310425
 20
353.225403
 30
0.0
 11
557.310425
 21
353.225403
 31
0.0
210
0.0
220
0.0
230
1.0
  0
LINE
  5
10E
100
AcDbEntity
  8
0
370
    35
390
0
 62
     7
100
AcDbLine
 10
554.310425
 20
193.225403
 30
0.0
 11
554.310425
 21
353.225403
 31
0.0
210
0.0
220
0.0
230
1.0
  0
LINE
  5
10F
100
AcDbEntity
  8
0
370
    35
390
0
 62
     7
 48
0.075
100
AcDbLine
 10
557.310425
 20
193.225403
 30
0.0
 11
554.310425
 21
193.225403
 31
0.0
210
0.0
220
0.0
230
1.0
  0
LINE
  5
110
100
AcDbEntity
  8
0
370
    35
390
0
 62
     7
 48
0.07
100
AcDbLine
 10
557.310425
 20
193.225403
 30
0.0
 11
557.310425
 21
196.025391
 31
0.0
210
0.0
220
0.0
230
1.0
  0
LINE
  5
111
100
AcDbEntity
  8
0
370
    35
390
0
 62
     7
 48
0.15
100
AcDbLine
 10
557.310425
 20
196.025391
 30
0.0
 11
563.310425
 21
196.025391
 31
0.0
210
0.0
220
0.0
230
1.0
  0
LINE
  5
112
100
AcDbEntity
  8
0
370
    35
390
0
 62
     7
 48
0.07
100
AcDbLine
 10
563.310425
 20
193.225403
 30
0.0
 11
563.310425
 21
196.025391
 31
0.0
210
0.0
220
0.0
230
1.0
  0
LINE
  5
113
100
AcDbEntity
  8
0
370
    35
390
0
 62
     7
 48
0.075
100
AcDbLine
 10
566.310425
 20
193.225403
 30
0.0
 11
563.310425
 21
193.225403
 31
0.0
210
0.0
220
0.0
230
1.0
  0
CIRCLE
  5
114
100
AcDbEntity
  8
0
370
    35
390
0
 62
     7
100
AcDbCircle
 10
560.310425
 20
343.225403
 30
0.0
 40
1.5
210
0.0
220
0.0
230
1.0
  0
CIRCLE
  5
115
100
AcDbEntity
  8
0
370
    35
390
0
 62
     7
100
AcDbCircle
 10
560.310425
 20
203.225403
 30
0.0
 40
1.5
210
0.0
220
0.0
230
1.0
  0
LINE
  5
116
100
AcDbEntity
  8
0
370
    35
390
0
 62
     7
 48
0.15
100
AcDbLine
 10
563.310425
 20
320.425415
 30
0.0
 11
557.310425
 21
320.425415
 31
0.0
210
0.0
220
0.0
230
1.0
  0
LINE
  5
117
100
AcDbEntity
  8
0
370
    35
390
0
 62
     7
 48
0.07
100
AcDbLine
 10
557.310425
 20
323.225403
 30
0.0
 11
557.310425
 21
320.425415
 31
0.0
210
0.0
220
0.0
230
1.0
  0
LINE
  5
118
100
AcDbEntity
  8
0
370
    35
390
0
 62
     7
 48
0.15
100
AcDbLine
 10
557.310425
 20
323.225403
 30
0.0
 11
563.310425
 21
323.225403
 31
0.0
210
0.0
220
0.0
230
1.0
  0
LINE
  5
119
100
AcDbEntity
  8
0
370
    35
390
0
 62
     7
 48
0.07
100
AcDbLine
 10
563.310425
 20
320.425415
 30
0.0
 11
563.310425
 21
323.225403
 31
0.0
210
0.0
220
0.0
230
1.0
  0
LINE
  5
11A
100
AcDbEntity
  8
0
370
    35
390
0
 62
     7
 48
0.07
100
AcDbLine
 10
563.310425
 20
288.225403
 30
0.0
 11
563.310425
 21
291.025391
 31
0.0
210
0.0
220
0.0
230
1.0
  0
LINE
  5
11B
100
AcDbEntity
  8
0
370
    35
390
0
 62
     7
 48
0.15
100
AcDbLine
 10
557.310425
 20
288.225403
 30
0.0
 11
563.310425
 21
288.225403
 31
0.0
210
0.0
220
0.0
230
1.0
  0
LINE
  5
11C
100
AcDbEntity
  8
0
370
    35
390
0
 62
     7
 48
0.07
100
AcDbLine
 10
557.310425
 20
291.025391
 30
0.0
 11
557.310425
 21
288.225403
 31
0.0
210
0.0
220
0.0
230
1.0
  0
LINE
  5
11D
100
AcDbEntity
  8
0
370
    35
390
0
 62
     7
 48
0.15
100
AcDbLine
 10
563.310425
 20
291.025391
 30
0.0
 11
557.310425
 21
291.025391
 31
0.0
210
0.0
220
0.0
230
1.0
  0
LINE
  5
11E
100
AcDbEntity
  8
0
370
    35
390
0
 62
     7
 48
0.15
100
AcDbLine
 10
557.310425
 20
223.225403
 30
0.0
 11
563.310425
 21
223.225403
 31
0.0
210
0.0
220
0.0
230
1.0
  0
LINE
  5
11F
100
AcDbEntity
  8
0
370
    35
390
0
 62
     7
 48
0.07
100
AcDbLine
 10
557.310425
 20
223.225403
 30
0.0
 11
557.310425
 21
226.025391
 31
0.0
210
0.0
220
0.0
230
1.0
  0
LINE
  5
120
100
AcDbEntity
  8
0
370
    35
390
0
 62
     7
 48
0.15
100
AcDbLine
 10
563.310425
 20
226.025391
 30
0.0
 11
557.310425
 21
226.025391
 31
0.0
210
0.0
220
0.0
230
1.0
  0
LINE
  5
121
100
AcDbEntity
  8
0
370
    35
390
0
 62
     7
 48
0.07
100
AcDbLine
 10
563.310425
 20
226.025391
 30
0.0
 11
563.310425
 21
223.225403
 31
0.0
210
0.0
220
0.0
230
1.0
  0
LINE
  5
122
100
AcDbEntity
  8
0
370
    35
390
0
 62
     7
 48
0.07
100
AcDbLine
 10
563.310425
 20
258.225403
 30
0.0
 11
563.310425
 21
255.425415
 31
0.0
210
0.0
220
0.0
230
1.0
  0
LINE
  5
123
100
AcDbEntity
  8
0
370
    35
390
0
 62
     7
 48
0.15
100
AcDbLine
 10
563.310425
 20
255.425415
 30
0.0
 11
557.310425
 21
255.425415
 31
0.0
210
0.0
220
0.0
230
1.0
  0
LINE
  5
124
100
AcDbEntity
  8
0
370
    35
390
0
 62
     7
 48
0.07
100
AcDbLine
 10
557.310425
 20
255.425415
 30
0.0
 11
557.310425
 21
258.225403
 31
0.0
210
0.0
220
0.0
230
1.0
  0
LINE
  5
125
100
AcDbEntity
  8
0
370
    35
390
0
 62
     7
 48
0.15
100
AcDbLine
 10
557.310425
 20
258.225403
 30
0.0
 11
563.310425
 21
258.225403
 31
0.0
210
0.0
220
0.0
230
1.0
  0
LINE
  5
126
100
AcDbEntity
  8
0
370
    35
390
0
 62
     7
100
AcDbLine
 10
580.310425
 20
193.225403
 30
0.0
 11
580.310425
 21
353.225403
 31
0.0
210
0.0
220
0.0
230
1.0
  0
LINE
  5
127
100
AcDbEntity
  8
0
370
    35
390
0
 62
     7
 48
0.075
100
AcDbLine
 10
577.310425
 20
353.225403
 30
0.0
 11
580.310425
 21
353.225403
 31
0.0
210
0.0
220
0.0
230
1.0
  0
LINE
  5
128
100
AcDbEntity
  8
0
370
    35
390
0
 62
     7
 48
0.07
100
AcDbLine
 10
577.310425
 20
353.225403
 30
0.0
 11
577.310425
 21
350.425415
 31
0.0
210
0.0
220
0.0
230
1.0
  0
LINE
  5
129
100
AcDbEntity
  8
0
370
    35
390
0
 62
     7
 48
0.15
100
AcDbLine
 10
571.310425
 20
350.425415
 30
0.0
 11
577.310425
 21
350.425415
 31
0.0
210
0.0
220
0.0
230
1.0
  0
LINE
  5
12A
100
AcDbEntity
  8
0
370
    35
390
0
 62
     7
 48
0.07
100
AcDbLine
 10
571.310425
 20
353.225403
 30
0.0
 11
571.310425
 21
350.425415
 31
0.0
210
0.0
220
0.0
230
1.0
  0
LINE
  5
12B
100
AcDbEntity
  8
0
370
    35
390
0
 62
     7
 48
0.075
100
AcDbLine
 10
568.310425
 20
353.225403
 30
0.0
 11
571.310425
 21
353.225403
 31
0.0
210
0.0
220
0.0
230
1.0
  0
LINE
  5
12C
100
AcDbEntity
  8
0
370
    35
390
0
 62
     7
100
AcDbLine
 10
568.310425
 20
193.225403
 30
0.0
 11
568.310425
 21
353.225403
 31
0.0
210
0.0
220
0.0
230
1.0
  0
LINE
  5
12D
100
AcDbEntity
  8
0
370
    35
390
0
 62
     7
 48
0.075
100
AcDbLine
 10
571.310425
 20
193.225403
 30
0.0
 11
568.310425
 21
193.225403
 31
0.0
210
0.0
220
0.0
230
1.0
  0
LINE
  5
12E
100
AcDbEntity
  8
0
370
    35
390
0
 62
     7
 48
0.07
100
AcDbLine
 10
571.310425
 20
193.225403
 30
0.0
 11
571.310425
 21
196.025391
 31
0.0
210
0.0
220
0.0
230
1.0
  0
LINE
  5
12F
100
AcDbEntity
  8
0
370
    35
390
0
 62
     7
 48
0.15
100
AcDbLine
 10
571.310425
 20
196.025391
 30
0.0
 11
577.310425
 21
196.025391
 31
0.0
210
0.0
220
0.0
230
1.0
  0
LINE
  5
130
100
AcDbEntity
  8
0
370
    35
390
0
 62
     7
 48
0.07
100
AcDbLine
 10
577.310425
 20
193.225403
 30
0.0
 11
577.310425
 21
196.025391
 31
0.0
210
0.0
220
0.0
230
1.0
  0
LINE
  5
131
100
AcDbEntity
  8
0
370
    35
390
0
 62
     7
 48
0.075
100
AcDbLine
 10
580.310425
 20
193.225403
 30
0.0
 11
577.310425
 21
193.225403
 31
0.0
210
0.0
220
0.0
230
1.0
  0
CIRCLE
  5
132
100
AcDbEntity
  8
0
370
    35
390
0
 62
     7
100
AcDbCircle
 10
574.310425
 20
343.225403
 30
0.0
 40
1.5
210
0.0
220
0.0
230
1.0
  0
CIRCLE
  5
133
100
AcDbEntity
  8
0
370
    35
390
0
 62
     7
100
AcDbCircle
 10
574.310425
 20
203.225403
 30
0.0
 40
1.5
210
0.0
220
0.0
230
1.0
  0
LINE
  5
134
100
AcDbEntity
  8
0
370
    35
390
0
 62
     7
 48
0.15
100
AcDbLine
 10
577.310425
 20
320.425415
 30
0.0
 11
571.310425
 21
320.425415
 31
0.0
210
0.0
220
0.0
230
1.0
  0
LINE
  5
135
100
AcDbEntity
  8
0
370
    35
390
0
 62
     7
 48
0.07
100
AcDbLine
 10
571.310425
 20
323.225403
 30
0.0
 11
571.310425
 21
320.425415
 31
0.0
210
0.0
220
0.0
230
1.0
  0
LINE
  5
136
100
AcDbEntity
  8
0
370
    35
390
0
 62
     7
 48
0.15
100
AcDbLine
 10
571.310425
 20
323.225403
 30
0.0
 11
577.310425
 21
323.225403
 31
0.0
210
0.0
220
0.0
230
1.0
  0
LINE
  5
137
100
AcDbEntity
  8
0
370
    35
390
0
 62
     7
 48
0.07
100
AcDbLine
 10
577.310425
 20
320.425415
 30
0.0
 11
577.310425
 21
323.225403
 31
0.0
210
0.0
220
0.0
230
1.0
  0
LINE
  5
138
100
AcDbEntity
  8
0
370
    35
390
0
 62
     7
 48
0.07
100
AcDbLine
 10
577.310425
 20
288.225403
 30
0.0
 11
577.310425
 21
291.025391
 31
0.0
210
0.0
220
0.0
230
1.0
  0
LINE
  5
139
100
AcDbEntity
  8
0
370
    35
390
0
 62
     7
 48
0.15
100
AcDbLine
 10
571.310425
 20
288.225403
 30
0.0
 11
577.310425
 21
288.225403
 31
0.0
210
0.0
220
0.0
230
1.0
  0
LINE
  5
13A
100
AcDbEntity
  8
0
370
    35
390
0
 62
     7
 48
0.07
100
AcDbLine
 10
571.310425
 20
291.025391
 30
0.0
 11
571.310425
 21
288.225403
 31
0.0
210
0.0
220
0.0
230
1.0
  0
LINE
  5
13B
100
AcDbEntity
  8
0
370
    35
390
0
 62
     7
 48
0.15
100
AcDbLine
 10
577.310425
 20
291.025391
 30
0.0
 11
571.310425
 21
291.025391
 31
0.0
210
0.0
220
0.0
230
1.0
  0
LINE
  5
13C
100
AcDbEntity
  8
0
370
    35
390
0
 62
     7
 48
0.15
100
AcDbLine
 10
571.310425
 20
223.225403
 30
0.0
 11
577.310425
 21
223.225403
 31
0.0
210
0.0
220
0.0
230
1.0
  0
LINE
  5
13D
100
AcDbEntity
  8
0
370
    35
390
0
 62
     7
 48
0.07
100
AcDbLine
 10
571.310425
 20
223.225403
 30
0.0
 11
571.310425
 21
226.025391
 31
0.0
210
0.0
220
0.0
230
1.0
  0
LINE
  5
13E
100
AcDbEntity
  8
0
370
    35
390
0
 62
     7
 48
0.15
100
AcDbLine
 10
577.310425
 20
226.025391
 30
0.0
 11
571.310425
 21
226.025391
 31
0.0
210
0.0
220
0.0
230
1.0
  0
LINE
  5
13F
100
AcDbEntity
  8
0
370
    35
390
0
 62
     7
 48
0.07
100
AcDbLine
 10
577.310425
 20
226.025391
 30
0.0
 11
577.310425
 21
223.225403
 31
0.0
210
0.0
220
0.0
230
1.0
  0
LINE
  5
140
100
AcDbEntity
  8
0
370
    35
390
0
 62
     7
 48
0.07
100
AcDbLine
 10
577.310425
 20
258.225403
 30
0.0
 11
577.310425
 21
255.425415
 31
0.0
210
0.0
220
0.0
230
1.0
  0
LINE
  5
141
100
AcDbEntity
  8
0
370
    35
390
0
 62
     7
 48
0.15
100
AcDbLine
 10
577.310425
 20
255.425415
 30
0.0
 11
571.310425
 21
255.425415
 31
0.0
210
0.0
220
0.0
230
1.0
  0
LINE
  5
142
100
AcDbEntity
  8
0
370
    35
390
0
 62
     7
 48
0.07
100
AcDbLine
 10
571.310425
 20
255.425415
 30
0.0
 11
571.310425
 21
258.225403
 31
0.0
210
0.0
220
0.0
230
1.0
  0
LINE
  5
143
100
AcDbEntity
  8
0
370
    35
390
0
 62
     7
 48
0.15
100
AcDbLine
 10
571.310425
 20
258.225403
 30
0.0
 11
577.310425
 21
258.225403
 31
0.0
210
0.0
220
0.0
230
1.0
  0
LINE
  5
144
100
AcDbEntity
  8
0
370
    35
390
0
 62
     7
100
AcDbLine
 10
594.310425
 20
193.225403
 30
0.0
 11
594.310425
 21
353.225403
 31
0.0
210
0.0
220
0.0
230
1.0
  0
LINE
  5
145
100
AcDbEntity
  8
0
370
    35
390
0
 62
     7
 48
0.075
100
AcDbLine
 10
591.310425
 20
353.225403
 30
0.0
 11
594.310425
 21
353.225403
 31
0.0
210
0.0
220
0.0
230
1.0
  0
LINE
  5
146
100
AcDbEntity
  8
0
370
    35
390
0
 62
     7
 48
0.07
100
AcDbLine
 10
591.310425
 20
353.225403
 30
0.0
 11
591.310425
 21
350.425415
 31
0.0
210
0.0
220
0.0
230
1.0
  0
LINE
  5
147
100
AcDbEntity
  8
0
370
    35
390
0
 62
     7
 48
0.15
100
AcDbLine
 10
585.310425
 20
350.425415
 30
0.0
 11
591.310425
 21
350.425415
 31
0.0
210
0.0
220
0.0
230
1.0
  0
LINE
  5
148
100
AcDbEntity
  8
0
370
    35
390
0
 62
     7
 48
0.07
100
AcDbLine
 10
585.310425
 20
353.225403
 30
0.0
 11
585.310425
 21
350.425415
 31
0.0
210
0.0
220
0.0
230
1.0
  0
LINE
  5
149
100
AcDbEntity
  8
0
370
    35
390
0
 62
     7
 48
0.075
100
AcDbLine
 10
582.310425
 20
353.225403
 30
0.0
 11
585.310425
 21
353.225403
 31
0.0
210
0.0
220
0.0
230
1.0
  0
LINE
  5
14A
100
AcDbEntity
  8
0
370
    35
390
0
 62
     7
100
AcDbLine
 10
582.310425
 20
193.225403
 30
0.0
 11
582.310425
 21
353.225403
 31
0.0
210
0.0
220
0.0
230
1.0
  0
LINE
  5
14B
100
AcDbEntity
  8
0
370
    35
390
0
 62
     7
 48
0.075
100
AcDbLine
 10
585.310425
 20
193.225403
 30
0.0
 11
582.310425
 21
193.225403
 31
0.0
210
0.0
220
0.0
230
1.0
  0
LINE
  5
14C
100
AcDbEntity
  8
0
370
    35
390
0
 62
     7
 48
0.07
100
AcDbLine
 10
585.310425
 20
193.225403
 30
0.0
 11
585.310425
 21
196.025391
 31
0.0
210
0.0
220
0.0
230
1.0
  0
LINE
  5
14D
100
AcDbEntity
  8
0
370
    35
390
0
 62
     7
 48
0.15
100
AcDbLine
 10
585.310425
 20
196.025391
 30
0.0
 11
591.310425
 21
196.025391
 31
0.0
210
0.0
220
0.0
230
1.0
  0
LINE
  5
14E
100
AcDbEntity
  8
0
370
    35
390
0
 62
     7
 48
0.07
100
AcDbLine
 10
591.310425
 20
193.225403
 30
0.0
 11
591.310425
 21
196.025391
 31
0.0
210
0.0
220
0.0
230
1.0
  0
LINE
  5
14F
100
AcDbEntity
  8
0
370
    35
390
0
 62
     7
 48
0.075
100
AcDbLine
 10
594.310425
 20
193.225403
 30
0.0
 11
591.310425
 21
193.225403
 31
0.0
210
0.0
220
0.0
230
1.0
  0
CIRCLE
  5
150
100
AcDbEntity
  8
0
370
    35
390
0
 62
     7
100
AcDbCircle
 10
588.310425
 20
343.225403
 30
0.0
 40
1.5
210
0.0
220
0.0
230
1.0
  0
CIRCLE
  5
151
100
AcDbEntity
  8
0
370
    35
390
0
 62
     7
100
AcDbCircle
 10
588.310425
 20
203.225403
 30
0.0
 40
1.5
210
0.0
220
0.0
230
1.0
  0
LINE
  5
152
100
AcDbEntity
  8
0
370
    35
390
0
 62
     7
 48
0.15
100
AcDbLine
 10
591.310425
 20
320.425415
 30
0.0
 11
585.310425
 21
320.425415
 31
0.0
210
0.0
220
0.0
230
1.0
  0
LINE
  5
153
100
AcDbEntity
  8
0
370
    35
390
0
 62
     7
 48
0.07
100
AcDbLine
 10
585.310425
 20
323.225403
 30
0.0
 11
585.310425
 21
320.425415
 31
0.0
210
0.0
220
0.0
230
1.0
  0
LINE
  5
154
100
AcDbEntity
  8
0
370
    35
390
0
 62
     7
 48
0.15
100
AcDbLine
 10
585.310425
 20
323.225403
 30
0.0
 11
591.310425
 21
323.225403
 31
0.0
210
0.0
220
0.0
230
1.0
  0
LINE
  5
155
100
AcDbEntity
  8
0
370
    35
390
0
 62
     7
 48
0.07
100
AcDbLine
 10
591.310425
 20
320.425415
 30
0.0
 11
591.310425
 21
323.225403
 31
0.0
210
0.0
220
0.0
230
1.0
  0
LINE
  5
156
100
AcDbEntity
  8
0
370
    35
390
0
 62
     7
 48
0.07
100
AcDbLine
 10
591.310425
 20
288.225403
 30
0.0
 11
591.310425
 21
291.025391
 31
0.0
210
0.0
220
0.0
230
1.0
  0
LINE
  5
157
100
AcDbEntity
  8
0
370
    35
390
0
 62
     7
 48
0.15
100
AcDbLine
 10
585.310425
 20
288.225403
 30
0.0
 11
591.310425
 21
288.225403
 31
0.0
210
0.0
220
0.0
230
1.0
  0
LINE
  5
158
100
AcDbEntity
  8
0
370
    35
390
0
 62
     7
 48
0.07
100
AcDbLine
 10
585.310425
 20
291.025391
 30
0.0
 11
585.310425
 21
288.225403
 31
0.0
210
0.0
220
0.0
230
1.0
  0
LINE
  5
159
100
AcDbEntity
  8
0
370
    35
390
0
 62
     7
 48
0.15
100
AcDbLine
 10
591.310425
 20
291.025391
 30
0.0
 11
585.310425
 21
291.025391
 31
0.0
210
0.0
220
0.0
230
1.0
  0
LINE
  5
15A
100
AcDbEntity
  8
0
370
    35
390
0
 62
     7
 48
0.15
100
AcDbLine
 10
585.310425
 20
223.225403
 30
0.0
 11
591.310425
 21
223.225403
 31
0.0
210
0.0
220
0.0
230
1.0
  0
LINE
  5
15B
100
AcDbEntity
  8
0
370
    35
390
0
 62
     7
 48
0.07
100
AcDbLine
 10
585.310425
 20
223.225403
 30
0.0
 11
585.310425
 21
226.025391
 31
0.0
210
0.0
220
0.0
230
1.0
  0
LINE
  5
15C
100
AcDbEntity
  8
0
370
    35
390
0
 62
     7
 48
0.15
100
AcDbLine
 10
591.310425
 20
226.025391
 30
0.0
 11
585.310425
 21
226.025391
 31
0.0
210
0.0
220
0.0
230
1.0
  0
LINE
  5
15D
100
AcDbEntity
  8
0
370
    35
390
0
 62
     7
 48
0.07
100
AcDbLine
 10
591.310425
 20
226.025391
 30
0.0
 11
591.310425
 21
223.225403
 31
0.0
210
0.0
220
0.0
230
1.0
  0
LINE
  5
15E
100
AcDbEntity
  8
0
370
    35
390
0
 62
     7
 48
0.07
100
AcDbLine
 10
591.310425
 20
258.225403
 30
0.0
 11
591.310425
 21
255.425415
 31
0.0
210
0.0
220
0.0
230
1.0
  0
LINE
  5
15F
100
AcDbEntity
  8
0
370
    35
390
0
 62
     7
 48
0.15
100
AcDbLine
 10
591.310425
 20
255.425415
 30
0.0
 11
585.310425
 21
255.425415
 31
0.0
210
0.0
220
0.0
230
1.0
  0
LINE
  5
160
100
AcDbEntity
  8
0
370
    35
390
0
 62
     7
 48
0.07
100
AcDbLine
 10
585.310425
 20
255.425415
 30
0.0
 11
585.310425
 21
258.225403
 31
0.0
210
0.0
220
0.0
230
1.0
  0
LINE
  5
161
100
AcDbEntity
  8
0
370
    35
390
0
 62
     7
 48
0.15
100
AcDbLine
 10
585.310425
 20
258.225403
 30
0.0
 11
591.310425
 21
258.225403
 31
0.0
210
0.0
220
0.0
230
1.0
  0
LINE
  5
162
100
AcDbEntity
  8
0
370
    35
390
0
 62
     7
100
AcDbLine
 10
608.310425
 20
193.225403
 30
0.0
 11
608.310425
 21
353.225403
 31
0.0
210
0.0
220
0.0
230
1.0
  0
LINE
  5
163
100
AcDbEntity
  8
0
370
    35
390
0
 62
     7
 48
0.075
100
AcDbLine
 10
605.310425
 20
353.225403
 30
0.0
 11
608.310425
 21
353.225403
 31
0.0
210
0.0
220
0.0
230
1.0
  0
LINE
  5
164
100
AcDbEntity
  8
0
370
    35
390
0
 62
     7
 48
0.07
100
AcDbLine
 10
605.310425
 20
353.225403
 30
0.0
 11
605.310425
 21
350.425415
 31
0.0
210
0.0
220
0.0
230
1.0
  0
LINE
  5
165
100
AcDbEntity
  8
0
370
    35
390
0
 62
     7
 48
0.15
100
AcDbLine
 10
599.310425
 20
350.425415
 30
0.0
 11
605.310425
 21
350.425415
 31
0.0
210
0.0
220
0.0
230
1.0
  0
LINE
  5
166
100
AcDbEntity
  8
0
370
    35
390
0
 62
     7
 48
0.07
100
AcDbLine
 10
599.310425
 20
353.225403
 30
0.0
 11
599.310425
 21
350.425415
 31
0.0
210
0.0
220
0.0
230
1.0
  0
LINE
  5
167
100
AcDbEntity
  8
0
370
    35
390
0
 62
     7
 48
0.075
100
AcDbLine
 10
596.310425
 20
353.225403
 30
0.0
 11
599.310425
 21
353.225403
 31
0.0
210
0.0
220
0.0
230
1.0
  0
LINE
  5
168
100
AcDbEntity
  8
0
370
    35
390
0
 62
     7
100
AcDbLine
 10
596.310425
 20
193.225403
 30
0.0
 11
596.310425
 21
353.225403
 31
0.0
210
0.0
220
0.0
230
1.0
  0
LINE
  5
169
100
AcDbEntity
  8
0
370
    35
390
0
 62
     7
 48
0.075
100
AcDbLine
 10
599.310425
 20
193.225403
 30
0.0
 11
596.310425
 21
193.225403
 31
0.0
210
0.0
220
0.0
230
1.0
  0
LINE
  5
16A
100
AcDbEntity
  8
0
370
    35
390
0
 62
     7
 48
0.07
100
AcDbLine
 10
599.310425
 20
193.225403
 30
0.0
 11
599.310425
 21
196.025391
 31
0.0
210
0.0
220
0.0
230
1.0
  0
LINE
  5
16B
100
AcDbEntity
  8
0
370
    35
390
0
 62
     7
 48
0.15
100
AcDbLine
 10
599.310425
 20
196.025391
 30
0.0
 11
605.310425
 21
196.025391
 31
0.0
210
0.0
220
0.0
230
1.0
  0
LINE
  5
16C
100
AcDbEntity
  8
0
370
    35
390
0
 62
     7
 48
0.07
100
AcDbLine
 10
605.310425
 20
193.225403
 30
0.0
 11
605.310425
 21
196.025391
 31
0.0
210
0.0
220
0.0
230
1.0
  0
LINE
  5
16D
100
AcDbEntity
  8
0
370
    35
390
0
 62
     7
 48
0.075
100
AcDbLine
 10
608.310425
 20
193.225403
 30
0.0
 11
605.310425
 21
193.225403
 31
0.0
210
0.0
220
0.0
230
1.0
  0
CIRCLE
  5
16E
100
AcDbEntity
  8
0
370
    35
390
0
 62
     7
100
AcDbCircle
 10
602.310425
 20
343.225403
 30
0.0
 40
1.5
210
0.0
220
0.0
230
1.0
  0
CIRCLE
  5
16F
100
AcDbEntity
  8
0
370
    35
390
0
 62
     7
100
AcDbCircle
 10
602.310425
 20
203.225403
 30
0.0
 40
1.5
210
0.0
220
0.0
230
1.0
  0
LINE
  5
170
100
AcDbEntity
  8
0
370
    35
390
0
 62
     7
 48
0.15
100
AcDbLine
 10
605.310425
 20
320.425415
 30
0.0
 11
599.310425
 21
320.425415
 31
0.0
210
0.0
220
0.0
230
1.0
  0
LINE
  5
171
100
AcDbEntity
  8
0
370
    35
390
0
 62
     7
 48
0.07
100
AcDbLine
 10
599.310425
 20
323.225403
 30
0.0
 11
599.310425
 21
320.425415
 31
0.0
210
0.0
220
0.0
230
1.0
  0
LINE
  5
172
100
AcDbEntity
  8
0
370
    35
390
0
 62
     7
 48
0.15
100
AcDbLine
 10
599.310425
 20
323.225403
 30
0.0
 11
605.310425
 21
323.225403
 31
0.0
210
0.0
220
0.0
230
1.0
  0
LINE
  5
173
100
AcDbEntity
  8
0
370
    35
390
0
 62
     7
 48
0.07
100
AcDbLine
 10
605.310425
 20
320.425415
 30
0.0
 11
605.310425
 21
323.225403
 31
0.0
210
0.0
220
0.0
230
1.0
  0
LINE
  5
174
100
AcDbEntity
  8
0
370
    35
390
0
 62
     7
 48
0.07
100
AcDbLine
 10
605.310425
 20
288.225403
 30
0.0
 11
605.310425
 21
291.025391
 31
0.0
210
0.0
220
0.0
230
1.0
  0
LINE
  5
175
100
AcDbEntity
  8
0
370
    35
390
0
 62
     7
 48
0.15
100
AcDbLine
 10
599.310425
 20
288.225403
 30
0.0
 11
605.310425
 21
288.225403
 31
0.0
210
0.0
220
0.0
230
1.0
  0
LINE
  5
176
100
AcDbEntity
  8
0
370
    35
390
0
 62
     7
 48
0.07
100
AcDbLine
 10
599.310425
 20
291.025391
 30
0.0
 11
599.310425
 21
288.225403
 31
0.0
210
0.0
220
0.0
230
1.0
  0
LINE
  5
177
100
AcDbEntity
  8
0
370
    35
390
0
 62
     7
 48
0.15
100
AcDbLine
 10
605.310425
 20
291.025391
 30
0.0
 11
599.310425
 21
291.025391
 31
0.0
210
0.0
220
0.0
230
1.0
  0
LINE
  5
178
100
AcDbEntity
  8
0
370
    35
390
0
 62
     7
 48
0.15
100
AcDbLine
 10
599.310425
 20
223.225403
 30
0.0
 11
605.310425
 21
223.225403
 31
0.0
210
0.0
220
0.0
230
1.0
  0
LINE
  5
179
100
AcDbEntity
  8
0
370
    35
390
0
 62
     7
 48
0.07
100
AcDbLine
 10
599.310425
 20
223.225403
 30
0.0
 11
599.310425
 21
226.025391
 31
0.0
210
0.0
220
0.0
230
1.0
  0
LINE
  5
17A
100
AcDbEntity
  8
0
370
    35
390
0
 62
     7
 48
0.15
100
AcDbLine
 10
605.310425
 20
226.025391
 30
0.0
 11
599.310425
 21
226.025391
 31
0.0
210
0.0
220
0.0
230
1.0
  0
LINE
  5
17B
100
AcDbEntity
  8
0
370
    35
390
0
 62
     7
 48
0.07
100
AcDbLine
 10
605.310425
 20
226.025391
 30
0.0
 11
605.310425
 21
223.225403
 31
0.0
210
0.0
220
0.0
230
1.0
  0
LINE
  5
17C
100
AcDbEntity
  8
0
370
    35
390
0
 62
     7
 48
0.07
100
AcDbLine
 10
605.310425
 20
258.225403
 30
0.0
 11
605.310425
 21
255.425415
 31
0.0
210
0.0
220
0.0
230
1.0
  0
LINE
  5
17D
100
AcDbEntity
  8
0
370
    35
390
0
 62
     7
 48
0.15
100
AcDbLine
 10
605.310425
 20
255.425415
 30
0.0
 11
599.310425
 21
255.425415
 31
0.0
210
0.0
220
0.0
230
1.0
  0
LINE
  5
17E
100
AcDbEntity
  8
0
370
    35
390
0
 62
     7
 48
0.07
100
AcDbLine
 10
599.310425
 20
255.425415
 30
0.0
 11
599.310425
 21
258.225403
 31
0.0
210
0.0
220
0.0
230
1.0
  0
LINE
  5
17F
100
AcDbEntity
  8
0
370
    35
390
0
 62
     7
 48
0.15
100
AcDbLine
 10
599.310425
 20
258.225403
 30
0.0
 11
605.310425
 21
258.225403
 31
0.0
210
0.0
220
0.0
230
1.0
  0
LINE
  5
180
100
AcDbEntity
  8
0
370
    35
390
0
 62
     7
100
AcDbLine
 10
622.310425
 20
193.225403
 30
0.0
 11
622.310425
 21
353.225403
 31
0.0
210
0.0
220
0.0
230
1.0
  0
LINE
  5
181
100
AcDbEntity
  8
0
370
    35
390
0
 62
     7
 48
0.075
100
AcDbLine
 10
619.310425
 20
353.225403
 30
0.0
 11
622.310425
 21
353.225403
 31
0.0
210
0.0
220
0.0
230
1.0
  0
LINE
  5
182
100
AcDbEntity
  8
0
370
    35
390
0
 62
     7
 48
0.07
100
AcDbLine
 10
619.310425
 20
353.225403
 30
0.0
 11
619.310425
 21
350.425415
 31
0.0
210
0.0
220
0.0
230
1.0
  0
LINE
  5
183
100
AcDbEntity
  8
0
370
    35
390
0
 62
     7
 48
0.15
100
AcDbLine
 10
613.310425
 20
350.425415
 30
0.0
 11
619.310425
 21
350.425415
 31
0.0
210
0.0
220
0.0
230
1.0
  0
LINE
  5
184
100
AcDbEntity
  8
0
370
    35
390
0
 62
     7
 48
0.07
100
AcDbLine
 10
613.310425
 20
353.225403
 30
0.0
 11
613.310425
 21
350.425415
 31
0.0
210
0.0
220
0.0
230
1.0
  0
LINE
  5
185
100
AcDbEntity
  8
0
370
    35
390
0
 62
     7
 48
0.075
100
AcDbLine
 10
610.310425
 20
353.225403
 30
0.0
 11
613.310425
 21
353.225403
 31
0.0
210
0.0
220
0.0
230
1.0
  0
LINE
  5
186
100
AcDbEntity
  8
0
370
    35
390
0
 62
     7
100
AcDbLine
 10
610.310425
 20
193.225403
 30
0.0
 11
610.310425
 21
353.225403
 31
0.0
210
0.0
220
0.0
230
1.0
  0
LINE
  5
187
100
AcDbEntity
  8
0
370
    35
390
0
 62
     7
 48
0.075
100
AcDbLine
 10
613.310425
 20
193.225403
 30
0.0
 11
610.310425
 21
193.225403
 31
0.0
210
0.0
220
0.0
230
1.0
  0
LINE
  5
188
100
AcDbEntity
  8
0
370
    35
390
0
 62
     7
 48
0.07
100
AcDbLine
 10
613.310425
 20
193.225403
 30
0.0
 11
613.310425
 21
196.025391
 31
0.0
210
0.0
220
0.0
230
1.0
  0
LINE
  5
189
100
AcDbEntity
  8
0
370
    35
390
0
 62
     7
 48
0.15
100
AcDbLine
 10
613.310425
 20
196.025391
 30
0.0
 11
619.310425
 21
196.025391
 31
0.0
210
0.0
220
0.0
230
1.0
  0
LINE
  5
18A
100
AcDbEntity
  8
0
370
    35
390
0
 62
     7
 48
0.07
100
AcDbLine
 10
619.310425
 20
193.225403
 30
0.0
 11
619.310425
 21
196.025391
 31
0.0
210
0.0
220
0.0
230
1.0
  0
LINE
  5
18B
100
AcDbEntity
  8
0
370
    35
390
0
 62
     7
 48
0.075
100
AcDbLine
 10
622.310425
 20
193.225403
 30
0.0
 11
619.310425
 21
193.225403
 31
0.0
210
0.0
220
0.0
230
1.0
  0
CIRCLE
  5
18C
100
AcDbEntity
  8
0
370
    35
390
0
 62
     7
100
AcDbCircle
 10
616.310425
 20
343.225403
 30
0.0
 40
1.5
210
0.0
220
0.0
230
1.0
  0
CIRCLE
  5
18D
100
AcDbEntity
  8
0
370
    35
390
0
 62
     7
100
AcDbCircle
 10
616.310425
 20
203.225403
 30
0.0
 40
1.5
210
0.0
220
0.0
230
1.0
  0
LINE
  5
18E
100
AcDbEntity
  8
0
370
    35
390
0
 62
     7
 48
0.15
100
AcDbLine
 10
619.310425
 20
320.425415
 30
0.0
 11
613.310425
 21
320.425415
 31
0.0
210
0.0
220
0.0
230
1.0
  0
LINE
  5
18F
100
AcDbEntity
  8
0
370
    35
390
0
 62
     7
 48
0.07
100
AcDbLine
 10
613.310425
 20
323.225403
 30
0.0
 11
613.310425
 21
320.425415
 31
0.0
210
0.0
220
0.0
230
1.0
  0
LINE
  5
190
100
AcDbEntity
  8
0
370
    35
390
0
 62
     7
 48
0.15
100
AcDbLine
 10
613.310425
 20
323.225403
 30
0.0
 11
619.310425
 21
323.225403
 31
0.0
210
0.0
220
0.0
230
1.0
  0
LINE
  5
191
100
AcDbEntity
  8
0
370
    35
390
0
 62
     7
 48
0.07
100
AcDbLine
 10
619.310425
 20
320.425415
 30
0.0
 11
619.310425
 21
323.225403
 31
0.0
210
0.0
220
0.0
230
1.0
  0
LINE
  5
192
100
AcDbEntity
  8
0
370
    35
390
0
 62
     7
 48
0.07
100
AcDbLine
 10
619.310425
 20
288.225403
 30
0.0
 11
619.310425
 21
291.025391
 31
0.0
210
0.0
220
0.0
230
1.0
  0
LINE
  5
193
100
AcDbEntity
  8
0
370
    35
390
0
 62
     7
 48
0.15
100
AcDbLine
 10
613.310425
 20
288.225403
 30
0.0
 11
619.310425
 21
288.225403
 31
0.0
210
0.0
220
0.0
230
1.0
  0
LINE
  5
194
100
AcDbEntity
  8
0
370
    35
390
0
 62
     7
 48
0.07
100
AcDbLine
 10
613.310425
 20
291.025391
 30
0.0
 11
613.310425
 21
288.225403
 31
0.0
210
0.0
220
0.0
230
1.0
  0
LINE
  5
195
100
AcDbEntity
  8
0
370
    35
390
0
 62
     7
 48
0.15
100
AcDbLine
 10
619.310425
 20
291.025391
 30
0.0
 11
613.310425
 21
291.025391
 31
0.0
210
0.0
220
0.0
230
1.0
  0
LINE
  5
196
100
AcDbEntity
  8
0
370
    35
390
0
 62
     7
 48
0.15
100
AcDbLine
 10
613.310425
 20
223.225403
 30
0.0
 11
619.310425
 21
223.225403
 31
0.0
210
0.0
220
0.0
230
1.0
  0
LINE
  5
197
100
AcDbEntity
  8
0
370
    35
390
0
 62
     7
 48
0.07
100
AcDbLine
 10
613.310425
 20
223.225403
 30
0.0
 11
613.310425
 21
226.025391
 31
0.0
210
0.0
220
0.0
230
1.0
  0
LINE
  5
198
100
AcDbEntity
  8
0
370
    35
390
0
 62
     7
 48
0.15
100
AcDbLine
 10
619.310425
 20
226.025391
 30
0.0
 11
613.310425
 21
226.025391
 31
0.0
210
0.0
220
0.0
230
1.0
  0
LINE
  5
199
100
AcDbEntity
  8
0
370
    35
390
0
 62
     7
 48
0.07
100
AcDbLine
 10
619.310425
 20
226.025391
 30
0.0
 11
619.310425
 21
223.225403
 31
0.0
210
0.0
220
0.0
230
1.0
  0
LINE
  5
19A
100
AcDbEntity
  8
0
370
    35
390
0
 62
     7
 48
0.07
100
AcDbLine
 10
619.310425
 20
258.225403
 30
0.0
 11
619.310425
 21
255.425415
 31
0.0
210
0.0
220
0.0
230
1.0
  0
LINE
  5
19B
100
AcDbEntity
  8
0
370
    35
390
0
 62
     7
 48
0.15
100
AcDbLine
 10
619.310425
 20
255.425415
 30
0.0
 11
613.310425
 21
255.425415
 31
0.0
210
0.0
220
0.0
230
1.0
  0
LINE
  5
19C
100
AcDbEntity
  8
0
370
    35
390
0
 62
     7
 48
0.07
100
AcDbLine
 10
613.310425
 20
255.425415
 30
0.0
 11
613.310425
 21
258.225403
 31
0.0
210
0.0
220
0.0
230
1.0
  0
LINE
  5
19D
100
AcDbEntity
  8
0
370
    35
390
0
 62
     7
 48
0.15
100
AcDbLine
 10
613.310425
 20
258.225403
 30
0.0
 11
619.310425
 21
258.225403
 31
0.0
210
0.0
220
0.0
230
1.0
  0
LINE
  5
19E
100
AcDbEntity
  8
0
370
    35
390
0
 62
     7
 48
0.07
100
AcDbLine
 10
541.740601
 20
515.634827
 30
0.0
 11
538.940613
 21
515.634827
 31
0.0
210
0.0
220
0.0
230
1.0
  0
LINE
  5
19F
100
AcDbEntity
  8
0
370
    35
390
0
 62
     7
100
AcDbLine
 10
538.940613
 20
515.634827
 30
0.0
 11
538.940613
 21
485.634827
 31
0.0
210
0.0
220
0.0
230
1.0
  0
LINE
  5
1A0
100
AcDbEntity
  8
0
370
    35
390
0
 62
     7
 48
0.07
100
AcDbLine
 10
538.940613
 20
485.634827
 30
0.0
 11
541.740601
 21
485.634827
 31
0.0
210
0.0
220
0.0
230
1.0
  0
LINE
  5
1A1
100
AcDbEntity
  8
0
370
    35
390
0
 62
     7
100
AcDbLine
 10
541.740601
 20
485.634827
 30
0.0
 11
541.740601
 21
450.634827
 31
0.0
210
0.0
220
0.0
230
1.0
  0
LINE
  5
1A2
100
AcDbEntity
  8
0
370
    35
390
0
 62
     7
 48
0.07
100
AcDbLine
 10
541.740601
 20
450.634827
 30
0.0
 11
538.940613
 21
450.634827
 31
0.0
210
0.0
220
0.0
230
1.0
  0
LINE
  5
1A3
100
AcDbEntity
  8
0
370
    35
390
0
 62
     7
100
AcDbLine
 10
538.940613
 20
450.634827
 30
0.0
 11
538.940613
 21
420.634827
 31
0.0
210
0.0
220
0.0
230
1.0
  0
LINE
  5
1A4
100
AcDbEntity
  8
0
370
    35
390
0
 62
     7
 48
0.07
100
AcDbLine
 10
541.740601
 20
420.634827
 30
0.0
 11
538.940613
 21
420.634827
 31
0.0
210
0.0
220
0.0
230
1.0
  0
LINE
  5
1A5
100
AcDbEntity
  8
0
370
    35
390
0
 62
     7
100
AcDbLine
 10
541.740601
 20
420.634827
 30
0.0
 11
541.740601
 21
385.634827
 31
0.0
210
0.0
220
0.0
230
1.0
  0
LINE
  5
1A6
100
AcDbEntity
  8
0
370
    35
390
0
 62
     7
 48
0.07
100
AcDbLine
 10
538.940613
 20
385.634827
 30
0.0
 11
541.740601
 21
385.634827
 31
0.0
210
0.0
220
0.0
230
1.0
  0
LINE
  5
1A7
100
AcDbEntity
  8
0
370
    35
390
0
 62
     7
100
AcDbLine
 10
538.940613
 20
355.634827
 30
0.0
 11
538.940613
 21
385.634827
 31
0.0
210
0.0
220
0.0
230
1.0
  0
LINE
  5
1A8
100
AcDbEntity
  8
0
370
    35
390
0
 62
     7
 48
0.07
100
AcDbLine
 10
541.740601
 20
355.634827
 30
0.0
 11
538.940613
 21
355.634827
 31
0.0
210
0.0
220
0.0
230
1.0
  0
LINE
  5
1A9
100
AcDbEntity
  8
0
370
    35
390
0
 62
     7
 48
0.075
100
AcDbLine
 10
544.740601
 20
355.634827
 30
0.0
 11
541.740601
 21
355.634827
 31
0.0
210
0.0
220
0.0
230
1.0
  0
LINE
  5
1AA
100
AcDbEntity
  8
0
370
    35
390
0
 62
     7
 48
0.07
100
AcDbLine
 10
544.740601
 20
355.634827
 30
0.0
 11
544.740601
 21
358.434814
 31
0.0
210
0.0
220
0.0
230
1.0
  0
LINE
  5
1AB
100
AcDbEntity
  8
0
370
    35
390
0
 62
     7
 48
0.15
100
AcDbLine
 10
544.740601
 20
358.434814
 30
0.0
 11
550.740601
 21
358.434814
 31
0.0
210
0.0
220
0.0
230
1.0
  0
LINE
  5
1AC
100
AcDbEntity
  8
0
370
    35
390
0
 62
     7
 48
0.07
100
AcDbLine
 10
550.740601
 20
355.634827
 30
0.0
 11
550.740601
 21
358.434814
 31
0.0
210
0.0
220
0.0
230
1.0
  0
LINE
  5
1AD
100
AcDbEntity
  8
0
370
    35
390
0
 62
     7
 48
0.075
100
AcDbLine
 10
553.740601
 20
355.634827
 30
0.0
 11
550.740601
 21
355.634827
 31
0.0
210
0.0
220
0.0
230
1.0
  0
LINE
  5
1AE
100
AcDbEntity
  8
0
370
    35
390
0
 62
     7
100
AcDbLine
 10
553.740601
 20
355.634827
 30
0.0
 11
553.740601
 21
515.634827
 31
0.0
210
0.0
220
0.0
230
1.0
  0
LINE
  5
1AF
100
AcDbEntity
  8
0
370
    35
390
0
 62
     7
 48
0.075
100
AcDbLine
 10
550.740601
 20
515.634827
 30
0.0
 11
553.740601
 21
515.634827
 31
0.0
210
0.0
220
0.0
230
1.0
  0
LINE
  5
1B0
100
AcDbEntity
  8
0
370
    35
390
0
 62
     7
 48
0.07
100
AcDbLine
 10
550.740601
 20
515.634827
 30
0.0
 11
550.740601
 21
512.834839
 31
0.0
210
0.0
220
0.0
230
1.0
  0
LINE
  5
1B1
100
AcDbEntity
  8
0
370
    35
390
0
 62
     7
 48
0.15
100
AcDbLine
 10
544.740601
 20
512.834839
 30
0.0
 11
550.740601
 21
512.834839
 31
0.0
210
0.0
220
0.0
230
1.0
  0
LINE
  5
1B2
100
AcDbEntity
  8
0
370
    35
390
0
 62
     7
 48
0.07
100
AcDbLine
 10
544.740601
 20
515.634827
 30
0.0
 11
544.740601
 21
512.834839
 31
0.0
210
0.0
220
0.0
230
1.0
  0
LINE
  5
1B3
100
AcDbEntity
  8
0
370
    35
390
0
 62
     7
 48
0.075
100
AcDbLine
 10
541.740601
 20
515.634827
 30
0.0
 11
544.740601
 21
515.634827
 31
0.0
210
0.0
220
0.0
230
1.0
  0
CIRCLE
  5
1B4
100
AcDbEntity
  8
0
370
    35
390
0
 62
     7
100
AcDbCircle
 10
547.740601
 20
505.634827
 30
0.0
 40
1.5
210
0.0
220
0.0
230
1.0
  0
CIRCLE
  5
1B5
100
AcDbEntity
  8
0
370
    35
390
0
 62
     7
100
AcDbCircle
 10
547.740601
 20
365.634827
 30
0.0
 40
1.5
210
0.0
220
0.0
230
1.0
  0
LINE
  5
1B6
100
AcDbEntity
  8
0
370
    35
390
0
 62
     7
 48
0.15
100
AcDbLine
 10
544.740601
 20
485.634827
 30
0.0
 11
550.740601
 21
485.634827
 31
0.0
210
0.0
220
0.0
230
1.0
  0
LINE
  5
1B7
100
AcDbEntity
  8
0
370
    35
390
0
 62
     7
 48
0.07
100
AcDbLine
 10
550.740601
 20
482.834839
 30
0.0
 11
550.740601
 21
485.634827
 31
0.0
210
0.0
220
0.0
230
1.0
  0
LINE
  5
1B8
100
AcDbEntity
  8
0
370
    35
390
0
 62
     7
 48
0.15
100
AcDbLine
 10
550.740601
 20
482.834839
 30
0.0
 11
544.740601
 21
482.834839
 31
0.0
210
0.0
220
0.0
230
1.0
  0
LINE
  5
1B9
100
AcDbEntity
  8
0
370
    35
390
0
 62
     7
 48
0.07
100
AcDbLine
 10
544.740601
 20
485.634827
 30
0.0
 11
544.740601
 21
482.834839
 31
0.0
210
0.0
220
0.0
230
1.0
  0
LINE
  5
1BA
100
AcDbEntity
  8
0
370
    35
390
0
 62
     7
 48
0.07
100
AcDbLine
 10
544.740601
 20
453.434814
 30
0.0
 11
544.740601
 21
450.634827
 31
0.0
210
0.0
220
0.0
230
1.0
  0
LINE
  5
1BB
100
AcDbEntity
  8
0
370
    35
390
0
 62
     7
 48
0.15
100
AcDbLine
 10
550.740601
 20
453.434814
 30
0.0
 11
544.740601
 21
453.434814
 31
0.0
210
0.0
220
0.0
230
1.0
  0
LINE
  5
1BC
100
AcDbEntity
  8
0
370
    35
390
0
 62
     7
 48
0.07
100
AcDbLine
 10
550.740601
 20
450.634827
 30
0.0
 11
550.740601
 21
453.434814
 31
0.0
210
0.0
220
0.0
230
1.0
  0
LINE
  5
1BD
100
AcDbEntity
  8
0
370
    35
390
0
 62
     7
 48
0.15
100
AcDbLine
 10
544.740601
 20
450.634827
 30
0.0
 11
550.740601
 21
450.634827
 31
0.0
210
0.0
220
0.0
230
1.0
  0
LINE
  5
1BE
100
AcDbEntity
  8
0
370
    35
390
0
 62
     7
 48
0.15
100
AcDbLine
 10
544.740601
 20
385.634827
 30
0.0
 11
550.740601
 21
385.634827
 31
0.0
210
0.0
220
0.0
230
1.0
  0
LINE
  5
1BF
100
AcDbEntity
  8
0
370
    35
390
0
 62
     7
 48
0.07
100
AcDbLine
 10
544.740601
 20
385.634827
 30
0.0
 11
544.740601
 21
388.434814
 31
0.0
210
0.0
220
0.0
230
1.0
  0
LINE
  5
1C0
100
AcDbEntity
  8
0
370
    35
390
0
 62
     7
 48
0.15
100
AcDbLine
 10
550.740601
 20
388.434814
 30
0.0
 11
544.740601
 21
388.434814
 31
0.0
210
0.0
220
0.0
230
1.0
  0
LINE
  5
1C1
100
AcDbEntity
  8
0
370
    35
390
0
 62
     7
 48
0.07
100
AcDbLine
 10
550.740601
 20
388.434814
 30
0.0
 11
550.740601
 21
385.634827
 31
0.0
210
0.0
220
0.0
230
1.0
  0
LINE
  5
1C2
100
AcDbEntity
  8
0
370
    35
390
0
 62
     7
 48
0.07
100
AcDbLine
 10
550.740601
 20
420.634827
 30
0.0
 11
550.740601
 21
417.834839
 31
0.0
210
0.0
220
0.0
230
1.0
  0
LINE
  5
1C3
100
AcDbEntity
  8
0
370
    35
390
0
 62
     7
 48
0.15
100
AcDbLine
 10
550.740601
 20
417.834839
 30
0.0
 11
544.740601
 21
417.834839
 31
0.0
210
0.0
220
0.0
230
1.0
  0
LINE
  5
1C4
100
AcDbEntity
  8
0
370
    35
390
0
 62
     7
 48
0.07
100
AcDbLine
 10
544.740601
 20
417.834839
 30
0.0
 11
544.740601
 21
420.634827
 31
0.0
210
0.0
220
0.0
230
1.0
  0
LINE
  5
1C5
100
AcDbEntity
  8
0
370
    35
390
0
 62
     7
 48
0.15
100
AcDbLine
 10
544.740601
 20
420.634827
 30
0.0
 11
550.740601
 21
420.634827
 31
0.0
210
0.0
220
0.0
230
1.0
  0
LINE
  5
1C6
100
AcDbEntity
  8
0
370
    35
390
0
 62
     7
100
AcDbLine
 10
555.940613
 20
515.634827
 30
0.0
 11
555.940613
 21
485.634827
 31
0.0
210
0.0
220
0.0
230
1.0
  0
LINE
  5
1C7
100
AcDbEntity
  8
0
370
    35
390
0
 62
     7
 48
0.07
100
AcDbLine
 10
555.940613
 20
485.634827
 30
0.0
 11
558.740601
 21
485.634827
 31
0.0
210
0.0
220
0.0
230
1.0
  0
LINE
  5
1C8
100
AcDbEntity
  8
0
370
    35
390
0
 62
     7
100
AcDbLine
 10
558.740601
 20
485.634827
 30
0.0
 11
558.740601
 21
450.634827
 31
0.0
210
0.0
220
0.0
230
1.0
  0
LINE
  5
1C9
100
AcDbEntity
  8
0
370
    35
390
0
 62
     7
 48
0.07
100
AcDbLine
 10
558.740601
 20
450.634827
 30
0.0
 11
555.940613
 21
450.634827
 31
0.0
210
0.0
220
0.0
230
1.0
  0
LINE
  5
1CA
100
AcDbEntity
  8
0
370
    35
390
0
 62
     7
100
AcDbLine
 10
555.940613
 20
450.634827
 30
0.0
 11
555.940613
 21
420.634827
 31
0.0
210
0.0
220
0.0
230
1.0
  0
LINE
  5
1CB
100
AcDbEntity
  8
0
370
    35
390
0
 62
     7
 48
0.07
100
AcDbLine
 10
558.740601
 20
420.634827
 30
0.0
 11
555.940613
 21
420.634827
 31
0.0
210
0.0
220
0.0
230
1.0
  0
LINE
  5
1CC
100
AcDbEntity
  8
0
370
    35
390
0
 62
     7
100
AcDbLine
 10
558.740601
 20
420.634827
 30
0.0
 11
558.740601
 21
385.634827
 31
0.0
210
0.0
220
0.0
230
1.0
  0
LINE
  5
1CD
100
AcDbEntity
  8
0
370
    35
390
0
 62
     7
 48
0.07
100
AcDbLine
 10
555.940613
 20
385.634827
 30
0.0
 11
558.740601
 21
385.634827
 31
0.0
210
0.0
220
0.0
230
1.0
  0
LINE
  5
1CE
100
AcDbEntity
  8
0
370
    35
390
0
 62
     7
100
AcDbLine
 10
555.940613
 20
355.634827
 30
0.0
 11
555.940613
 21
385.634827
 31
0.0
210
0.0
220
0.0
230
1.0
  0
LINE
  5
1CF
100
AcDbEntity
  8
0
370
    35
390
0
 62
     7
 48
0.07
100
AcDbLine
 10
561.740601
 20
355.634827
 30
0.0
 11
561.740601
 21
358.434814
 31
0.0
210
0.0
220
0.0
230
1.0
  0
LINE
  5
1D0
100
AcDbEntity
  8
0
370
    35
390
0
 62
     7
 48
0.15
100
AcDbLine
 10
561.740601
 20
358.434814
 30
0.0
 11
567.740601
 21
358.434814
 31
0.0
210
0.0
220
0.0
230
1.0
  0
LINE
  5
1D1
100
AcDbEntity
  8
0
370
    35
390
0
 62
     7
 48
0.07
100
AcDbLine
 10
567.740601
 20
355.634827
 30
0.0
 11
567.740601
 21
358.434814
 31
0.0
210
0.0
220
0.0
230
1.0
  0
LINE
  5
1D2
100
AcDbEntity
  8
0
370
    35
390
0
 62
     7
 48
0.075
100
AcDbLine
 10
570.740601
 20
355.634827
 30
0.0
 11
567.740601
 21
355.634827
 31
0.0
210
0.0
220
0.0
230
1.0
  0
LINE
  5
1D3
100
AcDbEntity
  8
0
370
    35
390
0
 62
     7
100
AcDbLine
 10
570.740601
 20
355.634827
 30
0.0
 11
570.740601
 21
515.634827
 31
0.0
210
0.0
220
0.0
230
1.0
  0
LINE
  5
1D4
100
AcDbEntity
  8
0
370
    35
390
0
 62
     7
 48
0.075
100
AcDbLine
 10
567.740601
 20
515.634827
 30
0.0
 11
570.740601
 21
515.634827
 31
0.0
210
0.0
220
0.0
230
1.0
  0
LINE
  5
1D5
100
AcDbEntity
  8
0
370
    35
390
0
 62
     7
 48
0.07
100
AcDbLine
 10
567.740601
 20
515.634827
 30
0.0
 11
567.740601
 21
512.834839
 31
0.0
210
0.0
220
0.0
230
1.0
  0
LINE
  5
1D6
100
AcDbEntity
  8
0
370
    35
390
0
 62
     7
 48
0.15
100
AcDbLine
 10
561.740601
 20
512.834839
 30
0.0
 11
567.740601
 21
512.834839
 31
0.0
210
0.0
220
0.0
230
1.0
  0
LINE
  5
1D7
100
AcDbEntity
  8
0
370
    35
390
0
 62
     7
 48
0.07
100
AcDbLine
 10
561.740601
 20
515.634827
 30
0.0
 11
561.740601
 21
512.834839
 31
0.0
210
0.0
220
0.0
230
1.0
  0
CIRCLE
  5
1D8
100
AcDbEntity
  8
0
370
    35
390
0
 62
     7
100
AcDbCircle
 10
564.740601
 20
505.634827
 30
0.0
 40
1.5
210
0.0
220
0.0
230
1.0
  0
CIRCLE
  5
1D9
100
AcDbEntity
  8
0
370
    35
390
0
 62
     7
100
AcDbCircle
 10
564.740601
 20
365.634827
 30
0.0
 40
1.5
210
0.0
220
0.0
230
1.0
  0
LINE
  5
1DA
100
AcDbEntity
  8
0
370
    35
390
0
 62
     7
 48
0.15
100
AcDbLine
 10
561.740601
 20
485.634827
 30
0.0
 11
567.740601
 21
485.634827
 31
0.0
210
0.0
220
0.0
230
1.0
  0
LINE
  5
1DB
100
AcDbEntity
  8
0
370
    35
390
0
 62
     7
 48
0.07
100
AcDbLine
 10
567.740601
 20
482.834839
 30
0.0
 11
567.740601
 21
485.634827
 31
0.0
210
0.0
220
0.0
230
1.0
  0
LINE
  5
1DC
100
AcDbEntity
  8
0
370
    35
390
0
 62
     7
 48
0.15
100
AcDbLine
 10
567.740601
 20
482.834839
 30
0.0
 11
561.740601
 21
482.834839
 31
0.0
210
0.0
220
0.0
230
1.0
  0
LINE
  5
1DD
100
AcDbEntity
  8
0
370
    35
390
0
 62
     7
 48
0.07
100
AcDbLine
 10
561.740601
 20
485.634827
 30
0.0
 11
561.740601
 21
482.834839
 31
0.0
210
0.0
220
0.0
230
1.0
  0
LINE
  5
1DE
100
AcDbEntity
  8
0
370
    35
390
0
 62
     7
 48
0.07
100
AcDbLine
 10
561.740601
 20
453.434814
 30
0.0
 11
561.740601
 21
450.634827
 31
0.0
210
0.0
220
0.0
230
1.0
  0
LINE
  5
1DF
100
AcDbEntity
  8
0
370
    35
390
0
 62
     7
 48
0.15
100
AcDbLine
 10
567.740601
 20
453.434814
 30
0.0
 11
561.740601
 21
453.434814
 31
0.0
210
0.0
220
0.0
230
1.0
  0
LINE
  5
1E0
100
AcDbEntity
  8
0
370
    35
390
0
 62
     7
 48
0.07
100
AcDbLine
 10
567.740601
 20
450.634827
 30
0.0
 11
567.740601
 21
453.434814
 31
0.0
210
0.0
220
0.0
230
1.0
  0
LINE
  5
1E1
100
AcDbEntity
  8
0
370
    35
390
0
 62
     7
 48
0.15
100
AcDbLine
 10
561.740601
 20
450.634827
 30
0.0
 11
567.740601
 21
450.634827
 31
0.0
210
0.0
220
0.0
230
1.0
  0
LINE
  5
1E2
100
AcDbEntity
  8
0
370
    35
390
0
 62
     7
 48
0.15
100
AcDbLine
 10
561.740601
 20
385.634827
 30
0.0
 11
567.740601
 21
385.634827
 31
0.0
210
0.0
220
0.0
230
1.0
  0
LINE
  5
1E3
100
AcDbEntity
  8
0
370
    35
390
0
 62
     7
 48
0.07
100
AcDbLine
 10
561.740601
 20
385.634827
 30
0.0
 11
561.740601
 21
388.434814
 31
0.0
210
0.0
220
0.0
230
1.0
  0
LINE
  5
1E4
100
AcDbEntity
  8
0
370
    35
390
0
 62
     7
 48
0.15
100
AcDbLine
 10
567.740601
 20
388.434814
 30
0.0
 11
561.740601
 21
388.434814
 31
0.0
210
0.0
220
0.0
230
1.0
  0
LINE
  5
1E5
100
AcDbEntity
  8
0
370
    35
390
0
 62
     7
 48
0.07
100
AcDbLine
 10
567.740601
 20
388.434814
 30
0.0
 11
567.740601
 21
385.634827
 31
0.0
210
0.0
220
0.0
230
1.0
  0
LINE
  5
1E6
100
AcDbEntity
  8
0
370
    35
390
0
 62
     7
 48
0.07
100
AcDbLine
 10
567.740601
 20
420.634827
 30
0.0
 11
567.740601
 21
417.834839
 31
0.0
210
0.0
220
0.0
230
1.0
  0
LINE
  5
1E7
100
AcDbEntity
  8
0
370
    35
390
0
 62
     7
 48
0.15
100
AcDbLine
 10
567.740601
 20
417.834839
 30
0.0
 11
561.740601
 21
417.834839
 31
0.0
210
0.0
220
0.0
230
1.0
  0
LINE
  5
1E8
100
AcDbEntity
  8
0
370
    35
390
0
 62
     7
 48
0.07
100
AcDbLine
 10
561.740601
 20
417.834839
 30
0.0
 11
561.740601
 21
420.634827
 31
0.0
210
0.0
220
0.0
230
1.0
  0
LINE
  5
1E9
100
AcDbEntity
  8
0
370
    35
390
0
 62
     7
 48
0.15
100
AcDbLine
 10
561.740601
 20
420.634827
 30
0.0
 11
567.740601
 21
420.634827
 31
0.0
210
0.0
220
0.0
230
1.0
  0
LINE
  5
1EA
100
AcDbEntity
  8
0
370
    35
390
0
 62
     7
 48
0.07
100
AcDbLine
 10
558.740601
 20
515.634827
 30
0.0
 11
555.940613
 21
515.634827
 31
0.0
210
0.0
220
0.0
230
1.0
  0
LINE
  5
1EB
100
AcDbEntity
  8
0
370
    35
390
0
 62
     7
 48
0.07
100
AcDbLine
 10
558.740601
 20
355.634827
 30
0.0
 11
555.940613
 21
355.634827
 31
0.0
210
0.0
220
0.0
230
1.0
  0
LINE
  5
1EC
100
AcDbEntity
  8
0
370
    35
390
0
 62
     7
 48
0.075
100
AcDbLine
 10
561.740601
 20
355.634827
 30
0.0
 11
558.740601
 21
355.634827
 31
0.0
210
0.0
220
0.0
230
1.0
  0
LINE
  5
1ED
100
AcDbEntity
  8
0
370
    35
390
0
 62
     7
 48
0.075
100
AcDbLine
 10
558.740601
 20
515.634827
 30
0.0
 11
561.740601
 21
515.634827
 31
0.0
210
0.0
220
0.0
230
1.0
  0
LINE
  5
1EE
100
AcDbEntity
  8
0
370
    35
390
0
 62
     7
100
AcDbLine
 10
572.940613
 20
515.634827
 30
0.0
 11
572.940613
 21
485.634827
 31
0.0
210
0.0
220
0.0
230
1.0
  0
LINE
  5
1EF
100
AcDbEntity
  8
0
370
    35
390
0
 62
     7
 48
0.07
100
AcDbLine
 10
572.940613
 20
485.634827
 30
0.0
 11
575.740601
 21
485.634827
 31
0.0
210
0.0
220
0.0
230
1.0
  0
LINE
  5
1F0
100
AcDbEntity
  8
0
370
    35
390
0
 62
     7
100
AcDbLine
 10
575.740601
 20
485.634827
 30
0.0
 11
575.740601
 21
450.634827
 31
0.0
210
0.0
220
0.0
230
1.0
  0
LINE
  5
1F1
100
AcDbEntity
  8
0
370
    35
390
0
 62
     7
 48
0.07
100
AcDbLine
 10
575.740601
 20
450.634827
 30
0.0
 11
572.940613
 21
450.634827
 31
0.0
210
0.0
220
0.0
230
1.0
  0
LINE
  5
1F2
100
AcDbEntity
  8
0
370
    35
390
0
 62
     7
100
AcDbLine
 10
572.940613
 20
450.634827
 30
0.0
 11
572.940613
 21
420.634827
 31
0.0
210
0.0
220
0.0
230
1.0
  0
LINE
  5
1F3
100
AcDbEntity
  8
0
370
    35
390
0
 62
     7
 48
0.07
100
AcDbLine
 10
575.740601
 20
420.634827
 30
0.0
 11
572.940613
 21
420.634827
 31
0.0
210
0.0
220
0.0
230
1.0
  0
LINE
  5
1F4
100
AcDbEntity
  8
0
370
    35
390
0
 62
     7
100
AcDbLine
 10
575.740601
 20
420.634827
 30
0.0
 11
575.740601
 21
385.634827
 31
0.0
210
0.0
220
0.0
230
1.0
  0
LINE
  5
1F5
100
AcDbEntity
  8
0
370
    35
390
0
 62
     7
 48
0.07
100
AcDbLine
 10
572.940613
 20
385.634827
 30
0.0
 11
575.740601
 21
385.634827
 31
0.0
210
0.0
220
0.0
230
1.0
  0
LINE
  5
1F6
100
AcDbEntity
  8
0
370
    35
390
0
 62
     7
100
AcDbLine
 10
572.940613
 20
355.634827
 30
0.0
 11
572.940613
 21
385.634827
 31
0.0
210
0.0
220
0.0
230
1.0
  0
LINE
  5
1F7
100
AcDbEntity
  8
0
370
    35
390
0
 62
     7
 48
0.07
100
AcDbLine
 10
578.740601
 20
355.634827
 30
0.0
 11
578.740601
 21
358.434814
 31
0.0
210
0.0
220
0.0
230
1.0
  0
LINE
  5
1F8
100
AcDbEntity
  8
0
370
    35
390
0
 62
     7
 48
0.15
100
AcDbLine
 10
578.740601
 20
358.434814
 30
0.0
 11
584.740601
 21
358.434814
 31
0.0
210
0.0
220
0.0
230
1.0
  0
LINE
  5
1F9
100
AcDbEntity
  8
0
370
    35
390
0
 62
     7
 48
0.07
100
AcDbLine
 10
584.740601
 20
355.634827
 30
0.0
 11
584.740601
 21
358.434814
 31
0.0
210
0.0
220
0.0
230
1.0
  0
LINE
  5
1FA
100
AcDbEntity
  8
0
370
    35
390
0
 62
     7
 48
0.075
100
AcDbLine
 10
587.740601
 20
355.634827
 30
0.0
 11
584.740601
 21
355.634827
 31
0.0
210
0.0
220
0.0
230
1.0
  0
LINE
  5
1FB
100
AcDbEntity
  8
0
370
    35
390
0
 62
     7
100
AcDbLine
 10
587.740601
 20
355.634827
 30
0.0
 11
587.740601
 21
515.634827
 31
0.0
210
0.0
220
0.0
230
1.0
  0
LINE
  5
1FC
100
AcDbEntity
  8
0
370
    35
390
0
 62
     7
 48
0.075
100
AcDbLine
 10
584.740601
 20
515.634827
 30
0.0
 11
587.740601
 21
515.634827
 31
0.0
210
0.0
220
0.0
230
1.0
  0
LINE
  5
1FD
100
AcDbEntity
  8
0
370
    35
390
0
 62
     7
 48
0.07
100
AcDbLine
 10
584.740601
 20
515.634827
 30
0.0
 11
584.740601
 21
512.834839
 31
0.0
210
0.0
220
0.0
230
1.0
  0
LINE
  5
1FE
100
AcDbEntity
  8
0
370
    35
390
0
 62
     7
 48
0.15
100
AcDbLine
 10
578.740601
 20
512.834839
 30
0.0
 11
584.740601
 21
512.834839
 31
0.0
210
0.0
220
0.0
230
1.0
  0
LINE
  5
1FF
100
AcDbEntity
  8
0
370
    35
390
0
 62
     7
 48
0.07
100
AcDbLine
 10
578.740601
 20
515.634827
 30
0.0
 11
578.740601
 21
512.834839
 31
0.0
210
0.0
220
0.0
230
1.0
  0
CIRCLE
  5
200
100
AcDbEntity
  8
0
370
    35
390
0
 62
     7
100
AcDbCircle
 10
581.740601
 20
505.634827
 30
0.0
 40
1.5
210
0.0
220
0.0
230
1.0
  0
CIRCLE
  5
201
100
AcDbEntity
  8
0
370
    35
390
0
 62
     7
100
AcDbCircle
 10
581.740601
 20
365.634827
 30
0.0
 40
1.5
210
0.0
220
0.0
230
1.0
  0
LINE
  5
202
100
AcDbEntity
  8
0
370
    35
390
0
 62
     7
 48
0.15
100
AcDbLine
 10
578.740601
 20
485.634827
 30
0.0
 11
584.740601
 21
485.634827
 31
0.0
210
0.0
220
0.0
230
1.0
  0
LINE
  5
203
100
AcDbEntity
  8
0
370
    35
390
0
 62
     7
 48
0.07
100
AcDbLine
 10
584.740601
 20
482.834839
 30
0.0
 11
584.740601
 21
485.634827
 31
0.0
210
0.0
220
0.0
230
1.0
  0
LINE
  5
204
100
AcDbEntity
  8
0
370
    35
390
0
 62
     7
 48
0.15
100
AcDbLine
 10
584.740601
 20
482.834839
 30
0.0
 11
578.740601
 21
482.834839
 31
0.0
210
0.0
220
0.0
230
1.0
  0
LINE
  5
205
100
AcDbEntity
  8
0
370
    35
390
0
 62
     7
 48
0.07
100
AcDbLine
 10
578.740601
 20
485.634827
 30
0.0
 11
578.740601
 21
482.834839
 31
0.0
210
0.0
220
0.0
230
1.0
  0
LINE
  5
206
100
AcDbEntity
  8
0
370
    35
390
0
 62
     7
 48
0.07
100
AcDbLine
 10
578.740601
 20
453.434814
 30
0.0
 11
578.740601
 21
450.634827
 31
0.0
210
0.0
220
0.0
230
1.0
  0
LINE
  5
207
100
AcDbEntity
  8
0
370
    35
390
0
 62
     7
 48
0.15
100
AcDbLine
 10
584.740601
 20
453.434814
 30
0.0
 11
578.740601
 21
453.434814
 31
0.0
210
0.0
220
0.0
230
1.0
  0
LINE
  5
208
100
AcDbEntity
  8
0
370
    35
390
0
 62
     7
 48
0.07
100
AcDbLine
 10
584.740601
 20
450.634827
 30
0.0
 11
584.740601
 21
453.434814
 31
0.0
210
0.0
220
0.0
230
1.0
  0
LINE
  5
209
100
AcDbEntity
  8
0
370
    35
390
0
 62
     7
 48
0.15
100
AcDbLine
 10
578.740601
 20
450.634827
 30
0.0
 11
584.740601
 21
450.634827
 31
0.0
210
0.0
220
0.0
230
1.0
  0
LINE
  5
20A
100
AcDbEntity
  8
0
370
    35
390
0
 62
     7
 48
0.15
100
AcDbLine
 10
578.740601
 20
385.634827
 30
0.0
 11
584.740601
 21
385.634827
 31
0.0
210
0.0
220
0.0
230
1.0
  0
LINE
  5
20B
100
AcDbEntity
  8
0
370
    35
390
0
 62
     7
 48
0.07
100
AcDbLine
 10
578.740601
 20
385.634827
 30
0.0
 11
578.740601
 21
388.434814
 31
0.0
210
0.0
220
0.0
230
1.0
  0
LINE
  5
20C
100
AcDbEntity
  8
0
370
    35
390
0
 62
     7
 48
0.15
100
AcDbLine
 10
584.740601
 20
388.434814
 30
0.0
 11
578.740601
 21
388.434814
 31
0.0
210
0.0
220
0.0
230
1.0
  0
LINE
  5
20D
100
AcDbEntity
  8
0
370
    35
390
0
 62
     7
 48
0.07
100
AcDbLine
 10
584.740601
 20
388.434814
 30
0.0
 11
584.740601
 21
385.634827
 31
0.0
210
0.0
220
0.0
230
1.0
  0
LINE
  5
20E
100
AcDbEntity
  8
0
370
    35
390
0
 62
     7
 48
0.07
100
AcDbLine
 10
584.740601
 20
420.634827
 30
0.0
 11
584.740601
 21
417.834839
 31
0.0
210
0.0
220
0.0
230
1.0
  0
LINE
  5
20F
100
AcDbEntity
  8
0
370
    35
390
0
 62
     7
 48
0.15
100
AcDbLine
 10
584.740601
 20
417.834839
 30
0.0
 11
578.740601
 21
417.834839
 31
0.0
210
0.0
220
0.0
230
1.0
  0
LINE
  5
210
100
AcDbEntity
  8
0
370
    35
390
0
 62
     7
 48
0.07
100
AcDbLine
 10
578.740601
 20
417.834839
 30
0.0
 11
578.740601
 21
420.634827
 31
0.0
210
0.0
220
0.0
230
1.0
  0
LINE
  5
211
100
AcDbEntity
  8
0
370
    35
390
0
 62
     7
 48
0.15
100
AcDbLine
 10
578.740601
 20
420.634827
 30
0.0
 11
584.740601
 21
420.634827
 31
0.0
210
0.0
220
0.0
230
1.0
  0
LINE
  5
212
100
AcDbEntity
  8
0
370
    35
390
0
 62
     7
 48
0.07
100
AcDbLine
 10
575.740601
 20
515.634827
 30
0.0
 11
572.940613
 21
515.634827
 31
0.0
210
0.0
220
0.0
230
1.0
  0
LINE
  5
213
100
AcDbEntity
  8
0
370
    35
390
0
 62
     7
 48
0.07
100
AcDbLine
 10
575.740601
 20
355.634827
 30
0.0
 11
572.940613
 21
355.634827
 31
0.0
210
0.0
220
0.0
230
1.0
  0
LINE
  5
214
100
AcDbEntity
  8
0
370
    35
390
0
 62
     7
 48
0.075
100
AcDbLine
 10
578.740601
 20
355.634827
 30
0.0
 11
575.740601
 21
355.634827
 31
0.0
210
0.0
220
0.0
230
1.0
  0
LINE
  5
215
100
AcDbEntity
  8
0
370
    35
390
0
 62
     7
 48
0.075
100
AcDbLine
 10
575.740601
 20
515.634827
 30
0.0
 11
578.740601
 21
515.634827
 31
0.0
210
0.0
220
0.0
230
1.0
  0
LINE
  5
216
100
AcDbEntity
  8
0
370
    35
390
0
 62
     7
100
AcDbLine
 10
589.940613
 20
515.634827
 30
0.0
 11
589.940613
 21
485.634827
 31
0.0
210
0.0
220
0.0
230
1.0
  0
LINE
  5
217
100
AcDbEntity
  8
0
370
    35
390
0
 62
     7
 48
0.07
100
AcDbLine
 10
589.940613
 20
485.634827
 30
0.0
 11
592.740601
 21
485.634827
 31
0.0
210
0.0
220
0.0
230
1.0
  0
LINE
  5
218
100
AcDbEntity
  8
0
370
    35
390
0
 62
     7
100
AcDbLine
 10
592.740601
 20
485.634827
 30
0.0
 11
592.740601
 21
450.634827
 31
0.0
210
0.0
220
0.0
230
1.0
  0
LINE
  5
219
100
AcDbEntity
  8
0
370
    35
390
0
 62
     7
 48
0.07
100
AcDbLine
 10
592.740601
 20
450.634827
 30
0.0
 11
589.940613
 21
450.634827
 31
0.0
210
0.0
220
0.0
230
1.0
  0
LINE
  5
21A
100
AcDbEntity
  8
0
370
    35
390
0
 62
     7
100
AcDbLine
 10
589.940613
 20
450.634827
 30
0.0
 11
589.940613
 21
420.634827
 31
0.0
210
0.0
220
0.0
230
1.0
  0
LINE
  5
21B
100
AcDbEntity
  8
0
370
    35
390
0
 62
     7
 48
0.07
100
AcDbLine
 10
592.740601
 20
420.634827
 30
0.0
 11
589.940613
 21
420.634827
 31
0.0
210
0.0
220
0.0
230
1.0
  0
LINE
  5
21C
100
AcDbEntity
  8
0
370
    35
390
0
 62
     7
100
AcDbLine
 10
592.740601
 20
420.634827
 30
0.0
 11
592.740601
 21
385.634827
 31
0.0
210
0.0
220
0.0
230
1.0
  0
LINE
  5
21D
100
AcDbEntity
  8
0
370
    35
390
0
 62
     7
 48
0.07
100
AcDbLine
 10
589.940613
 20
385.634827
 30
0.0
 11
592.740601
 21
385.634827
 31
0.0
210
0.0
220
0.0
230
1.0
  0
LINE
  5
21E
100
AcDbEntity
  8
0
370
    35
390
0
 62
     7
100
AcDbLine
 10
589.940613
 20
355.634827
 30
0.0
 11
589.940613
 21
385.634827
 31
0.0
210
0.0
220
0.0
230
1.0
  0
LINE
  5
21F
100
AcDbEntity
  8
0
370
    35
390
0
 62
     7
 48
0.07
100
AcDbLine
 10
595.740601
 20
355.634827
 30
0.0
 11
595.740601
 21
358.434814
 31
0.0
210
0.0
220
0.0
230
1.0
  0
LINE
  5
220
100
AcDbEntity
  8
0
370
    35
390
0
 62
     7
 48
0.15
100
AcDbLine
 10
595.740601
 20
358.434814
 30
0.0
 11
601.740601
 21
358.434814
 31
0.0
210
0.0
220
0.0
230
1.0
  0
LINE
  5
221
100
AcDbEntity
  8
0
370
    35
390
0
 62
     7
 48
0.07
100
AcDbLine
 10
601.740601
 20
355.634827
 30
0.0
 11
601.740601
 21
358.434814
 31
0.0
210
0.0
220
0.0
230
1.0
  0
LINE
  5
222
100
AcDbEntity
  8
0
370
    35
390
0
 62
     7
 48
0.075
100
AcDbLine
 10
604.740601
 20
355.634827
 30
0.0
 11
601.740601
 21
355.634827
 31
0.0
210
0.0
220
0.0
230
1.0
  0
LINE
  5
223
100
AcDbEntity
  8
0
370
    35
390
0
 62
     7
100
AcDbLine
 10
604.740601
 20
355.634827
 30
0.0
 11
604.740601
 21
515.634827
 31
0.0
210
0.0
220
0.0
230
1.0
  0
LINE
  5
224
100
AcDbEntity
  8
0
370
    35
390
0
 62
     7
 48
0.075
100
AcDbLine
 10
601.740601
 20
515.634827
 30
0.0
 11
604.740601
 21
515.634827
 31
0.0
210
0.0
220
0.0
230
1.0
  0
LINE
  5
225
100
AcDbEntity
  8
0
370
    35
390
0
 62
     7
 48
0.07
100
AcDbLine
 10
601.740601
 20
515.634827
 30
0.0
 11
601.740601
 21
512.834839
 31
0.0
210
0.0
220
0.0
230
1.0
  0
LINE
  5
226
100
AcDbEntity
  8
0
370
    35
390
0
 62
     7
 48
0.15
100
AcDbLine
 10
595.740601
 20
512.834839
 30
0.0
 11
601.740601
 21
512.834839
 31
0.0
210
0.0
220
0.0
230
1.0
  0
LINE
  5
227
100
AcDbEntity
  8
0
370
    35
390
0
 62
     7
 48
0.07
100
AcDbLine
 10
595.740601
 20
515.634827
 30
0.0
 11
595.740601
 21
512.834839
 31
0.0
210
0.0
220
0.0
230
1.0
  0
CIRCLE
  5
228
100
AcDbEntity
  8
0
370
    35
390
0
 62
     7
100
AcDbCircle
 10
598.740601
 20
505.634827
 30
0.0
 40
1.5
210
0.0
220
0.0
230
1.0
  0
CIRCLE
  5
229
100
AcDbEntity
  8
0
370
    35
390
0
 62
     7
100
AcDbCircle
 10
598.740601
 20
365.634827
 30
0.0
 40
1.5
210
0.0
220
0.0
230
1.0
  0
LINE
  5
22A
100
AcDbEntity
  8
0
370
    35
390
0
 62
     7
 48
0.15
100
AcDbLine
 10
595.740601
 20
485.634827
 30
0.0
 11
601.740601
 21
485.634827
 31
0.0
210
0.0
220
0.0
230
1.0
  0
LINE
  5
22B
100
AcDbEntity
  8
0
370
    35
390
0
 62
     7
 48
0.07
100
AcDbLine
 10
601.740601
 20
482.834839
 30
0.0
 11
601.740601
 21
485.634827
 31
0.0
210
0.0
220
0.0
230
1.0
  0
LINE
  5
22C
100
AcDbEntity
  8
0
370
    35
390
0
 62
     7
 48
0.15
100
AcDbLine
 10
601.740601
 20
482.834839
 30
0.0
 11
595.740601
 21
482.834839
 31
0.0
210
0.0
220
0.0
230
1.0
  0
LINE
  5
22D
100
AcDbEntity
  8
0
370
    35
390
0
 62
     7
 48
0.07
100
AcDbLine
 10
595.740601
 20
485.634827
 30
0.0
 11
595.740601
 21
482.834839
 31
0.0
210
0.0
220
0.0
230
1.0
  0
LINE
  5
22E
100
AcDbEntity
  8
0
370
    35
390
0
 62
     7
 48
0.07
100
AcDbLine
 10
595.740601
 20
453.434814
 30
0.0
 11
595.740601
 21
450.634827
 31
0.0
210
0.0
220
0.0
230
1.0
  0
LINE
  5
22F
100
AcDbEntity
  8
0
370
    35
390
0
 62
     7
 48
0.15
100
AcDbLine
 10
601.740601
 20
453.434814
 30
0.0
 11
595.740601
 21
453.434814
 31
0.0
210
0.0
220
0.0
230
1.0
  0
LINE
  5
230
100
AcDbEntity
  8
0
370
    35
390
0
 62
     7
 48
0.07
100
AcDbLine
 10
601.740601
 20
450.634827
 30
0.0
 11
601.740601
 21
453.434814
 31
0.0
210
0.0
220
0.0
230
1.0
  0
LINE
  5
231
100
AcDbEntity
  8
0
370
    35
390
0
 62
     7
 48
0.15
100
AcDbLine
 10
595.740601
 20
450.634827
 30
0.0
 11
601.740601
 21
450.634827
 31
0.0
210
0.0
220
0.0
230
1.0
  0
LINE
  5
232
100
AcDbEntity
  8
0
370
    35
390
0
 62
     7
 48
0.15
100
AcDbLine
 10
595.740601
 20
385.634827
 30
0.0
 11
601.740601
 21
385.634827
 31
0.0
210
0.0
220
0.0
230
1.0
  0
LINE
  5
233
100
AcDbEntity
  8
0
370
    35
390
0
 62
     7
 48
0.07
100
AcDbLine
 10
595.740601
 20
385.634827
 30
0.0
 11
595.740601
 21
388.434814
 31
0.0
210
0.0
220
0.0
230
1.0
  0
LINE
  5
234
100
AcDbEntity
  8
0
370
    35
390
0
 62
     7
 48
0.15
100
AcDbLine
 10
601.740601
 20
388.434814
 30
0.0
 11
595.740601
 21
388.434814
 31
0.0
210
0.0
220
0.0
230
1.0
  0
LINE
  5
235
100
AcDbEntity
  8
0
370
    35
390
0
 62
     7
 48
0.07
100
AcDbLine
 10
601.740601
 20
388.434814
 30
0.0
 11
601.740601
 21
385.634827
 31
0.0
210
0.0
220
0.0
230
1.0
  0
LINE
  5
236
100
AcDbEntity
  8
0
370
    35
390
0
 62
     7
 48
0.07
100
AcDbLine
 10
601.740601
 20
420.634827
 30
0.0
 11
601.740601
 21
417.834839
 31
0.0
210
0.0
220
0.0
230
1.0
  0
LINE
  5
237
100
AcDbEntity
  8
0
370
    35
390
0
 62
     7
 48
0.15
100
AcDbLine
 10
601.740601
 20
417.834839
 30
0.0
 11
595.740601
 21
417.834839
 31
0.0
210
0.0
220
0.0
230
1.0
  0
LINE
  5
238
100
AcDbEntity
  8
0
370
    35
390
0
 62
     7
 48
0.07
100
AcDbLine
 10
595.740601
 20
417.834839
 30
0.0
 11
595.740601
 21
420.634827
 31
0.0
210
0.0
220
0.0
230
1.0
  0
LINE
  5
239
100
AcDbEntity
  8
0
370
    35
390
0
 62
     7
 48
0.15
100
AcDbLine
 10
595.740601
 20
420.634827
 30
0.0
 11
601.740601
 21
420.634827
 31
0.0
210
0.0
220
0.0
230
1.0
  0
LINE
  5
23A
100
AcDbEntity
  8
0
370
    35
390
0
 62
     7
 48
0.07
100
AcDbLine
 10
592.740601
 20
515.634827
 30
0.0
 11
589.940613
 21
515.634827
 31
0.0
210
0.0
220
0.0
230
1.0
  0
LINE
  5
23B
100
AcDbEntity
  8
0
370
    35
390
0
 62
     7
 48
0.07
100
AcDbLine
 10
592.740601
 20
355.634827
 30
0.0
 11
589.940613
 21
355.634827
 31
0.0
210
0.0
220
0.0
230
1.0
  0
LINE
  5
23C
100
AcDbEntity
  8
0
370
    35
390
0
 62
     7
 48
0.075
100
AcDbLine
 10
595.740601
 20
355.634827
 30
0.0
 11
592.740601
 21
355.634827
 31
0.0
210
0.0
220
0.0
230
1.0
  0
LINE
  5
23D
100
AcDbEntity
  8
0
370
    35
390
0
 62
     7
 48
0.075
100
AcDbLine
 10
592.740601
 20
515.634827
 30
0.0
 11
595.740601
 21
515.634827
 31
0.0
210
0.0
220
0.0
230
1.0
  0
LINE
  5
23E
100
AcDbEntity
  8
0
370
    35
390
0
 62
     7
100
AcDbLine
 10
606.940613
 20
515.634827
 30
0.0
 11
606.940613
 21
485.634827
 31
0.0
210
0.0
220
0.0
230
1.0
  0
LINE
  5
23F
100
AcDbEntity
  8
0
370
    35
390
0
 62
     7
 48
0.07
100
AcDbLine
 10
606.940613
 20
485.634827
 30
0.0
 11
609.740601
 21
485.634827
 31
0.0
210
0.0
220
0.0
230
1.0
  0
LINE
  5
240
100
AcDbEntity
  8
0
370
    35
390
0
 62
     7
100
AcDbLine
 10
609.740601
 20
485.634827
 30
0.0
 11
609.740601
 21
450.634827
 31
0.0
210
0.0
220
0.0
230
1.0
  0
LINE
  5
241
100
AcDbEntity
  8
0
370
    35
390
0
 62
     7
 48
0.07
100
AcDbLine
 10
609.740601
 20
450.634827
 30
0.0
 11
606.940613
 21
450.634827
 31
0.0
210
0.0
220
0.0
230
1.0
  0
LINE
  5
242
100
AcDbEntity
  8
0
370
    35
390
0
 62
     7
100
AcDbLine
 10
606.940613
 20
450.634827
 30
0.0
 11
606.940613
 21
420.634827
 31
0.0
210
0.0
220
0.0
230
1.0
  0
LINE
  5
243
100
AcDbEntity
  8
0
370
    35
390
0
 62
     7
 48
0.07
100
AcDbLine
 10
609.740601
 20
420.634827
 30
0.0
 11
606.940613
 21
420.634827
 31
0.0
210
0.0
220
0.0
230
1.0
  0
LINE
  5
244
100
AcDbEntity
  8
0
370
    35
390
0
 62
     7
100
AcDbLine
 10
609.740601
 20
420.634827
 30
0.0
 11
609.740601
 21
385.634827
 31
0.0
210
0.0
220
0.0
230
1.0
  0
LINE
  5
245
100
AcDbEntity
  8
0
370
    35
390
0
 62
     7
 48
0.07
100
AcDbLine
 10
606.940613
 20
385.634827
 30
0.0
 11
609.740601
 21
385.634827
 31
0.0
210
0.0
220
0.0
230
1.0
  0
LINE
  5
246
100
AcDbEntity
  8
0
370
    35
390
0
 62
     7
100
AcDbLine
 10
606.940613
 20
355.634827
 30
0.0
 11
606.940613
 21
385.634827
 31
0.0
210
0.0
220
0.0
230
1.0
  0
LINE
  5
247
100
AcDbEntity
  8
0
370
    35
390
0
 62
     7
 48
0.07
100
AcDbLine
 10
612.740601
 20
355.634827
 30
0.0
 11
612.740601
 21
358.434814
 31
0.0
210
0.0
220
0.0
230
1.0
  0
LINE
  5
248
100
AcDbEntity
  8
0
370
    35
390
0
 62
     7
 48
0.15
100
AcDbLine
 10
612.740601
 20
358.434814
 30
0.0
 11
618.740601
 21
358.434814
 31
0.0
210
0.0
220
0.0
230
1.0
  0
LINE
  5
249
100
AcDbEntity
  8
0
370
    35
390
0
 62
     7
 48
0.07
100
AcDbLine
 10
618.740601
 20
355.634827
 30
0.0
 11
618.740601
 21
358.434814
 31
0.0
210
0.0
220
0.0
230
1.0
  0
LINE
  5
24A
100
AcDbEntity
  8
0
370
    35
390
0
 62
     7
 48
0.075
100
AcDbLine
 10
621.740601
 20
355.634827
 30
0.0
 11
618.740601
 21
355.634827
 31
0.0
210
0.0
220
0.0
230
1.0
  0
LINE
  5
24B
100
AcDbEntity
  8
0
370
    35
390
0
 62
     7
100
AcDbLine
 10
621.740601
 20
355.634827
 30
0.0
 11
621.740601
 21
515.634827
 31
0.0
210
0.0
220
0.0
230
1.0
  0
LINE
  5
24C
100
AcDbEntity
  8
0
370
    35
390
0
 62
     7
 48
0.075
100
AcDbLine
 10
618.740601
 20
515.634827
 30
0.0
 11
621.740601
 21
515.634827
 31
0.0
210
0.0
220
0.0
230
1.0
  0
LINE
  5
24D
100
AcDbEntity
  8
0
370
    35
390
0
 62
     7
 48
0.07
100
AcDbLine
 10
618.740601
 20
515.634827
 30
0.0
 11
618.740601
 21
512.834839
 31
0.0
210
0.0
220
0.0
230
1.0
  0
LINE
  5
24E
100
AcDbEntity
  8
0
370
    35
390
0
 62
     7
 48
0.15
100
AcDbLine
 10
612.740601
 20
512.834839
 30
0.0
 11
618.740601
 21
512.834839
 31
0.0
210
0.0
220
0.0
230
1.0
  0
LINE
  5
24F
100
AcDbEntity
  8
0
370
    35
390
0
 62
     7
 48
0.07
100
AcDbLine
 10
612.740601
 20
515.634827
 30
0.0
 11
612.740601
 21
512.834839
 31
0.0
210
0.0
220
0.0
230
1.0
  0
CIRCLE
  5
250
100
AcDbEntity
  8
0
370
    35
390
0
 62
     7
100
AcDbCircle
 10
615.740601
 20
505.634827
 30
0.0
 40
1.5
210
0.0
220
0.0
230
1.0
  0
CIRCLE
  5
251
100
AcDbEntity
  8
0
370
    35
390
0
 62
     7
100
AcDbCircle
 10
615.740601
 20
365.634827
 30
0.0
 40
1.5
210
0.0
220
0.0
230
1.0
  0
LINE
  5
252
100
AcDbEntity
  8
0
370
    35
390
0
 62
     7
 48
0.15
100
AcDbLine
 10
612.740601
 20
485.634827
 30
0.0
 11
618.740601
 21
485.634827
 31
0.0
210
0.0
220
0.0
230
1.0
  0
LINE
  5
253
100
AcDbEntity
  8
0
370
    35
390
0
 62
     7
 48
0.07
100
AcDbLine
 10
618.740601
 20
482.834839
 30
0.0
 11
618.740601
 21
485.634827
 31
0.0
210
0.0
220
0.0
230
1.0
  0
LINE
  5
254
100
AcDbEntity
  8
0
370
    35
390
0
 62
     7
 48
0.15
100
AcDbLine
 10
618.740601
 20
482.834839
 30
0.0
 11
612.740601
 21
482.834839
 31
0.0
210
0.0
220
0.0
230
1.0
  0
LINE
  5
255
100
AcDbEntity
  8
0
370
    35
390
0
 62
     7
 48
0.07
100
AcDbLine
 10
612.740601
 20
485.634827
 30
0.0
 11
612.740601
 21
482.834839
 31
0.0
210
0.0
220
0.0
230
1.0
  0
LINE
  5
256
100
AcDbEntity
  8
0
370
    35
390
0
 62
     7
 48
0.07
100
AcDbLine
 10
612.740601
 20
453.434814
 30
0.0
 11
612.740601
 21
450.634827
 31
0.0
210
0.0
220
0.0
230
1.0
  0
LINE
  5
257
100
AcDbEntity
  8
0
370
    35
390
0
 62
     7
 48
0.15
100
AcDbLine
 10
618.740601
 20
453.434814
 30
0.0
 11
612.740601
 21
453.434814
 31
0.0
210
0.0
220
0.0
230
1.0
  0
LINE
  5
258
100
AcDbEntity
  8
0
370
    35
390
0
 62
     7
 48
0.07
100
AcDbLine
 10
618.740601
 20
450.634827
 30
0.0
 11
618.740601
 21
453.434814
 31
0.0
210
0.0
220
0.0
230
1.0
  0
LINE
  5
259
100
AcDbEntity
  8
0
370
    35
390
0
 62
     7
 48
0.15
100
AcDbLine
 10
612.740601
 20
450.634827
 30
0.0
 11
618.740601
 21
450.634827
 31
0.0
210
0.0
220
0.0
230
1.0
  0
LINE
  5
25A
100
AcDbEntity
  8
0
370
    35
390
0
 62
     7
 48
0.15
100
AcDbLine
 10
612.740601
 20
385.634827
 30
0.0
 11
618.740601
 21
385.634827
 31
0.0
210
0.0
220
0.0
230
1.0
  0
LINE
  5
25B
100
AcDbEntity
  8
0
370
    35
390
0
 62
     7
 48
0.07
100
AcDbLine
 10
612.740601
 20
385.634827
 30
0.0
 11
612.740601
 21
388.434814
 31
0.0
210
0.0
220
0.0
230
1.0
  0
LINE
  5
25C
100
AcDbEntity
  8
0
370
    35
390
0
 62
     7
 48
0.15
100
AcDbLine
 10
618.740601
 20
388.434814
 30
0.0
 11
612.740601
 21
388.434814
 31
0.0
210
0.0
220
0.0
230
1.0
  0
LINE
  5
25D
100
AcDbEntity
  8
0
370
    35
390
0
 62
     7
 48
0.07
100
AcDbLine
 10
618.740601
 20
388.434814
 30
0.0
 11
618.740601
 21
385.634827
 31
0.0
210
0.0
220
0.0
230
1.0
  0
LINE
  5
25E
100
AcDbEntity
  8
0
370
    35
390
0
 62
     7
 48
0.07
100
AcDbLine
 10
618.740601
 20
420.634827
 30
0.0
 11
618.740601
 21
417.834839
 31
0.0
210
0.0
220
0.0
230
1.0
  0
LINE
  5
25F
100
AcDbEntity
  8
0
370
    35
390
0
 62
     7
 48
0.15
100
AcDbLine
 10
618.740601
 20
417.834839
 30
0.0
 11
612.740601
 21
417.834839
 31
0.0
210
0.0
220
0.0
230
1.0
  0
LINE
  5
260
100
AcDbEntity
  8
0
370
    35
390
0
 62
     7
 48
0.07
100
AcDbLine
 10
612.740601
 20
417.834839
 30
0.0
 11
612.740601
 21
420.634827
 31
0.0
210
0.0
220
0.0
230
1.0
  0
LINE
  5
261
100
AcDbEntity
  8
0
370
    35
390
0
 62
     7
 48
0.15
100
AcDbLine
 10
612.740601
 20
420.634827
 30
0.0
 11
618.740601
 21
420.634827
 31
0.0
210
0.0
220
0.0
230
1.0
  0
LINE
  5
262
100
AcDbEntity
  8
0
370
    35
390
0
 62
     7
 48
0.07
100
AcDbLine
 10
609.740601
 20
515.634827
 30
0.0
 11
606.940613
 21
515.634827
 31
0.0
210
0.0
220
0.0
230
1.0
  0
LINE
  5
263
100
AcDbEntity
  8
0
370
    35
390
0
 62
     7
 48
0.07
100
AcDbLine
 10
609.740601
 20
355.634827
 30
0.0
 11
606.940613
 21
355.634827
 31
0.0
210
0.0
220
0.0
230
1.0
  0
LINE
  5
264
100
AcDbEntity
  8
0
370
    35
390
0
 62
     7
 48
0.075
100
AcDbLine
 10
612.740601
 20
355.634827
 30
0.0
 11
609.740601
 21
355.634827
 31
0.0
210
0.0
220
0.0
230
1.0
  0
LINE
  5
265
100
AcDbEntity
  8
0
370
    35
390
0
 62
     7
 48
0.075
100
AcDbLine
 10
609.740601
 20
515.634827
 30
0.0
 11
612.740601
 21
515.634827
 31
0.0
210
0.0
220
0.0
230
1.0
  0
LINE
  5
266
100
AcDbEntity
  8
0
370
    35
390
0
 62
     7
100
AcDbLine
 10
623.940613
 20
515.634827
 30
0.0
 11
623.940613
 21
485.634827
 31
0.0
210
0.0
220
0.0
230
1.0
  0
LINE
  5
267
100
AcDbEntity
  8
0
370
    35
390
0
 62
     7
 48
0.07
100
AcDbLine
 10
623.940613
 20
485.634827
 30
0.0
 11
626.740601
 21
485.634827
 31
0.0
210
0.0
220
0.0
230
1.0
  0
LINE
  5
268
100
AcDbEntity
  8
0
370
    35
390
0
 62
     7
100
AcDbLine
 10
626.740601
 20
485.634827
 30
0.0
 11
626.740601
 21
450.634827
 31
0.0
210
0.0
220
0.0
230
1.0
  0
LINE
  5
269
100
AcDbEntity
  8
0
370
    35
390
0
 62
     7
 48
0.07
100
AcDbLine
 10
626.740601
 20
450.634827
 30
0.0
 11
623.940613
 21
450.634827
 31
0.0
210
0.0
220
0.0
230
1.0
  0
LINE
  5
26A
100
AcDbEntity
  8
0
370
    35
390
0
 62
     7
100
AcDbLine
 10
623.940613
 20
450.634827
 30
0.0
 11
623.940613
 21
420.634827
 31
0.0
210
0.0
220
0.0
230
1.0
  0
LINE
  5
26B
100
AcDbEntity
  8
0
370
    35
390
0
 62
     7
 48
0.07
100
AcDbLine
 10
626.740601
 20
420.634827
 30
0.0
 11
623.940613
 21
420.634827
 31
0.0
210
0.0
220
0.0
230
1.0
  0
LINE
  5
26C
100
AcDbEntity
  8
0
370
    35
390
0
 62
     7
100
AcDbLine
 10
626.740601
 20
420.634827
 30
0.0
 11
626.740601
 21
385.634827
 31
0.0
210
0.0
220
0.0
230
1.0
  0
LINE
  5
26D
100
AcDbEntity
  8
0
370
    35
390
0
 62
     7
 48
0.07
100
AcDbLine
 10
623.940613
 20
385.634827
 30
0.0
 11
626.740601
 21
385.634827
 31
0.0
210
0.0
220
0.0
230
1.0
  0
LINE
  5
26E
100
AcDbEntity
  8
0
370
    35
390
0
 62
     7
100
AcDbLine
 10
623.940613
 20
355.634827
 30
0.0
 11
623.940613
 21
385.634827
 31
0.0
210
0.0
220
0.0
230
1.0
  0
LINE
  5
26F
100
AcDbEntity
  8
0
370
    35
390
0
 62
     7
 48
0.07
100
AcDbLine
 10
629.740601
 20
355.634827
 30
0.0
 11
629.740601
 21
358.434814
 31
0.0
210
0.0
220
0.0
230
1.0
  0
LINE
  5
270
100
AcDbEntity
  8
0
370
    35
390
0
 62
     7
 48
0.15
100
AcDbLine
 10
629.740601
 20
358.434814
 30
0.0
 11
635.740601
 21
358.434814
 31
0.0
210
0.0
220
0.0
230
1.0
  0
LINE
  5
271
100
AcDbEntity
  8
0
370
    35
390
0
 62
     7
 48
0.07
100
AcDbLine
 10
635.740601
 20
355.634827
 30
0.0
 11
635.740601
 21
358.434814
 31
0.0
210
0.0
220
0.0
230
1.0
  0
LINE
  5
272
100
AcDbEntity
  8
0
370
    35
390
0
 62
     7
 48
0.075
100
AcDbLine
 10
638.740601
 20
355.634827
 30
0.0
 11
635.740601
 21
355.634827
 31
0.0
210
0.0
220
0.0
230
1.0
  0
LINE
  5
273
100
AcDbEntity
  8
0
370
    35
390
0
 62
     7
100
AcDbLine
 10
638.740601
 20
355.634827
 30
0.0
 11
638.740601
 21
515.634827
 31
0.0
210
0.0
220
0.0
230
1.0
  0
LINE
  5
274
100
AcDbEntity
  8
0
370
    35
390
0
 62
     7
 48
0.075
100
AcDbLine
 10
635.740601
 20
515.634827
 30
0.0
 11
638.740601
 21
515.634827
 31
0.0
210
0.0
220
0.0
230
1.0
  0
LINE
  5
275
100
AcDbEntity
  8
0
370
    35
390
0
 62
     7
 48
0.07
100
AcDbLine
 10
635.740601
 20
515.634827
 30
0.0
 11
635.740601
 21
512.834839
 31
0.0
210
0.0
220
0.0
230
1.0
  0
LINE
  5
276
100
AcDbEntity
  8
0
370
    35
390
0
 62
     7
 48
0.15
100
AcDbLine
 10
629.740601
 20
512.834839
 30
0.0
 11
635.740601
 21
512.834839
 31
0.0
210
0.0
220
0.0
230
1.0
  0
LINE
  5
277
100
AcDbEntity
  8
0
370
    35
390
0
 62
     7
 48
0.07
100
AcDbLine
 10
629.740601
 20
515.634827
 30
0.0
 11
629.740601
 21
512.834839
 31
0.0
210
0.0
220
0.0
230
1.0
  0
CIRCLE
  5
278
100
AcDbEntity
  8
0
370
    35
390
0
 62
     7
100
AcDbCircle
 10
632.740601
 20
505.634827
 30
0.0
 40
1.5
210
0.0
220
0.0
230
1.0
  0
CIRCLE
  5
279
100
AcDbEntity
  8
0
370
    35
390
0
 62
     7
100
AcDbCircle
 10
632.740601
 20
365.634827
 30
0.0
 40
1.5
210
0.0
220
0.0
230
1.0
  0
LINE
  5
27A
100
AcDbEntity
  8
0
370
    35
390
0
 62
     7
 48
0.15
100
AcDbLine
 10
629.740601
 20
485.634827
 30
0.0
 11
635.740601
 21
485.634827
 31
0.0
210
0.0
220
0.0
230
1.0
  0
LINE
  5
27B
100
AcDbEntity
  8
0
370
    35
390
0
 62
     7
 48
0.07
100
AcDbLine
 10
635.740601
 20
482.834839
 30
0.0
 11
635.740601
 21
485.634827
 31
0.0
210
0.0
220
0.0
230
1.0
  0
LINE
  5
27C
100
AcDbEntity
  8
0
370
    35
390
0
 62
     7
 48
0.15
100
AcDbLine
 10
635.740601
 20
482.834839
 30
0.0
 11
629.740601
 21
482.834839
 31
0.0
210
0.0
220
0.0
230
1.0
  0
LINE
  5
27D
100
AcDbEntity
  8
0
370
    35
390
0
 62
     7
 48
0.07
100
AcDbLine
 10
629.740601
 20
485.634827
 30
0.0
 11
629.740601
 21
482.834839
 31
0.0
210
0.0
220
0.0
230
1.0
  0
LINE
  5
27E
100
AcDbEntity
  8
0
370
    35
390
0
 62
     7
 48
0.07
100
AcDbLine
 10
629.740601
 20
453.434814
 30
0.0
 11
629.740601
 21
450.634827
 31
0.0
210
0.0
220
0.0
230
1.0
  0
LINE
  5
27F
100
AcDbEntity
  8
0
370
    35
390
0
 62
     7
 48
0.15
100
AcDbLine
 10
635.740601
 20
453.434814
 30
0.0
 11
629.740601
 21
453.434814
 31
0.0
210
0.0
220
0.0
230
1.0
  0
LINE
  5
280
100
AcDbEntity
  8
0
370
    35
390
0
 62
     7
 48
0.07
100
AcDbLine
 10
635.740601
 20
450.634827
 30
0.0
 11
635.740601
 21
453.434814
 31
0.0
210
0.0
220
0.0
230
1.0
  0
LINE
  5
281
100
AcDbEntity
  8
0
370
    35
390
0
 62
     7
 48
0.15
100
AcDbLine
 10
629.740601
 20
450.634827
 30
0.0
 11
635.740601
 21
450.634827
 31
0.0
210
0.0
220
0.0
230
1.0
  0
LINE
  5
282
100
AcDbEntity
  8
0
370
    35
390
0
 62
     7
 48
0.15
100
AcDbLine
 10
629.740601
 20
385.634827
 30
0.0
 11
635.740601
 21
385.634827
 31
0.0
210
0.0
220
0.0
230
1.0
  0
LINE
  5
283
100
AcDbEntity
  8
0
370
    35
390
0
 62
     7
 48
0.07
100
AcDbLine
 10
629.740601
 20
385.634827
 30
0.0
 11
629.740601
 21
388.434814
 31
0.0
210
0.0
220
0.0
230
1.0
  0
LINE
  5
284
100
AcDbEntity
  8
0
370
    35
390
0
 62
     7
 48
0.15
100
AcDbLine
 10
635.740601
 20
388.434814
 30
0.0
 11
629.740601
 21
388.434814
 31
0.0
210
0.0
220
0.0
230
1.0
  0
LINE
  5
285
100
AcDbEntity
  8
0
370
    35
390
0
 62
     7
 48
0.07
100
AcDbLine
 10
635.740601
 20
388.434814
 30
0.0
 11
635.740601
 21
385.634827
 31
0.0
210
0.0
220
0.0
230
1.0
  0
LINE
  5
286
100
AcDbEntity
  8
0
370
    35
390
0
 62
     7
 48
0.07
100
AcDbLine
 10
635.740601
 20
420.634827
 30
0.0
 11
635.740601
 21
417.834839
 31
0.0
210
0.0
220
0.0
230
1.0
  0
LINE
  5
287
100
AcDbEntity
  8
0
370
    35
390
0
 62
     7
 48
0.15
100
AcDbLine
 10
635.740601
 20
417.834839
 30
0.0
 11
629.740601
 21
417.834839
 31
0.0
210
0.0
220
0.0
230
1.0
  0
LINE
  5
288
100
AcDbEntity
  8
0
370
    35
390
0
 62
     7
 48
0.07
100
AcDbLine
 10
629.740601
 20
417.834839
 30
0.0
 11
629.740601
 21
420.634827
 31
0.0
210
0.0
220
0.0
230
1.0
  0
LINE
  5
289
100
AcDbEntity
  8
0
370
    35
390
0
 62
     7
 48
0.15
100
AcDbLine
 10
629.740601
 20
420.634827
 30
0.0
 11
635.740601
 21
420.634827
 31
0.0
210
0.0
220
0.0
230
1.0
  0
LINE
  5
28A
100
AcDbEntity
  8
0
370
    35
390
0
 62
     7
 48
0.07
100
AcDbLine
 10
626.740601
 20
515.634827
 30
0.0
 11
623.940613
 21
515.634827
 31
0.0
210
0.0
220
0.0
230
1.0
  0
LINE
  5
28B
100
AcDbEntity
  8
0
370
    35
390
0
 62
     7
 48
0.07
100
AcDbLine
 10
626.740601
 20
355.634827
 30
0.0
 11
623.940613
 21
355.634827
 31
0.0
210
0.0
220
0.0
230
1.0
  0
LINE
  5
28C
100
AcDbEntity
  8
0
370
    35
390
0
 62
     7
 48
0.075
100
AcDbLine
 10
629.740601
 20
355.634827
 30
0.0
 11
626.740601
 21
355.634827
 31
0.0
210
0.0
220
0.0
230
1.0
  0
LINE
  5
28D
100
AcDbEntity
  8
0
370
    35
390
0
 62
     7
 48
0.075
100
AcDbLine
 10
626.740601
 20
515.634827
 30
0.0
 11
629.740601
 21
515.634827
 31
0.0
210
0.0
220
0.0
230
1.0
  0
LINE
  5
28E
100
AcDbEntity
  8
0
370
    35
390
0
 62
     7
100
AcDbLine
 10
625.874817
 20
353.352478
 30
0.0
 11
625.874817
 21
193.352478
 31
0.0
210
0.0
220
0.0
230
1.0
  0
LINE
  5
28F
100
AcDbEntity
  8
0
370
    35
390
0
 62
     7
 48
0.3
100
AcDbLine
 10
637.874817
 20
193.352478
 30
0.0
 11
625.874817
 21
193.352478
 31
0.0
210
0.0
220
0.0
230
1.0
  0
LINE
  5
290
100
AcDbEntity
  8
0
370
    35
390
0
 62
     7
100
AcDbLine
 10
637.874817
 20
193.352478
 30
0.0
 11
637.874817
 21
353.352478
 31
0.0
210
0.0
220
0.0
230
1.0
  0
LINE
  5
291
100
AcDbEntity
  8
0
370
    35
390
0
 62
     7
 48
0.3
100
AcDbLine
 10
625.874817
 20
353.352478
 30
0.0
 11
637.874817
 21
353.352478
 31
0.0
210
0.0
220
0.0
230
1.0
  0
CIRCLE
  5
292
100
AcDbEntity
  8
0
370
    35
390
0
 62
     7
100
AcDbCircle
 10
631.874817
 20
343.352478
 30
0.0
 40
1.5
210
0.0
220
0.0
230
1.0
  0
CIRCLE
  5
293
100
AcDbEntity
  8
0
370
    35
390
0
 62
     7
100
AcDbCircle
 10
631.874817
 20
203.352478
 30
0.0
 40
1.5
210
0.0
220
0.0
230
1.0
  0
LINE
  5
294
100
AcDbEntity
  8
0
370
    35
390
0
 62
     7
100
AcDbLine
 10
509.009338
 20
256.862946
 30
0.0
 11
509.009338
 21
96.862946
 31
0.0
210
0.0
220
0.0
230
1.0
  0
LINE
  5
295
100
AcDbEntity
  8
0
370
    35
390
0
 62
     7
 48
0.3
100
AcDbLine
 10
521.009338
 20
96.862946
 30
0.0
 11
509.009338
 21
96.862946
 31
0.0
210
0.0
220
0.0
230
1.0
  0
LINE
  5
296
100
AcDbEntity
  8
0
370
    35
390
0
 62
     7
100
AcDbLine
 10
521.009338
 20
96.862946
 30
0.0
 11
521.009338
 21
256.862946
 31
0.0
210
0.0
220
0.0
230
1.0
  0
LINE
  5
297
100
AcDbEntity
  8
0
370
    35
390
0
 62
     7
 48
0.3
100
AcDbLine
 10
509.009338
 20
256.862946
 30
0.0
 11
521.009338
 21
256.862946
 31
0.0
210
0.0
220
0.0
230
1.0
  0
CIRCLE
  5
298
100
AcDbEntity
  8
0
370
    35
390
0
 62
     7
100
AcDbCircle
 10
515.009338
 20
246.862946
 30
0.0
 40
1.5
210
0.0
220
0.0
230
1.0
  0
CIRCLE
  5
299
100
AcDbEntity
  8
0
370
    35
390
0
 62
     7
100
AcDbCircle
 10
515.009338
 20
106.862946
 30
0.0
 40
1.5
210
0.0
220
0.0
230
1.0
  0
LINE
  5
29A
100
AcDbEntity
  8
0
370
    35
390
0
 62
     7
100
AcDbLine
 10
523.009338
 20
256.862946
 30
0.0
 11
523.009338
 21
96.862946
 31
0.0
210
0.0
220
0.0
230
1.0
  0
LINE
  5
29B
100
AcDbEntity
  8
0
370
    35
390
0
 62
     7
 48
0.3
100
AcDbLine
 10
535.009338
 20
96.862946
 30
0.0
 11
523.009338
 21
96.862946
 31
0.0
210
0.0
220
0.0
230
1.0
  0
LINE
  5
29C
100
AcDbEntity
  8
0
370
    35
390
0
 62
     7
100
AcDbLine
 10
535.009338
 20
96.862946
 30
0.0
 11
535.009338
 21
256.862946
 31
0.0
210
0.0
220
0.0
230
1.0
  0
LINE
  5
29D
100
AcDbEntity
  8
0
370
    35
390
0
 62
     7
 48
0.3
100
AcDbLine
 10
523.009338
 20
256.862946
 30
0.0
 11
535.009338
 21
256.862946
 31
0.0
210
0.0
220
0.0
230
1.0
  0
CIRCLE
  5
29E
100
AcDbEntity
  8
0
370
    35
390
0
 62
     7
100
AcDbCircle
 10
529.009338
 20
246.862946
 30
0.0
 40
1.5
210
0.0
220
0.0
230
1.0
  0
CIRCLE
  5
29F
100
AcDbEntity
  8
0
370
    35
390
0
 62
     7
100
AcDbCircle
 10
529.009338
 20
106.862946
 30
0.0
 40
1.5
210
0.0
220
0.0
230
1.0
  0
LINE
  5
2A0
100
AcDbEntity
  8
0
370
    35
390
0
 62
     7
100
AcDbLine
 10
504.371521
 20
514.674194
 30
0.0
 11
504.371521
 21
269.074219
 31
0.0
210
0.0
220
0.0
230
1.0
  0
LINE
  5
2A1
100
AcDbEntity
  8
0
370
    35
390
0
 62
     7
 48
0.325
100
AcDbLine
 10
504.371521
 20
269.074219
 30
0.0
 11
517.371521
 21
269.074219
 31
0.0
210
0.0
220
0.0
230
1.0
  0
LINE
  5
2A2
100
AcDbEntity
  8
0
370
    35
390
0
 62
     7
 48
0.07
100
AcDbLine
 10
517.371521
 20
269.074219
 30
0.0
 11
517.371521
 21
271.874207
 31
0.0
210
0.0
220
0.0
230
1.0
  0
LINE
  5
2A3
100
AcDbEntity
  8
0
370
    35
390
0
 62
     7
 48
0.25
100
AcDbLine
 10
517.371521
 20
271.874207
 30
0.0
 11
527.371521
 21
271.874207
 31
0.0
210
0.0
220
0.0
230
1.0
  0
LINE
  5
2A4
100
AcDbEntity
  8
0
370
    35
390
0
 62
     7
 48
0.07
100
AcDbLine
 10
527.371521
 20
271.874207
 30
0.0
 11
527.371521
 21
269.074219
 31
0.0
210
0.0
220
0.0
230
1.0
  0
LINE
  5
2A5
100
AcDbEntity
  8
0
370
    35
390
0
 62
     7
 48
0.175
100
AcDbLine
 10
527.371521
 20
269.074219
 30
0.0
 11
534.371521
 21
269.074219
 31
0.0
210
0.0
220
0.0
230
1.0
  0
LINE
  5
2A6
100
AcDbEntity
  8
0
370
    35
390
0
 62
     7
100
AcDbLine
 10
534.371521
 20
269.074219
 30
0.0
 11
534.371521
 21
331.874207
 31
0.0
210
0.0
220
0.0
230
1.0
  0
LINE
  5
2A7
100
AcDbEntity
  8
0
370
    35
390
0
 62
     7
 48
0.07
100
AcDbLine
 10
534.371521
 20
331.874207
 30
0.0
 11
531.571533
 21
331.874207
 31
0.0
210
0.0
220
0.0
230
1.0
  0
LINE
  5
2A8
100
AcDbEntity
  8
0
370
    35
390
0
 62
     7
100
AcDbLine
 10
531.571533
 20
451.874207
 30
0.0
 11
531.571533
 21
331.874207
 31
0.0
210
0.0
220
0.0
230
1.0
  0
LINE
  5
2A9
100
AcDbEntity
  8
0
370
    35
390
0
 62
     7
 48
0.07
100
AcDbLine
 10
534.371521
 20
451.874207
 30
0.0
 11
531.571533
 21
451.874207
 31
0.0
210
0.0
220
0.0
230
1.0
  0
LINE
  5
2AA
100
AcDbEntity
  8
0
370
    35
390
0
 62
     7
100
AcDbLine
 10
534.371521
 20
451.874207
 30
0.0
 11
534.371521
 21
514.674194
 31
0.0
210
0.0
220
0.0
230
1.0
  0
LINE
  5
2AB
100
AcDbEntity
  8
0
370
    35
390
0
 62
     7
 48
0.175
100
AcDbLine
 10
534.371521
 20
514.674194
 30
0.0
 11
527.371521
 21
514.674194
 31
0.0
210
0.0
220
0.0
230
1.0
  0
LINE
  5
2AC
100
AcDbEntity
  8
0
370
    35
390
0
 62
     7
 48
0.07
100
AcDbLine
 10
527.371521
 20
511.874207
 30
0.0
 11
527.371521
 21
514.674194
 31
0.0
210
0.0
220
0.0
230
1.0
  0
LINE
  5
2AD
100
AcDbEntity
  8
0
370
    35
390
0
 62
     7
 48
0.25
100
AcDbLine
 10
517.371521
 20
511.874207
 30
0.0
 11
527.371521
 21
511.874207
 31
0.0
210
0.0
220
0.0
230
1.0
  0
LINE
  5
2AE
100
AcDbEntity
  8
0
370
    35
390
0
 62
     7
 48
0.07
100
AcDbLine
 10
517.371521
 20
514.674194
 30
0.0
 11
517.371521
 21
511.874207
 31
0.0
210
0.0
220
0.0
230
1.0
  0
LINE
  5
2AF
100
AcDbEntity
  8
0
370
    35
390
0
 62
     7
 48
0.325
100
AcDbLine
 10
517.371521
 20
514.674194
 30
0.0
 11
504.371521
 21
514.674194
 31
0.0
210
0.0
220
0.0
230
1.0
  0
LINE
  5
2B0
100
AcDbEntity
  8
0
370
    35
390
0
 62
     7
 48
0.070001
100
AcDbLine
 10
517.771545
 20
471.874207
 30
0.0
 11
514.971497
 21
471.874207
 31
0.0
210
0.0
220
0.0
230
1.0
  0
LINE
  5
2B1
100
AcDbEntity
  8
0
370
    35
390
0
 62
     7
100
AcDbLine
 10
517.771545
 20
441.874207
 30
0.0
 11
517.771545
 21
471.874207
 31
0.0
210
0.0
220
0.0
230
1.0
  0
LINE
  5
2B2
100
AcDbEntity
  8
0
370
    35
390
0
 62
     7
 48
0.070001
100
AcDbLine
 10
517.771545
 20
441.874207
 30
0.0
 11
514.971497
 21
441.874207
 31
0.0
210
0.0
220
0.0
230
1.0
  0
LINE
  5
2B3
100
AcDbEntity
  8
0
370
    35
390
0
 62
     7
100
AcDbLine
 10
514.971497
 20
471.874207
 30
0.0
 11
514.971497
 21
441.874207
 31
0.0
210
0.0
220
0.0
230
1.0
  0
LINE
  5
2B4
100
AcDbEntity
  8
0
370
    35
390
0
 62
     7
100
AcDbLine
 10
514.971497
 20
341.874207
 30
0.0
 11
514.971497
 21
311.874207
 31
0.0
210
0.0
220
0.0
230
1.0
  0
LINE
  5
2B5
100
AcDbEntity
  8
0
370
    35
390
0
 62
     7
 48
0.070001
100
AcDbLine
 10
517.771545
 20
341.874207
 30
0.0
 11
514.971497
 21
341.874207
 31
0.0
210
0.0
220
0.0
230
1.0
  0
LINE
  5
2B6
100
AcDbEntity
  8
0
370
    35
390
0
 62
     7
100
AcDbLine
 10
517.771545
 20
311.874207
 30
0.0
 11
517.771545
 21
341.874207
 31
0.0
210
0.0
220
0.0
230
1.0
  0
LINE
  5
2B7
100
AcDbEntity
  8
0
370
    35
390
0
 62
     7
 48
0.070001
100
AcDbLine
 10
514.971497
 20
311.874207
 30
0.0
 11
517.771545
 21
311.874207
 31
0.0
210
0.0
220
0.0
230
1.0
  0
LINE
  5
2B8
100
AcDbEntity
  8
0
370
    35
390
0
 62
     7
100
AcDbLine
 10
517.771545
 20
376.874207
 30
0.0
 11
517.771545
 21
406.874207
 31
0.0
210
0.0
220
0.0
230
1.0
  0
LINE
  5
2B9
100
AcDbEntity
  8
0
370
    35
390
0
 62
     7
 48
0.070001
100
AcDbLine
 10
517.771545
 20
376.874207
 30
0.0
 11
514.971497
 21
376.874207
 31
0.0
210
0.0
220
0.0
230
1.0
  0
LINE
  5
2BA
100
AcDbEntity
  8
0
370
    35
390
0
 62
     7
100
AcDbLine
 10
514.971497
 20
406.874207
 30
0.0
 11
514.971497
 21
376.874207
 31
0.0
210
0.0
220
0.0
230
1.0
  0
LINE
  5
2BB
100
AcDbEntity
  8
0
370
    35
390
0
 62
     7
 48
0.070001
100
AcDbLine
 10
517.771545
 20
406.874207
 30
0.0
 11
514.971497
 21
406.874207
 31
0.0
210
0.0
220
0.0
230
1.0
  0
LINE
  5
2BC
100
AcDbEntity
  8
0
370
    35
390
0
 62
     7
 48
0.15
100
AcDbLine
 10
529.371521
 20
471.874207
 30
0.0
 11
523.371521
 21
471.874207
 31
0.0
210
0.0
220
0.0
230
1.0
  0
LINE
  5
2BD
100
AcDbEntity
  8
0
370
    35
390
0
 62
     7
 48
0.07
100
AcDbLine
 10
529.371521
 20
469.074219
 30
0.0
 11
529.371521
 21
471.874207
 31
0.0
210
0.0
220
0.0
230
1.0
  0
LINE
  5
2BE
100
AcDbEntity
  8
0
370
    35
390
0
 62
     7
 48
0.15
100
AcDbLine
 10
523.371521
 20
469.074219
 30
0.0
 11
529.371521
 21
469.074219
 31
0.0
210
0.0
220
0.0
230
1.0
  0
LINE
  5
2BF
100
AcDbEntity
  8
0
370
    35
390
0
 62
     7
 48
0.07
100
AcDbLine
 10
523.371521
 20
471.874207
 30
0.0
 11
523.371521
 21
469.074219
 31
0.0
210
0.0
220
0.0
230
1.0
  0
LINE
  5
2C0
100
AcDbEntity
  8
0
370
    35
390
0
 62
     7
 48
0.15
100
AcDbLine
 10
529.371521
 20
441.874207
 30
0.0
 11
523.371521
 21
441.874207
 31
0.0
210
0.0
220
0.0
230
1.0
  0
LINE
  5
2C1
100
AcDbEntity
  8
0
370
    35
390
0
 62
     7
 48
0.07
100
AcDbLine
 10
529.371521
 20
439.074219
 30
0.0
 11
529.371521
 21
441.874207
 31
0.0
210
0.0
220
0.0
230
1.0
  0
LINE
  5
2C2
100
AcDbEntity
  8
0
370
    35
390
0
 62
     7
 48
0.15
100
AcDbLine
 10
523.371521
 20
439.074219
 30
0.0
 11
529.371521
 21
439.074219
 31
0.0
210
0.0
220
0.0
230
1.0
  0
LINE
  5
2C3
100
AcDbEntity
  8
0
370
    35
390
0
 62
     7
 48
0.07
100
AcDbLine
 10
523.371521
 20
441.874207
 30
0.0
 11
523.371521
 21
439.074219
 31
0.0
210
0.0
220
0.0
230
1.0
  0
LINE
  5
2C4
100
AcDbEntity
  8
0
370
    35
390
0
 62
     7
 48
0.15
100
AcDbLine
 10
529.371521
 20
409.674194
 30
0.0
 11
523.371521
 21
409.674194
 31
0.0
210
0.0
220
0.0
230
1.0
  0
LINE
  5
2C5
100
AcDbEntity
  8
0
370
    35
390
0
 62
     7
 48
0.07
100
AcDbLine
 10
529.371521
 20
406.874207
 30
0.0
 11
529.371521
 21
409.674194
 31
0.0
210
0.0
220
0.0
230
1.0
  0
LINE
  5
2C6
100
AcDbEntity
  8
0
370
    35
390
0
 62
     7
 48
0.15
100
AcDbLine
 10
523.371521
 20
406.874207
 30
0.0
 11
529.371521
 21
406.874207
 31
0.0
210
0.0
220
0.0
230
1.0
  0
LINE
  5
2C7
100
AcDbEntity
  8
0
370
    35
390
0
 62
     7
 48
0.07
100
AcDbLine
 10
523.371521
 20
409.674194
 30
0.0
 11
523.371521
 21
406.874207
 31
0.0
210
0.0
220
0.0
230
1.0
  0
LINE
  5
2C8
100
AcDbEntity
  8
0
370
    35
390
0
 62
     7
 48
0.07
100
AcDbLine
 10
523.371521
 20
311.874207
 30
0.0
 11
523.371521
 21
314.674194
 31
0.0
210
0.0
220
0.0
230
1.0
  0
LINE
  5
2C9
100
AcDbEntity
  8
0
370
    35
390
0
 62
     7
 48
0.15
100
AcDbLine
 10
523.371521
 20
314.674194
 30
0.0
 11
529.371521
 21
314.674194
 31
0.0
210
0.0
220
0.0
230
1.0
  0
LINE
  5
2CA
100
AcDbEntity
  8
0
370
    35
390
0
 62
     7
 48
0.07
100
AcDbLine
 10
529.371521
 20
314.674194
 30
0.0
 11
529.371521
 21
311.874207
 31
0.0
210
0.0
220
0.0
230
1.0
  0
LINE
  5
2CB
100
AcDbEntity
  8
0
370
    35
390
0
 62
     7
 48
0.15
100
AcDbLine
 10
529.371521
 20
311.874207
 30
0.0
 11
523.371521
 21
311.874207
 31
0.0
210
0.0
220
0.0
230
1.0
  0
LINE
  5
2CC
100
AcDbEntity
  8
0
370
    35
390
0
 62
     7
 48
0.07
100
AcDbLine
 10
523.371521
 20
341.874207
 30
0.0
 11
523.371521
 21
344.674194
 31
0.0
210
0.0
220
0.0
230
1.0
  0
LINE
  5
2CD
100
AcDbEntity
  8
0
370
    35
390
0
 62
     7
 48
0.15
100
AcDbLine
 10
523.371521
 20
344.674194
 30
0.0
 11
529.371521
 21
344.674194
 31
0.0
210
0.0
220
0.0
230
1.0
  0
LINE
  5
2CE
100
AcDbEntity
  8
0
370
    35
390
0
 62
     7
 48
0.07
100
AcDbLine
 10
529.371521
 20
344.674194
 30
0.0
 11
529.371521
 21
341.874207
 31
0.0
210
0.0
220
0.0
230
1.0
  0
LINE
  5
2CF
100
AcDbEntity
  8
0
370
    35
390
0
 62
     7
 48
0.15
100
AcDbLine
 10
529.371521
 20
341.874207
 30
0.0
 11
523.371521
 21
341.874207
 31
0.0
210
0.0
220
0.0
230
1.0
  0
LINE
  5
2D0
100
AcDbEntity
  8
0
370
    35
390
0
 62
     7
 48
0.07
100
AcDbLine
 10
523.371521
 20
374.074219
 30
0.0
 11
523.371521
 21
376.874207
 31
0.0
210
0.0
220
0.0
230
1.0
  0
LINE
  5
2D1
100
AcDbEntity
  8
0
370
    35
390
0
 62
     7
 48
0.15
100
AcDbLine
 10
523.371521
 20
376.874207
 30
0.0
 11
529.371521
 21
376.874207
 31
0.0
210
0.0
220
0.0
230
1.0
  0
LINE
  5
2D2
100
AcDbEntity
  8
0
370
    35
390
0
 62
     7
 48
0.07
100
AcDbLine
 10
529.371521
 20
376.874207
 30
0.0
 11
529.371521
 21
374.074219
 31
0.0
210
0.0
220
0.0
230
1.0
  0
LINE
  5
2D3
100
AcDbEntity
  8
0
370
    35
390
0
 62
     7
 48
0.15
100
AcDbLine
 10
529.371521
 20
374.074219
 30
0.0
 11
523.371521
 21
374.074219
 31
0.0
210
0.0
220
0.0
230
1.0
  0
ENDSEC
  0
SECTION
  2
OBJECTS
  0
DICTIONARY
  5
19
100
AcDbDictionary
280
     0
281
     1
  3
ACAD_GROUP
350
1A
  3
ACAD_MLINESTYLE
350
1B
  3
ACAD_LAYOUT
350
1E
  3
ACAD_PLOTSETTINGS
350
22
  3
ACAD_PLOTSTYLENAME
350
1F
  3
ACAD_WIPEOUT_VARS
350
23
  0
DICTIONARY
  5
1A
102
{ACAD_REACTORS
330
19
102
}
100
AcDbDictionary
280
     0
281
     1
  0
DICTIONARY
  5
1B
102
{ACAD_REACTORS
330
19
102
}
100
AcDbDictionary
280
     0
281
     1
  3
Standard
350
1C
  0
MLINESTYLE
  5
1C
102
{ACAD_REACTORS
330
1B
102
}
100
AcDbMlineStyle
  2
Standard
 70
     0
  3

 62
     0
 51
90.0
 52
90.0
 71
     2
 49
0.5
 62
   256
  6
ByLayer
 49
-0.5
 62
   256
  6
ByLayer
  0
ACDBDICTIONARYWDFLT
  5
1F
102
{ACAD_REACTORS
330
19
102
}
100
AcDbDictionary
281
     1
  3
Normal
350
1D
100
AcDbDictionaryWithDefault
340
1D
  0
ACDBPLACEHOLDER
  5
1D
102
{ACAD_REACTORS
330
1F
102
}
  0
LAYOUT
  5
20
102
{ACAD_REACTORS
330
1E
102
}
100
AcDbPlotSettings
  1

  2

  4

  6

 40
0.0
 41
0.0
 42
0.0
 43
0.0
 44
0.0
 45
0.0
 46
0.0
 47
0.0
 48
0.0
 49
0.0
140
0.0
141
0.0
142
1.0
143
1.0
 70
  1024
 72
     0
 73
     0
 74
     0
  7

 75
     0
147
1.0
148
0.0
149
0.0
100
AcDbLayout
  1
Model
 70
     0
 71
     0
 10
0.0
 20
0.0
 11
0.0
 21
0.0
 12
0.0
 22
0.0
 32
0.0
 14
0.0
 24
0.0
 34
0.0
 15
0.0
 25
0.0
 35
0.0
146
0.0
 13
0.0
 23
0.0
 33
0.0
 16
0.0
 26
0.0
 36
0.0
 17
0.0
 27
0.0
 37
0.0
 76
     0
330
A
331
0
345
0
346
0
  0
LAYOUT
  5
21
102
{ACAD_REACTORS
330
1E
102
}
100
AcDbPlotSettings
  1

  2

  4

  6

 40
0.0
 41
0.0
 42
0.0
 43
0.0
 44
0.0
 45
0.0
 46
0.0
 47
0.0
 48
0.0
 49
0.0
140
0.0
141
0.0
142
1.0
143
1.0
 70
     0
 72
     0
 73
     0
 74
     0
  7

 75
     0
147
1.0
148
0.0
149
0.0
100
AcDbLayout
  1
Layout1
 70
     0
 71
     0
 10
0.0
 20
0.0
 11
0.0
 21
0.0
 12
0.0
 22
0.0
 32
0.0
 14
0.0
 24
0.0
 34
0.0
 15
0.0
 25
0.0
 35
0.0
146
0.0
 13
0.0
 23
0.0
 33
0.0
 16
0.0
 26
0.0
 36
0.0
 17
0.0
 27
0.0
 37
0.0
 76
     0
330
B
331
0
345
0
346
0
  0
DICTIONARY
  5
1E
102
{ACAD_REACTORS
330
19
102
}
100
AcDbDictionary
280
     0
281
     1
  3
Layout1
350
21
  3
Model
350
20
  0
DICTIONARY
  5
22
102
{ACAD_REACTORS
330
19
102
}
100
AcDbDictionary
280
     0
281
     1
  0
WIPEOUTVARIABLES
  5
23
100
AcDbWipeoutVariables
 70
     1
  0
ENDSEC
  0
EOF
